G04*
G04 #@! TF.GenerationSoftware,Altium Limited,Altium Designer,22.1.2 (22)*
G04*
G04 Layer_Color=255*
%FSLAX25Y25*%
%MOIN*%
G70*
G04*
G04 #@! TF.SameCoordinates,2E2365BE-A05A-434A-80F0-4BE633B458EC*
G04*
G04*
G04 #@! TF.FilePolarity,Positive*
G04*
G01*
G75*
%ADD10C,0.00787*%
%ADD11C,0.00500*%
%ADD12C,0.00394*%
%ADD14C,0.00197*%
%ADD65R,0.05394X0.05394*%
%ADD66C,0.05394*%
%ADD67R,0.05394X0.05394*%
%ADD68C,0.12795*%
%ADD69C,0.09744*%
%ADD70R,0.05819X0.05819*%
%ADD71C,0.05819*%
%ADD72R,0.06024X0.06024*%
%ADD73C,0.06024*%
%ADD74C,0.05898*%
%ADD75R,0.05898X0.05898*%
D10*
X629953Y348500D02*
G03*
X629953Y348500I-394J0D01*
G01*
X728433Y335610D02*
G03*
X728433Y335610I-394J0D01*
G01*
X332894Y234059D02*
G03*
X332894Y234059I-394J0D01*
G01*
X275335Y22500D02*
G03*
X275335Y22500I-394J0D01*
G01*
X298394Y306559D02*
G03*
X298394Y306559I-394J0D01*
G01*
X366453Y374000D02*
G03*
X366453Y374000I-394J0D01*
G01*
X331894Y248941D02*
G03*
X331894Y248941I-394J0D01*
G01*
X597335Y49000D02*
G03*
X597335Y49000I-394J0D01*
G01*
X275335Y47000D02*
G03*
X275335Y47000I-394J0D01*
G01*
X374835Y348500D02*
G03*
X374835Y348500I-394J0D01*
G01*
X374335Y373500D02*
G03*
X374335Y373500I-394J0D01*
G01*
X679312Y97303D02*
G03*
X679312Y97303I-394J0D01*
G01*
X552453Y374500D02*
G03*
X552453Y374500I-394J0D01*
G01*
X617425Y147153D02*
G03*
X617425Y147153I-394J0D01*
G01*
X562835Y372500D02*
G03*
X562835Y372500I-394J0D01*
G01*
X714663Y192967D02*
G03*
X714663Y192967I-557J0D01*
G01*
X286453Y349000D02*
G03*
X286453Y349000I-394J0D01*
G01*
X258268Y34000D02*
G03*
X258268Y34000I-394J0D01*
G01*
X590453Y50000D02*
G03*
X590453Y50000I-394J0D01*
G01*
X249394Y264441D02*
G03*
X249394Y264441I-394J0D01*
G01*
X475453Y49500D02*
G03*
X475453Y49500I-394J0D01*
G01*
X597835Y24000D02*
G03*
X597835Y24000I-394J0D01*
G01*
X612232Y179650D02*
G03*
X612232Y179650I-394J0D01*
G01*
X478835Y50000D02*
G03*
X478835Y50000I-394J0D01*
G01*
X666894Y153232D02*
G03*
X666894Y153232I-394J0D01*
G01*
X665894Y211732D02*
G03*
X665894Y211732I-394J0D01*
G01*
X591953Y24000D02*
G03*
X591953Y24000I-394J0D01*
G01*
X475453Y23500D02*
G03*
X475453Y23500I-394J0D01*
G01*
X250394Y74941D02*
G03*
X250394Y74941I-394J0D01*
G01*
X299835Y348500D02*
G03*
X299835Y348500I-394J0D01*
G01*
X250394Y131441D02*
G03*
X250394Y131441I-394J0D01*
G01*
X325020Y138500D02*
G03*
X325020Y138500I-394J0D01*
G01*
D11*
X723910Y170500D02*
G03*
X723910Y170500I-6909J0D01*
G01*
X615937Y215039D02*
X623811D01*
X615937Y219961D02*
X623811D01*
Y215039D02*
Y219961D01*
X615937Y215039D02*
Y219961D01*
X639732Y215150D02*
Y218850D01*
X646268Y215150D02*
Y218850D01*
X639732D02*
X646268D01*
X639732Y215150D02*
X646268D01*
X614732Y238150D02*
Y241850D01*
X621268Y238150D02*
Y241850D01*
X614732D02*
X621268D01*
X614732Y238150D02*
X621268D01*
X637232Y238650D02*
Y242350D01*
X643768Y238650D02*
Y242350D01*
X637232D02*
X643768D01*
X637232Y238650D02*
X643768D01*
X738965Y340532D02*
Y385610D01*
X691917D02*
X738965D01*
X691917Y340532D02*
Y385610D01*
Y340532D02*
X738965D01*
X639220Y109650D02*
X645756D01*
X639220Y113350D02*
X645756D01*
Y109650D02*
Y113350D01*
X639220Y109650D02*
Y113350D01*
X687206Y104980D02*
X750710D01*
Y19980D02*
Y104980D01*
X687206Y19980D02*
X750710D01*
X687206D02*
Y104980D01*
X636350Y259425D02*
Y262575D01*
X642650Y259425D02*
Y262575D01*
X636350D02*
X642650D01*
X636350Y259425D02*
X642650D01*
X616047Y150106D02*
Y154043D01*
X625890D01*
Y150106D02*
Y154043D01*
X616047Y150106D02*
X625890D01*
X635244Y276150D02*
X641780D01*
X635244Y279850D02*
X641780D01*
Y276150D02*
Y279850D01*
X635244Y276150D02*
Y279850D01*
X638744Y181150D02*
X645280D01*
X638744Y184850D02*
X645280D01*
Y181150D02*
Y184850D01*
X638744Y181150D02*
Y184850D01*
X638732Y162650D02*
X645268D01*
X638732Y166350D02*
X645268D01*
Y162650D02*
Y166350D01*
X638732Y162650D02*
Y166350D01*
X638850Y144425D02*
Y147575D01*
X645150Y144425D02*
Y147575D01*
X638850D02*
X645150D01*
X638850Y144425D02*
X645150D01*
X637898Y129425D02*
Y132575D01*
X644197Y129425D02*
Y132575D01*
X637898D02*
X644197D01*
X637898Y129425D02*
X644197D01*
X684500Y204424D02*
Y287416D01*
X744500D01*
Y204424D02*
Y287416D01*
X684500Y204424D02*
X744500D01*
X618189Y109539D02*
Y114461D01*
X626063Y109539D02*
Y114461D01*
X618189D02*
X626063D01*
X618189Y109539D02*
X626063D01*
X705209Y158709D02*
Y182291D01*
Y158709D02*
X728791D01*
Y182291D01*
X705209D02*
X728791D01*
X618189Y128539D02*
Y133461D01*
X626063Y128539D02*
Y133461D01*
X618189D02*
X626063D01*
X618189Y128539D02*
X626063D01*
X617744Y170594D02*
Y182405D01*
Y170594D02*
X623256D01*
Y182405D01*
X617744D02*
X623256D01*
X616303Y196925D02*
Y200075D01*
X622602Y196925D02*
Y200075D01*
X616303D02*
X622602D01*
X616303Y196925D02*
X622602D01*
X613063Y258039D02*
Y262961D01*
X620937Y258039D02*
Y262961D01*
X613063D02*
X620937D01*
X613063Y258039D02*
X620937D01*
X659453Y164098D02*
Y188902D01*
X673547D01*
Y164098D02*
Y188902D01*
X659453Y164098D02*
X673547D01*
X658453Y222598D02*
Y247402D01*
X672547D01*
Y222598D02*
Y247402D01*
X658453Y222598D02*
X672547D01*
X615063Y275539D02*
Y280461D01*
X622937Y275539D02*
Y280461D01*
X615063D02*
X622937D01*
X615063Y275539D02*
X622937D01*
X639350Y197925D02*
Y201075D01*
X645650Y197925D02*
Y201075D01*
X639350D02*
X645650D01*
X639350Y197925D02*
X645650D01*
X247232Y55650D02*
X253768D01*
X247232Y59350D02*
X253768D01*
Y55650D02*
Y59350D01*
X247232Y55650D02*
Y59350D01*
X633988Y263559D02*
X645012D01*
Y258441D02*
Y263559D01*
X633988Y258441D02*
Y263559D01*
Y258441D02*
X645012D01*
X636488Y148559D02*
X647512D01*
Y143441D02*
Y148559D01*
X636488Y143441D02*
Y148559D01*
Y143441D02*
X647512D01*
X635535Y133559D02*
X646559D01*
Y128441D02*
Y133559D01*
X635535Y128441D02*
Y133559D01*
Y128441D02*
X646559D01*
X613941Y201059D02*
X624965D01*
Y195941D02*
Y201059D01*
X613941Y195941D02*
Y201059D01*
Y195941D02*
X624965D01*
X636988Y202059D02*
X648012D01*
Y196941D02*
Y202059D01*
X636988Y196941D02*
Y202059D01*
Y196941D02*
X648012D01*
D12*
X627000Y343500D02*
Y353500D01*
X507000Y343500D02*
X627000D01*
X507000D02*
Y353500D01*
X627000D01*
X407960Y173884D02*
Y238850D01*
X394646Y173884D02*
Y238848D01*
X337400Y171500D02*
Y231500D01*
X327600D02*
X337400D01*
X327600Y171500D02*
Y231500D01*
Y171500D02*
X337400D01*
X277500Y27400D02*
X337500D01*
X277500Y17600D02*
Y27400D01*
Y17600D02*
X337500D01*
Y27400D01*
X293000Y124000D02*
Y304000D01*
Y124000D02*
X313000D01*
Y304000D01*
X293000D02*
X313000D01*
X243500Y379000D02*
X363500D01*
X243500Y369000D02*
Y379000D01*
Y369000D02*
X363500D01*
Y379000D01*
X326500Y251500D02*
X336500D01*
X326500D02*
Y291500D01*
X336500D01*
Y251500D02*
Y291500D01*
X659500Y44100D02*
Y53900D01*
X599500Y44100D02*
X659500D01*
X599500D02*
Y53900D01*
X659500D01*
X337500Y42100D02*
Y51900D01*
X277500Y42100D02*
X337500D01*
X277500D02*
Y51900D01*
X337500D01*
X377000Y343500D02*
Y353500D01*
X497000D01*
Y343500D02*
Y353500D01*
X377000Y343500D02*
X497000D01*
X376500Y368500D02*
Y378500D01*
X496500D01*
Y368500D02*
Y378500D01*
X376500Y368500D02*
X496500D01*
X549500Y369500D02*
Y379500D01*
X509500Y369500D02*
X549500D01*
X509500D02*
Y379500D01*
X549500D01*
X547460Y173227D02*
Y238192D01*
X534146Y173227D02*
Y238191D01*
X625000Y367600D02*
Y377400D01*
X565000Y367600D02*
X625000D01*
X565000D02*
Y377400D01*
X625000D01*
X283500Y344000D02*
Y354000D01*
X243500Y344000D02*
X283500D01*
X243500D02*
Y354000D01*
X283500D01*
X245000Y39000D02*
X255000D01*
Y19000D02*
Y39000D01*
X245000Y19000D02*
X255000D01*
X245000D02*
Y39000D01*
X587500Y45000D02*
Y55000D01*
X547500Y45000D02*
X587500D01*
X547500D02*
Y55000D01*
X587500D01*
X244100Y327000D02*
X253900D01*
Y267000D02*
Y327000D01*
X244100Y267000D02*
X253900D01*
X244100D02*
Y327000D01*
X472500Y44500D02*
Y54500D01*
X352500Y44500D02*
X472500D01*
X352500D02*
Y54500D01*
X472500D01*
X660000Y19100D02*
Y28900D01*
X600000Y19100D02*
X660000D01*
X600000D02*
Y28900D01*
X660000D01*
X541000Y45100D02*
Y54900D01*
X481000Y45100D02*
X541000D01*
X481000D02*
Y54900D01*
X541000D01*
X479000Y19000D02*
Y29000D01*
X589000D01*
Y19000D02*
Y29000D01*
X479000Y19000D02*
X589000D01*
X479000D02*
Y29000D01*
X589000D01*
Y19000D02*
Y29000D01*
X472500Y18500D02*
Y28500D01*
X352500Y18500D02*
X472500D01*
X352500D02*
Y28500D01*
X472500D01*
X245000Y77500D02*
X255000D01*
X245000D02*
Y117500D01*
X255000D01*
Y77500D02*
Y117500D01*
X362000Y343600D02*
Y353400D01*
X302000Y343600D02*
X362000D01*
X302000D02*
Y353400D01*
X362000D01*
X245000Y134000D02*
X255000D01*
X245000D02*
Y254000D01*
X255000D01*
Y134000D02*
Y254000D01*
X327500Y133500D02*
X337500D01*
X327500D02*
Y153500D01*
X337500D01*
Y133500D02*
Y153500D01*
D14*
X627984Y342516D02*
Y354484D01*
X506016Y342516D02*
X627984D01*
X506016D02*
Y354484D01*
X627984D01*
X612000Y220945D02*
X627748D01*
Y214055D02*
Y220945D01*
X612000Y214055D02*
X627748D01*
X612000D02*
Y220945D01*
X648685Y214087D02*
Y219913D01*
X637315Y214087D02*
Y219913D01*
X648685D01*
X637315Y214087D02*
X648685D01*
X623685Y237087D02*
Y242913D01*
X612315Y237087D02*
Y242913D01*
X623685D01*
X612315Y237087D02*
X623685D01*
X646185Y237587D02*
Y243413D01*
X634815Y237587D02*
Y243413D01*
X646185D01*
X634815Y237587D02*
X646185D01*
X689457Y388563D02*
X741622D01*
Y337579D02*
Y388563D01*
X689457Y337579D02*
X741622D01*
X689457D02*
Y388563D01*
X338384Y170516D02*
Y232484D01*
X326616D02*
X338384D01*
X326616Y170516D02*
Y232484D01*
Y170516D02*
X338384D01*
X276516Y28384D02*
X338484D01*
X276516Y16616D02*
Y28384D01*
Y16616D02*
X338484D01*
Y28384D01*
X292016Y123016D02*
Y304984D01*
Y123016D02*
X313984D01*
Y304984D01*
X292016D02*
X313984D01*
X242516Y379984D02*
X364484D01*
X242516Y368016D02*
Y379984D01*
Y368016D02*
X364484D01*
Y379984D01*
X325516Y250516D02*
X337484D01*
X325516D02*
Y292484D01*
X337484D01*
Y250516D02*
Y292484D01*
X660484Y43116D02*
Y54884D01*
X598516Y43116D02*
X660484D01*
X598516D02*
Y54884D01*
X660484D01*
X338484Y41116D02*
Y52884D01*
X276516Y41116D02*
X338484D01*
X276516D02*
Y52884D01*
X338484D01*
X636803Y108587D02*
X648173D01*
X636803Y114413D02*
X648173D01*
X636803Y108587D02*
Y114413D01*
X648173Y108587D02*
Y114413D01*
X376016Y342516D02*
Y354484D01*
X497984D01*
Y342516D02*
Y354484D01*
X376016Y342516D02*
X497984D01*
X375516Y367516D02*
Y379484D01*
X497484D01*
Y367516D02*
Y379484D01*
X375516Y367516D02*
X497484D01*
X682540Y105965D02*
X755375D01*
Y18996D02*
Y105965D01*
X682540Y18996D02*
X755375D01*
X682540D02*
Y105965D01*
X550484Y368516D02*
Y380484D01*
X508516Y368516D02*
X550484D01*
X508516D02*
Y380484D01*
X550484D01*
X615063Y148531D02*
Y155618D01*
X626874D01*
Y148531D02*
Y155618D01*
X615063Y148531D02*
X626874D01*
X632827Y275087D02*
X644197D01*
X632827Y280913D02*
X644197D01*
X632827Y275087D02*
Y280913D01*
X644197Y275087D02*
Y280913D01*
X636327Y180087D02*
X647697D01*
X636327Y185913D02*
X647697D01*
X636327Y180087D02*
Y185913D01*
X647697Y180087D02*
Y185913D01*
X636315Y161587D02*
X647685D01*
X636315Y167413D02*
X647685D01*
X636315Y161587D02*
Y167413D01*
X647685Y161587D02*
Y167413D01*
X625984Y366616D02*
Y378384D01*
X564016Y366616D02*
X625984D01*
X564016D02*
Y378384D01*
X625984D01*
X678516Y201629D02*
Y290212D01*
X703476D01*
Y295625D01*
X725524D01*
Y290212D02*
Y295625D01*
Y290212D02*
X750484D01*
Y201629D02*
Y290212D01*
X725524Y201629D02*
X750484D01*
X725524Y196215D02*
Y201629D01*
X703476Y196215D02*
X725524D01*
X703476D02*
Y201629D01*
X678516D02*
X703476D01*
X284484Y343016D02*
Y354984D01*
X242516Y343016D02*
X284484D01*
X242516D02*
Y354984D01*
X284484D01*
X255984Y18016D02*
Y39984D01*
X244016Y18016D02*
X255984D01*
X244016D02*
Y39984D01*
X255984D01*
X588484Y44016D02*
Y55984D01*
X546516Y44016D02*
X588484D01*
X546516D02*
Y55984D01*
X588484D01*
X243116Y327984D02*
X254884D01*
Y266016D02*
Y327984D01*
X243116Y266016D02*
X254884D01*
X243116D02*
Y327984D01*
X614252Y108555D02*
Y115445D01*
Y108555D02*
X630000D01*
Y115445D01*
X614252D02*
X630000D01*
X473484Y43516D02*
Y55484D01*
X351516Y43516D02*
X473484D01*
X351516D02*
Y55484D01*
X473484D01*
X700268Y157705D02*
Y183295D01*
Y157705D02*
X733732D01*
Y183295D01*
X700268D02*
X733732D01*
X660984Y18116D02*
Y29884D01*
X599016Y18116D02*
X660984D01*
X599016D02*
Y29884D01*
X660984D01*
X614252Y127555D02*
Y134445D01*
Y127555D02*
X630000D01*
Y134445D01*
X614252D02*
X630000D01*
X613177Y183390D02*
X627823D01*
Y169610D02*
Y183390D01*
X613177Y169610D02*
X627823D01*
X613177D02*
Y183390D01*
X541984Y44116D02*
Y55884D01*
X480016Y44116D02*
X541984D01*
X480016D02*
Y55884D01*
X541984D01*
X609126Y257055D02*
Y263945D01*
Y257055D02*
X624874D01*
Y263945D01*
X609126D02*
X624874D01*
X658469Y155043D02*
Y197957D01*
X674532D01*
Y155043D02*
Y197957D01*
X658469Y155043D02*
X674532D01*
X657469Y213543D02*
Y256457D01*
X673532D01*
Y213543D02*
Y256457D01*
X657469Y213543D02*
X673532D01*
X478016Y18016D02*
Y29984D01*
X589984D01*
Y18016D02*
Y29984D01*
X478016Y18016D02*
X589984D01*
X611126Y274555D02*
Y281445D01*
Y274555D02*
X626874D01*
Y281445D01*
X611126D02*
X626874D01*
X473484Y17516D02*
Y29484D01*
X351516Y17516D02*
X473484D01*
X351516D02*
Y29484D01*
X473484D01*
X244016Y76516D02*
X255984D01*
X244016D02*
Y118484D01*
X255984D01*
Y76516D02*
Y118484D01*
X244815Y54587D02*
X256185D01*
X244815Y60413D02*
X256185D01*
X244815Y54587D02*
Y60413D01*
X256185Y54587D02*
Y60413D01*
X362984Y342616D02*
Y354384D01*
X301016Y342616D02*
X362984D01*
X301016D02*
Y354384D01*
X362984D01*
X244016Y133016D02*
X255984D01*
X244016D02*
Y254984D01*
X255984D01*
Y133016D02*
Y254984D01*
X326516Y132516D02*
Y154484D01*
X338484D01*
Y132516D02*
Y154484D01*
X326516Y132516D02*
X338484D01*
D65*
X622000Y348500D02*
D03*
X282500Y22500D02*
D03*
X358500Y374000D02*
D03*
X604500Y49000D02*
D03*
X282500Y47000D02*
D03*
X382000Y348500D02*
D03*
X381500Y373500D02*
D03*
X544500Y374500D02*
D03*
X570000Y372500D02*
D03*
X278500Y349000D02*
D03*
X582500Y50000D02*
D03*
X467500Y49500D02*
D03*
X605000Y24000D02*
D03*
X486000Y50000D02*
D03*
X584000Y24000D02*
D03*
X467500Y23500D02*
D03*
X307000Y348500D02*
D03*
D66*
X612000D02*
D03*
X602000D02*
D03*
X592000D02*
D03*
X582000D02*
D03*
X572000D02*
D03*
X562000D02*
D03*
X552000D02*
D03*
X542000D02*
D03*
X532000D02*
D03*
X522000D02*
D03*
X512000D02*
D03*
X332500Y176500D02*
D03*
Y186500D02*
D03*
Y196500D02*
D03*
Y206500D02*
D03*
Y216500D02*
D03*
Y22500D02*
D03*
X322500D02*
D03*
X312500D02*
D03*
X302500D02*
D03*
X292500D02*
D03*
X308000Y129000D02*
D03*
X298000D02*
D03*
X308000Y139000D02*
D03*
X298000D02*
D03*
X308000Y149000D02*
D03*
X298000D02*
D03*
X308000Y159000D02*
D03*
X298000D02*
D03*
X308000Y169000D02*
D03*
X298000D02*
D03*
X308000Y179000D02*
D03*
X298000D02*
D03*
X308000Y189000D02*
D03*
X298000D02*
D03*
X308000Y199000D02*
D03*
X298000D02*
D03*
X308000Y209000D02*
D03*
X298000D02*
D03*
X308000Y219000D02*
D03*
X298000D02*
D03*
X308000Y229000D02*
D03*
X298000D02*
D03*
X308000Y239000D02*
D03*
X298000D02*
D03*
X308000Y249000D02*
D03*
X298000D02*
D03*
X308000Y259000D02*
D03*
X298000D02*
D03*
X308000Y269000D02*
D03*
X298000D02*
D03*
X308000Y279000D02*
D03*
X298000D02*
D03*
X308000Y289000D02*
D03*
X298000D02*
D03*
X308000Y299000D02*
D03*
X248500Y374000D02*
D03*
X258500D02*
D03*
X268500D02*
D03*
X278500D02*
D03*
X288500D02*
D03*
X298500D02*
D03*
X308500D02*
D03*
X318500D02*
D03*
X328500D02*
D03*
X338500D02*
D03*
X348500D02*
D03*
X331500Y266500D02*
D03*
Y276500D02*
D03*
Y286500D02*
D03*
X614500Y49000D02*
D03*
X624500D02*
D03*
X634500D02*
D03*
X644500D02*
D03*
X654500D02*
D03*
X292500Y47000D02*
D03*
X302500D02*
D03*
X312500D02*
D03*
X322500D02*
D03*
X332500D02*
D03*
X392000Y348500D02*
D03*
X402000D02*
D03*
X412000D02*
D03*
X422000D02*
D03*
X432000D02*
D03*
X442000D02*
D03*
X452000D02*
D03*
X462000D02*
D03*
X472000D02*
D03*
X482000D02*
D03*
X492000D02*
D03*
X391500Y373500D02*
D03*
X401500D02*
D03*
X411500D02*
D03*
X421500D02*
D03*
X431500D02*
D03*
X441500D02*
D03*
X451500D02*
D03*
X461500D02*
D03*
X471500D02*
D03*
X481500D02*
D03*
X491500D02*
D03*
X534500Y374500D02*
D03*
X524500D02*
D03*
X514500D02*
D03*
X580000Y372500D02*
D03*
X590000D02*
D03*
X600000D02*
D03*
X610000D02*
D03*
X620000D02*
D03*
X268500Y349000D02*
D03*
X258500D02*
D03*
X248500D02*
D03*
X572500Y50000D02*
D03*
X562500D02*
D03*
X552500D02*
D03*
X249000Y282000D02*
D03*
Y292000D02*
D03*
Y302000D02*
D03*
Y312000D02*
D03*
Y322000D02*
D03*
X457500Y49500D02*
D03*
X447500D02*
D03*
X437500D02*
D03*
X427500D02*
D03*
X417500D02*
D03*
X407500D02*
D03*
X397500D02*
D03*
X387500D02*
D03*
X377500D02*
D03*
X367500D02*
D03*
X357500D02*
D03*
X615000Y24000D02*
D03*
X625000D02*
D03*
X635000D02*
D03*
X645000D02*
D03*
X655000D02*
D03*
X496000Y50000D02*
D03*
X506000D02*
D03*
X516000D02*
D03*
X526000D02*
D03*
X536000D02*
D03*
X574000Y24000D02*
D03*
X564000D02*
D03*
X554000D02*
D03*
X544000D02*
D03*
X534000D02*
D03*
X524000D02*
D03*
X514000D02*
D03*
X504000D02*
D03*
X494000D02*
D03*
X484000D02*
D03*
X457500Y23500D02*
D03*
X447500D02*
D03*
X437500D02*
D03*
X427500D02*
D03*
X417500D02*
D03*
X407500D02*
D03*
X397500D02*
D03*
X387500D02*
D03*
X377500D02*
D03*
X367500D02*
D03*
X357500D02*
D03*
X250000Y92500D02*
D03*
Y102500D02*
D03*
Y112500D02*
D03*
X317000Y348500D02*
D03*
X327000D02*
D03*
X337000D02*
D03*
X347000D02*
D03*
X357000D02*
D03*
X250000Y149000D02*
D03*
Y159000D02*
D03*
Y169000D02*
D03*
Y179000D02*
D03*
Y189000D02*
D03*
Y199000D02*
D03*
Y209000D02*
D03*
Y219000D02*
D03*
Y229000D02*
D03*
Y239000D02*
D03*
Y249000D02*
D03*
D67*
X332500Y226500D02*
D03*
X298000Y299000D02*
D03*
X331500Y256500D02*
D03*
X249000Y272000D02*
D03*
X250000Y82500D02*
D03*
Y139000D02*
D03*
D68*
X741458Y62500D02*
D03*
X696458D02*
D03*
D69*
X688466Y74508D02*
D03*
X749450D02*
D03*
D70*
X696458Y97500D02*
D03*
D71*
X706458D02*
D03*
X716458D02*
D03*
X726458D02*
D03*
X701458Y87500D02*
D03*
X711458D02*
D03*
X721458D02*
D03*
X731458D02*
D03*
X736458Y97500D02*
D03*
X741458Y87500D02*
D03*
D72*
X250000Y34000D02*
D03*
X332500Y138500D02*
D03*
D73*
X250000Y24000D02*
D03*
X332500Y148500D02*
D03*
D74*
X704205Y161642D02*
D03*
X729795D02*
D03*
Y179358D02*
D03*
D75*
X704205D02*
D03*
M02*
