M48
;Layer_Color=9474304
;FILE_FORMAT=2:5
INCH,LZ
;TYPE=PLATED
T1F00S00C0.00500
T2F00S00C0.02800
T3F00S00C0.03819
T4F00S00C0.03898
T5F00S00C0.04016
T6F00S00C0.06496
T7F00S00C0.10000
;TYPE=NON_PLATED
T8F00S00C0.12795
%
T01
X0261Y00575
X0394061Y0075439
Y0076939
X0403Y01
Y01015
X04065Y01305
X0406939Y0133561
X06088Y01397
X0623Y01405
X0619Y0149
X06105Y0155
X06248Y01267
X0644Y0126
X0651998Y0132502
X06485Y01515
X066Y01095
X063Y01015
X06305Y01705
X0627Y0168
X06275Y0199
X0635Y02015
X06355Y0217
X0653Y02175
X06495Y02405
X06325
X0625Y0239
X06655Y02004
X06965Y02025
X06165Y02215
X06155Y0244
X0612374Y02506
X055Y02285
Y0226
X0550189Y0223811
X05515Y0211071
X0554Y02095
X05555Y0208
X0554Y0205
X0553907Y0202907
X0551346Y0203346
X0551272Y0200272
X05515Y0196
X0551Y01905
X0551061Y0185939
X0551Y0184087
Y018
Y0178
X0554Y01755
X0554686Y0173936
X0554Y0181
Y01825
X053Y0183
X0531Y0186
X0530748Y0190748
X05265Y01965
Y0199
X0526447Y0200947
X0526474Y0203042
X05265Y0205
X0528Y02065
Y02095
X05285Y02125
X05305Y02145
X0532Y0216
X0531342Y0211146
X0531Y0208
X0531183Y0220744
X0531244Y0223744
X05295Y02245
X0529761Y0222559
X0529061Y0219561
X0527105Y0217274
X05295Y0228
Y023
X05315Y0229
X05295Y02345
X0559689Y0217311
X0561Y02075
X05515Y02065
X0531Y01765
X05145Y0184
X0621939Y0165939
X0619Y016
X0397Y01595
Y0161
X0410382Y0180382
X0411295Y0199205
X0413811Y0198811
X0415656Y0196399
X0418Y01945
X042Y0193
X04185Y02005
X0417Y02025
X04155Y0204
X0413Y0205504
X0411Y0207228
Y0210228
X04125Y0211953
X04145Y02135
X04165Y0215
X04125Y0216528
X0410925Y0218177
X0411Y02215
X04185Y022
Y02295
X0425Y02085
X03915Y0207
X039Y02055
X03885Y0204
X03845Y02025
Y0209
X0389Y02115
X0390728Y0210228
X03875Y02135
X0386Y0215
X0388028Y0216528
X03895Y02185
X03915Y022
X03845Y02295
X03865Y02325
X03885Y0234
X039Y02355
X03915Y0237
X0392Y01995
X039063Y019763
X0389055Y0196055
X0388Y01945
X03845Y0193
X03745Y0186
X0375Y0201
X0356Y0173
Y01715
X0386Y0337
X0378Y0360694
X0345Y0387
X0733Y0389
T02
X063525Y029425
X0709775Y0350775
X07195Y0351
X07265
T03
X0701458Y00875
X0711458
X0721458
X0731458
X0741458
X0736458Y00975
X0726458
X0716458
X0706458
X0696458
T04
X0704205Y0161642
Y0179358
X0729795
Y0161642
T05
X025Y0024
Y0034
X02825Y00225
X02925
X03025
Y0047
X02925
X02825
X025Y00825
Y00925
Y01025
Y01125
Y0139
Y0149
X0298
Y0139
Y0129
X0308
Y0139
Y0149
X03325Y01485
Y01385
Y0047
X03225
X03125
Y00225
X03225
X03325
X03575Y00235
X03675
X03775
X03875
X03975
X04075
X04175
X04275
X04375
X04475
X04575
X04675
Y00495
X04575
X04475
X04375
X04275
X04175
X04075
X03975
X03875
X03775
X03675
X03575
X0486Y005
X0496
X0506
X0516
X0526
X0536
X05525
X05625
X05725
X05825
X06045Y0049
X06145
X06245
X0615Y0024
X0605
X0584
X0574
X0564
X0554
X0544
X0534
X0524
X0514
X0504
X0494
X0484
X0625
X0635
X0645
X0655
X06545Y0049
X06445
X06345
X03325Y01765
Y01865
Y01965
Y02065
Y02165
Y02265
X03315Y02565
Y02665
Y02765
Y02865
X0308Y0289
Y0279
Y0269
Y0259
Y0249
Y0239
Y0229
Y0219
Y0209
Y0199
Y0189
Y0179
Y0169
Y0159
X0298
Y0169
Y0179
Y0189
Y0199
Y0209
Y0219
Y0229
Y0239
Y0249
Y0259
Y0269
Y0279
Y0289
Y0299
X0308
X0249Y0302
Y0292
Y0282
Y0272
X025Y0249
Y0239
Y0229
Y0219
Y0209
Y0199
Y0189
Y0179
Y0169
Y0159
X0249Y0312
Y0322
X02485Y0349
X02585
X02685
X02785
Y0374
X02685
X02585
X02485
X02885
X02985
X03085
X0307Y03485
X0317
X0327
X0337
X0347
X0357
X0382
X0392
X0402
X0412
X0422
X0432
X0442
X0452
X0462
X04615Y03735
X04515
X04415
X04315
X04215
X04115
X04015
X03915
X03815
X03585Y0374
X03485
X03385
X03285
X03185
X04715Y03735
X04815
X04915
X05145Y03745
X05245
X05345
X05445
X057Y03725
X058
X059
X06
X061
X062
X0622Y03485
X0612
X0602
X0592
X0582
X0572
X0562
X0552
X0542
X0532
X0522
X0512
X0492
X0482
X0472
T06
X0688466Y0074508
X074945
T07
X0235Y00095
X0757Y00105
X0235Y03915
X07575Y0391
T08
X0696458Y00625
X0741458
M30
