G04*
G04 #@! TF.GenerationSoftware,Altium Limited,Altium Designer,22.1.2 (22)*
G04*
G04 Layer_Color=65535*
%FSLAX25Y25*%
%MOIN*%
G70*
G04*
G04 #@! TF.SameCoordinates,2E2365BE-A05A-434A-80F0-4BE633B458EC*
G04*
G04*
G04 #@! TF.FilePolarity,Positive*
G04*
G01*
G75*
%ADD10C,0.00787*%
%ADD11C,0.00500*%
%ADD12C,0.00394*%
%ADD13C,0.01000*%
%ADD14C,0.00197*%
G36*
X706603Y16828D02*
X706918Y16791D01*
X707196Y16717D01*
X707455Y16643D01*
X707677Y16532D01*
X707881Y16421D01*
X708047Y16310D01*
X708214Y16180D01*
X708343Y16050D01*
X708436Y15939D01*
X708529Y15828D01*
X708603Y15717D01*
X708658Y15643D01*
X708695Y15569D01*
X708714Y15532D01*
Y15514D01*
X708806Y15255D01*
X708843Y14958D01*
X708880Y14644D01*
Y14329D01*
X708862Y13996D01*
X708825Y13663D01*
X708732Y13015D01*
X708677Y12719D01*
X708603Y12422D01*
X708547Y12182D01*
X708473Y11960D01*
X708417Y11775D01*
X708380Y11627D01*
X708362Y11552D01*
X708343Y11515D01*
X708177Y11034D01*
X707992Y10590D01*
X707788Y10164D01*
X707603Y9776D01*
X707399Y9424D01*
X707196Y9091D01*
X707011Y8794D01*
X706826Y8535D01*
X706659Y8295D01*
X706492Y8091D01*
X706363Y7925D01*
X706233Y7795D01*
X706141Y7684D01*
X706048Y7591D01*
X706011Y7554D01*
X705993Y7536D01*
X705715Y7314D01*
X705437Y7110D01*
X705160Y6925D01*
X704864Y6777D01*
X704586Y6647D01*
X704308Y6536D01*
X704031Y6462D01*
X703790Y6388D01*
X703549Y6333D01*
X703327Y6296D01*
X703142Y6259D01*
X702957Y6240D01*
X702827Y6222D01*
X702642D01*
X702291Y6240D01*
X701976Y6277D01*
X701698Y6351D01*
X701439Y6425D01*
X701217Y6518D01*
X701013Y6629D01*
X700847Y6758D01*
X700699Y6888D01*
X700569Y6999D01*
X700458Y7129D01*
X700366Y7240D01*
X700291Y7332D01*
X700236Y7406D01*
X700199Y7480D01*
X700180Y7517D01*
Y7536D01*
X700088Y7795D01*
X700051Y8091D01*
X700014Y8406D01*
Y8721D01*
X700032Y9054D01*
X700069Y9387D01*
X700162Y10035D01*
X700236Y10331D01*
X700291Y10609D01*
X700366Y10868D01*
X700421Y11090D01*
X700477Y11256D01*
X700514Y11405D01*
X700532Y11479D01*
X700551Y11515D01*
X700736Y11997D01*
X700921Y12460D01*
X701106Y12867D01*
X701291Y13274D01*
X701495Y13626D01*
X701680Y13959D01*
X701883Y14255D01*
X702050Y14514D01*
X702235Y14755D01*
X702383Y14958D01*
X702531Y15125D01*
X702642Y15273D01*
X702753Y15366D01*
X702827Y15458D01*
X702864Y15495D01*
X702883Y15514D01*
X703161Y15754D01*
X703438Y15958D01*
X703734Y16125D01*
X704012Y16291D01*
X704308Y16421D01*
X704586Y16513D01*
X704845Y16606D01*
X705104Y16680D01*
X705345Y16735D01*
X705567Y16772D01*
X705770Y16809D01*
X705937Y16828D01*
X706067Y16846D01*
X706252D01*
X706603Y16828D01*
D02*
G37*
G36*
X550768D02*
X551082Y16791D01*
X551360Y16717D01*
X551619Y16643D01*
X551841Y16532D01*
X552045Y16421D01*
X552212Y16310D01*
X552378Y16180D01*
X552508Y16050D01*
X552600Y15939D01*
X552693Y15828D01*
X552767Y15717D01*
X552822Y15643D01*
X552859Y15569D01*
X552878Y15532D01*
Y15514D01*
X552970Y15255D01*
X553008Y14958D01*
X553045Y14644D01*
Y14329D01*
X553026Y13996D01*
X552989Y13663D01*
X552896Y13015D01*
X552841Y12719D01*
X552767Y12422D01*
X552711Y12182D01*
X552637Y11960D01*
X552582Y11775D01*
X552545Y11627D01*
X552526Y11552D01*
X552508Y11515D01*
X552341Y11034D01*
X552156Y10590D01*
X551952Y10164D01*
X551767Y9776D01*
X551564Y9424D01*
X551360Y9091D01*
X551175Y8794D01*
X550990Y8535D01*
X550823Y8295D01*
X550657Y8091D01*
X550527Y7925D01*
X550398Y7795D01*
X550305Y7684D01*
X550212Y7591D01*
X550175Y7554D01*
X550157Y7536D01*
X549879Y7314D01*
X549602Y7110D01*
X549324Y6925D01*
X549028Y6777D01*
X548750Y6647D01*
X548472Y6536D01*
X548195Y6462D01*
X547954Y6388D01*
X547714Y6333D01*
X547492Y6296D01*
X547306Y6259D01*
X547121Y6240D01*
X546992Y6222D01*
X546807D01*
X546455Y6240D01*
X546140Y6277D01*
X545863Y6351D01*
X545604Y6425D01*
X545381Y6518D01*
X545178Y6629D01*
X545011Y6758D01*
X544863Y6888D01*
X544733Y6999D01*
X544622Y7129D01*
X544530Y7240D01*
X544456Y7332D01*
X544400Y7406D01*
X544363Y7480D01*
X544345Y7517D01*
Y7536D01*
X544252Y7795D01*
X544215Y8091D01*
X544178Y8406D01*
Y8721D01*
X544197Y9054D01*
X544234Y9387D01*
X544326Y10035D01*
X544400Y10331D01*
X544456Y10609D01*
X544530Y10868D01*
X544585Y11090D01*
X544641Y11256D01*
X544678Y11405D01*
X544697Y11479D01*
X544715Y11515D01*
X544900Y11997D01*
X545085Y12460D01*
X545270Y12867D01*
X545455Y13274D01*
X545659Y13626D01*
X545844Y13959D01*
X546048Y14255D01*
X546214Y14514D01*
X546399Y14755D01*
X546548Y14958D01*
X546696Y15125D01*
X546807Y15273D01*
X546918Y15366D01*
X546992Y15458D01*
X547029Y15495D01*
X547047Y15514D01*
X547325Y15754D01*
X547603Y15958D01*
X547899Y16125D01*
X548176Y16291D01*
X548472Y16421D01*
X548750Y16513D01*
X549009Y16606D01*
X549268Y16680D01*
X549509Y16735D01*
X549731Y16772D01*
X549935Y16809D01*
X550101Y16828D01*
X550231Y16846D01*
X550416D01*
X550768Y16828D01*
D02*
G37*
G36*
X738996Y17846D02*
X727723D01*
X727131Y16089D01*
X726631Y14607D01*
X728001D01*
X728649Y16532D01*
X731907D01*
X728482Y6444D01*
X726909D01*
X726502Y5241D01*
X731666D01*
X732073Y6444D01*
X730500D01*
X733924Y16532D01*
X737182D01*
X736534Y14607D01*
X737904D01*
X738996Y17846D01*
Y5241D01*
Y5000D01*
X716284D01*
X716765Y5018D01*
X717228Y5055D01*
X717654Y5111D01*
X718061Y5185D01*
X718431Y5278D01*
X718783Y5389D01*
X719098Y5481D01*
X719394Y5611D01*
X719634Y5722D01*
X719857Y5814D01*
X720042Y5926D01*
X720208Y6018D01*
X720319Y6092D01*
X720412Y6148D01*
X720467Y6185D01*
X720486Y6203D01*
X720764Y6444D01*
X721041Y6721D01*
X721300Y7018D01*
X721541Y7351D01*
X721967Y8017D01*
X722337Y8683D01*
X722485Y9017D01*
X722615Y9313D01*
X722726Y9572D01*
X722837Y9813D01*
X722911Y9998D01*
X722966Y10146D01*
X722985Y10238D01*
X723003Y10275D01*
X725169Y16624D01*
X726724D01*
X727131Y17846D01*
X722633D01*
X722226Y16624D01*
X723799D01*
X721689Y10442D01*
X721541Y10035D01*
X721393Y9646D01*
X721226Y9294D01*
X721078Y8980D01*
X720930Y8683D01*
X720782Y8424D01*
X720634Y8202D01*
X720505Y7999D01*
X720375Y7832D01*
X720264Y7665D01*
X720153Y7554D01*
X720060Y7443D01*
X719986Y7369D01*
X719931Y7314D01*
X719912Y7295D01*
X719894Y7277D01*
X719690Y7129D01*
X719486Y6999D01*
X719024Y6777D01*
X718542Y6629D01*
X718098Y6518D01*
X717876Y6481D01*
X717691Y6462D01*
X717506Y6425D01*
X717358D01*
X717228Y6407D01*
X717062D01*
X716747Y6425D01*
X716451Y6444D01*
X716192Y6481D01*
X715970Y6536D01*
X715766Y6610D01*
X715581Y6684D01*
X715433Y6758D01*
X715303Y6851D01*
X715174Y6925D01*
X715081Y6999D01*
X714952Y7147D01*
X714877Y7240D01*
X714859Y7277D01*
X714785Y7462D01*
X714748Y7665D01*
X714729Y7888D01*
Y8147D01*
X714785Y8665D01*
X714877Y9183D01*
X714933Y9442D01*
X714989Y9664D01*
X715044Y9887D01*
X715099Y10072D01*
X715137Y10220D01*
X715174Y10349D01*
X715211Y10423D01*
Y10442D01*
X717321Y16624D01*
X718894D01*
X719301Y17846D01*
X714137D01*
X713730Y16624D01*
X715303D01*
X713137Y10275D01*
X712971Y9757D01*
X712860Y9276D01*
X712767Y8850D01*
X712693Y8443D01*
X712656Y8073D01*
X712638Y7739D01*
Y7443D01*
X712656Y7166D01*
X712693Y6944D01*
X712712Y6740D01*
X712767Y6573D01*
X712804Y6444D01*
X712841Y6333D01*
X712860Y6259D01*
X712897Y6222D01*
Y6203D01*
X713063Y5999D01*
X713248Y5814D01*
X713489Y5648D01*
X713748Y5500D01*
X714007Y5389D01*
X714304Y5296D01*
X714877Y5148D01*
X715155Y5093D01*
X715414Y5055D01*
X715655Y5037D01*
X715858Y5018D01*
X716044Y5000D01*
X702217D01*
X702698Y5018D01*
X703161Y5055D01*
X703586Y5130D01*
X703957Y5204D01*
X704271Y5278D01*
X704401Y5315D01*
X704512Y5352D01*
X704604Y5370D01*
X704660Y5389D01*
X704697Y5407D01*
X704715D01*
X705160Y5592D01*
X705604Y5777D01*
X705993Y5999D01*
X706344Y6203D01*
X706640Y6388D01*
X706751Y6462D01*
X706863Y6536D01*
X706937Y6592D01*
X706992Y6629D01*
X707029Y6666D01*
X707048D01*
X707510Y7018D01*
X707918Y7388D01*
X708288Y7758D01*
X708603Y8091D01*
X708862Y8387D01*
X708954Y8498D01*
X709047Y8609D01*
X709102Y8702D01*
X709158Y8758D01*
X709176Y8794D01*
X709195Y8813D01*
X709510Y9276D01*
X709787Y9757D01*
X710028Y10201D01*
X710231Y10627D01*
X710306Y10812D01*
X710380Y10979D01*
X710435Y11127D01*
X710491Y11275D01*
X710528Y11367D01*
X710565Y11441D01*
X710583Y11497D01*
Y11515D01*
X710750Y12052D01*
X710861Y12552D01*
X710953Y13033D01*
X710990Y13496D01*
X711009Y13903D01*
X710990Y14292D01*
X710953Y14662D01*
X710916Y14977D01*
X710861Y15273D01*
X710787Y15532D01*
X710713Y15736D01*
X710639Y15921D01*
X710583Y16069D01*
X710528Y16180D01*
X710509Y16236D01*
X710491Y16254D01*
X710268Y16569D01*
X710009Y16846D01*
X709732Y17087D01*
X709436Y17309D01*
X709121Y17476D01*
X708806Y17624D01*
X708492Y17753D01*
X708177Y17846D01*
X707862Y17920D01*
X707584Y17976D01*
X707325Y18012D01*
X707103Y18049D01*
X706918D01*
X706789Y18068D01*
X738996D01*
Y17846D01*
D02*
G37*
G36*
X706178Y18049D02*
X705715Y17994D01*
X705289Y17939D01*
X704919Y17864D01*
X704752Y17809D01*
X704604Y17772D01*
X704456Y17735D01*
X704345Y17716D01*
X704271Y17679D01*
X704197Y17661D01*
X704160Y17642D01*
X704142D01*
X703697Y17476D01*
X703272Y17272D01*
X702883Y17050D01*
X702531Y16846D01*
X702235Y16661D01*
X702124Y16587D01*
X702013Y16513D01*
X701939Y16458D01*
X701883Y16421D01*
X701846Y16402D01*
X701828Y16384D01*
X701384Y16014D01*
X700958Y15643D01*
X700606Y15292D01*
X700291Y14958D01*
X700032Y14662D01*
X699940Y14551D01*
X699847Y14440D01*
X699792Y14348D01*
X699736Y14292D01*
X699718Y14255D01*
X699699Y14236D01*
X699385Y13774D01*
X699107Y13311D01*
X698885Y12848D01*
X698681Y12422D01*
X698589Y12237D01*
X698515Y12052D01*
X698459Y11904D01*
X698404Y11775D01*
X698366Y11664D01*
X698329Y11590D01*
X698311Y11534D01*
Y11515D01*
X698144Y10960D01*
X698015Y10442D01*
X697941Y9979D01*
X697885Y9590D01*
X697867Y9405D01*
Y9257D01*
X697848Y9128D01*
Y8998D01*
Y8924D01*
Y8850D01*
Y8813D01*
Y8794D01*
X697885Y8350D01*
X697978Y7962D01*
X698089Y7591D01*
X698200Y7277D01*
X698311Y7018D01*
X698422Y6832D01*
X698459Y6758D01*
X698496Y6703D01*
X698515Y6684D01*
Y6666D01*
X698737Y6370D01*
X698977Y6111D01*
X699236Y5907D01*
X699459Y5722D01*
X699681Y5592D01*
X699847Y5481D01*
X699958Y5426D01*
X699977Y5407D01*
X699995D01*
X700366Y5278D01*
X700736Y5167D01*
X701106Y5093D01*
X701458Y5055D01*
X701772Y5018D01*
X701883D01*
X701995Y5000D01*
X602096D01*
X606057Y16624D01*
X607704D01*
X608112Y17846D01*
X603447D01*
X603040Y16624D01*
X604687D01*
X601800Y8147D01*
X598005Y17846D01*
X594599D01*
X594192Y16624D01*
X595840D01*
X592378Y6444D01*
X590731D01*
X590324Y5241D01*
X594988D01*
X595395Y6444D01*
X593748D01*
X596765Y15329D01*
X600837Y5000D01*
X546381D01*
X546862Y5018D01*
X547325Y5055D01*
X547751Y5130D01*
X548121Y5204D01*
X548435Y5278D01*
X548565Y5315D01*
X548676Y5352D01*
X548769Y5370D01*
X548824Y5389D01*
X548861Y5407D01*
X548880D01*
X549324Y5592D01*
X549768Y5777D01*
X550157Y5999D01*
X550509Y6203D01*
X550805Y6388D01*
X550916Y6462D01*
X551027Y6536D01*
X551101Y6592D01*
X551157Y6629D01*
X551194Y6666D01*
X551212D01*
X551675Y7018D01*
X552082Y7388D01*
X552452Y7758D01*
X552767Y8091D01*
X553026Y8387D01*
X553119Y8498D01*
X553211Y8609D01*
X553267Y8702D01*
X553322Y8758D01*
X553341Y8794D01*
X553359Y8813D01*
X553674Y9276D01*
X553952Y9757D01*
X554192Y10201D01*
X554396Y10627D01*
X554470Y10812D01*
X554544Y10979D01*
X554599Y11127D01*
X554655Y11275D01*
X554692Y11367D01*
X554729Y11441D01*
X554747Y11497D01*
Y11515D01*
X554914Y12052D01*
X555025Y12552D01*
X555118Y13033D01*
X555155Y13496D01*
X555173Y13903D01*
X555155Y14292D01*
X555118Y14662D01*
X555081Y14977D01*
X555025Y15273D01*
X554951Y15532D01*
X554877Y15736D01*
X554803Y15921D01*
X554747Y16069D01*
X554692Y16180D01*
X554673Y16236D01*
X554655Y16254D01*
X554433Y16569D01*
X554174Y16846D01*
X553896Y17087D01*
X553600Y17309D01*
X553285Y17476D01*
X552970Y17624D01*
X552656Y17753D01*
X552341Y17846D01*
X552026Y17920D01*
X551749Y17976D01*
X551490Y18012D01*
X551267Y18049D01*
X551082D01*
X550953Y18068D01*
X706659D01*
X706178Y18049D01*
D02*
G37*
G36*
X550342D02*
X549879Y17994D01*
X549453Y17939D01*
X549083Y17864D01*
X548917Y17809D01*
X548769Y17772D01*
X548621Y17735D01*
X548510Y17716D01*
X548435Y17679D01*
X548361Y17661D01*
X548324Y17642D01*
X548306D01*
X547862Y17476D01*
X547436Y17272D01*
X547047Y17050D01*
X546696Y16846D01*
X546399Y16661D01*
X546288Y16587D01*
X546177Y16513D01*
X546103Y16458D01*
X546048Y16421D01*
X546011Y16402D01*
X545992Y16384D01*
X545548Y16014D01*
X545122Y15643D01*
X544770Y15292D01*
X544456Y14958D01*
X544197Y14662D01*
X544104Y14551D01*
X544012Y14440D01*
X543956Y14348D01*
X543901Y14292D01*
X543882Y14255D01*
X543863Y14236D01*
X543549Y13774D01*
X543271Y13311D01*
X543049Y12848D01*
X542845Y12422D01*
X542753Y12237D01*
X542679Y12052D01*
X542623Y11904D01*
X542568Y11775D01*
X542531Y11664D01*
X542494Y11590D01*
X542475Y11534D01*
Y11515D01*
X542309Y10960D01*
X542179Y10442D01*
X542105Y9979D01*
X542050Y9590D01*
X542031Y9405D01*
Y9257D01*
X542013Y9128D01*
Y8998D01*
Y8924D01*
Y8850D01*
Y8813D01*
Y8794D01*
X542050Y8350D01*
X542142Y7962D01*
X542253Y7591D01*
X542364Y7277D01*
X542475Y7018D01*
X542586Y6832D01*
X542623Y6758D01*
X542660Y6703D01*
X542679Y6684D01*
Y6666D01*
X542901Y6370D01*
X543142Y6111D01*
X543401Y5907D01*
X543623Y5722D01*
X543845Y5592D01*
X544012Y5481D01*
X544123Y5426D01*
X544141Y5407D01*
X544160D01*
X544530Y5278D01*
X544900Y5167D01*
X545270Y5093D01*
X545622Y5055D01*
X545937Y5018D01*
X546048D01*
X546159Y5000D01*
X529000D01*
Y5241D01*
Y17846D01*
Y18068D01*
X550823D01*
X550342Y18049D01*
D02*
G37*
%LPC*%
G36*
X673600Y17846D02*
X663364D01*
X662957Y16624D01*
X664512D01*
X661050Y6444D01*
X659495D01*
X659088Y5241D01*
X669454D01*
X670361Y7929D01*
X670490Y8313D01*
X669121D01*
X668528Y6592D01*
X663105D01*
X664752Y11405D01*
X668417D01*
X667880Y9868D01*
X669250D01*
X670750Y14274D01*
X669380D01*
X668862Y12737D01*
X665197D01*
X666474Y16495D01*
X671768D01*
X671194Y14773D01*
X672564D01*
X673600Y17846D01*
D02*
G37*
G36*
X592637D02*
X582401D01*
X581994Y16624D01*
X583549D01*
X580088Y6444D01*
X578533D01*
X578125Y5241D01*
X588491D01*
X589528Y8313D01*
X588158D01*
X587566Y6592D01*
X582142D01*
X583790Y11405D01*
X587455D01*
X586918Y9868D01*
X588287D01*
X589787Y14274D01*
X588417D01*
X587899Y12737D01*
X584234D01*
X585511Y16495D01*
X590805D01*
X590324Y15051D01*
X590231Y14773D01*
X591601D01*
X592637Y17846D01*
D02*
G37*
G36*
X619958D02*
X608685D01*
X608112Y16144D01*
X607593Y14607D01*
X608963D01*
X609611Y16532D01*
X612869D01*
X609445Y6444D01*
X607871D01*
X607464Y5241D01*
X612628D01*
X613035Y6444D01*
X611462D01*
X614886Y16532D01*
X618144D01*
X617496Y14607D01*
X618866D01*
X619958Y17846D01*
D02*
G37*
G36*
X581642D02*
X570370D01*
X569278Y14607D01*
X570647D01*
X571295Y16532D01*
X574553D01*
X571129Y6444D01*
X569555D01*
X569148Y5241D01*
X574312D01*
X574720Y6444D01*
X573146D01*
X576571Y16532D01*
X579829D01*
X579181Y14607D01*
X580550D01*
X581642Y17846D01*
D02*
G37*
G36*
X699459D02*
X695035D01*
X694609Y16624D01*
X695942D01*
X689537Y12312D01*
X691018Y16624D01*
X692573D01*
X692980Y17846D01*
X687853D01*
X687446Y16624D01*
X689000D01*
X685539Y6444D01*
X683984D01*
X683577Y5241D01*
X688704D01*
X689112Y6444D01*
X687557D01*
X689112Y11053D01*
X692702Y5241D01*
X695831D01*
X696238Y6444D01*
X694720D01*
X690870Y12145D01*
X697552Y16624D01*
X699051D01*
X699459Y17846D01*
D02*
G37*
G36*
X681763D02*
X680134D01*
X673600Y8821D01*
X671879Y6444D01*
X670768D01*
X670361Y5241D01*
X674155D01*
X674563Y6444D01*
X673211D01*
X674988Y8794D01*
X679912D01*
X680079Y6444D01*
X678709D01*
X678302Y5241D01*
X683133D01*
X683540Y6444D01*
X682263D01*
X681763Y17846D01*
D02*
G37*
G36*
X657237D02*
X650666D01*
X650259Y16624D01*
X651814D01*
X648352Y6444D01*
X646798D01*
X646390Y5241D01*
X651703D01*
X652110Y6444D01*
X650370D01*
X651888Y10942D01*
X653554D01*
X653813Y10923D01*
X654035Y10886D01*
X654220Y10849D01*
X654368Y10794D01*
X654479Y10720D01*
X654553Y10683D01*
X654590Y10646D01*
X654609Y10627D01*
X654664Y10553D01*
X654720Y10479D01*
X654831Y10275D01*
X654923Y10016D01*
X654998Y9776D01*
X655053Y9516D01*
X655109Y9313D01*
X655127Y9239D01*
Y9183D01*
X655146Y9146D01*
Y9128D01*
X655682Y5241D01*
X658885D01*
X659088Y5842D01*
X659292Y6444D01*
X657719D01*
X657182Y9979D01*
X657145Y10220D01*
X657071Y10442D01*
X657015Y10627D01*
X656941Y10794D01*
X656886Y10905D01*
X656830Y10997D01*
X656793Y11053D01*
X656775Y11071D01*
X656664Y11201D01*
X656515Y11293D01*
X656386Y11367D01*
X656256Y11405D01*
X656145Y11423D01*
X655960D01*
X656441Y11479D01*
X656904Y11590D01*
X657311Y11738D01*
X657645Y11886D01*
X657941Y12034D01*
X658052Y12108D01*
X658144Y12163D01*
X658218Y12219D01*
X658292Y12256D01*
X658311Y12293D01*
X658329D01*
X658681Y12608D01*
X658996Y12941D01*
X659255Y13293D01*
X659458Y13626D01*
X659607Y13922D01*
X659681Y14051D01*
X659718Y14163D01*
X659755Y14255D01*
X659792Y14329D01*
X659810Y14366D01*
Y14385D01*
X659903Y14681D01*
X659958Y14977D01*
X659995Y15236D01*
X660014Y15477D01*
Y15699D01*
X659995Y15921D01*
X659977Y16106D01*
X659940Y16273D01*
X659884Y16439D01*
X659847Y16569D01*
X659792Y16680D01*
X659755Y16772D01*
X659699Y16846D01*
X659681Y16902D01*
X659644Y16920D01*
Y16939D01*
X659495Y17106D01*
X659329Y17235D01*
X659144Y17365D01*
X659088Y17390D01*
X658940Y17457D01*
X658514Y17624D01*
X658070Y17735D01*
X657682Y17790D01*
X657515Y17827D01*
X657348D01*
X657237Y17846D01*
D02*
G37*
G36*
X644688D02*
X638265D01*
X637857Y16624D01*
X639412D01*
X635951Y6444D01*
X634396D01*
X633989Y5241D01*
X639819D01*
X640282Y5259D01*
X640708Y5278D01*
X641134Y5333D01*
X641504Y5389D01*
X641874Y5444D01*
X642207Y5537D01*
X642503Y5611D01*
X642781Y5703D01*
X643022Y5777D01*
X643244Y5870D01*
X643429Y5944D01*
X643577Y5999D01*
X643707Y6074D01*
X643781Y6111D01*
X643836Y6129D01*
X643855Y6148D01*
X644132Y6333D01*
X644391Y6536D01*
X644614Y6740D01*
X644836Y6962D01*
X645039Y7203D01*
X645206Y7425D01*
X645502Y7888D01*
X645632Y8091D01*
X645743Y8295D01*
X645817Y8480D01*
X645891Y8628D01*
X645946Y8758D01*
X645983Y8869D01*
X646020Y8924D01*
Y8943D01*
X646094Y9202D01*
X646150Y9442D01*
X646187Y9683D01*
X646205Y9905D01*
Y10275D01*
X646150Y10609D01*
X646076Y10868D01*
X646002Y11053D01*
X645983Y11108D01*
X645946Y11164D01*
X645928Y11201D01*
X645817Y11349D01*
X645687Y11479D01*
X645372Y11701D01*
X645039Y11849D01*
X644706Y11960D01*
X644410Y12034D01*
X644262Y12052D01*
X644151Y12071D01*
X644058Y12089D01*
X643910D01*
X644336Y12126D01*
X644725Y12200D01*
X645076Y12312D01*
X645391Y12441D01*
X645650Y12552D01*
X645835Y12663D01*
X645909Y12719D01*
X645965Y12737D01*
X645983Y12774D01*
X646002D01*
X646335Y13052D01*
X646613Y13366D01*
X646835Y13681D01*
X647020Y13977D01*
X647168Y14236D01*
X647260Y14459D01*
X647297Y14533D01*
X647316Y14588D01*
X647334Y14625D01*
Y14644D01*
X647427Y14921D01*
X647482Y15199D01*
X647519Y15440D01*
X647538Y15680D01*
X647519Y16087D01*
X647445Y16421D01*
X647390Y16569D01*
X647353Y16698D01*
X647297Y16791D01*
X647260Y16883D01*
X647205Y16939D01*
X647186Y16995D01*
X647149Y17031D01*
X647001Y17180D01*
X646835Y17309D01*
X646631Y17402D01*
X646427Y17494D01*
X646002Y17642D01*
X645557Y17753D01*
X645150Y17809D01*
X644965Y17827D01*
X644817D01*
X644688Y17846D01*
D02*
G37*
G36*
X626807D02*
X625178D01*
X616923Y6444D01*
X615812D01*
X615405Y5241D01*
X619199D01*
X619606Y6444D01*
X618255D01*
X620032Y8794D01*
X624956D01*
X625122Y6444D01*
X623753D01*
X623346Y5241D01*
X628177D01*
X628584Y6444D01*
X627307D01*
X626807Y17846D01*
D02*
G37*
G36*
X565021D02*
X558449D01*
X558042Y16624D01*
X559597D01*
X556136Y6444D01*
X554581D01*
X554174Y5241D01*
X559486D01*
X559893Y6444D01*
X558153D01*
X559671Y10942D01*
X561337D01*
X561596Y10923D01*
X561818Y10886D01*
X562003Y10849D01*
X562151Y10794D01*
X562262Y10720D01*
X562336Y10683D01*
X562373Y10646D01*
X562392Y10627D01*
X562448Y10553D01*
X562503Y10479D01*
X562614Y10275D01*
X562707Y10016D01*
X562781Y9776D01*
X562836Y9516D01*
X562892Y9313D01*
X562910Y9239D01*
Y9183D01*
X562929Y9146D01*
Y9128D01*
X563466Y5241D01*
X566668D01*
X567075Y6444D01*
X565502D01*
X564965Y9979D01*
X564928Y10220D01*
X564854Y10442D01*
X564798Y10627D01*
X564724Y10794D01*
X564669Y10905D01*
X564613Y10997D01*
X564576Y11053D01*
X564558Y11071D01*
X564447Y11201D01*
X564299Y11293D01*
X564169Y11367D01*
X564039Y11405D01*
X563928Y11423D01*
X563743D01*
X564224Y11479D01*
X564687Y11590D01*
X565095Y11738D01*
X565428Y11886D01*
X565724Y12034D01*
X565835Y12108D01*
X565928Y12163D01*
X566002Y12219D01*
X566076Y12256D01*
X566094Y12293D01*
X566113D01*
X566464Y12608D01*
X566779Y12941D01*
X567038Y13293D01*
X567242Y13626D01*
X567390Y13922D01*
X567464Y14051D01*
X567501Y14163D01*
X567538Y14255D01*
X567575Y14329D01*
X567593Y14366D01*
Y14385D01*
X567686Y14681D01*
X567741Y14977D01*
X567778Y15236D01*
X567797Y15477D01*
Y15699D01*
X567778Y15921D01*
X567760Y16106D01*
X567723Y16273D01*
X567667Y16439D01*
X567630Y16569D01*
X567575Y16680D01*
X567538Y16772D01*
X567482Y16846D01*
X567464Y16902D01*
X567427Y16920D01*
Y16939D01*
X567279Y17106D01*
X567112Y17235D01*
X566927Y17365D01*
X566723Y17457D01*
X566298Y17624D01*
X565853Y17735D01*
X565465Y17790D01*
X565298Y17827D01*
X565132D01*
X565021Y17846D01*
D02*
G37*
%LPD*%
G36*
X679949Y10016D02*
X675784D01*
X679745Y15514D01*
X679949Y10016D01*
D02*
G37*
G36*
X656478Y16606D02*
X656793Y16550D01*
X657071Y16458D01*
X657274Y16365D01*
X657422Y16254D01*
X657515Y16180D01*
X657571Y16106D01*
X657589Y16087D01*
X657700Y15865D01*
X657737Y15588D01*
X657756Y15310D01*
X657719Y15032D01*
X657682Y14773D01*
X657626Y14570D01*
X657608Y14496D01*
X657589Y14440D01*
X657571Y14403D01*
Y14385D01*
X657404Y13977D01*
X657219Y13644D01*
X657034Y13348D01*
X656849Y13107D01*
X656701Y12922D01*
X656552Y12811D01*
X656478Y12719D01*
X656441Y12700D01*
X656145Y12515D01*
X655849Y12386D01*
X655534Y12293D01*
X655220Y12237D01*
X654960Y12200D01*
X654738Y12163D01*
X652314D01*
X653831Y16624D01*
X656275D01*
X656478Y16606D01*
D02*
G37*
G36*
X643781D02*
X643984Y16587D01*
X644151Y16550D01*
X644447Y16476D01*
X644669Y16384D01*
X644836Y16291D01*
X644965Y16217D01*
X645021Y16161D01*
X645039Y16143D01*
X645150Y15939D01*
X645224Y15717D01*
X645243Y15458D01*
X645224Y15217D01*
X645187Y14995D01*
X645150Y14810D01*
X645132Y14736D01*
X645113Y14681D01*
X645095Y14662D01*
Y14644D01*
X644947Y14274D01*
X644780Y13977D01*
X644595Y13700D01*
X644410Y13496D01*
X644262Y13329D01*
X644132Y13218D01*
X644040Y13144D01*
X644003Y13126D01*
X643707Y12978D01*
X643392Y12867D01*
X643040Y12774D01*
X642725Y12719D01*
X642429Y12682D01*
X642300D01*
X642207Y12663D01*
X640078D01*
X641430Y16624D01*
X643577D01*
X643781Y16606D01*
D02*
G37*
G36*
X642429Y11441D02*
X642651Y11405D01*
X642837Y11367D01*
X643003Y11330D01*
X643170Y11275D01*
X643410Y11164D01*
X643595Y11053D01*
X643707Y10960D01*
X643781Y10886D01*
X643799Y10868D01*
X643873Y10757D01*
X643929Y10609D01*
X643984Y10312D01*
Y9998D01*
X643947Y9683D01*
X643892Y9405D01*
X643873Y9276D01*
X643836Y9165D01*
X643818Y9072D01*
X643799Y8998D01*
X643781Y8961D01*
Y8943D01*
X643595Y8480D01*
X643392Y8091D01*
X643170Y7758D01*
X642966Y7499D01*
X642781Y7295D01*
X642614Y7147D01*
X642522Y7073D01*
X642503Y7036D01*
X642485D01*
X642152Y6832D01*
X641781Y6703D01*
X641411Y6592D01*
X641059Y6518D01*
X640726Y6481D01*
X640597Y6462D01*
X640486D01*
X640375Y6444D01*
X637968D01*
X639671Y11460D01*
X642207D01*
X642429Y11441D01*
D02*
G37*
G36*
X624993Y10016D02*
X620828D01*
X624789Y15514D01*
X624993Y10016D01*
D02*
G37*
G36*
X564261Y16606D02*
X564576Y16550D01*
X564854Y16458D01*
X565058Y16365D01*
X565206Y16254D01*
X565298Y16180D01*
X565354Y16106D01*
X565372Y16087D01*
X565483Y15865D01*
X565520Y15588D01*
X565539Y15310D01*
X565502Y15032D01*
X565465Y14773D01*
X565409Y14570D01*
X565391Y14496D01*
X565372Y14440D01*
X565354Y14403D01*
Y14385D01*
X565187Y13977D01*
X565002Y13644D01*
X564817Y13348D01*
X564632Y13107D01*
X564484Y12922D01*
X564336Y12811D01*
X564261Y12719D01*
X564224Y12700D01*
X563928Y12515D01*
X563632Y12386D01*
X563317Y12293D01*
X563003Y12237D01*
X562744Y12200D01*
X562522Y12163D01*
X560097D01*
X561615Y16624D01*
X564058D01*
X564261Y16606D01*
D02*
G37*
%LPC*%
G36*
X539421Y17846D02*
X533276D01*
X532869Y16624D01*
X534423D01*
X530962Y6444D01*
X529407D01*
X529000Y5241D01*
X534479D01*
X534886Y6444D01*
X532980D01*
X534386Y10609D01*
X536774D01*
X537126Y10627D01*
X537478Y10646D01*
X538125Y10757D01*
X538422Y10831D01*
X538699Y10923D01*
X538958Y11016D01*
X539199Y11108D01*
X539403Y11182D01*
X539606Y11275D01*
X539773Y11367D01*
X539902Y11441D01*
X540014Y11497D01*
X540088Y11552D01*
X540143Y11571D01*
X540162Y11590D01*
X540421Y11775D01*
X540661Y11978D01*
X540902Y12200D01*
X541106Y12422D01*
X541291Y12626D01*
X541457Y12848D01*
X541735Y13274D01*
X541938Y13644D01*
X542013Y13811D01*
X542087Y13940D01*
X542142Y14051D01*
X542179Y14144D01*
X542198Y14199D01*
Y14218D01*
X542290Y14514D01*
X542346Y14810D01*
X542383Y15069D01*
X542401Y15329D01*
X542383Y15551D01*
X542364Y15773D01*
X542327Y15976D01*
X542290Y16143D01*
X542235Y16310D01*
X542179Y16458D01*
X542124Y16569D01*
X542068Y16661D01*
X542031Y16754D01*
X542013Y16782D01*
X541994Y16809D01*
X541975Y16828D01*
X541957Y16846D01*
X541790Y17031D01*
X541605Y17180D01*
X541402Y17309D01*
X541198Y17420D01*
X540754Y17605D01*
X540291Y17716D01*
X539884Y17790D01*
X539699Y17809D01*
X539551Y17827D01*
X539421Y17846D01*
D02*
G37*
%LPD*%
G36*
X538810Y16606D02*
X539144Y16532D01*
X539421Y16439D01*
X539625Y16328D01*
X539773Y16199D01*
X539884Y16106D01*
X539939Y16032D01*
X539958Y16014D01*
X540069Y15754D01*
X540125Y15477D01*
Y15180D01*
X540106Y14884D01*
X540069Y14625D01*
X540014Y14422D01*
X539995Y14329D01*
X539976Y14274D01*
X539958Y14236D01*
Y14218D01*
X539791Y13792D01*
X539606Y13441D01*
X539403Y13126D01*
X539199Y12885D01*
X539032Y12682D01*
X538884Y12534D01*
X538792Y12460D01*
X538773Y12422D01*
X538755D01*
X538440Y12219D01*
X538107Y12089D01*
X537792Y11978D01*
X537478Y11904D01*
X537200Y11867D01*
X536996Y11849D01*
X536904Y11830D01*
X534812D01*
X536441Y16624D01*
X538422D01*
X538810Y16606D01*
D02*
G37*
D10*
X629953Y348500D02*
G03*
X629953Y348500I-394J0D01*
G01*
X728433Y335610D02*
G03*
X728433Y335610I-394J0D01*
G01*
X332894Y234059D02*
G03*
X332894Y234059I-394J0D01*
G01*
X275335Y22500D02*
G03*
X275335Y22500I-394J0D01*
G01*
X298394Y306559D02*
G03*
X298394Y306559I-394J0D01*
G01*
X366453Y374000D02*
G03*
X366453Y374000I-394J0D01*
G01*
X331894Y248941D02*
G03*
X331894Y248941I-394J0D01*
G01*
X597335Y49000D02*
G03*
X597335Y49000I-394J0D01*
G01*
X275335Y47000D02*
G03*
X275335Y47000I-394J0D01*
G01*
X374835Y348500D02*
G03*
X374835Y348500I-394J0D01*
G01*
X374335Y373500D02*
G03*
X374335Y373500I-394J0D01*
G01*
X679312Y97303D02*
G03*
X679312Y97303I-394J0D01*
G01*
X552453Y374500D02*
G03*
X552453Y374500I-394J0D01*
G01*
X617425Y147153D02*
G03*
X617425Y147153I-394J0D01*
G01*
X562835Y372500D02*
G03*
X562835Y372500I-394J0D01*
G01*
X714663Y192967D02*
G03*
X714663Y192967I-557J0D01*
G01*
X286453Y349000D02*
G03*
X286453Y349000I-394J0D01*
G01*
X258268Y34000D02*
G03*
X258268Y34000I-394J0D01*
G01*
X590453Y50000D02*
G03*
X590453Y50000I-394J0D01*
G01*
X249394Y264441D02*
G03*
X249394Y264441I-394J0D01*
G01*
X475453Y49500D02*
G03*
X475453Y49500I-394J0D01*
G01*
X699894Y179358D02*
G03*
X699894Y179358I-394J0D01*
G01*
X597835Y24000D02*
G03*
X597835Y24000I-394J0D01*
G01*
X612232Y179650D02*
G03*
X612232Y179650I-394J0D01*
G01*
X478835Y50000D02*
G03*
X478835Y50000I-394J0D01*
G01*
X666894Y153232D02*
G03*
X666894Y153232I-394J0D01*
G01*
X665894Y211732D02*
G03*
X665894Y211732I-394J0D01*
G01*
X591953Y24000D02*
G03*
X591953Y24000I-394J0D01*
G01*
X475453Y23500D02*
G03*
X475453Y23500I-394J0D01*
G01*
X250394Y74941D02*
G03*
X250394Y74941I-394J0D01*
G01*
X299835Y348500D02*
G03*
X299835Y348500I-394J0D01*
G01*
X250394Y131441D02*
G03*
X250394Y131441I-394J0D01*
G01*
X325020Y138500D02*
G03*
X325020Y138500I-394J0D01*
G01*
X627000Y343500D02*
Y353500D01*
X507000Y343500D02*
Y353500D01*
Y343500D02*
X627000D01*
X507000Y353500D02*
X627000D01*
X337400Y171500D02*
Y231500D01*
X327600Y171500D02*
Y231500D01*
X337400D01*
X327600Y171500D02*
X337400D01*
X277500Y27400D02*
X337500D01*
X277500Y17600D02*
X337500D01*
X277500D02*
Y27400D01*
X337500Y17600D02*
Y27400D01*
X293000Y124000D02*
Y304000D01*
X313000Y124000D02*
Y304000D01*
X293000Y124000D02*
X313000D01*
X293000Y304000D02*
X313000D01*
X243500Y379000D02*
X363500D01*
X243500Y369000D02*
X363500D01*
X243500D02*
Y379000D01*
X363500Y369000D02*
Y379000D01*
X326500Y251500D02*
X336500D01*
X326500Y291500D02*
X336500D01*
X326500Y251500D02*
Y291500D01*
X336500Y251500D02*
Y291500D01*
X659500Y44100D02*
Y53900D01*
X599500Y44100D02*
Y53900D01*
Y44100D02*
X659500D01*
X599500Y53900D02*
X659500D01*
X337500Y42100D02*
Y51900D01*
X277500Y42100D02*
Y51900D01*
Y42100D02*
X337500D01*
X277500Y51900D02*
X337500D01*
X377000Y343500D02*
Y353500D01*
X497000Y343500D02*
Y353500D01*
X377000D02*
X497000D01*
X377000Y343500D02*
X497000D01*
X376500Y368500D02*
Y378500D01*
X496500Y368500D02*
Y378500D01*
X376500D02*
X496500D01*
X376500Y368500D02*
X496500D01*
X549500Y369500D02*
Y379500D01*
X509500Y369500D02*
Y379500D01*
Y369500D02*
X549500D01*
X509500Y379500D02*
X549500D01*
X625000Y367600D02*
Y377400D01*
X565000Y367600D02*
Y377400D01*
Y367600D02*
X625000D01*
X565000Y377400D02*
X625000D01*
X283500Y344000D02*
Y354000D01*
X243500Y344000D02*
Y354000D01*
Y344000D02*
X283500D01*
X243500Y354000D02*
X283500D01*
X255000Y19000D02*
Y39000D01*
X245000Y19000D02*
Y39000D01*
Y19000D02*
X255000D01*
X245000Y39000D02*
X255000D01*
X587500Y45000D02*
Y55000D01*
X547500Y45000D02*
Y55000D01*
Y45000D02*
X587500D01*
X547500Y55000D02*
X587500D01*
X244100Y327000D02*
X253900D01*
X244100Y267000D02*
X253900D01*
Y327000D01*
X244100Y267000D02*
Y327000D01*
X472500Y44500D02*
Y54500D01*
X352500Y44500D02*
Y54500D01*
Y44500D02*
X472500D01*
X352500Y54500D02*
X472500D01*
X660000Y19100D02*
Y28900D01*
X600000Y19100D02*
Y28900D01*
Y19100D02*
X660000D01*
X600000Y28900D02*
X660000D01*
X541000Y45100D02*
Y54900D01*
X481000Y45100D02*
Y54900D01*
Y45100D02*
X541000D01*
X481000Y54900D02*
X541000D01*
X479000Y19000D02*
Y29000D01*
X589000Y19000D02*
Y29000D01*
X479000D02*
X589000D01*
X479000Y19000D02*
X589000D01*
X472500Y18500D02*
Y28500D01*
X352500Y18500D02*
Y28500D01*
Y18500D02*
X472500D01*
X352500Y28500D02*
X472500D01*
X245000Y77500D02*
X255000D01*
X245000Y117500D02*
X255000D01*
X245000Y77500D02*
Y117500D01*
X255000Y77500D02*
Y117500D01*
X362000Y343600D02*
Y353400D01*
X302000Y343600D02*
Y353400D01*
Y343600D02*
X362000D01*
X302000Y353400D02*
X362000D01*
X245000Y134000D02*
X255000D01*
X245000Y254000D02*
X255000D01*
X245000Y134000D02*
Y254000D01*
X255000Y134000D02*
Y254000D01*
X327500Y133500D02*
Y153500D01*
X337500Y133500D02*
Y153500D01*
X327500D02*
X337500D01*
X327500Y133500D02*
X337500D01*
X629953Y348500D02*
G03*
X629953Y348500I-394J0D01*
G01*
X728433Y335610D02*
G03*
X728433Y335610I-394J0D01*
G01*
X332894Y234059D02*
G03*
X332894Y234059I-394J0D01*
G01*
X275335Y22500D02*
G03*
X275335Y22500I-394J0D01*
G01*
X298394Y306559D02*
G03*
X298394Y306559I-394J0D01*
G01*
X366453Y374000D02*
G03*
X366453Y374000I-394J0D01*
G01*
X331894Y248941D02*
G03*
X331894Y248941I-394J0D01*
G01*
X597335Y49000D02*
G03*
X597335Y49000I-394J0D01*
G01*
X275335Y47000D02*
G03*
X275335Y47000I-394J0D01*
G01*
X374835Y348500D02*
G03*
X374835Y348500I-394J0D01*
G01*
X374335Y373500D02*
G03*
X374335Y373500I-394J0D01*
G01*
X679312Y97303D02*
G03*
X679312Y97303I-394J0D01*
G01*
X552453Y374500D02*
G03*
X552453Y374500I-394J0D01*
G01*
X617425Y147153D02*
G03*
X617425Y147153I-394J0D01*
G01*
X562835Y372500D02*
G03*
X562835Y372500I-394J0D01*
G01*
X714663Y192967D02*
G03*
X714663Y192967I-557J0D01*
G01*
X286453Y349000D02*
G03*
X286453Y349000I-394J0D01*
G01*
X258268Y34000D02*
G03*
X258268Y34000I-394J0D01*
G01*
X590453Y50000D02*
G03*
X590453Y50000I-394J0D01*
G01*
X249394Y264441D02*
G03*
X249394Y264441I-394J0D01*
G01*
X475453Y49500D02*
G03*
X475453Y49500I-394J0D01*
G01*
X597835Y24000D02*
G03*
X597835Y24000I-394J0D01*
G01*
X612232Y179650D02*
G03*
X612232Y179650I-394J0D01*
G01*
X478835Y50000D02*
G03*
X478835Y50000I-394J0D01*
G01*
X666894Y153232D02*
G03*
X666894Y153232I-394J0D01*
G01*
X665894Y211732D02*
G03*
X665894Y211732I-394J0D01*
G01*
X591953Y24000D02*
G03*
X591953Y24000I-394J0D01*
G01*
X475453Y23500D02*
G03*
X475453Y23500I-394J0D01*
G01*
X250394Y74941D02*
G03*
X250394Y74941I-394J0D01*
G01*
X299835Y348500D02*
G03*
X299835Y348500I-394J0D01*
G01*
X250394Y131441D02*
G03*
X250394Y131441I-394J0D01*
G01*
X325020Y138500D02*
G03*
X325020Y138500I-394J0D01*
G01*
D11*
X723910Y170500D02*
G03*
X723910Y170500I-6909J0D01*
G01*
X618772Y215039D02*
X620976D01*
X618772Y219961D02*
X620976D01*
X691917Y346713D02*
Y368209D01*
Y385610D02*
X734260D01*
X738965Y346713D02*
Y370965D01*
X691917Y381555D02*
Y385610D01*
X687206Y104980D02*
X750710D01*
X687206Y19980D02*
Y67343D01*
Y81398D02*
Y104980D01*
X750710Y81398D02*
Y104980D01*
Y19980D02*
Y67343D01*
X687206Y19980D02*
X750710D01*
X615305Y150106D02*
Y154043D01*
X626632Y150106D02*
Y154043D01*
X684500Y204424D02*
X699500D01*
X684500Y287416D02*
X699500D01*
X729500D02*
X744500D01*
X729500Y204424D02*
X744500D01*
X621024Y114461D02*
X623228D01*
X621024Y109539D02*
X623228D01*
X708339Y182291D02*
X726055D01*
X728811Y165972D02*
Y175028D01*
X707945Y158709D02*
X726055D01*
X705209Y165972D02*
Y175028D01*
X621024Y133461D02*
X623228D01*
X621024Y128539D02*
X623228D01*
X617744Y182638D02*
X623256D01*
X617744Y170362D02*
X623256D01*
X615898Y262961D02*
X618102D01*
X615898Y258039D02*
X618102D01*
X673547Y164098D02*
Y188902D01*
X659453Y164098D02*
X673547D01*
X659453Y188902D02*
X673547D01*
X659453Y164098D02*
Y188902D01*
X672547Y222598D02*
Y247402D01*
X658453Y222598D02*
X672547D01*
X658453Y247402D02*
X672547D01*
X658453Y222598D02*
Y247402D01*
X617898Y280461D02*
X620102D01*
X617898Y275539D02*
X620102D01*
X723910Y170500D02*
G03*
X723910Y170500I-6909J0D01*
G01*
X615937Y215039D02*
X623811D01*
X615937Y219961D02*
X623811D01*
Y215039D02*
Y219961D01*
X615937Y215039D02*
Y219961D01*
X639732Y215150D02*
Y218850D01*
X646268Y215150D02*
Y218850D01*
X639732D02*
X646268D01*
X639732Y215150D02*
X646268D01*
X614732Y238150D02*
Y241850D01*
X621268Y238150D02*
Y241850D01*
X614732D02*
X621268D01*
X614732Y238150D02*
X621268D01*
X637232Y238650D02*
Y242350D01*
X643768Y238650D02*
Y242350D01*
X637232D02*
X643768D01*
X637232Y238650D02*
X643768D01*
X738965Y340532D02*
Y385610D01*
X691917D02*
X738965D01*
X691917Y340532D02*
Y385610D01*
Y340532D02*
X738965D01*
X639220Y109650D02*
X645756D01*
X639220Y113350D02*
X645756D01*
Y109650D02*
Y113350D01*
X639220Y109650D02*
Y113350D01*
X687206Y104980D02*
X750710D01*
Y19980D02*
Y104980D01*
X687206Y19980D02*
X750710D01*
X687206D02*
Y104980D01*
X636350Y259425D02*
Y262575D01*
X642650Y259425D02*
Y262575D01*
X636350D02*
X642650D01*
X636350Y259425D02*
X642650D01*
X616047Y150106D02*
Y154043D01*
X625890D01*
Y150106D02*
Y154043D01*
X616047Y150106D02*
X625890D01*
X635244Y276150D02*
X641780D01*
X635244Y279850D02*
X641780D01*
Y276150D02*
Y279850D01*
X635244Y276150D02*
Y279850D01*
X638744Y181150D02*
X645280D01*
X638744Y184850D02*
X645280D01*
Y181150D02*
Y184850D01*
X638744Y181150D02*
Y184850D01*
X638732Y162650D02*
X645268D01*
X638732Y166350D02*
X645268D01*
Y162650D02*
Y166350D01*
X638732Y162650D02*
Y166350D01*
X638850Y144425D02*
Y147575D01*
X645150Y144425D02*
Y147575D01*
X638850D02*
X645150D01*
X638850Y144425D02*
X645150D01*
X637898Y129425D02*
Y132575D01*
X644197Y129425D02*
Y132575D01*
X637898D02*
X644197D01*
X637898Y129425D02*
X644197D01*
X684500Y204424D02*
Y287416D01*
X744500D01*
Y204424D02*
Y287416D01*
X684500Y204424D02*
X744500D01*
X618189Y109539D02*
Y114461D01*
X626063Y109539D02*
Y114461D01*
X618189D02*
X626063D01*
X618189Y109539D02*
X626063D01*
X705209Y158709D02*
Y182291D01*
Y158709D02*
X728791D01*
Y182291D01*
X705209D02*
X728791D01*
X618189Y128539D02*
Y133461D01*
X626063Y128539D02*
Y133461D01*
X618189D02*
X626063D01*
X618189Y128539D02*
X626063D01*
X617744Y170594D02*
Y182405D01*
Y170594D02*
X623256D01*
Y182405D01*
X617744D02*
X623256D01*
X616303Y196925D02*
Y200075D01*
X622602Y196925D02*
Y200075D01*
X616303D02*
X622602D01*
X616303Y196925D02*
X622602D01*
X613063Y258039D02*
Y262961D01*
X620937Y258039D02*
Y262961D01*
X613063D02*
X620937D01*
X613063Y258039D02*
X620937D01*
X659453Y164098D02*
Y188902D01*
X673547D01*
Y164098D02*
Y188902D01*
X659453Y164098D02*
X673547D01*
X658453Y222598D02*
Y247402D01*
X672547D01*
Y222598D02*
Y247402D01*
X658453Y222598D02*
X672547D01*
X615063Y275539D02*
Y280461D01*
X622937Y275539D02*
Y280461D01*
X615063D02*
X622937D01*
X615063Y275539D02*
X622937D01*
X639350Y197925D02*
Y201075D01*
X645650Y197925D02*
Y201075D01*
X639350D02*
X645650D01*
X639350Y197925D02*
X645650D01*
X247232Y55650D02*
X253768D01*
X247232Y59350D02*
X253768D01*
Y55650D02*
Y59350D01*
X247232Y55650D02*
Y59350D01*
X633988Y263559D02*
X645012D01*
Y258441D02*
Y263559D01*
X633988Y258441D02*
Y263559D01*
Y258441D02*
X645012D01*
X636488Y148559D02*
X647512D01*
Y143441D02*
Y148559D01*
X636488Y143441D02*
Y148559D01*
Y143441D02*
X647512D01*
X635535Y133559D02*
X646559D01*
Y128441D02*
Y133559D01*
X635535Y128441D02*
Y133559D01*
Y128441D02*
X646559D01*
X613941Y201059D02*
X624965D01*
Y195941D02*
Y201059D01*
X613941Y195941D02*
Y201059D01*
Y195941D02*
X624965D01*
X636988Y202059D02*
X648012D01*
Y196941D02*
Y202059D01*
X636988Y196941D02*
Y202059D01*
Y196941D02*
X648012D01*
D12*
X394646Y169748D02*
Y173884D01*
Y169748D02*
X407960D01*
Y173884D01*
Y238850D02*
Y242978D01*
X394646D02*
X407960D01*
X394646Y238848D02*
Y242978D01*
X534146Y169090D02*
Y173227D01*
Y169090D02*
X547460D01*
Y173227D01*
Y238192D02*
Y242321D01*
X534146D02*
X547460D01*
X534146Y238191D02*
Y242321D01*
X627000Y343500D02*
Y353500D01*
X507000Y343500D02*
X627000D01*
X507000D02*
Y353500D01*
X627000D01*
X407960Y173884D02*
Y238850D01*
X394646Y173884D02*
Y238848D01*
X337400Y171500D02*
Y231500D01*
X327600D02*
X337400D01*
X327600Y171500D02*
Y231500D01*
Y171500D02*
X337400D01*
X277500Y27400D02*
X337500D01*
X277500Y17600D02*
Y27400D01*
Y17600D02*
X337500D01*
Y27400D01*
X293000Y124000D02*
Y304000D01*
Y124000D02*
X313000D01*
Y304000D01*
X293000D02*
X313000D01*
X243500Y379000D02*
X363500D01*
X243500Y369000D02*
Y379000D01*
Y369000D02*
X363500D01*
Y379000D01*
X326500Y251500D02*
X336500D01*
X326500D02*
Y291500D01*
X336500D01*
Y251500D02*
Y291500D01*
X659500Y44100D02*
Y53900D01*
X599500Y44100D02*
X659500D01*
X599500D02*
Y53900D01*
X659500D01*
X337500Y42100D02*
Y51900D01*
X277500Y42100D02*
X337500D01*
X277500D02*
Y51900D01*
X337500D01*
X377000Y343500D02*
Y353500D01*
X497000D01*
Y343500D02*
Y353500D01*
X377000Y343500D02*
X497000D01*
X376500Y368500D02*
Y378500D01*
X496500D01*
Y368500D02*
Y378500D01*
X376500Y368500D02*
X496500D01*
X549500Y369500D02*
Y379500D01*
X509500Y369500D02*
X549500D01*
X509500D02*
Y379500D01*
X549500D01*
X547460Y173227D02*
Y238192D01*
X534146Y173227D02*
Y238191D01*
X625000Y367600D02*
Y377400D01*
X565000Y367600D02*
X625000D01*
X565000D02*
Y377400D01*
X625000D01*
X283500Y344000D02*
Y354000D01*
X243500Y344000D02*
X283500D01*
X243500D02*
Y354000D01*
X283500D01*
X245000Y39000D02*
X255000D01*
Y19000D02*
Y39000D01*
X245000Y19000D02*
X255000D01*
X245000D02*
Y39000D01*
X587500Y45000D02*
Y55000D01*
X547500Y45000D02*
X587500D01*
X547500D02*
Y55000D01*
X587500D01*
X244100Y327000D02*
X253900D01*
Y267000D02*
Y327000D01*
X244100Y267000D02*
X253900D01*
X244100D02*
Y327000D01*
X472500Y44500D02*
Y54500D01*
X352500Y44500D02*
X472500D01*
X352500D02*
Y54500D01*
X472500D01*
X660000Y19100D02*
Y28900D01*
X600000Y19100D02*
X660000D01*
X600000D02*
Y28900D01*
X660000D01*
X541000Y45100D02*
Y54900D01*
X481000Y45100D02*
X541000D01*
X481000D02*
Y54900D01*
X541000D01*
X479000Y19000D02*
Y29000D01*
X589000D01*
Y19000D02*
Y29000D01*
X479000Y19000D02*
X589000D01*
X479000D02*
Y29000D01*
X589000D01*
Y19000D02*
Y29000D01*
X472500Y18500D02*
Y28500D01*
X352500Y18500D02*
X472500D01*
X352500D02*
Y28500D01*
X472500D01*
X245000Y77500D02*
X255000D01*
X245000D02*
Y117500D01*
X255000D01*
Y77500D02*
Y117500D01*
X362000Y343600D02*
Y353400D01*
X302000Y343600D02*
X362000D01*
X302000D02*
Y353400D01*
X362000D01*
X245000Y134000D02*
X255000D01*
X245000D02*
Y254000D01*
X255000D01*
Y134000D02*
Y254000D01*
X327500Y133500D02*
X337500D01*
X327500D02*
Y153500D01*
X337500D01*
Y133500D02*
Y153500D01*
D13*
X506900Y363598D02*
X508899D01*
X507900D01*
Y357600D01*
X506900D01*
X508899D01*
X515897D02*
X511898D01*
X515897Y361599D01*
Y362598D01*
X514897Y363598D01*
X512898D01*
X511898Y362598D01*
X521895D02*
X520895Y363598D01*
X518896D01*
X517896Y362598D01*
Y358600D01*
X518896Y357600D01*
X520895D01*
X521895Y358600D01*
X286505Y61499D02*
Y56501D01*
X287504Y55501D01*
X289504D01*
X290503Y56501D01*
Y61499D01*
X292503Y55501D02*
Y59500D01*
X294502Y61499D01*
X296501Y59500D01*
Y55501D01*
Y58500D01*
X292503D01*
X298501Y55501D02*
Y61499D01*
X301500D01*
X302499Y60499D01*
Y58500D01*
X301500Y57500D01*
X298501D01*
X300500D02*
X302499Y55501D01*
X304499Y61499D02*
X308497D01*
X306498D01*
Y55501D01*
X310497Y60499D02*
X311496Y61499D01*
X313496D01*
X314495Y60499D01*
Y59500D01*
X313496Y58500D01*
X312496D01*
X313496D01*
X314495Y57500D01*
Y56501D01*
X313496Y55501D01*
X311496D01*
X310497Y56501D01*
X287004Y37999D02*
Y33001D01*
X288004Y32001D01*
X290004D01*
X291003Y33001D01*
Y37999D01*
X293003Y32001D02*
Y36000D01*
X295002Y37999D01*
X297001Y36000D01*
Y32001D01*
Y35000D01*
X293003D01*
X299001Y32001D02*
Y37999D01*
X302000D01*
X302999Y36999D01*
Y35000D01*
X302000Y34000D01*
X299001D01*
X301000D02*
X302999Y32001D01*
X304999Y37999D02*
X308997D01*
X306998D01*
Y32001D01*
X314996D02*
X310997D01*
X314996Y36000D01*
Y36999D01*
X313996Y37999D01*
X311997D01*
X310997Y36999D01*
X597700Y38998D02*
Y34000D01*
X598700Y33000D01*
X600699D01*
X601699Y34000D01*
Y38998D01*
X603698Y33000D02*
Y36999D01*
X605697Y38998D01*
X607697Y36999D01*
Y33000D01*
Y35999D01*
X603698D01*
X609696Y33000D02*
Y38998D01*
X612695D01*
X613695Y37998D01*
Y35999D01*
X612695Y34999D01*
X609696D01*
X611695D02*
X613695Y33000D01*
X615694Y38998D02*
X619693D01*
X617694D01*
Y33000D01*
X621692D02*
X623692D01*
X622692D01*
Y38998D01*
X621692Y37998D01*
X601005Y63999D02*
Y59001D01*
X602004Y58001D01*
X604004D01*
X605003Y59001D01*
Y63999D01*
X607003Y58001D02*
Y62000D01*
X609002Y63999D01*
X611001Y62000D01*
Y58001D01*
Y61000D01*
X607003D01*
X613001Y58001D02*
Y63999D01*
X616000D01*
X616999Y62999D01*
Y61000D01*
X616000Y60000D01*
X613001D01*
X615000D02*
X616999Y58001D01*
X618999Y63999D02*
X622997D01*
X620998D01*
Y58001D01*
X624997Y62999D02*
X625996Y63999D01*
X627996D01*
X628996Y62999D01*
Y59001D01*
X627996Y58001D01*
X625996D01*
X624997Y59001D01*
Y62999D01*
X703699Y193798D02*
X702699Y194798D01*
X700700D01*
X699700Y193798D01*
Y192799D01*
X700700Y191799D01*
X702699D01*
X703699Y190799D01*
Y189800D01*
X702699Y188800D01*
X700700D01*
X699700Y189800D01*
X705698Y194798D02*
Y188800D01*
X707697Y190799D01*
X709697Y188800D01*
Y194798D01*
X711696Y188800D02*
X713695D01*
X712696D01*
Y194798D01*
X711696Y193798D01*
X248899Y127598D02*
X247899Y128598D01*
X245900D01*
X244900Y127598D01*
Y126599D01*
X245900Y125599D01*
X247899D01*
X248899Y124599D01*
Y123600D01*
X247899Y122600D01*
X245900D01*
X244900Y123600D01*
X250898Y122600D02*
Y128598D01*
X253897D01*
X254897Y127598D01*
Y125599D01*
X253897Y124599D01*
X250898D01*
X256896Y128598D02*
X258895D01*
X257896D01*
Y122600D01*
X256896D01*
X258895D01*
X261894Y121600D02*
X265893D01*
X271891Y127598D02*
X270892Y128598D01*
X268892D01*
X267893Y127598D01*
Y123600D01*
X268892Y122600D01*
X270892D01*
X271891Y123600D01*
X273891Y122600D02*
Y126599D01*
X275890Y128598D01*
X277889Y126599D01*
Y122600D01*
Y125599D01*
X273891D01*
X279889Y122600D02*
Y128598D01*
X281888Y126599D01*
X283887Y128598D01*
Y122600D01*
X247999Y336098D02*
X246999Y337098D01*
X245000D01*
X244000Y336098D01*
Y335099D01*
X245000Y334099D01*
X246999D01*
X247999Y333099D01*
Y332100D01*
X246999Y331100D01*
X245000D01*
X244000Y332100D01*
X249998Y331100D02*
Y337098D01*
X252997D01*
X253997Y336098D01*
Y334099D01*
X252997Y333099D01*
X249998D01*
X255996Y337098D02*
X257996D01*
X256996D01*
Y331100D01*
X255996D01*
X257996D01*
X260995D02*
X262994D01*
X261994D01*
Y337098D01*
X260995Y336098D01*
X566699Y386498D02*
X565699Y387498D01*
X563700D01*
X562700Y386498D01*
Y385499D01*
X563700Y384499D01*
X565699D01*
X566699Y383499D01*
Y382500D01*
X565699Y381500D01*
X563700D01*
X562700Y382500D01*
X568698Y381500D02*
Y387498D01*
X571697D01*
X572697Y386498D01*
Y384499D01*
X571697Y383499D01*
X568698D01*
X574696Y387498D02*
X576695D01*
X575696D01*
Y381500D01*
X574696D01*
X576695D01*
X579695Y386498D02*
X580694Y387498D01*
X582693D01*
X583693Y386498D01*
Y382500D01*
X582693Y381500D01*
X580694D01*
X579695Y382500D01*
Y386498D01*
X247399Y363098D02*
X246399Y364098D01*
X244400D01*
X243400Y363098D01*
Y362099D01*
X244400Y361099D01*
X246399D01*
X247399Y360099D01*
Y359100D01*
X246399Y358100D01*
X244400D01*
X243400Y359100D01*
X249398Y358100D02*
Y364098D01*
X252397D01*
X253397Y363098D01*
Y361099D01*
X252397Y360099D01*
X249398D01*
X255396Y364098D02*
Y358100D01*
X258395D01*
X259395Y359100D01*
Y363098D01*
X258395Y364098D01*
X255396D01*
X261394D02*
X263393D01*
X262394D01*
Y358100D01*
X261394D01*
X263393D01*
X270391Y364098D02*
X266393D01*
Y361099D01*
X268392D01*
X266393D01*
Y358100D01*
X694399Y396698D02*
X693399Y397698D01*
X691400D01*
X690400Y396698D01*
Y395699D01*
X691400Y394699D01*
X693399D01*
X694399Y393699D01*
Y392700D01*
X693399Y391700D01*
X691400D01*
X690400Y392700D01*
X696398Y397698D02*
Y391700D01*
X699397D01*
X700397Y392700D01*
Y396698D01*
X699397Y397698D01*
X696398D01*
X303699Y362498D02*
X302699Y363498D01*
X300700D01*
X299700Y362498D01*
Y361499D01*
X300700Y360499D01*
X302699D01*
X303699Y359499D01*
Y358500D01*
X302699Y357500D01*
X300700D01*
X299700Y358500D01*
X305698Y357500D02*
Y361499D01*
X307697Y363498D01*
X309697Y361499D01*
Y357500D01*
Y360499D01*
X305698D01*
X311696Y363498D02*
X313696D01*
X312696D01*
Y357500D01*
X311696D01*
X313696D01*
X662399Y264598D02*
X661399Y265598D01*
X659400D01*
X658400Y264598D01*
Y263599D01*
X659400Y262599D01*
X661399D01*
X662399Y261599D01*
Y260600D01*
X661399Y259600D01*
X659400D01*
X658400Y260600D01*
X668397Y259600D02*
X664398D01*
X668397Y263599D01*
Y264598D01*
X667397Y265598D01*
X665398D01*
X664398Y264598D01*
X663399Y206098D02*
X662399Y207098D01*
X660400D01*
X659400Y206098D01*
Y205099D01*
X660400Y204099D01*
X662399D01*
X663399Y203099D01*
Y202100D01*
X662399Y201100D01*
X660400D01*
X659400Y202100D01*
X665398Y201100D02*
X667397D01*
X666398D01*
Y207098D01*
X665398Y206098D01*
X637200Y189000D02*
Y194998D01*
X640199D01*
X641199Y193998D01*
Y191999D01*
X640199Y190999D01*
X637200D01*
X639199D02*
X641199Y189000D01*
X643198D02*
X645197D01*
X644198D01*
Y194998D01*
X643198Y193998D01*
X648196D02*
X649196Y194998D01*
X651195D01*
X652195Y193998D01*
Y192999D01*
X651195Y191999D01*
X650196D01*
X651195D01*
X652195Y190999D01*
Y190000D01*
X651195Y189000D01*
X649196D01*
X648196Y190000D01*
X612000Y284500D02*
Y290498D01*
X614999D01*
X615999Y289498D01*
Y287499D01*
X614999Y286499D01*
X612000D01*
X613999D02*
X615999Y284500D01*
X617998D02*
X619997D01*
X618998D01*
Y290498D01*
X617998Y289498D01*
X626995Y290498D02*
X624996Y289498D01*
X622996Y287499D01*
Y285500D01*
X623996Y284500D01*
X625995D01*
X626995Y285500D01*
Y286499D01*
X625995Y287499D01*
X622996D01*
X637200Y170500D02*
Y176498D01*
X640199D01*
X641199Y175498D01*
Y173499D01*
X640199Y172499D01*
X637200D01*
X639199D02*
X641199Y170500D01*
X643198D02*
X645197D01*
X644198D01*
Y176498D01*
X643198Y175498D01*
X652195Y170500D02*
X648196D01*
X652195Y174499D01*
Y175498D01*
X651195Y176498D01*
X649196D01*
X648196Y175498D01*
X633700Y284000D02*
Y289998D01*
X636699D01*
X637699Y288998D01*
Y286999D01*
X636699Y285999D01*
X633700D01*
X635699D02*
X637699Y284000D01*
X639698D02*
X641697D01*
X640698D01*
Y289998D01*
X639698Y288998D01*
X644696Y284000D02*
X646696D01*
X645696D01*
Y289998D01*
X644696Y288998D01*
X610000Y267000D02*
Y272998D01*
X612999D01*
X613999Y271998D01*
Y269999D01*
X612999Y268999D01*
X610000D01*
X611999D02*
X613999Y267000D01*
X615998D02*
X617997D01*
X616998D01*
Y272998D01*
X615998Y271998D01*
X620996D02*
X621996Y272998D01*
X623995D01*
X624995Y271998D01*
Y268000D01*
X623995Y267000D01*
X621996D01*
X620996Y268000D01*
Y271998D01*
X615200Y137500D02*
Y143498D01*
X618199D01*
X619199Y142498D01*
Y140499D01*
X618199Y139499D01*
X615200D01*
X617199D02*
X619199Y137500D01*
X621198Y138500D02*
X622198Y137500D01*
X624197D01*
X625197Y138500D01*
Y142498D01*
X624197Y143498D01*
X622198D01*
X621198Y142498D01*
Y141499D01*
X622198Y140499D01*
X625197D01*
X615200Y118500D02*
Y124498D01*
X618199D01*
X619199Y123498D01*
Y121499D01*
X618199Y120499D01*
X615200D01*
X617199D02*
X619199Y118500D01*
X621198Y123498D02*
X622198Y124498D01*
X624197D01*
X625197Y123498D01*
Y122499D01*
X624197Y121499D01*
X625197Y120499D01*
Y119500D01*
X624197Y118500D01*
X622198D01*
X621198Y119500D01*
Y120499D01*
X622198Y121499D01*
X621198Y122499D01*
Y123498D01*
X622198Y121499D02*
X624197D01*
X612900Y224000D02*
Y229998D01*
X615899D01*
X616899Y228998D01*
Y226999D01*
X615899Y225999D01*
X612900D01*
X614899D02*
X616899Y224000D01*
X618898Y229998D02*
X622897D01*
Y228998D01*
X618898Y225000D01*
Y224000D01*
X638002Y117501D02*
Y123499D01*
X641001D01*
X642000Y122499D01*
Y120500D01*
X641001Y119500D01*
X638002D01*
X640001D02*
X642000Y117501D01*
X647998Y123499D02*
X644000D01*
Y120500D01*
X645999Y121500D01*
X646999D01*
X647998Y120500D01*
Y118501D01*
X646999Y117501D01*
X644999D01*
X644000Y118501D01*
X613200Y246000D02*
Y251998D01*
X616199D01*
X617199Y250998D01*
Y248999D01*
X616199Y247999D01*
X613200D01*
X615199D02*
X617199Y246000D01*
X622197D02*
Y251998D01*
X619198Y248999D01*
X623197D01*
X638200Y223000D02*
Y228998D01*
X641199D01*
X642199Y227998D01*
Y225999D01*
X641199Y224999D01*
X638200D01*
X640199D02*
X642199Y223000D01*
X644198Y227998D02*
X645198Y228998D01*
X647197D01*
X648197Y227998D01*
Y226999D01*
X647197Y225999D01*
X646197D01*
X647197D01*
X648197Y224999D01*
Y224000D01*
X647197Y223000D01*
X645198D01*
X644198Y224000D01*
X635700Y246500D02*
Y252498D01*
X638699D01*
X639699Y251498D01*
Y249499D01*
X638699Y248499D01*
X635700D01*
X637699D02*
X639699Y246500D01*
X645697D02*
X641698D01*
X645697Y250499D01*
Y251498D01*
X644697Y252498D01*
X642698D01*
X641698Y251498D01*
X245700Y63500D02*
Y69498D01*
X248699D01*
X249699Y68498D01*
Y66499D01*
X248699Y65499D01*
X245700D01*
X247699D02*
X249699Y63500D01*
X251698D02*
X253697D01*
X252698D01*
Y69498D01*
X251698Y68498D01*
X326400Y295600D02*
Y301598D01*
X329399D01*
X330399Y300598D01*
Y298599D01*
X329399Y297599D01*
X326400D01*
X332398Y301598D02*
Y295600D01*
X335397D01*
X336397Y296600D01*
Y300598D01*
X335397Y301598D01*
X332398D01*
X342395D02*
X338396D01*
Y298599D01*
X340395D01*
X338396D01*
Y295600D01*
X394500Y246200D02*
Y252198D01*
X397499D01*
X398499Y251198D01*
Y249199D01*
X397499Y248199D01*
X394500D01*
X404497Y246200D02*
X400498D01*
X404497Y250199D01*
Y251198D01*
X403497Y252198D01*
X401498D01*
X400498Y251198D01*
X534000Y245500D02*
Y251498D01*
X536999D01*
X537999Y250498D01*
Y248499D01*
X536999Y247499D01*
X534000D01*
X539998Y245500D02*
X541997D01*
X540998D01*
Y251498D01*
X539998Y250498D01*
X598537Y158651D02*
Y164649D01*
X602536Y158651D01*
Y164649D01*
X608534Y163649D02*
X607534Y164649D01*
X605535D01*
X604535Y163649D01*
Y159650D01*
X605535Y158651D01*
X607534D01*
X608534Y159650D01*
X610533Y158651D02*
Y164649D01*
X613532D01*
X614532Y163649D01*
Y161650D01*
X613532Y160650D01*
X610533D01*
X616531Y163649D02*
X617531Y164649D01*
X619530D01*
X620530Y163649D01*
Y162649D01*
X619530Y161650D01*
X618530D01*
X619530D01*
X620530Y160650D01*
Y159650D01*
X619530Y158651D01*
X617531D01*
X616531Y159650D01*
X622529Y163649D02*
X623529Y164649D01*
X625528D01*
X626528Y163649D01*
Y162649D01*
X625528Y161650D01*
X626528Y160650D01*
Y159650D01*
X625528Y158651D01*
X623529D01*
X622529Y159650D01*
Y160650D01*
X623529Y161650D01*
X622529Y162649D01*
Y163649D01*
X623529Y161650D02*
X625528D01*
X628527Y163649D02*
X629527Y164649D01*
X631526D01*
X632526Y163649D01*
Y162649D01*
X631526Y161650D01*
X630527D01*
X631526D01*
X632526Y160650D01*
Y159650D01*
X631526Y158651D01*
X629527D01*
X628527Y159650D01*
X305499Y312999D02*
X303500D01*
X304500D01*
Y308001D01*
X303500Y307001D01*
X302500D01*
X301501Y308001D01*
X327500Y237801D02*
X328500D01*
X329499Y238800D01*
Y243799D01*
X333498Y239800D02*
Y245798D01*
Y241799D02*
X336497Y243799D01*
X333498Y241799D02*
X336497Y239800D01*
X717958Y120897D02*
X715959D01*
X716958D01*
Y115898D01*
X715959Y114899D01*
X714959D01*
X713959Y115898D01*
X719957Y120897D02*
X723956D01*
Y119897D01*
X719957Y115898D01*
Y114899D01*
X248899Y49098D02*
X246899D01*
X247899D01*
Y44100D01*
X246899Y43100D01*
X245900D01*
X244900Y44100D01*
X254897Y43100D02*
X250898D01*
X254897Y47099D01*
Y48098D01*
X253897Y49098D01*
X251898D01*
X250898Y48098D01*
X478700Y64998D02*
X480699D01*
X479700D01*
Y59000D01*
X478700D01*
X480699D01*
X487697D02*
X483698D01*
X487697Y62999D01*
Y63998D01*
X486697Y64998D01*
X484698D01*
X483698Y63998D01*
X493695D02*
X492696Y64998D01*
X490696D01*
X489696Y63998D01*
Y62999D01*
X490696Y61999D01*
X492696D01*
X493695Y60999D01*
Y60000D01*
X492696Y59000D01*
X490696D01*
X489696Y60000D01*
X324800Y164598D02*
X326799D01*
X325800D01*
Y158600D01*
X324800D01*
X326799D01*
X333797D02*
X329798D01*
X333797Y162599D01*
Y163598D01*
X332797Y164598D01*
X330798D01*
X329798Y163598D01*
X339795D02*
X338795Y164598D01*
X336796D01*
X335796Y163598D01*
Y159600D01*
X336796Y158600D01*
X338795D01*
X339795Y159600D01*
X341794Y157600D02*
X345793D01*
X350792Y164598D02*
X348792D01*
X347793Y163598D01*
Y159600D01*
X348792Y158600D01*
X350792D01*
X351791Y159600D01*
Y163598D01*
X350792Y164598D01*
X353791Y158600D02*
Y164598D01*
X355790Y162599D01*
X357789Y164598D01*
Y158600D01*
X359789Y164598D02*
Y160599D01*
X361788Y158600D01*
X363787Y160599D01*
Y164598D01*
X482899Y38098D02*
X481899Y39098D01*
X479900D01*
X478900Y38098D01*
Y34100D01*
X479900Y33100D01*
X481899D01*
X482899Y34100D01*
Y36099D01*
X480899D01*
X484898Y33100D02*
Y39098D01*
X487897D01*
X488897Y38098D01*
Y36099D01*
X487897Y35099D01*
X484898D01*
X490896Y39098D02*
X492896D01*
X491896D01*
Y33100D01*
X490896D01*
X492896D01*
X498893Y39098D02*
X496894D01*
X495894Y38098D01*
Y34100D01*
X496894Y33100D01*
X498893D01*
X499893Y34100D01*
Y38098D01*
X498893Y39098D01*
X352400Y38598D02*
Y32600D01*
X355399D01*
X356399Y33600D01*
Y37598D01*
X355399Y38598D01*
X352400D01*
X358398D02*
X360397D01*
X359398D01*
Y32600D01*
X358398D01*
X360397D01*
X367395Y37598D02*
X366395Y38598D01*
X364396D01*
X363396Y37598D01*
Y36599D01*
X364396Y35599D01*
X366395D01*
X367395Y34599D01*
Y33600D01*
X366395Y32600D01*
X364396D01*
X363396Y33600D01*
X369394Y32600D02*
Y38598D01*
X372393D01*
X373393Y37598D01*
Y35599D01*
X372393Y34599D01*
X369394D01*
X375393Y38598D02*
Y32600D01*
X379391D01*
X381391D02*
Y36599D01*
X383390Y38598D01*
X385389Y36599D01*
Y32600D01*
Y35599D01*
X381391D01*
X387389Y38598D02*
Y37598D01*
X389388Y35599D01*
X391387Y37598D01*
Y38598D01*
X389388Y35599D02*
Y32600D01*
X397385D02*
X393387D01*
X397385Y36599D01*
Y37598D01*
X396386Y38598D01*
X394386D01*
X393387Y37598D01*
X352400Y64598D02*
Y58600D01*
X355399D01*
X356399Y59600D01*
Y63598D01*
X355399Y64598D01*
X352400D01*
X358398D02*
X360397D01*
X359398D01*
Y58600D01*
X358398D01*
X360397D01*
X367395Y63598D02*
X366395Y64598D01*
X364396D01*
X363396Y63598D01*
Y62599D01*
X364396Y61599D01*
X366395D01*
X367395Y60599D01*
Y59600D01*
X366395Y58600D01*
X364396D01*
X363396Y59600D01*
X369394Y58600D02*
Y64598D01*
X372393D01*
X373393Y63598D01*
Y61599D01*
X372393Y60599D01*
X369394D01*
X375393Y64598D02*
Y58600D01*
X379391D01*
X381391D02*
Y62599D01*
X383390Y64598D01*
X385389Y62599D01*
Y58600D01*
Y61599D01*
X381391D01*
X387389Y64598D02*
Y63598D01*
X389388Y61599D01*
X391387Y63598D01*
Y64598D01*
X389388Y61599D02*
Y58600D01*
X393387D02*
X395386D01*
X394386D01*
Y64598D01*
X393387Y63598D01*
X244900Y264098D02*
Y258100D01*
X247899D01*
X248899Y259100D01*
Y263098D01*
X247899Y264098D01*
X244900D01*
X254897Y263098D02*
X253897Y264098D01*
X251898D01*
X250898Y263098D01*
Y259100D01*
X251898Y258100D01*
X253897D01*
X254897Y259100D01*
X256896Y258100D02*
Y264098D01*
X258895Y262099D01*
X260895Y264098D01*
Y258100D01*
X262894Y264098D02*
X264894D01*
X263894D01*
Y258100D01*
X262894D01*
X264894D01*
X612100Y192498D02*
Y186500D01*
X615099D01*
X616099Y187500D01*
Y191498D01*
X615099Y192498D01*
X612100D01*
X618098Y186500D02*
X620097D01*
X619098D01*
Y192498D01*
X618098Y191498D01*
X551399Y64098D02*
X550399Y65098D01*
X548400D01*
X547400Y64098D01*
Y60100D01*
X548400Y59100D01*
X550399D01*
X551399Y60100D01*
X553398Y59100D02*
Y63099D01*
X555397Y65098D01*
X557397Y63099D01*
Y59100D01*
Y62099D01*
X553398D01*
X559396Y59100D02*
Y65098D01*
X563395Y59100D01*
Y65098D01*
X565394Y59100D02*
X567393D01*
X566394D01*
Y65098D01*
X565394Y64098D01*
X520002Y386499D02*
X519003Y387499D01*
X517003D01*
X516004Y386499D01*
Y382501D01*
X517003Y381501D01*
X519003D01*
X520002Y382501D01*
X522002Y381501D02*
Y385500D01*
X524001Y387499D01*
X526000Y385500D01*
Y381501D01*
Y384500D01*
X522002D01*
X528000Y381501D02*
Y387499D01*
X531998Y381501D01*
Y387499D01*
X533998Y386499D02*
X534997Y387499D01*
X536997D01*
X537996Y386499D01*
Y382501D01*
X536997Y381501D01*
X534997D01*
X533998Y382501D01*
Y386499D01*
X410004D02*
X409004Y387499D01*
X407005D01*
X406005Y386499D01*
Y382501D01*
X407005Y381501D01*
X409004D01*
X410004Y382501D01*
X412004Y381501D02*
Y385500D01*
X414003Y387499D01*
X416002Y385500D01*
Y381501D01*
Y384500D01*
X412004D01*
X418002Y381501D02*
Y387499D01*
X420001Y385500D01*
X422000Y387499D01*
Y381501D01*
X424000D02*
Y385500D01*
X425999Y387499D01*
X427998Y385500D01*
Y381501D01*
Y384500D01*
X424000D01*
X429998Y381501D02*
Y387499D01*
X432997D01*
X433996Y386499D01*
Y384500D01*
X432997Y383500D01*
X429998D01*
X431997D02*
X433996Y381501D01*
X435996D02*
Y385500D01*
X437995Y387499D01*
X439994Y385500D01*
Y381501D01*
Y384500D01*
X435996D01*
X409505Y339499D02*
X408505Y340499D01*
X406506D01*
X405507Y339499D01*
Y335501D01*
X406506Y334501D01*
X408505D01*
X409505Y335501D01*
X411505Y334501D02*
Y338500D01*
X413504Y340499D01*
X415503Y338500D01*
Y334501D01*
Y337500D01*
X411505D01*
X417503Y334501D02*
Y340499D01*
X419502Y338500D01*
X421501Y340499D01*
Y334501D01*
X423501D02*
Y338500D01*
X425500Y340499D01*
X427499Y338500D01*
Y334501D01*
Y337500D01*
X423501D01*
X429499Y334501D02*
Y340499D01*
X432498D01*
X433497Y339499D01*
Y337500D01*
X432498Y336500D01*
X429499D01*
X431498D02*
X433497Y334501D01*
X435497D02*
Y338500D01*
X437496Y340499D01*
X439496Y338500D01*
Y334501D01*
Y337500D01*
X435497D01*
X445494Y334501D02*
X441495D01*
X445494Y338500D01*
Y339499D01*
X444494Y340499D01*
X442494D01*
X441495Y339499D01*
X640299Y141798D02*
X639299Y142798D01*
X637300D01*
X636300Y141798D01*
Y137800D01*
X637300Y136800D01*
X639299D01*
X640299Y137800D01*
X642298Y141798D02*
X643298Y142798D01*
X645297D01*
X646297Y141798D01*
Y140799D01*
X645297Y139799D01*
X644297D01*
X645297D01*
X646297Y138799D01*
Y137800D01*
X645297Y136800D01*
X643298D01*
X642298Y137800D01*
X641199Y156798D02*
X640199Y157798D01*
X638200D01*
X637200Y156798D01*
Y152800D01*
X638200Y151800D01*
X640199D01*
X641199Y152800D01*
X646197Y151800D02*
Y157798D01*
X643198Y154799D01*
X647197D01*
X636501Y271499D02*
X635501Y272499D01*
X633502D01*
X632502Y271499D01*
Y267501D01*
X633502Y266501D01*
X635501D01*
X636501Y267501D01*
X638500Y266501D02*
X640499D01*
X639500D01*
Y272499D01*
X638500Y271499D01*
X643499Y266501D02*
X645498D01*
X644498D01*
Y272499D01*
X643499Y271499D01*
X618699Y209298D02*
X617699Y210298D01*
X615700D01*
X614700Y209298D01*
Y205300D01*
X615700Y204300D01*
X617699D01*
X618699Y205300D01*
X620698Y204300D02*
X622697D01*
X621698D01*
Y210298D01*
X620698Y209298D01*
X641699Y210298D02*
X640699Y211298D01*
X638700D01*
X637700Y210298D01*
Y206300D01*
X638700Y205300D01*
X640699D01*
X641699Y206300D01*
X647697Y205300D02*
X643698D01*
X647697Y209299D01*
Y210298D01*
X646697Y211298D01*
X644698D01*
X643698Y210298D01*
X679400Y304698D02*
Y298700D01*
X682399D01*
X683399Y299700D01*
Y300699D01*
X682399Y301699D01*
X679400D01*
X682399D01*
X683399Y302699D01*
Y303698D01*
X682399Y304698D01*
X679400D01*
X685398D02*
X689397D01*
X687397D01*
Y298700D01*
X243400Y383100D02*
Y387099D01*
X245399Y389098D01*
X247399Y387099D01*
Y383100D01*
Y386099D01*
X243400D01*
X249398Y383100D02*
Y389098D01*
X253397Y383100D01*
Y389098D01*
X255396Y383100D02*
Y387099D01*
X257396Y389098D01*
X259395Y387099D01*
Y383100D01*
Y386099D01*
X255396D01*
X261394Y389098D02*
Y383100D01*
X265393D01*
X270391Y389098D02*
X268392D01*
X267392Y388098D01*
Y384100D01*
X268392Y383100D01*
X270391D01*
X271391Y384100D01*
Y388098D01*
X270391Y389098D01*
X277389Y388098D02*
X276389Y389098D01*
X274390D01*
X273390Y388098D01*
Y384100D01*
X274390Y383100D01*
X276389D01*
X277389Y384100D01*
Y386099D01*
X275390D01*
D14*
X627984Y342516D02*
Y354484D01*
X506016Y342516D02*
X627984D01*
X506016D02*
Y354484D01*
X627984D01*
X612000Y220945D02*
X627748D01*
Y214055D02*
Y220945D01*
X612000Y214055D02*
X627748D01*
X612000D02*
Y220945D01*
X648685Y214087D02*
Y219913D01*
X637315Y214087D02*
Y219913D01*
X648685D01*
X637315Y214087D02*
X648685D01*
X623685Y237087D02*
Y242913D01*
X612315Y237087D02*
Y242913D01*
X623685D01*
X612315Y237087D02*
X623685D01*
X646185Y237587D02*
Y243413D01*
X634815Y237587D02*
Y243413D01*
X646185D01*
X634815Y237587D02*
X646185D01*
X689457Y388563D02*
X741622D01*
Y337579D02*
Y388563D01*
X689457Y337579D02*
X741622D01*
X689457D02*
Y388563D01*
X338384Y170516D02*
Y232484D01*
X326616D02*
X338384D01*
X326616Y170516D02*
Y232484D01*
Y170516D02*
X338384D01*
X276516Y28384D02*
X338484D01*
X276516Y16616D02*
Y28384D01*
Y16616D02*
X338484D01*
Y28384D01*
X292016Y123016D02*
Y304984D01*
Y123016D02*
X313984D01*
Y304984D01*
X292016D02*
X313984D01*
X242516Y379984D02*
X364484D01*
X242516Y368016D02*
Y379984D01*
Y368016D02*
X364484D01*
Y379984D01*
X325516Y250516D02*
X337484D01*
X325516D02*
Y292484D01*
X337484D01*
Y250516D02*
Y292484D01*
X660484Y43116D02*
Y54884D01*
X598516Y43116D02*
X660484D01*
X598516D02*
Y54884D01*
X660484D01*
X338484Y41116D02*
Y52884D01*
X276516Y41116D02*
X338484D01*
X276516D02*
Y52884D01*
X338484D01*
X636803Y108587D02*
X648173D01*
X636803Y114413D02*
X648173D01*
X636803Y108587D02*
Y114413D01*
X648173Y108587D02*
Y114413D01*
X376016Y342516D02*
Y354484D01*
X497984D01*
Y342516D02*
Y354484D01*
X376016Y342516D02*
X497984D01*
X375516Y367516D02*
Y379484D01*
X497484D01*
Y367516D02*
Y379484D01*
X375516Y367516D02*
X497484D01*
X682540Y105965D02*
X755375D01*
Y18996D02*
Y105965D01*
X682540Y18996D02*
X755375D01*
X682540D02*
Y105965D01*
X550484Y368516D02*
Y380484D01*
X508516Y368516D02*
X550484D01*
X508516D02*
Y380484D01*
X550484D01*
X615063Y148531D02*
Y155618D01*
X626874D01*
Y148531D02*
Y155618D01*
X615063Y148531D02*
X626874D01*
X632827Y275087D02*
X644197D01*
X632827Y280913D02*
X644197D01*
X632827Y275087D02*
Y280913D01*
X644197Y275087D02*
Y280913D01*
X636327Y180087D02*
X647697D01*
X636327Y185913D02*
X647697D01*
X636327Y180087D02*
Y185913D01*
X647697Y180087D02*
Y185913D01*
X636315Y161587D02*
X647685D01*
X636315Y167413D02*
X647685D01*
X636315Y161587D02*
Y167413D01*
X647685Y161587D02*
Y167413D01*
X625984Y366616D02*
Y378384D01*
X564016Y366616D02*
X625984D01*
X564016D02*
Y378384D01*
X625984D01*
X678516Y201629D02*
Y290212D01*
X703476D01*
Y295625D01*
X725524D01*
Y290212D02*
Y295625D01*
Y290212D02*
X750484D01*
Y201629D02*
Y290212D01*
X725524Y201629D02*
X750484D01*
X725524Y196215D02*
Y201629D01*
X703476Y196215D02*
X725524D01*
X703476D02*
Y201629D01*
X678516D02*
X703476D01*
X284484Y343016D02*
Y354984D01*
X242516Y343016D02*
X284484D01*
X242516D02*
Y354984D01*
X284484D01*
X255984Y18016D02*
Y39984D01*
X244016Y18016D02*
X255984D01*
X244016D02*
Y39984D01*
X255984D01*
X588484Y44016D02*
Y55984D01*
X546516Y44016D02*
X588484D01*
X546516D02*
Y55984D01*
X588484D01*
X243116Y327984D02*
X254884D01*
Y266016D02*
Y327984D01*
X243116Y266016D02*
X254884D01*
X243116D02*
Y327984D01*
X614252Y108555D02*
Y115445D01*
Y108555D02*
X630000D01*
Y115445D01*
X614252D02*
X630000D01*
X473484Y43516D02*
Y55484D01*
X351516Y43516D02*
X473484D01*
X351516D02*
Y55484D01*
X473484D01*
X700268Y157705D02*
Y183295D01*
Y157705D02*
X733732D01*
Y183295D01*
X700268D02*
X733732D01*
X660984Y18116D02*
Y29884D01*
X599016Y18116D02*
X660984D01*
X599016D02*
Y29884D01*
X660984D01*
X614252Y127555D02*
Y134445D01*
Y127555D02*
X630000D01*
Y134445D01*
X614252D02*
X630000D01*
X613177Y183390D02*
X627823D01*
Y169610D02*
Y183390D01*
X613177Y169610D02*
X627823D01*
X613177D02*
Y183390D01*
X541984Y44116D02*
Y55884D01*
X480016Y44116D02*
X541984D01*
X480016D02*
Y55884D01*
X541984D01*
X609126Y257055D02*
Y263945D01*
Y257055D02*
X624874D01*
Y263945D01*
X609126D02*
X624874D01*
X658469Y155043D02*
Y197957D01*
X674532D01*
Y155043D02*
Y197957D01*
X658469Y155043D02*
X674532D01*
X657469Y213543D02*
Y256457D01*
X673532D01*
Y213543D02*
Y256457D01*
X657469Y213543D02*
X673532D01*
X478016Y18016D02*
Y29984D01*
X589984D01*
Y18016D02*
Y29984D01*
X478016Y18016D02*
X589984D01*
X611126Y274555D02*
Y281445D01*
Y274555D02*
X626874D01*
Y281445D01*
X611126D02*
X626874D01*
X473484Y17516D02*
Y29484D01*
X351516Y17516D02*
X473484D01*
X351516D02*
Y29484D01*
X473484D01*
X244016Y76516D02*
X255984D01*
X244016D02*
Y118484D01*
X255984D01*
Y76516D02*
Y118484D01*
X244815Y54587D02*
X256185D01*
X244815Y60413D02*
X256185D01*
X244815Y54587D02*
Y60413D01*
X256185Y54587D02*
Y60413D01*
X362984Y342616D02*
Y354384D01*
X301016Y342616D02*
X362984D01*
X301016D02*
Y354384D01*
X362984D01*
X244016Y133016D02*
X255984D01*
X244016D02*
Y254984D01*
X255984D01*
Y133016D02*
Y254984D01*
X326516Y132516D02*
Y154484D01*
X338484D01*
Y132516D02*
Y154484D01*
X326516Y132516D02*
X338484D01*
M02*
