G04*
G04 #@! TF.GenerationSoftware,Altium Limited,Altium Designer,22.1.2 (22)*
G04*
G04 Layer_Physical_Order=6*
G04 Layer_Color=16440176*
%FSLAX25Y25*%
%MOIN*%
G70*
G04*
G04 #@! TF.SameCoordinates,2E2365BE-A05A-434A-80F0-4BE633B458EC*
G04*
G04*
G04 #@! TF.FilePolarity,Positive*
G04*
G01*
G75*
%ADD10C,0.00787*%
%ADD11C,0.00500*%
%ADD12C,0.00394*%
%ADD13C,0.01000*%
%ADD14C,0.00197*%
%ADD65R,0.05394X0.05394*%
%ADD66C,0.05394*%
%ADD67R,0.05394X0.05394*%
%ADD68C,0.12795*%
%ADD69C,0.09744*%
%ADD70R,0.05819X0.05819*%
%ADD71C,0.05819*%
%ADD73C,0.06024*%
%ADD74C,0.05898*%
%ADD76C,0.15000*%
%ADD77C,0.01000*%
%ADD78C,0.05000*%
G36*
X479102Y371660D02*
X479660Y371102D01*
X480343Y370707D01*
X481106Y370503D01*
X481106Y370503D01*
X481894D01*
X484332Y367735D01*
X484695Y363725D01*
X481007Y360078D01*
X480111Y360078D01*
X480111Y360078D01*
X479690Y359903D01*
X478811Y359025D01*
X478637Y358604D01*
X478637Y358604D01*
X478637Y354861D01*
X478208Y353291D01*
X478186Y353267D01*
X473840Y350898D01*
X473840D01*
X473157Y351293D01*
X472395Y351497D01*
X471605D01*
X470843Y351293D01*
X470160Y350898D01*
X470160D01*
X469602Y350340D01*
X467219Y350002D01*
X466781D01*
X464398Y350340D01*
X463840Y350898D01*
X463840D01*
X463157Y351293D01*
X462395Y351497D01*
X461606D01*
X460843Y351293D01*
X460160Y350898D01*
X460160D01*
X459602Y350340D01*
X457220Y350002D01*
X456780D01*
X454398Y350340D01*
X453840Y350898D01*
X453157Y351293D01*
X452394Y351497D01*
X452394Y351497D01*
X451606D01*
X449798Y353092D01*
X449528Y356233D01*
X452675Y360386D01*
X452675Y360387D01*
X452820Y360447D01*
X453096Y360561D01*
X453096Y360561D01*
X453096Y360561D01*
X453975Y361440D01*
X454055Y361634D01*
X454149Y361861D01*
X454149Y361861D01*
X454149Y365604D01*
X454015Y365927D01*
X453938Y366156D01*
X453745Y366841D01*
X453774Y368373D01*
X458601Y371731D01*
X459102Y371660D01*
X459660Y371102D01*
X460343Y370707D01*
X461105Y370503D01*
X461895D01*
X462657Y370707D01*
X463340Y371102D01*
X463898Y371660D01*
X466281Y371998D01*
X466719D01*
X469102Y371660D01*
X469660Y371102D01*
X470343Y370707D01*
X471105Y370503D01*
X471895D01*
X472657Y370707D01*
X473340Y371102D01*
X473898Y371660D01*
X476280Y371998D01*
X476720D01*
X479102Y371660D01*
D02*
G37*
G36*
X439102D02*
X439660Y371102D01*
X440343Y370707D01*
X441106Y370503D01*
X442146Y365607D01*
X442097Y363614D01*
X441554Y363163D01*
X441429Y363077D01*
X440443Y363078D01*
X440443Y363077D01*
X440022Y362903D01*
X439144Y362025D01*
X438969Y361604D01*
X438969Y361604D01*
X438969Y357861D01*
X439063Y357634D01*
X439144Y357440D01*
X440022Y356561D01*
X440022Y356561D01*
Y356561D01*
X440234Y356473D01*
X440443Y356387D01*
X441347Y356253D01*
X441606Y351497D01*
X441440Y351453D01*
X440843Y351293D01*
X440160Y350898D01*
X439602Y350340D01*
X437219Y350002D01*
X436781D01*
X434398Y350340D01*
X433840Y350898D01*
X433840D01*
X433157Y351293D01*
X432395Y351497D01*
X431605D01*
X430843Y351293D01*
X430160Y350898D01*
X430160D01*
X429602Y350340D01*
X427219Y350002D01*
X426781D01*
X424398Y350340D01*
X423840Y350898D01*
X423840D01*
X423157Y351293D01*
X422395Y351497D01*
X421605D01*
X420843Y351293D01*
X420160Y350898D01*
X420160D01*
X419602Y350340D01*
X417219Y350002D01*
X416781D01*
X414398Y350340D01*
X413840Y350898D01*
X413157Y351293D01*
X412395Y351497D01*
X412395Y351497D01*
X411606D01*
X410386Y352573D01*
X410193Y355269D01*
X412882Y359698D01*
X412882Y359698D01*
X413303Y359872D01*
X413888Y360457D01*
X414182Y360751D01*
Y360751D01*
X414356Y361172D01*
X414356Y361172D01*
X414356Y364914D01*
X414182Y365335D01*
Y365335D01*
X415553Y370046D01*
X418145Y371796D01*
X419102Y371660D01*
X419660Y371102D01*
X420343Y370707D01*
X421105Y370503D01*
X421895D01*
X422657Y370707D01*
X423340Y371102D01*
X423898Y371660D01*
X426280Y371998D01*
X426720D01*
X429102Y371660D01*
X429660Y371102D01*
X430343Y370707D01*
X431106Y370503D01*
X431894D01*
X432657Y370707D01*
X433340Y371102D01*
X433898Y371660D01*
X436280Y371998D01*
X436720D01*
X439102Y371660D01*
D02*
G37*
G36*
X755500Y360000D02*
Y187601D01*
X754249Y187083D01*
X750881Y185687D01*
X749413Y187155D01*
X743648Y192919D01*
X740491Y196077D01*
X740226Y196254D01*
X739914Y196316D01*
X738910Y196316D01*
X735572Y196316D01*
X683513D01*
X682843D01*
X682639Y196321D01*
X681026Y196368D01*
X680435Y196538D01*
X679910Y196829D01*
X678633Y198022D01*
X678468Y198186D01*
X678100Y198553D01*
X660946Y215708D01*
X658816Y217837D01*
X656077Y220577D01*
X655812Y220754D01*
X655500Y220816D01*
X655050D01*
X650732Y220816D01*
X646701D01*
X644952Y220899D01*
X644552Y221011D01*
X643773Y221481D01*
X642668Y222485D01*
X641972Y223181D01*
X632245Y232909D01*
X630421Y234732D01*
X630375Y235998D01*
X630487Y236811D01*
X630708Y237553D01*
X631150Y238220D01*
X632383Y239547D01*
X632953Y239822D01*
X633178Y240047D01*
X633300Y240341D01*
X633300Y240659D01*
X633178Y240953D01*
X632953Y241178D01*
X632659Y241300D01*
X632341Y241300D01*
X632047Y241178D01*
X631822Y240953D01*
X631547Y240383D01*
X630015Y238959D01*
X629826Y238879D01*
X629790Y238867D01*
X628778Y238601D01*
X627655Y238573D01*
X626552Y238635D01*
X626510Y238643D01*
X625577Y239577D01*
X625510Y239621D01*
X625453Y239678D01*
X625379Y239709D01*
X625312Y239754D01*
X625233Y239769D01*
X625159Y239800D01*
X625079D01*
X625000Y239816D01*
X624921Y239800D01*
X624841D01*
X624767Y239769D01*
X624688Y239754D01*
X624621Y239709D01*
X624547Y239678D01*
X624490Y239621D01*
X624423Y239577D01*
X624378Y239510D01*
X624322Y239453D01*
X624291Y239379D01*
X624246Y239312D01*
X624231Y239233D01*
X624200Y239159D01*
Y239079D01*
X624184Y239000D01*
X624200Y238921D01*
Y238841D01*
X624231Y238767D01*
X624246Y238688D01*
X624291Y238621D01*
X624322Y238547D01*
X624378Y238490D01*
X624423Y238423D01*
X627555Y235292D01*
X629945Y232901D01*
X640767Y222080D01*
X643423Y219423D01*
X643423Y219423D01*
X643688Y219246D01*
X644000Y219184D01*
X647581D01*
X650274Y218110D01*
X652547Y216822D01*
X652841Y216700D01*
X653159D01*
X656067Y216483D01*
X658419Y215927D01*
X658420Y215927D01*
X661726Y212620D01*
X675995Y198352D01*
X679423Y194923D01*
X679423Y194923D01*
X679688Y194746D01*
X680000Y194684D01*
X684343Y194684D01*
X736401D01*
X737072D01*
X737279Y194679D01*
X738892Y194631D01*
X739450Y194470D01*
X740043Y194135D01*
X741251Y193006D01*
X741417Y192843D01*
X749325Y184936D01*
X751246Y183015D01*
X753076Y181185D01*
X755500Y178761D01*
X755500Y176068D01*
Y84500D01*
X750564Y79564D01*
X750131Y79680D01*
X748769D01*
X747454Y79327D01*
X746274Y78646D01*
X745311Y77684D01*
X744630Y76504D01*
X744278Y75189D01*
Y73827D01*
X744394Y73394D01*
X740049Y69049D01*
X739504Y68940D01*
X738285Y68435D01*
X737188Y67702D01*
X736255Y66769D01*
X735522Y65672D01*
X735017Y64454D01*
X734909Y63909D01*
X714000Y43000D01*
X659715D01*
X658300Y45089D01*
X657293Y47843D01*
X657497Y48605D01*
X657497Y48605D01*
X657497Y49395D01*
X657497Y49395D01*
X657293Y50157D01*
X656898Y50840D01*
X656340Y51398D01*
X656340D01*
X655657Y51793D01*
X655657Y51793D01*
X654895Y51997D01*
X654894Y51997D01*
X654106Y51997D01*
X654106Y51997D01*
X653343Y51793D01*
X653343Y51793D01*
X652660Y51398D01*
X652660Y51398D01*
X652102Y50840D01*
X649719Y50502D01*
X649281D01*
X646898Y50840D01*
X646340Y51398D01*
X646340D01*
X645657Y51793D01*
X644895Y51997D01*
X644105D01*
X643343Y51793D01*
X642660Y51398D01*
X642660D01*
X642102Y50840D01*
X639719Y50502D01*
X639281D01*
X636898Y50840D01*
X636340Y51398D01*
X635657Y51793D01*
X634895Y51997D01*
X633322Y52873D01*
X631548Y54857D01*
X630816Y56117D01*
Y59124D01*
Y97902D01*
X630816Y101500D01*
X630800Y101579D01*
Y101659D01*
X630769Y101733D01*
X630754Y101812D01*
X630709Y101879D01*
X630678Y101953D01*
X630621Y102010D01*
X630577Y102077D01*
X630510Y102121D01*
X630453Y102178D01*
X630379Y102209D01*
X630312Y102254D01*
X630233Y102269D01*
X630159Y102300D01*
X630079Y102300D01*
X630000Y102316D01*
X629921Y102300D01*
X629841Y102300D01*
X629767Y102269D01*
X629688Y102254D01*
X629621Y102209D01*
X629547Y102178D01*
X629490Y102121D01*
X629423Y102077D01*
X629379Y102010D01*
X629322Y101953D01*
X629291Y101879D01*
X629246Y101812D01*
X629231Y101733D01*
X629200Y101659D01*
Y101579D01*
X629184Y101500D01*
X629184Y98110D01*
Y57581D01*
Y55685D01*
X628113Y54262D01*
X627005Y53431D01*
X626942Y53387D01*
X626711Y53229D01*
X624895Y51997D01*
X624106D01*
X623343Y51793D01*
X622660Y51398D01*
X622102Y50840D01*
X619720Y50502D01*
X619280D01*
X616898Y50840D01*
X616340Y51398D01*
X616340D01*
X615657Y51793D01*
X614894Y51997D01*
X614106D01*
X613343Y51793D01*
X612660Y51398D01*
X612660D01*
X612102Y50840D01*
X609720Y50502D01*
X609280D01*
X606898Y50840D01*
X606340Y51398D01*
X606340Y51398D01*
X605657Y51793D01*
X604894Y51997D01*
X604106D01*
X604105Y51997D01*
X603343Y51793D01*
X603343Y51793D01*
X602660Y51398D01*
X602660Y51398D01*
X602102Y50840D01*
X602102Y50840D01*
X601707Y50157D01*
X601707Y50157D01*
X601503Y49395D01*
X601503Y49395D01*
X601503Y48605D01*
X601503Y48605D01*
X601707Y47843D01*
X600700Y45089D01*
X599285Y43000D01*
X587903D01*
X585497Y47003D01*
X585497Y48000D01*
Y52997D01*
X579710D01*
X579503Y52997D01*
X578046Y52631D01*
X574503Y52235D01*
X574340Y52398D01*
X574340D01*
X573657Y52793D01*
X572894Y52997D01*
X572106D01*
X571343Y52793D01*
X570660Y52398D01*
X570660D01*
X570102Y51840D01*
X567720Y51502D01*
X567280D01*
X564898Y51840D01*
X564340Y52398D01*
X564340D01*
X563657Y52793D01*
X562894Y52997D01*
X562106D01*
X561343Y52793D01*
X560660Y52398D01*
X560660D01*
X560102Y51840D01*
X557720Y51502D01*
X557280D01*
X554898Y51840D01*
X554340Y52398D01*
X554340Y52398D01*
X553657Y52793D01*
X553657D01*
X552894Y52997D01*
X552106D01*
X552105Y52997D01*
X551343Y52793D01*
X551343Y52793D01*
X550660Y52398D01*
X550102Y51840D01*
X549707Y51157D01*
X549707Y51157D01*
X549503Y50395D01*
X549503Y50394D01*
X549503Y49606D01*
X549503Y49606D01*
X549707Y48843D01*
Y48843D01*
X550102Y48160D01*
X550102Y48160D01*
X550262Y48000D01*
X550065Y46253D01*
X548631Y43000D01*
X539869D01*
X538435Y46253D01*
X538238Y48000D01*
X538398Y48160D01*
Y48160D01*
X538793Y48843D01*
X538793Y48843D01*
X538997Y49606D01*
X538997Y49606D01*
Y50394D01*
X538793Y51157D01*
X538398Y51840D01*
X537840Y52398D01*
X537157Y52793D01*
X537157Y52793D01*
X536395Y52997D01*
X536395Y52997D01*
X535605Y52997D01*
X535605Y52997D01*
X534843Y52793D01*
X534843D01*
X534160Y52398D01*
X534160Y52398D01*
X533602Y51840D01*
X531219Y51502D01*
X530781D01*
X528398Y51840D01*
X527840Y52398D01*
X527840D01*
X527157Y52793D01*
X526395Y52997D01*
X525605D01*
X524843Y52793D01*
X524160Y52398D01*
X524160D01*
X523602Y51840D01*
X521219Y51502D01*
X520781D01*
X518398Y51840D01*
X517840Y52398D01*
X517840D01*
X517157Y52793D01*
X516395Y52997D01*
X515605D01*
X514843Y52793D01*
X514160Y52398D01*
X514160D01*
X513602Y51840D01*
X511220Y51502D01*
X510780D01*
X508398Y51840D01*
X507840Y52398D01*
X507840D01*
X507157Y52793D01*
X506394Y52997D01*
X505606D01*
X504843Y52793D01*
X504160Y52398D01*
X504160D01*
X503602Y51840D01*
X501220Y51502D01*
X500780D01*
X498398Y51840D01*
X497840Y52398D01*
X497840D01*
X497157Y52793D01*
X496394Y52997D01*
X495606D01*
X494843Y52793D01*
X494160Y52398D01*
X494160D01*
X493602Y51840D01*
X491220Y51502D01*
X490780D01*
X488398Y51840D01*
X487840Y52398D01*
X487840Y52398D01*
X487157Y52793D01*
X487157D01*
X486395Y52997D01*
X485605D01*
X485605Y52997D01*
X484843Y52793D01*
X484843Y52793D01*
X484160Y52398D01*
X483602Y51840D01*
X483207Y51157D01*
X483207Y51157D01*
X483003Y50395D01*
X483003Y50394D01*
X483003Y49606D01*
X483003Y49606D01*
X483207Y48843D01*
Y48843D01*
X483602Y48160D01*
X483602Y48160D01*
X483762Y48000D01*
X483565Y46253D01*
X482131Y43000D01*
X474046D01*
X470497Y46503D01*
X470497Y48000D01*
Y52497D01*
X464710D01*
X464503Y52497D01*
X463046Y52131D01*
X459503Y51735D01*
X459340Y51898D01*
X459340D01*
X458657Y52293D01*
X457895Y52497D01*
X457105D01*
X456343Y52293D01*
X455660Y51898D01*
X455660D01*
X455102Y51340D01*
X452719Y51002D01*
X452281D01*
X449898Y51340D01*
X449340Y51898D01*
X449340D01*
X448657Y52293D01*
X447894Y52497D01*
X447106D01*
X446343Y52293D01*
X445660Y51898D01*
X445660D01*
X445102Y51340D01*
X442720Y51002D01*
X442280D01*
X439898Y51340D01*
X439340Y51898D01*
X439340D01*
X438657Y52293D01*
X437894Y52497D01*
X437106D01*
X436343Y52293D01*
X435660Y51898D01*
X435660D01*
X435102Y51340D01*
X432720Y51002D01*
X432280D01*
X429898Y51340D01*
X429340Y51898D01*
X429340D01*
X428657Y52293D01*
X427894Y52497D01*
X427106D01*
X426343Y52293D01*
X425660Y51898D01*
X425660D01*
X425102Y51340D01*
X422719Y51002D01*
X422281D01*
X419898Y51340D01*
X419340Y51898D01*
X419340D01*
X418657Y52293D01*
X417895Y52497D01*
X417105D01*
X416343Y52293D01*
X415660Y51898D01*
X415660D01*
X415102Y51340D01*
X412719Y51002D01*
X412281D01*
X409898Y51340D01*
X409340Y51898D01*
X409340D01*
X408657Y52293D01*
X407895Y52497D01*
X407105D01*
X406343Y52293D01*
X405660Y51898D01*
X405660D01*
X405102Y51340D01*
X402719Y51002D01*
X402281D01*
X399898Y51340D01*
X399340Y51898D01*
X399340D01*
X398657Y52293D01*
X397895Y52497D01*
X397106D01*
X396343Y52293D01*
X395660Y51898D01*
X395660D01*
X395102Y51340D01*
X392720Y51002D01*
X392281D01*
X389898Y51340D01*
X389340Y51898D01*
X389340D01*
X388657Y52293D01*
X387895Y52497D01*
X387105D01*
X386343Y52293D01*
X385660Y51898D01*
X385660D01*
X385102Y51340D01*
X382719Y51002D01*
X382280D01*
X379898Y51340D01*
X379340Y51898D01*
X379340D01*
X378657Y52293D01*
X377894Y52497D01*
X377105D01*
X376343Y52293D01*
X375660Y51898D01*
X375660D01*
X375102Y51340D01*
X372720Y51002D01*
X372281D01*
X369898Y51340D01*
X369340Y51898D01*
X369340D01*
X368657Y52293D01*
X367895Y52497D01*
X367106D01*
X366343Y52293D01*
X365660Y51898D01*
X365660D01*
X365102Y51340D01*
X364047Y51190D01*
X359340Y51898D01*
X358657Y52293D01*
X358657Y52293D01*
X358657D01*
X357895Y52497D01*
X357894Y52497D01*
X357894Y52497D01*
X357105Y52497D01*
X357105Y52497D01*
X356343Y52293D01*
X356343D01*
X355660Y51898D01*
X355660Y51898D01*
X355602Y51898D01*
X331327Y76173D01*
X413384Y158230D01*
X416577Y161423D01*
X416577Y161423D01*
X416754Y161688D01*
X416816Y162000D01*
X416816Y165966D01*
Y176820D01*
Y181201D01*
Y183775D01*
X416816Y188453D01*
X418549Y190600D01*
X420453Y192322D01*
X420678Y192547D01*
X420678Y192547D01*
X420800Y192841D01*
Y193159D01*
X420700Y193400D01*
X420678Y193453D01*
X419270Y196958D01*
X418914Y198389D01*
X419300Y200341D01*
X419300Y200659D01*
X419300Y200659D01*
X419178Y200953D01*
Y200953D01*
X418707Y201582D01*
X417678Y202953D01*
X416280Y204351D01*
X415953Y204678D01*
X414908Y205343D01*
X414559Y205746D01*
X413402Y208828D01*
X412987Y210762D01*
X412986Y210832D01*
X413054Y211047D01*
X414951Y212820D01*
X416953Y214322D01*
X417178Y214547D01*
X417300Y214841D01*
X418150Y217145D01*
X419178Y219547D01*
X419300Y219841D01*
X419300Y220159D01*
X419178Y220453D01*
X418953Y220678D01*
X418659Y220800D01*
X418341D01*
X418047Y220678D01*
X417822Y220453D01*
X417700Y220159D01*
X417146Y219794D01*
X415427Y219849D01*
X412304Y219948D01*
X411800Y221659D01*
X411678Y221953D01*
X411453Y222178D01*
X411159Y222300D01*
X410841D01*
X410547Y222178D01*
X410322Y221953D01*
X410200Y221659D01*
X410125Y218336D01*
X410125Y218018D01*
X410247Y217724D01*
X411440Y216474D01*
X411674Y216227D01*
X411700Y216194D01*
X411700Y215595D01*
X411700Y212266D01*
X410322Y210681D01*
X410200Y210387D01*
Y207069D01*
X410322Y206775D01*
X410547Y206550D01*
X410659Y206453D01*
X411522Y203420D01*
X411550Y201581D01*
X410842Y199883D01*
X410617Y199658D01*
X410617Y199658D01*
X410495Y199364D01*
X410495Y199364D01*
X410495Y199364D01*
X410495Y199046D01*
X410495Y199046D01*
X410617Y198751D01*
X410617Y198751D01*
X410842Y198526D01*
X410842Y198526D01*
X410845Y198525D01*
X411217Y198308D01*
X411217Y198308D01*
X412204Y197702D01*
X412204Y197702D01*
X412587Y197460D01*
X412587Y197460D01*
X412670Y197405D01*
X413409Y196797D01*
X414245Y195927D01*
X414600Y195153D01*
X415184Y193391D01*
Y189099D01*
X415184Y183978D01*
X413206Y182365D01*
X410541Y181182D01*
X410223D01*
X409929Y181060D01*
X409704Y180835D01*
X409582Y180541D01*
X409582Y180541D01*
Y180223D01*
X409582Y180223D01*
X409704Y179929D01*
Y179929D01*
X409929Y179704D01*
X410223Y179582D01*
X410541Y179582D01*
X415184Y177521D01*
X415184Y177518D01*
X415184Y176072D01*
Y165648D01*
Y164808D01*
X415173Y164462D01*
X415093Y162882D01*
X414962Y162432D01*
X414738Y162024D01*
X413624Y160787D01*
X413374Y160527D01*
X412945Y160099D01*
X330173Y77327D01*
X326388Y81112D01*
X358093Y112818D01*
X361242Y115967D01*
X363079Y117804D01*
X365684Y120409D01*
D01*
X392909Y147634D01*
X394077Y148802D01*
X394077Y148802D01*
X394254Y149066D01*
X394316Y149379D01*
X394316Y149379D01*
Y151017D01*
Y154520D01*
X395579Y156612D01*
X397453Y158822D01*
X397678Y159047D01*
X397800Y159341D01*
Y159659D01*
X397678Y159953D01*
X397678Y159953D01*
X397641Y160014D01*
X397602Y160102D01*
X397581Y160180D01*
X397575Y160250D01*
X397581Y160320D01*
X397602Y160398D01*
X397641Y160486D01*
X397678Y160547D01*
X397678Y160547D01*
X397800Y160841D01*
Y161159D01*
X397678Y161453D01*
X397453Y161678D01*
X395579Y163888D01*
X394316Y165980D01*
Y190761D01*
X394316Y195761D01*
Y199029D01*
X394316Y200761D01*
Y202874D01*
Y203624D01*
Y207456D01*
X394316Y207456D01*
X394254Y207769D01*
X394077Y208033D01*
X391697Y210413D01*
X389977Y212143D01*
X389608Y212515D01*
X389599Y212554D01*
X389249Y214286D01*
X389237Y214459D01*
X389208Y215168D01*
X389196Y215068D01*
X389173Y215698D01*
X389186Y215728D01*
X389208Y215168D01*
X389321Y216044D01*
X389489Y216437D01*
X389926Y217295D01*
X392178Y219547D01*
X392300Y219841D01*
Y220159D01*
X392178Y220453D01*
X391953Y220678D01*
X391659Y220800D01*
X391341Y220800D01*
X391047Y220678D01*
X389047Y219178D01*
X386701Y216832D01*
X385322Y215453D01*
X385200Y215159D01*
Y214841D01*
X385322Y214547D01*
X385357Y214506D01*
X384925Y212395D01*
X384082Y209786D01*
X383911Y209555D01*
X383861Y209494D01*
X383822Y209454D01*
X383822Y209453D01*
Y209453D01*
X383700Y209159D01*
X383700Y209159D01*
Y208841D01*
X383822Y208547D01*
Y208547D01*
X384047Y208322D01*
X384047Y208322D01*
X384341Y208200D01*
X384341Y203300D01*
X384047Y203178D01*
X383822Y202953D01*
X383700Y202659D01*
Y202341D01*
X383700Y202341D01*
X383822Y202047D01*
Y202047D01*
X384047Y201822D01*
Y201822D01*
X384341Y201700D01*
X385412Y200854D01*
X387341Y198685D01*
X386529Y196097D01*
X384683Y195531D01*
X384523Y195488D01*
X383871Y195361D01*
X383495Y195316D01*
X378504D01*
X378146Y195717D01*
X375663Y200316D01*
X375800Y200841D01*
Y201159D01*
X375678Y201453D01*
X375453Y201678D01*
X375159Y201800D01*
X374841D01*
X374547Y201678D01*
X374322Y201453D01*
X374200Y201159D01*
Y200841D01*
X374337Y200316D01*
X371854Y195718D01*
X371496Y195316D01*
X368295D01*
X366500D01*
X366500Y195316D01*
X366188Y195254D01*
X365923Y195077D01*
X364656Y193809D01*
X359656Y195880D01*
Y197139D01*
X359260Y198636D01*
X359110Y199267D01*
X359271Y199938D01*
X359656Y201396D01*
X359656Y205139D01*
X359656Y205139D01*
X359562Y205366D01*
X359482Y205560D01*
X358603Y206439D01*
X358603Y206439D01*
Y206439D01*
X358391Y206527D01*
X358182Y206613D01*
X358182Y206613D01*
X358182Y206613D01*
X358182Y206613D01*
X355266Y206613D01*
X351688D01*
X350191Y211415D01*
X350222Y211759D01*
X353674Y215211D01*
X356214Y215037D01*
X358284Y214790D01*
X358484Y214752D01*
X361878Y211358D01*
X362299Y211183D01*
X363542D01*
X363963Y211358D01*
X366609Y214004D01*
X367224Y215059D01*
X367728Y215894D01*
X368351Y216276D01*
X369620Y217014D01*
X372266Y219661D01*
X372610Y220251D01*
X374687Y222328D01*
X375277Y222671D01*
X377923Y225318D01*
X378098Y225739D01*
X378902Y227777D01*
X380043Y228816D01*
X384341Y228700D01*
X384659D01*
X384953Y228822D01*
X385178Y229047D01*
X386152Y230508D01*
X386434Y230855D01*
X388334Y232858D01*
X388953Y233322D01*
X392178Y236547D01*
Y236547D01*
X392300Y236841D01*
Y237159D01*
X392178Y237453D01*
X391953Y237678D01*
X391953Y237678D01*
X390478Y238538D01*
X388449Y239807D01*
X387598Y240397D01*
X387541Y240443D01*
X387192Y240761D01*
X386630Y241322D01*
X385309Y244094D01*
X384632Y245515D01*
X384595Y246379D01*
Y248876D01*
X384595Y252648D01*
X386905Y256122D01*
X386905Y256122D01*
X387414Y256887D01*
X393121D01*
X393542Y257061D01*
X394421Y257940D01*
X394595Y258361D01*
Y262104D01*
X394210Y263562D01*
X394050Y264232D01*
X394200Y264864D01*
X394595Y266361D01*
Y270104D01*
X394210Y271562D01*
X394050Y272233D01*
X394200Y272864D01*
X394595Y274361D01*
Y278104D01*
X394210Y279562D01*
X394050Y280233D01*
X394200Y280864D01*
X394595Y282361D01*
Y286104D01*
X394421Y286764D01*
Y289701D01*
X394595Y290361D01*
Y294104D01*
X394421Y294764D01*
X394421Y297701D01*
X394595Y298361D01*
X394595Y301195D01*
Y315559D01*
X394595Y318464D01*
Y323528D01*
X394768Y323901D01*
X394784Y323901D01*
X397608Y323982D01*
X402608Y323982D01*
X413736D01*
X416652Y323982D01*
X416652Y323982D01*
X416878Y324076D01*
X417072Y324156D01*
X417951Y325035D01*
X417951Y325035D01*
X417951D01*
X418039Y325247D01*
X418126Y325455D01*
X418126Y325455D01*
X418126Y325456D01*
X418126Y325456D01*
X418126Y329198D01*
X418126Y329198D01*
X417961Y332817D01*
X418125Y333453D01*
X418126Y333456D01*
Y337198D01*
X417951Y337619D01*
X417073Y338498D01*
X416652Y338672D01*
X412408D01*
X410968Y340363D01*
X410814Y340831D01*
X411178Y341906D01*
X413157Y345707D01*
X413840Y346102D01*
X414398Y346660D01*
X416781Y346998D01*
X417219D01*
X419602Y346660D01*
X420160Y346102D01*
X420843Y345707D01*
X421605Y345503D01*
X422395D01*
X423157Y345707D01*
X423840Y346102D01*
X424398Y346660D01*
X426781Y346998D01*
X427219D01*
X429602Y346660D01*
X430160Y346102D01*
X430843Y345707D01*
X431605Y345503D01*
X432395D01*
X433157Y345707D01*
X433840Y346102D01*
X434398Y346660D01*
X436781Y346998D01*
X437219D01*
X439602Y346660D01*
X440160Y346102D01*
X440843Y345707D01*
X440889Y345695D01*
X441184Y345077D01*
X439150Y340913D01*
X438170Y340077D01*
X437129D01*
X436708Y339903D01*
X435829Y339025D01*
X435655Y338604D01*
Y334861D01*
X436050Y333364D01*
X436202Y332722D01*
X436143Y332454D01*
X435655Y330604D01*
Y326861D01*
X436050Y325364D01*
X436202Y324722D01*
X436143Y324454D01*
X435655Y322604D01*
Y318861D01*
X436050Y317364D01*
X436202Y316722D01*
X436143Y316454D01*
X435655Y314604D01*
Y310861D01*
X436050Y309364D01*
X436202Y308722D01*
X436143Y308454D01*
X435655Y306604D01*
Y302861D01*
X436050Y301364D01*
X436202Y300722D01*
X436143Y300454D01*
X435655Y298604D01*
Y294861D01*
X436050Y293364D01*
X436202Y292722D01*
X436143Y292454D01*
X435655Y290604D01*
Y286861D01*
X436050Y285364D01*
X436202Y284722D01*
X436143Y284454D01*
X435655Y282604D01*
Y278861D01*
X436050Y277364D01*
X436202Y276722D01*
X436143Y276454D01*
X435655Y274604D01*
Y270861D01*
X436050Y269364D01*
X436202Y268722D01*
X436143Y268454D01*
X435655Y266604D01*
Y262861D01*
X436050Y261364D01*
X436202Y260722D01*
X436143Y260454D01*
X435655Y258604D01*
Y254861D01*
X436050Y253364D01*
X436202Y252722D01*
X436143Y252454D01*
X435655Y250604D01*
Y246861D01*
X436050Y245364D01*
X436202Y244722D01*
X436143Y244454D01*
X435655Y242604D01*
Y238861D01*
X436050Y237364D01*
X436202Y236722D01*
X436143Y236454D01*
X435655Y234604D01*
Y230861D01*
X436050Y229364D01*
X436202Y228722D01*
X436143Y228454D01*
X435655Y226604D01*
Y222861D01*
X436050Y221364D01*
X436202Y220722D01*
X436143Y220454D01*
X435655Y218604D01*
Y214861D01*
X436050Y213364D01*
X436202Y212722D01*
X436143Y212454D01*
X435655Y210604D01*
Y206861D01*
X436050Y205364D01*
X436202Y204722D01*
X436143Y204454D01*
X435655Y202604D01*
Y198861D01*
X436050Y197364D01*
X436202Y196722D01*
X436143Y196454D01*
X435655Y194604D01*
Y190861D01*
X436050Y189364D01*
X436202Y188722D01*
X436143Y188454D01*
X435655Y186604D01*
Y182861D01*
X436050Y181364D01*
X436202Y180722D01*
X436143Y180454D01*
X435655Y178604D01*
Y174861D01*
X436050Y173364D01*
X436202Y172722D01*
X436143Y172454D01*
X435655Y170604D01*
Y166861D01*
X436050Y165364D01*
X436202Y164722D01*
X436143Y164454D01*
X435655Y162604D01*
Y158861D01*
X436050Y157364D01*
X436202Y156722D01*
X436143Y156454D01*
X435655Y154604D01*
Y151154D01*
X435829Y150733D01*
X437001Y149561D01*
X437422Y149387D01*
X440283D01*
X441247Y148948D01*
X442113Y148424D01*
X444335Y146202D01*
X449155Y141382D01*
X450312Y140225D01*
X450529Y136943D01*
X447636Y133910D01*
X442139Y133863D01*
X440479Y135523D01*
X438493Y137509D01*
X436654Y139348D01*
X433627Y142376D01*
X432582Y143421D01*
X432161Y143595D01*
X427361D01*
X425864Y143200D01*
X425222Y143047D01*
X424954Y143106D01*
X423104Y143595D01*
X419361D01*
X417864Y143200D01*
X417222Y143047D01*
X416954Y143106D01*
X415104Y143595D01*
X411654Y143595D01*
X411654Y143595D01*
X411233Y143421D01*
X408711Y140900D01*
X408537Y140479D01*
X408537Y140479D01*
X408537Y139886D01*
Y138980D01*
X407372Y135238D01*
X406486Y134239D01*
X406261Y134014D01*
X406139Y133720D01*
Y133720D01*
X405700Y130659D01*
X405700Y130341D01*
X405822Y130047D01*
X406047Y129822D01*
Y129822D01*
X406341Y129700D01*
X406659D01*
X406953Y129822D01*
X406996Y129864D01*
X407900Y129905D01*
X408321Y130079D01*
X408887Y130645D01*
X409543Y130373D01*
X413887Y128574D01*
X413887Y123337D01*
X413887Y122379D01*
X413887Y122379D01*
Y122379D01*
X413887Y122379D01*
X413947Y122233D01*
Y122233D01*
X414061Y121958D01*
Y121958D01*
X414061Y121958D01*
X414061Y121958D01*
X414940Y121079D01*
X414940Y121079D01*
X415134Y120999D01*
Y120999D01*
X415361Y120905D01*
X415361Y120905D01*
X419104Y120905D01*
X420954Y121394D01*
X421222Y121452D01*
X421864Y121300D01*
X423361Y120905D01*
X427104Y120905D01*
X427104Y120905D01*
X427525Y121079D01*
X427525Y121079D01*
X428403Y121958D01*
Y121958D01*
X428578Y122379D01*
X428578Y122379D01*
X428578Y123111D01*
X428578Y128219D01*
Y136549D01*
X431268Y137663D01*
X432194Y138047D01*
X433709Y138489D01*
X436659Y135539D01*
X438683Y133514D01*
X441754Y130443D01*
X444270Y127927D01*
X444270D01*
X444691Y127753D01*
X446348D01*
X446769Y127927D01*
X446769D01*
X447966Y129124D01*
X451101Y132259D01*
X453400Y134558D01*
X455343Y136501D01*
X455343Y136501D01*
X455517Y136922D01*
Y138578D01*
X455343Y138999D01*
Y138999D01*
X452151Y142191D01*
X446547Y147795D01*
X445955Y148387D01*
X446912Y150696D01*
X448026Y153387D01*
X450913D01*
X455913Y153387D01*
X456871Y153387D01*
X456871Y153387D01*
X456872D01*
X456872Y153387D01*
X457017Y153447D01*
X457017D01*
X457292Y153561D01*
X457292D01*
X457292Y153561D01*
X457292Y153561D01*
X458171Y154440D01*
X458171Y154440D01*
X458251Y154634D01*
X458251D01*
X458345Y154861D01*
X458345Y154861D01*
X458345Y158604D01*
X457960Y160062D01*
X457800Y160732D01*
X457950Y161364D01*
X458345Y162861D01*
Y166604D01*
X457960Y168062D01*
X457800Y168733D01*
X457950Y169364D01*
X458345Y170861D01*
Y174604D01*
X457960Y176062D01*
X457800Y176733D01*
X457950Y177364D01*
X458345Y178861D01*
Y182604D01*
X457960Y184062D01*
X457800Y184732D01*
X457950Y185364D01*
X458345Y186861D01*
Y190604D01*
X457960Y192062D01*
X457800Y192733D01*
X457950Y193364D01*
X458345Y194861D01*
Y198604D01*
X457960Y200062D01*
X457800Y200732D01*
X457950Y201364D01*
X458345Y202861D01*
Y206604D01*
X457960Y208062D01*
X457800Y208733D01*
X457950Y209364D01*
X458345Y210861D01*
Y214604D01*
X457960Y216062D01*
X457800Y216733D01*
X457950Y217364D01*
X458345Y218861D01*
Y222604D01*
X457960Y224062D01*
X457800Y224732D01*
X457950Y225364D01*
X458345Y226861D01*
Y230604D01*
X457960Y232062D01*
X457800Y232733D01*
X457950Y233364D01*
X458345Y234861D01*
Y238604D01*
X457960Y240062D01*
X457800Y240733D01*
X457950Y241364D01*
X458345Y242861D01*
Y246604D01*
X457960Y248062D01*
X457800Y248732D01*
X457950Y249364D01*
X458345Y250861D01*
Y254604D01*
X457960Y256062D01*
X457800Y256733D01*
X457950Y257364D01*
X458345Y258861D01*
Y262604D01*
X457960Y264062D01*
X457800Y264733D01*
X457950Y265364D01*
X458345Y266861D01*
Y270604D01*
X457960Y272062D01*
X457800Y272732D01*
X457950Y273364D01*
X458345Y274861D01*
Y278604D01*
X457960Y280062D01*
X457800Y280732D01*
X457950Y281364D01*
X458345Y282861D01*
Y286604D01*
X457960Y288062D01*
X457800Y288733D01*
X457950Y289364D01*
X458345Y290861D01*
Y294604D01*
X457960Y296062D01*
X457800Y296732D01*
X457950Y297364D01*
X458345Y298861D01*
Y302604D01*
X457960Y304062D01*
X457800Y304732D01*
X457950Y305364D01*
X458345Y306861D01*
Y310604D01*
X457960Y312062D01*
X457800Y312733D01*
X457950Y313364D01*
X458345Y314861D01*
Y318604D01*
X457960Y320062D01*
X457800Y320732D01*
X457950Y321364D01*
X458345Y322861D01*
Y326604D01*
X457960Y328062D01*
X457800Y328732D01*
X457950Y329364D01*
X458345Y330861D01*
Y334604D01*
X457960Y336062D01*
X457800Y336733D01*
X457950Y337364D01*
X458345Y338861D01*
Y341377D01*
X459055Y342607D01*
X460500Y344249D01*
X461502Y345013D01*
X462225Y345503D01*
X462395D01*
X463157Y345707D01*
X463840Y346102D01*
X464398Y346660D01*
X466781Y346998D01*
X467219D01*
X469602Y346660D01*
X470160Y346102D01*
X470843Y345707D01*
X471605Y345503D01*
X472395D01*
X473157Y345707D01*
X473840Y346102D01*
X474398Y346660D01*
X476781Y346998D01*
X477219D01*
X479602Y346660D01*
X480160Y346102D01*
X480843Y345707D01*
X482687Y342234D01*
X482083Y339437D01*
X480655Y338613D01*
X477129D01*
X476708Y338438D01*
X475829Y337560D01*
X475655Y337139D01*
Y333396D01*
X476050Y331899D01*
X476202Y331257D01*
X476144Y330989D01*
X475655Y329139D01*
Y325396D01*
X476050Y323899D01*
X476200Y323267D01*
X476050Y322636D01*
X475655Y321139D01*
Y317396D01*
X476144Y315546D01*
X476202Y315277D01*
X476050Y314636D01*
X475655Y313139D01*
Y309396D01*
X476144Y307546D01*
X476202Y307277D01*
X476050Y306636D01*
X475655Y305139D01*
Y301396D01*
X476144Y299546D01*
X476202Y299277D01*
X476050Y298636D01*
X475655Y297139D01*
Y293396D01*
X476144Y291546D01*
X476205Y291267D01*
X476144Y290989D01*
X475655Y289139D01*
Y285396D01*
X476144Y283546D01*
X476205Y283267D01*
X476144Y282989D01*
X475655Y281139D01*
Y277396D01*
X476144Y275546D01*
X476205Y275267D01*
X476144Y274989D01*
X475655Y273139D01*
Y269396D01*
X476050Y267899D01*
X476202Y267257D01*
X476144Y266989D01*
X475655Y265139D01*
Y261396D01*
X476050Y259899D01*
X476202Y259258D01*
X476144Y258989D01*
X475655Y257139D01*
Y253396D01*
X476050Y251899D01*
X476202Y251257D01*
X476144Y250989D01*
X475655Y249139D01*
Y245396D01*
X476050Y243899D01*
X476200Y243267D01*
X476050Y242636D01*
X475655Y241139D01*
Y237396D01*
X476144Y235546D01*
X476202Y235278D01*
X476050Y234636D01*
X475655Y233139D01*
Y229396D01*
X476144Y227546D01*
X476202Y227278D01*
X476050Y226636D01*
X475655Y225139D01*
Y221396D01*
X476144Y219546D01*
X476202Y219278D01*
X476050Y218636D01*
X475655Y217139D01*
Y213396D01*
X476144Y211546D01*
X476205Y211268D01*
X476144Y210989D01*
X475655Y209139D01*
Y205396D01*
X476144Y203546D01*
X476205Y203268D01*
X476144Y202989D01*
X475655Y201139D01*
Y197396D01*
X476144Y195546D01*
X476205Y195268D01*
X476144Y194989D01*
X475780Y193613D01*
X475655Y193139D01*
X475655Y193139D01*
X475655Y189672D01*
X475896Y188739D01*
X475655Y185139D01*
X475655Y182833D01*
Y181396D01*
X476050Y179899D01*
X476202Y179258D01*
X476144Y178989D01*
X475655Y177139D01*
Y173396D01*
X476050Y171899D01*
X476202Y171258D01*
X476144Y170989D01*
X475655Y169139D01*
Y165396D01*
X476050Y163899D01*
X476200Y163268D01*
X476050Y162636D01*
X475655Y161139D01*
Y157396D01*
X476144Y155546D01*
X476202Y155278D01*
X476050Y154636D01*
X475655Y153139D01*
Y149396D01*
X476144Y147546D01*
X476202Y147278D01*
X476050Y146636D01*
X475655Y145139D01*
Y141396D01*
X476144Y139546D01*
X476202Y139278D01*
X476050Y138636D01*
X475655Y137139D01*
Y133396D01*
X476144Y131546D01*
X476205Y131268D01*
X476144Y130990D01*
X475655Y129139D01*
Y125396D01*
X476033Y123965D01*
X476144Y123546D01*
X476144Y123546D01*
X476205Y123268D01*
X476144Y122990D01*
X475655Y121139D01*
Y119624D01*
Y119624D01*
X475655Y117509D01*
X474700Y116652D01*
X472919Y115607D01*
X470777Y114772D01*
X469535D01*
X469114Y114598D01*
X466467Y111951D01*
X466124Y111361D01*
X464047Y109284D01*
X463457Y108941D01*
X460810Y106294D01*
X460072Y105025D01*
X459691Y104403D01*
X459158Y104074D01*
X457800Y103284D01*
X455153Y100638D01*
X454191Y98984D01*
X454043Y98752D01*
X453502Y98418D01*
X452143Y97627D01*
X449497Y94981D01*
X448534Y93327D01*
X448385Y93094D01*
X447542Y92585D01*
X446486Y91970D01*
X443840Y89324D01*
X443666Y88903D01*
Y87660D01*
X443840Y87239D01*
X448236Y82844D01*
X448361Y82718D01*
X448521Y82527D01*
X448741Y82180D01*
X448655Y82367D01*
X448655Y82367D01*
X448655Y82367D01*
X449197Y81459D01*
X448741Y82180D01*
X449353Y80848D01*
X449342Y80745D01*
X449328Y80670D01*
X446193Y77535D01*
X444553D01*
X438696D01*
X438578Y79735D01*
X438578Y79735D01*
Y83145D01*
X438578Y86061D01*
X438578Y86061D01*
X438484Y86287D01*
X438403Y86481D01*
X437525Y87360D01*
X437525Y87360D01*
Y87360D01*
X437313Y87448D01*
X437104Y87535D01*
X437104Y87535D01*
X437104Y87535D01*
X437104Y87535D01*
X433361Y87535D01*
X433361Y87535D01*
X429742Y87370D01*
X429106Y87534D01*
X429104Y87535D01*
X425361D01*
X425361Y87535D01*
X421742Y87370D01*
X421106Y87534D01*
X421104Y87535D01*
X417361D01*
X417361Y87535D01*
X413742Y87370D01*
X413106Y87534D01*
X413104Y87535D01*
X409361D01*
X409361Y87535D01*
X405742Y87370D01*
X405106Y87534D01*
X405104Y87535D01*
X401361D01*
X400940Y87360D01*
X400061Y86482D01*
X399887Y86061D01*
Y79844D01*
X399887Y79371D01*
X399424Y77535D01*
X396196Y77535D01*
X394868Y77535D01*
X394220Y77739D01*
X393901D01*
X393607Y77618D01*
X393382Y77393D01*
X393261Y77099D01*
Y76780D01*
X393382Y76373D01*
Y76101D01*
X393334Y75776D01*
X393261Y75599D01*
Y75280D01*
X393382Y74986D01*
X393607Y74761D01*
X393901Y74639D01*
X394220Y74639D01*
X394868Y74844D01*
X400810Y74844D01*
X400812Y74842D01*
X401996Y73408D01*
X403887Y71118D01*
X403887Y66318D01*
X403887Y66318D01*
X403887Y66318D01*
X403887Y66318D01*
X403947Y66173D01*
X404061Y65897D01*
X404061Y65897D01*
X404061Y65897D01*
X404940Y65018D01*
X405134Y64938D01*
X405361Y64844D01*
X405361Y64844D01*
X409104Y64844D01*
X410954Y65333D01*
X411222Y65392D01*
X411864Y65240D01*
X413361Y64844D01*
X417104D01*
X418954Y65333D01*
X419222Y65392D01*
X419864Y65240D01*
X421361Y64844D01*
X425104D01*
X426954Y65333D01*
X427222Y65392D01*
X427864Y65240D01*
X429361Y64844D01*
X433104D01*
X433525Y65018D01*
X434403Y65897D01*
X434578Y66318D01*
Y71118D01*
X434825Y71481D01*
X434944Y71646D01*
X436445Y73418D01*
X437654Y74844D01*
X443646D01*
X447061Y74844D01*
X447482Y75018D01*
X450783Y78320D01*
X452424Y79961D01*
X454964Y79787D01*
X457034Y79540D01*
X457234Y79502D01*
X460628Y76108D01*
X461049Y75933D01*
X462292D01*
X462713Y76108D01*
X465359Y78754D01*
X465974Y79809D01*
X466478Y80644D01*
X467100Y81026D01*
X468370Y81764D01*
X471016Y84411D01*
X471360Y85001D01*
X473436Y87078D01*
X474027Y87421D01*
X476673Y90068D01*
X477432Y91372D01*
X477798Y91967D01*
X478030Y92116D01*
X479684Y93078D01*
X482330Y95725D01*
X482673Y96315D01*
X483733Y97374D01*
X484949Y98507D01*
X485340Y98735D01*
X487340Y100735D01*
X487340Y100735D01*
X487780Y101174D01*
Y101174D01*
X487780Y101174D01*
Y101174D01*
X487867Y101386D01*
X487867Y101386D01*
X487954Y101595D01*
X487954Y101595D01*
X487954Y101595D01*
X487954Y101595D01*
X487954Y101595D01*
X487954Y103252D01*
X487954Y103252D01*
X487780Y103673D01*
Y103673D01*
X487044Y104409D01*
X487044Y104409D01*
X485776Y105677D01*
X481878Y109575D01*
X478345Y113112D01*
Y115145D01*
X480655Y117698D01*
D01*
X482667Y119922D01*
X490913D01*
X495913Y119922D01*
X496871Y119922D01*
X496871Y119922D01*
X497292Y120097D01*
X497292D01*
X498171Y120975D01*
X498171Y120975D01*
X498345Y121396D01*
X498345Y121396D01*
X498345Y125139D01*
X498171Y125799D01*
Y128736D01*
X498345Y129396D01*
Y133139D01*
X498171Y133799D01*
Y136736D01*
X498345Y137396D01*
Y141139D01*
X497950Y142636D01*
X497800Y143268D01*
X497960Y143938D01*
X498345Y145396D01*
Y149139D01*
X497950Y150636D01*
X497800Y151268D01*
X497960Y151938D01*
X498345Y153396D01*
Y157139D01*
X497950Y158636D01*
X497800Y159267D01*
X497960Y159938D01*
X498345Y161396D01*
Y165139D01*
X497960Y166597D01*
X497800Y167268D01*
X497950Y167899D01*
X498345Y169396D01*
Y173139D01*
X497960Y174597D01*
X497800Y175268D01*
X497950Y175899D01*
X498345Y177396D01*
Y181139D01*
X497960Y182597D01*
X497800Y183268D01*
X497950Y183899D01*
X498345Y185396D01*
Y188828D01*
X498231Y189114D01*
X498171Y189367D01*
X498171Y192822D01*
X498254Y193167D01*
X498345Y193396D01*
Y197139D01*
X498171Y197799D01*
Y200736D01*
X498345Y201396D01*
Y205139D01*
X498171Y205799D01*
Y208736D01*
X498345Y209396D01*
Y213139D01*
X498171Y213799D01*
Y216736D01*
X498345Y217396D01*
Y221139D01*
X497950Y222636D01*
X497800Y223267D01*
X497960Y223938D01*
X498345Y225396D01*
Y229139D01*
X497950Y230636D01*
X497800Y231267D01*
X497960Y231938D01*
X498345Y233396D01*
Y237139D01*
X497950Y238636D01*
X497800Y239267D01*
X497960Y239938D01*
X498345Y241396D01*
Y245139D01*
X497960Y246597D01*
X497800Y247268D01*
X497950Y247899D01*
X498345Y249396D01*
Y253139D01*
X497960Y254597D01*
X497800Y255268D01*
X497950Y255899D01*
X498345Y257396D01*
Y261139D01*
X497960Y262597D01*
X497800Y263268D01*
X497950Y263899D01*
X498345Y265396D01*
Y269139D01*
X498171Y269799D01*
Y272736D01*
X498345Y273396D01*
Y277139D01*
X498171Y277799D01*
Y280736D01*
X498345Y281396D01*
Y285139D01*
X498171Y285799D01*
Y288736D01*
X498345Y289396D01*
Y293139D01*
X498171Y293799D01*
Y296736D01*
X498345Y297396D01*
Y301139D01*
X497950Y302636D01*
X497800Y303267D01*
X497960Y303938D01*
X498345Y305396D01*
Y309139D01*
X497950Y310636D01*
X497800Y311267D01*
X497960Y311938D01*
X498345Y313396D01*
Y317139D01*
X497950Y318636D01*
X497800Y319267D01*
X497960Y319938D01*
X498345Y321396D01*
Y325139D01*
X497960Y326597D01*
X497800Y327268D01*
X497950Y327899D01*
X498345Y329396D01*
Y333139D01*
X498171Y333559D01*
X497292Y334438D01*
X496871Y334612D01*
X492071D01*
X488345Y337689D01*
Y340269D01*
Y340269D01*
X488345Y341500D01*
X488745Y342173D01*
D01*
X488895Y342425D01*
X490007Y343688D01*
X491606Y345503D01*
X492394Y345503D01*
X492395Y345503D01*
X493157Y345707D01*
X493157Y345707D01*
X493840Y346102D01*
X493840Y346102D01*
X494398Y346660D01*
Y346660D01*
X494793Y347343D01*
X494793Y347343D01*
X494997Y348106D01*
Y348895D01*
X494793Y349657D01*
X494793Y349657D01*
X494398Y350340D01*
Y350340D01*
X493840Y350898D01*
X493840Y350898D01*
X493157Y351293D01*
X493157Y351293D01*
X492395Y351497D01*
X492394Y351497D01*
X491706Y354444D01*
X492293Y357387D01*
X492293Y357387D01*
X492714Y357561D01*
X493299Y358146D01*
Y358146D01*
X493593Y358440D01*
Y358440D01*
X493767Y358861D01*
X493767Y358861D01*
Y362604D01*
X493767Y362604D01*
Y362604D01*
X493767Y362604D01*
X493708Y362747D01*
X493593Y363024D01*
Y363025D01*
X493593Y363025D01*
Y363025D01*
X492714Y363903D01*
X492520Y363984D01*
X492293Y364077D01*
X492293Y364078D01*
X492293Y364077D01*
X492289Y364080D01*
X491580Y364750D01*
X491279Y365503D01*
X491474Y367091D01*
X492657Y370707D01*
X492657Y370707D01*
X493340Y371102D01*
X493340Y371102D01*
X493898Y371660D01*
Y371660D01*
X494293Y372343D01*
X494293Y372343D01*
X494497Y373106D01*
Y373895D01*
X494293Y374657D01*
X493898Y375340D01*
X493340Y375898D01*
X492657Y376293D01*
X492657Y376293D01*
X491895Y376497D01*
X491895Y376497D01*
X491106D01*
X491106Y376497D01*
X490343Y376293D01*
X490343D01*
X489660Y375898D01*
X489660Y375898D01*
X489660Y375898D01*
X488719Y375286D01*
X486720Y375002D01*
X486280D01*
X484282Y375286D01*
X483583Y375740D01*
X483340Y375898D01*
X482657Y376293D01*
X481894Y376497D01*
X481106D01*
X481106Y376497D01*
X480343Y376293D01*
X479660Y375898D01*
X479102Y375340D01*
X476720Y375002D01*
X476280D01*
X473898Y375340D01*
X473340Y375898D01*
X473340D01*
X472657Y376293D01*
X471895Y376497D01*
X471105D01*
X470343Y376293D01*
X469660Y375898D01*
X469660D01*
X469102Y375340D01*
X466719Y375002D01*
X466281D01*
X463898Y375340D01*
X463340Y375898D01*
X463340D01*
X462657Y376293D01*
X461895Y376497D01*
X461105D01*
X460343Y376293D01*
X459660Y375898D01*
X459660D01*
X459102Y375340D01*
X456719Y375002D01*
X456281D01*
X453898Y375340D01*
X453340Y375898D01*
X452657Y376293D01*
X451895Y376497D01*
X451895Y376497D01*
X451105D01*
X450343Y376293D01*
X450150Y376181D01*
X449481Y375827D01*
X449396Y375791D01*
X447858Y375163D01*
X446720Y375002D01*
X446280D01*
X445143Y375163D01*
X443853Y375689D01*
X443010Y376096D01*
X442849Y376182D01*
X442657Y376293D01*
X441894Y376497D01*
X441106D01*
X441106Y376497D01*
X440343Y376293D01*
X439660Y375898D01*
X439102Y375340D01*
X436720Y375002D01*
X436280D01*
X433898Y375340D01*
X433340Y375898D01*
X433340D01*
X432657Y376293D01*
X431894Y376497D01*
X431106D01*
X430343Y376293D01*
X429660Y375898D01*
X429660D01*
X429102Y375340D01*
X426720Y375002D01*
X426280D01*
X423898Y375340D01*
X423340Y375898D01*
X423340D01*
X422657Y376293D01*
X421895Y376497D01*
X421105D01*
X420343Y376293D01*
X419660Y375898D01*
X419660D01*
X419102Y375340D01*
X416719Y375002D01*
X416281D01*
X413898Y375340D01*
X413340Y375898D01*
X413340D01*
X412657Y376293D01*
X411895Y376497D01*
X411895Y376497D01*
X411895Y376497D01*
X411105D01*
X410343Y376293D01*
X409660Y375898D01*
X409660Y375898D01*
X409660Y375898D01*
X408718Y375286D01*
X406719Y375002D01*
X406281D01*
X404597Y375241D01*
X403340Y375898D01*
X403340Y375898D01*
X403340Y375898D01*
X402657Y376293D01*
X401895Y376497D01*
X401105D01*
X401105Y376497D01*
X401105Y376497D01*
X400343Y376293D01*
X399660Y375898D01*
X399102Y375340D01*
X396720Y375002D01*
X396281D01*
X393898Y375340D01*
X393340Y375898D01*
X392657Y376293D01*
X391895Y376497D01*
X391106Y376497D01*
X386986Y376016D01*
X384497Y376497D01*
X384290Y376497D01*
X378503D01*
Y370503D01*
X384290D01*
X384497Y370503D01*
X386986Y370984D01*
X386986D01*
X386986Y370985D01*
Y370984D01*
X389497Y371265D01*
X389660Y371102D01*
X390343Y370707D01*
X391106Y370503D01*
X391895D01*
X392657Y370707D01*
X393340Y371102D01*
X393898Y371660D01*
X396281Y371998D01*
X396720D01*
X399102Y371660D01*
X399660Y371102D01*
X399660Y371102D01*
X400343Y370707D01*
X401105Y370503D01*
X402664Y365822D01*
X402619Y363358D01*
X401554Y362474D01*
X401429Y362388D01*
X399769Y362388D01*
X399769Y362388D01*
X399348Y362214D01*
X398469Y361335D01*
X398295Y360914D01*
X398295Y360914D01*
X398295Y357172D01*
X398469Y356751D01*
X397245Y351743D01*
X395085Y350242D01*
X394398Y350340D01*
X393840Y350898D01*
X393157Y351293D01*
X392394Y351497D01*
X391605Y351497D01*
X387486Y351016D01*
X384997Y351497D01*
X384790Y351497D01*
X379003D01*
Y345503D01*
X384790D01*
X384997Y345503D01*
X387486Y345984D01*
X387486D01*
X387486Y345985D01*
Y345984D01*
X389997Y346265D01*
X390160Y346102D01*
X390843Y345707D01*
X391605Y345503D01*
X392394D01*
X393157Y345707D01*
X393840Y346102D01*
X394398Y346660D01*
X396780Y346998D01*
X397219D01*
X398846Y346767D01*
X398846Y346767D01*
X399602Y346660D01*
X400160Y346102D01*
X400160Y346102D01*
X400843Y345707D01*
X401606Y345503D01*
X401606Y345503D01*
X402394D01*
X403990Y343691D01*
X404945Y342607D01*
X405275Y342035D01*
D01*
X405655Y341377D01*
Y340517D01*
D01*
Y337842D01*
X405446Y337568D01*
X404235Y336524D01*
X403154Y335592D01*
X402135Y334813D01*
X401929Y334672D01*
X396909Y334672D01*
X396909Y334672D01*
X396909Y334672D01*
X396909Y334672D01*
X396764Y334612D01*
X396488Y334498D01*
X396488Y334498D01*
X396488Y334498D01*
X395712Y333722D01*
X395609Y333619D01*
X395609Y333619D01*
X395529Y333425D01*
Y333425D01*
X395435Y333198D01*
X395435Y333198D01*
X395261Y331103D01*
X395085Y328982D01*
X392079Y325326D01*
X392079Y325326D01*
X391905Y324905D01*
Y320020D01*
Y316826D01*
Y301400D01*
X391905Y300187D01*
X391368Y299578D01*
X391557Y299793D01*
X389842Y299577D01*
X379337D01*
X374337Y299577D01*
X373379Y299578D01*
X373379Y299577D01*
X372958Y299403D01*
X372958D01*
X372079Y298525D01*
X372079Y298525D01*
X371905Y298104D01*
X371905Y298104D01*
X371905Y294361D01*
X372393Y292510D01*
X372455Y292232D01*
X372393Y291954D01*
X371905Y290104D01*
Y286361D01*
X372300Y284864D01*
X372452Y284222D01*
X372393Y283954D01*
X371905Y282104D01*
Y278361D01*
X372300Y276864D01*
X372452Y276222D01*
X372393Y275954D01*
X371905Y274104D01*
Y270361D01*
X372300Y268864D01*
X372452Y268222D01*
X372393Y267954D01*
X371905Y266104D01*
X371905Y262361D01*
X371905Y262361D01*
X371999Y262134D01*
X372079Y261940D01*
X372958Y261061D01*
X372958Y261061D01*
Y261061D01*
X373170Y260973D01*
X373378Y260887D01*
X373378Y260887D01*
X373379Y260887D01*
X373379Y260887D01*
X376294Y260887D01*
X378179D01*
X381905Y257811D01*
Y257632D01*
X381905D01*
Y252956D01*
X381905Y250418D01*
X381760Y250106D01*
X381123Y249535D01*
X379595Y248180D01*
Y248180D01*
X377464Y246289D01*
X375992Y246425D01*
X375842Y246453D01*
X374510Y247786D01*
X373496Y248800D01*
X373496Y248800D01*
X372448Y249848D01*
X372448D01*
X372027Y250022D01*
X370785D01*
X370364Y249848D01*
X370364D01*
X367717Y247201D01*
X367717Y247201D01*
X365265Y244516D01*
X364707Y244191D01*
X362060Y241544D01*
X361322Y240275D01*
X360941Y239653D01*
X360408Y239324D01*
X359050Y238534D01*
X356403Y235888D01*
X355441Y234234D01*
X355293Y234002D01*
X354752Y233668D01*
X353393Y232877D01*
X350747Y230231D01*
X349784Y228577D01*
X349635Y228344D01*
X348792Y227835D01*
X347736Y227220D01*
X345090Y224574D01*
X344916Y224153D01*
Y222910D01*
X345090Y222489D01*
X349486Y218094D01*
X349820Y217759D01*
X350318Y216925D01*
X350372Y216403D01*
X350348Y215690D01*
X348807Y214149D01*
X347140Y212482D01*
X346965Y212061D01*
Y210501D01*
X346965Y205690D01*
X346963Y205687D01*
X346242Y205066D01*
X344465Y203532D01*
X343445Y202753D01*
X343239Y202613D01*
X339490D01*
X338190Y203459D01*
X336453Y205166D01*
X335759Y206057D01*
X335497Y206450D01*
Y206894D01*
X335293Y207657D01*
X334898Y208340D01*
X334898Y208340D01*
X334340Y208898D01*
X334002Y211280D01*
Y211719D01*
X334340Y214102D01*
X334898Y214660D01*
X334898Y214660D01*
X335293Y215343D01*
X335497Y216106D01*
Y216895D01*
X335293Y217657D01*
X334898Y218340D01*
X334898Y218340D01*
X334340Y218898D01*
X334002Y221281D01*
Y221720D01*
X334340Y224102D01*
X334898Y224660D01*
X335293Y225343D01*
X335293Y225343D01*
X335497Y226105D01*
X335497Y226105D01*
Y226894D01*
X335497Y226895D01*
X335293Y227657D01*
X335293Y227657D01*
X334898Y228340D01*
X334898D01*
X334340Y228898D01*
X333657Y229293D01*
X332894Y229497D01*
X332105D01*
X331343Y229293D01*
X330660Y228898D01*
X330102Y228340D01*
X330102Y228340D01*
X329707Y227657D01*
X329707Y227657D01*
X329503Y226895D01*
X329503Y226894D01*
X329503Y226105D01*
X329503Y226105D01*
X329707Y225343D01*
X329707Y225343D01*
X330102Y224660D01*
X330660Y224102D01*
X330998Y221720D01*
Y221281D01*
X330660Y218898D01*
X330102Y218340D01*
X330102Y218340D01*
X329707Y217657D01*
X329503Y216895D01*
Y216106D01*
X329707Y215343D01*
X330102Y214660D01*
X330102Y214660D01*
X330660Y214102D01*
X330998Y211719D01*
Y211280D01*
X330660Y208898D01*
X330102Y208340D01*
X330102Y208340D01*
X329707Y207657D01*
X329503Y206894D01*
Y206105D01*
X329707Y205343D01*
X330102Y204660D01*
Y204660D01*
X330660Y204102D01*
X330998Y201719D01*
Y201280D01*
X330660Y198898D01*
X330102Y198340D01*
X329707Y197657D01*
X329503Y196895D01*
Y196106D01*
X329707Y195343D01*
X330102Y194660D01*
X330660Y194102D01*
X330998Y191719D01*
Y191280D01*
X330660Y188898D01*
X330102Y188340D01*
X329707Y187657D01*
X329503Y186895D01*
Y186106D01*
X329707Y185343D01*
X330102Y184660D01*
X330660Y184102D01*
X330998Y181720D01*
Y181281D01*
X330731Y179399D01*
X330660Y178898D01*
X330102Y178340D01*
X330102Y178340D01*
X329707Y177657D01*
Y177657D01*
X329503Y176894D01*
X329503Y176894D01*
X329503Y176105D01*
X329503Y176105D01*
X329707Y175343D01*
X329707Y175343D01*
X330102Y174660D01*
X330102Y174660D01*
X330660Y174102D01*
X331343Y173707D01*
X332105Y173503D01*
X332894Y173503D01*
X332894Y173503D01*
X333657Y173707D01*
X333657Y173707D01*
X334340Y174102D01*
X334340D01*
X334898Y174660D01*
X334898Y174660D01*
X335293Y175343D01*
X335293Y175343D01*
X335497Y176105D01*
X335728Y176439D01*
X336990Y178059D01*
X338825Y179492D01*
X339654Y179922D01*
X343890D01*
X345543Y179236D01*
X347140Y177483D01*
X348132Y176491D01*
X352682Y171940D01*
X353543Y171079D01*
X353964Y170905D01*
X355460D01*
X355547Y170822D01*
X355841Y170700D01*
X356159D01*
X356159Y170700D01*
X360684Y168520D01*
X360684Y168520D01*
Y122480D01*
X360684D01*
X360684Y119838D01*
X357457Y116610D01*
X324173Y83327D01*
X316500Y91000D01*
Y102347D01*
X320577Y106423D01*
X320577Y106423D01*
X320754Y106688D01*
X320816Y107000D01*
X320816Y107000D01*
Y277000D01*
X320754Y277312D01*
X320577Y277577D01*
X320577Y277577D01*
X316500Y281653D01*
Y340547D01*
X317394Y345503D01*
X318157Y345707D01*
Y345707D01*
X318840Y346102D01*
X323547Y346810D01*
X324602Y346660D01*
X325160Y346102D01*
X325160Y346102D01*
X325160D01*
X325843Y345707D01*
X326606Y345503D01*
X327395D01*
X328157Y345707D01*
X328840Y346102D01*
X328840Y346102D01*
X329398Y346660D01*
X331781Y346998D01*
X332220D01*
X334602Y346660D01*
X335160Y346102D01*
X335160Y346102D01*
X335843Y345707D01*
X336606Y345503D01*
X337394D01*
X338157Y345707D01*
X338840Y346102D01*
X338840Y346102D01*
X339398Y346660D01*
X341780Y346998D01*
X342219D01*
X344602Y346660D01*
X345160Y346102D01*
X345160Y346102D01*
X345843Y345707D01*
X346605Y345503D01*
X347394D01*
X348157Y345707D01*
X348840Y346102D01*
X348840Y346102D01*
X349398Y346660D01*
X351781Y346998D01*
X352220D01*
X354602Y346660D01*
X355160Y346102D01*
X355843Y345707D01*
X355843D01*
X356606Y345503D01*
X356606Y345503D01*
X357395Y345503D01*
X357395Y345503D01*
X358157Y345707D01*
X358157Y345707D01*
X358840Y346102D01*
X358840Y346102D01*
X359398Y346660D01*
X359793Y347343D01*
X359997Y348106D01*
Y348895D01*
X359793Y349657D01*
X359398Y350340D01*
X358840Y350898D01*
X358840Y350898D01*
X358157Y351293D01*
X358157Y351293D01*
X357395Y351497D01*
X357395Y351497D01*
X356606Y351497D01*
X356606Y351497D01*
X355843Y351293D01*
X355843D01*
X355160Y350898D01*
X354602Y350340D01*
X352220Y350002D01*
X351781D01*
X349398Y350340D01*
X348840Y350898D01*
X348840Y350898D01*
X348157Y351293D01*
X347394Y351497D01*
X346605D01*
X345843Y351293D01*
X345160Y350898D01*
X345160Y350898D01*
X344602Y350340D01*
X342219Y350002D01*
X341780D01*
X339398Y350340D01*
X338840Y350898D01*
X338840Y350898D01*
X338157Y351293D01*
X337394Y351497D01*
X336606D01*
X335843Y351293D01*
X335160Y350898D01*
X335160Y350898D01*
X334602Y350340D01*
X332220Y350002D01*
X331781D01*
X329398Y350340D01*
X328840Y350898D01*
X328840Y350898D01*
X328157Y351293D01*
X327395Y351497D01*
X326606D01*
X326318Y351420D01*
X324909Y352477D01*
X324808Y352719D01*
X325387Y357470D01*
X341509Y370115D01*
X346102Y372160D01*
X346660Y371602D01*
X346660D01*
X347343Y371207D01*
X347343Y371207D01*
X348106Y371003D01*
X348106Y371003D01*
X348895Y371003D01*
X349657Y371207D01*
X350340Y371602D01*
X350340D01*
X350503Y371765D01*
X354046Y371369D01*
X355503Y371003D01*
X355710Y371003D01*
X361497D01*
Y376997D01*
X358385D01*
X356659Y381997D01*
X367500Y390500D01*
X370000Y393000D01*
X722500D01*
X755500Y360000D01*
D02*
G37*
G36*
X359599Y180658D02*
X360034Y180086D01*
X359392Y177122D01*
X354420Y174329D01*
X354141Y174414D01*
X352816Y175612D01*
X351759Y176669D01*
X350644Y180056D01*
X354088Y183923D01*
X356839D01*
X359599Y180658D01*
D02*
G37*
G36*
X378918Y193684D02*
X379196Y193671D01*
X382833Y193258D01*
X383550Y192742D01*
X384047Y192322D01*
X384341Y192200D01*
X384659D01*
X384953Y192322D01*
X386549Y193291D01*
X387773Y193626D01*
X388050Y193679D01*
X388255Y193657D01*
X390362Y192702D01*
X392684Y191112D01*
Y150560D01*
Y149716D01*
X392089Y149122D01*
X367316Y124348D01*
X362316Y126419D01*
Y188296D01*
Y189140D01*
X362369Y189216D01*
X366838Y193684D01*
X367655D01*
X378918D01*
D02*
G37*
%LPC*%
G36*
X514894Y377497D02*
X514894Y377497D01*
X514106Y377497D01*
X514105Y377497D01*
X513343Y377293D01*
X513343Y377293D01*
X512660Y376898D01*
X512102Y376340D01*
X511707Y375657D01*
X511503Y374894D01*
Y374106D01*
X511707Y373343D01*
X512102Y372660D01*
X512660Y372102D01*
X512660Y372102D01*
X513343Y371707D01*
X513343Y371707D01*
X514105Y371503D01*
X514106Y371503D01*
X514894Y371503D01*
X514894Y371503D01*
X515657Y371707D01*
X515657D01*
X516340Y372102D01*
X516898Y372660D01*
X519280Y372998D01*
X519720D01*
X522102Y372660D01*
X522660Y372102D01*
X522660Y372102D01*
X523343Y371707D01*
X524106Y371503D01*
X524895D01*
X525657Y371707D01*
X526340Y372102D01*
X526340Y372102D01*
X526898Y372660D01*
X529281Y372998D01*
X529719D01*
X532102Y372660D01*
X532660Y372102D01*
X533343Y371707D01*
X534105Y371503D01*
X534895Y371503D01*
X539014Y371984D01*
X541503Y371503D01*
X541710Y371503D01*
X547497D01*
Y377497D01*
X541710D01*
X541503Y377497D01*
X539014Y377016D01*
X539014D01*
X539014Y377015D01*
Y377016D01*
X536503Y376735D01*
X536340Y376898D01*
X535657Y377293D01*
X534895Y377497D01*
X534105D01*
X533343Y377293D01*
X532660Y376898D01*
X532102Y376340D01*
X529719Y376002D01*
X529281D01*
X526898Y376340D01*
X526340Y376898D01*
X526340Y376898D01*
X525657Y377293D01*
X524895Y377497D01*
X524106D01*
X523343Y377293D01*
X522660Y376898D01*
X522660Y376898D01*
X522102Y376340D01*
X519720Y376002D01*
X519280D01*
X516898Y376340D01*
X516340Y376898D01*
X515657Y377293D01*
X515657D01*
X515491Y377337D01*
X514894Y377497D01*
D02*
G37*
G36*
X717606Y385935D02*
X707764D01*
X707534Y385840D01*
X707439Y385610D01*
Y377736D01*
X707534Y377507D01*
X707764Y377412D01*
X717606D01*
X717836Y377507D01*
X717931Y377736D01*
Y385610D01*
X717836Y385840D01*
X717606Y385935D01*
D02*
G37*
G36*
X619605Y375497D02*
X618843Y375293D01*
X618843D01*
X618160Y374898D01*
X617602Y374340D01*
X615219Y374002D01*
X614781D01*
X612398Y374340D01*
X611840Y374898D01*
X611840Y374898D01*
X611157Y375293D01*
X610394Y375497D01*
X609606D01*
X608843Y375293D01*
X608160Y374898D01*
X608160Y374898D01*
X607602Y374340D01*
X605220Y374002D01*
X604780D01*
X602398Y374340D01*
X601840Y374898D01*
X601840Y374898D01*
X601157Y375293D01*
X600394Y375497D01*
X599606D01*
X598843Y375293D01*
X598160Y374898D01*
X598160Y374898D01*
X597602Y374340D01*
X595220Y374002D01*
X594780D01*
X592398Y374340D01*
X591840Y374898D01*
X591840Y374898D01*
X591157Y375293D01*
X590394Y375497D01*
X589606D01*
X588843Y375293D01*
X588160Y374898D01*
X588160Y374898D01*
X587602Y374340D01*
X585219Y374002D01*
X584781D01*
X582398Y374340D01*
X581840Y374898D01*
X581840Y374898D01*
X581157Y375293D01*
X580395Y375497D01*
X579605D01*
X578843Y375293D01*
X578160Y374898D01*
X578160Y374898D01*
X577602Y374340D01*
X575219Y374002D01*
X574781D01*
X572398Y374340D01*
X571840Y374898D01*
X571157Y375293D01*
X571157D01*
X570395Y375497D01*
X570395Y375497D01*
X569605Y375497D01*
X569605Y375497D01*
X568843Y375293D01*
X568843Y375293D01*
X568160Y374898D01*
X567602Y374340D01*
X567207Y373657D01*
X567003Y372895D01*
Y372106D01*
X567207Y371343D01*
X567602Y370660D01*
X568160Y370102D01*
X568160Y370102D01*
X568843Y369707D01*
X568843Y369707D01*
X569605Y369503D01*
X569605Y369503D01*
X570395Y369503D01*
X570395Y369503D01*
X571157Y369707D01*
X571157D01*
X571840Y370102D01*
X572398Y370660D01*
X574781Y370998D01*
X575219D01*
X577602Y370660D01*
X578160Y370102D01*
X578160Y370102D01*
X578843Y369707D01*
X579605Y369503D01*
X580395D01*
X581157Y369707D01*
X581840Y370102D01*
X581840Y370102D01*
X582398Y370660D01*
X584781Y370998D01*
X585219D01*
X587602Y370660D01*
X588160Y370102D01*
X588160Y370102D01*
X588843Y369707D01*
X589606Y369503D01*
X590394D01*
X591157Y369707D01*
X591840Y370102D01*
X591840Y370102D01*
X592398Y370660D01*
X594780Y370998D01*
X595220D01*
X597602Y370660D01*
X598160Y370102D01*
X598160Y370102D01*
X598843Y369707D01*
X599606Y369503D01*
X600394D01*
X601157Y369707D01*
X601840Y370102D01*
X601840Y370102D01*
X602398Y370660D01*
X604780Y370998D01*
X605220D01*
X607602Y370660D01*
X608160Y370102D01*
X608160Y370102D01*
X608843Y369707D01*
X609606Y369503D01*
X610394D01*
X611157Y369707D01*
X611840Y370102D01*
X611840Y370102D01*
X612398Y370660D01*
X614781Y370998D01*
X615219D01*
X617602Y370660D01*
X618160Y370102D01*
X618843Y369707D01*
X618843D01*
X619605Y369503D01*
X619605Y369503D01*
X620395Y369503D01*
X620395Y369503D01*
X621157Y369707D01*
X621157Y369707D01*
X621840Y370102D01*
X621840Y370102D01*
X622398Y370660D01*
X622793Y371343D01*
X622997Y372106D01*
Y372895D01*
X622793Y373657D01*
X622398Y374340D01*
X621840Y374898D01*
X621840Y374898D01*
X621157Y375293D01*
X621157Y375293D01*
X620395Y375497D01*
X620395Y375497D01*
X619605Y375497D01*
X619605Y375497D01*
D02*
G37*
G36*
X729614Y369400D02*
X696150D01*
X695920Y369304D01*
X695825Y369075D01*
Y361201D01*
X695920Y360971D01*
X696150Y360876D01*
X729614D01*
X729844Y360971D01*
X729939Y361201D01*
Y369075D01*
X729844Y369304D01*
X729614Y369400D01*
D02*
G37*
G36*
X377841Y361494D02*
X377547Y361373D01*
X377322Y361148D01*
X377200Y360854D01*
Y360535D01*
X377322Y360241D01*
X377547Y360016D01*
X377841Y359894D01*
X378159Y359894D01*
X378453Y360016D01*
X378678Y360241D01*
X378800Y360535D01*
X378800Y360854D01*
X378678Y361148D01*
X378453Y361373D01*
X378159Y361494D01*
X377841Y361494D01*
D02*
G37*
G36*
X726131Y353800D02*
X725671Y353721D01*
X724453Y353589D01*
X724453Y353589D01*
X724098Y353582D01*
X723000Y353559D01*
X721547Y353589D01*
X720329Y353721D01*
X719869Y353800D01*
X719131D01*
X718419Y353609D01*
X717781Y353241D01*
X717781Y353240D01*
X717259Y352719D01*
X714703Y352266D01*
X712016Y352494D01*
X711494Y353016D01*
X710856Y353384D01*
X710144Y353575D01*
X710144Y353575D01*
X709407Y353575D01*
Y353575D01*
X708694Y353384D01*
X708056Y353016D01*
X707535Y352494D01*
X707166Y351856D01*
X706975Y351144D01*
Y350407D01*
X707166Y349694D01*
X707535Y349056D01*
X708056Y348535D01*
X708056Y348534D01*
X708694Y348166D01*
X708694Y348166D01*
X709407Y347975D01*
X709407Y347975D01*
X710144Y347975D01*
X710144Y347975D01*
X710856Y348166D01*
X711494Y348534D01*
X712016Y349056D01*
X714573Y349509D01*
X716440Y349350D01*
X717386Y349154D01*
X717781Y348760D01*
X717781Y348759D01*
X718419Y348391D01*
X718419Y348391D01*
X719131Y348200D01*
X719132Y348200D01*
X719869Y348200D01*
X723000Y348330D01*
X726131Y348200D01*
X726869D01*
X726869Y348200D01*
X727581Y348391D01*
X728219Y348759D01*
X728741Y349281D01*
X729109Y349919D01*
X729300Y350631D01*
Y351369D01*
X729109Y352081D01*
X729109Y352081D01*
X728741Y352719D01*
Y352719D01*
X728219Y353241D01*
X728219Y353241D01*
X727581Y353609D01*
X727581Y353609D01*
X726869Y353800D01*
X726869Y353800D01*
X726131Y353800D01*
X726131Y353800D01*
D02*
G37*
G36*
X588303Y353012D02*
X588303Y353012D01*
X586257D01*
X578502Y353012D01*
X568502D01*
X565498D01*
X553111D01*
X550469Y353012D01*
X550157Y352950D01*
X549892Y352774D01*
X549892Y352774D01*
X549141Y352022D01*
X547027Y351273D01*
X545233Y351062D01*
X543157Y351293D01*
X542394Y351497D01*
X541606D01*
X540843Y351293D01*
X540160Y350898D01*
X540160Y350898D01*
X539602Y350340D01*
X537219Y350002D01*
X536781D01*
X534398Y350340D01*
X533840Y350898D01*
X533840Y350898D01*
X533157Y351293D01*
X532395Y351497D01*
X531605D01*
X530843Y351293D01*
X530160Y350898D01*
X530160Y350898D01*
X529602Y350340D01*
X527219Y350002D01*
X526781D01*
X524398Y350340D01*
X523840Y350898D01*
X523840Y350898D01*
X523157Y351293D01*
X522395Y351497D01*
X521605D01*
X520843Y351293D01*
X520160Y350898D01*
X520160Y350898D01*
X519602Y350340D01*
X517219Y350002D01*
X516781D01*
X514398Y350340D01*
X513840Y350898D01*
X513157Y351293D01*
X513157D01*
X512395Y351497D01*
X512395Y351497D01*
X511606Y351497D01*
X511605Y351497D01*
X510843Y351293D01*
X510843Y351293D01*
X510160Y350898D01*
X509602Y350340D01*
X509207Y349657D01*
X509003Y348895D01*
Y348106D01*
X509207Y347343D01*
X509602Y346660D01*
X510160Y346102D01*
X510160Y346102D01*
X510843Y345707D01*
X510843Y345707D01*
X511605Y345503D01*
X511606Y345503D01*
X512395Y345503D01*
X512395Y345503D01*
X513157Y345707D01*
X513157D01*
X513840Y346102D01*
X514398Y346660D01*
X516781Y346998D01*
X517219D01*
X519602Y346660D01*
X520160Y346102D01*
X520160Y346102D01*
X520843Y345707D01*
X521605Y345503D01*
X522395D01*
X523157Y345707D01*
X523840Y346102D01*
X523840Y346102D01*
X524398Y346660D01*
X526781Y346998D01*
X527219D01*
X529602Y346660D01*
X530160Y346102D01*
X530160Y346102D01*
X530843Y345707D01*
X531605Y345503D01*
X532395D01*
X533157Y345707D01*
X533840Y346102D01*
X533840Y346102D01*
X534398Y346660D01*
X536781Y346998D01*
X537219D01*
X539602Y346660D01*
X540160Y346102D01*
X540160Y346102D01*
X540843Y345707D01*
X540991Y345607D01*
X542348Y343091D01*
X542621Y341191D01*
X542676Y340330D01*
X540280Y337934D01*
X508167Y305820D01*
X504923Y302577D01*
X504746Y302312D01*
X504684Y302000D01*
X504684Y301009D01*
X504684Y297417D01*
Y229083D01*
X504684Y224500D01*
X504684Y224500D01*
X504746Y224188D01*
X504923Y223923D01*
X508164Y220683D01*
X516526Y212320D01*
X519923Y208923D01*
X519923Y208923D01*
X520188Y208746D01*
X520500Y208684D01*
X522160D01*
X524437Y206416D01*
X524490Y206357D01*
X524835Y205956D01*
X525446Y205050D01*
X525691Y204513D01*
X525674Y203202D01*
X525647Y201106D01*
Y200788D01*
X525660Y199732D01*
X525700Y196341D01*
X525822Y196047D01*
X526047Y195822D01*
X526341Y195700D01*
X526659D01*
X526953Y195822D01*
X527178Y196047D01*
X527300Y196341D01*
Y197016D01*
X527345Y199727D01*
X527521Y201972D01*
X527868Y202815D01*
X528383Y203942D01*
X530221Y206587D01*
X530374Y206687D01*
X531320Y207255D01*
X531453Y207322D01*
X531678Y207547D01*
X531800Y207841D01*
X531823Y208049D01*
X532346Y212544D01*
X532800Y215841D01*
X532800Y216159D01*
X532800Y216159D01*
X532758Y216400D01*
X532464Y218078D01*
X532233Y219393D01*
X531989Y220868D01*
X532044Y223585D01*
Y223903D01*
X532124Y226681D01*
X532300Y228841D01*
Y229159D01*
X532178Y229453D01*
X532148Y229484D01*
X531561Y230644D01*
X530975Y232086D01*
X530372Y234102D01*
X530300Y234419D01*
Y234659D01*
X530178Y234953D01*
X529953Y235178D01*
X529659Y235300D01*
X529341D01*
X529047Y235178D01*
X528822Y234953D01*
X528700Y234659D01*
X528700Y232676D01*
X528700Y230161D01*
X528700Y228505D01*
X528700Y224659D01*
X528680Y224340D01*
X528673Y224246D01*
X528394Y221183D01*
X527758Y219819D01*
X526800Y218164D01*
X526426Y217727D01*
X526305Y217433D01*
Y217115D01*
X526432Y216716D01*
X526520Y216433D01*
X527498Y213040D01*
X524856Y211381D01*
X522490Y210592D01*
X519776Y211801D01*
X521467Y210492D01*
X521438Y210492D01*
X521140Y210694D01*
X519737Y211818D01*
X519776Y211801D01*
X519281Y212184D01*
X517714Y213440D01*
X508555Y222599D01*
X508141Y223013D01*
X507989Y223170D01*
X506825Y224409D01*
X506538Y224930D01*
X506372Y225501D01*
X506319Y227201D01*
X506316Y227419D01*
Y228004D01*
Y298496D01*
Y299081D01*
X506319Y299295D01*
X506371Y300995D01*
X506537Y301564D01*
X506831Y302098D01*
X507981Y303323D01*
X508133Y303480D01*
X508549Y303895D01*
X542981Y338328D01*
X544320Y339667D01*
X546274Y341620D01*
X546451Y341885D01*
X546513Y342197D01*
X546513Y342678D01*
X547635Y343732D01*
X551512Y345528D01*
X551606Y345503D01*
X552394D01*
X553157Y345707D01*
X554131Y345731D01*
X558101Y343245D01*
X558101Y343245D01*
X558101Y343245D01*
X558101Y343245D01*
X560455Y340891D01*
X563671Y337675D01*
X583425Y317921D01*
X583935Y317411D01*
X585175Y316091D01*
X585462Y315570D01*
X585633Y314979D01*
X585681Y313278D01*
X585684Y313081D01*
Y312496D01*
Y245504D01*
Y244919D01*
X585680Y244656D01*
X585616Y242961D01*
X585458Y242416D01*
X585189Y241924D01*
X583935Y240589D01*
X583363Y240016D01*
X566990Y223644D01*
X564120Y220774D01*
X563914Y220586D01*
X561201Y218427D01*
X560684Y218282D01*
X559838Y218136D01*
X559530Y218111D01*
X559236Y217989D01*
X559011Y217764D01*
X558889Y217470D01*
X558889Y217461D01*
X558879Y217349D01*
X558809Y216664D01*
X558750Y216313D01*
X558676Y215929D01*
X556653Y213387D01*
X555254Y212805D01*
X553883Y212366D01*
X552486Y212055D01*
X551341Y211871D01*
X551047Y211749D01*
X550822Y211524D01*
X550700Y211230D01*
X550700Y206659D01*
X550546Y203505D01*
X550472Y200431D01*
Y200113D01*
X550562Y197894D01*
X550615Y195105D01*
X550617Y194926D01*
X550502Y193734D01*
X550375Y192410D01*
X550200Y190659D01*
X550200Y190341D01*
X550200Y190341D01*
X550219Y188926D01*
X550258Y186006D01*
X550200Y184246D01*
Y183928D01*
X550200Y183927D01*
X550358Y183156D01*
X550428Y182239D01*
X550347Y180876D01*
X550200Y180159D01*
X550200Y180159D01*
Y177841D01*
X550322Y177547D01*
X550547Y177322D01*
X552822Y174906D01*
X554007Y173482D01*
X554233Y173257D01*
X554233Y173257D01*
X554527Y173136D01*
X554845D01*
X555139Y173257D01*
X555139Y173257D01*
X555364Y173482D01*
X555549Y173869D01*
X556214Y174840D01*
X556897Y175540D01*
X558245Y175563D01*
X562387Y171836D01*
Y169129D01*
X562561Y168708D01*
X563440Y167829D01*
X563861Y167655D01*
X567604D01*
X569454Y168143D01*
X569732Y168205D01*
X570011Y168143D01*
X571861Y167655D01*
X575604D01*
X577454Y168143D01*
X577732Y168205D01*
X578011Y168143D01*
X579861Y167655D01*
X583604D01*
X585454Y168143D01*
X585732Y168205D01*
X586011Y168143D01*
X587861Y167655D01*
X591604D01*
X593454Y168143D01*
X593732Y168205D01*
X594011Y168143D01*
X595861Y167655D01*
X599604D01*
X601454Y168143D01*
X601732Y168205D01*
X602011Y168143D01*
X603861Y167655D01*
X607604D01*
X609454Y168143D01*
X609732Y168205D01*
X610011Y168143D01*
X611861Y167655D01*
X615604D01*
X617454Y168143D01*
X617732Y168205D01*
X618011Y168143D01*
X619325Y167796D01*
X621261Y165486D01*
X621486Y165261D01*
X621780Y165139D01*
X622098Y165139D01*
X622100Y165140D01*
X622393Y165261D01*
X623788Y165852D01*
X625441Y166552D01*
X627159Y167200D01*
X627453Y167322D01*
X627453Y167322D01*
X629165Y168545D01*
X629165Y168545D01*
X629513Y168793D01*
X630953Y169822D01*
X631178Y170047D01*
X631782Y170649D01*
X632488Y171099D01*
X635240Y172120D01*
X636262Y172029D01*
X640489Y167803D01*
X641146Y167146D01*
X642016Y165390D01*
X641898Y163679D01*
X641651Y161609D01*
X641613Y161409D01*
X638219Y158015D01*
X638044Y157594D01*
X638044Y156351D01*
X638045Y156351D01*
X638219Y155930D01*
X640865Y153284D01*
X641286Y153109D01*
X641286Y153109D01*
X641702Y153109D01*
X642529D01*
X642529Y153109D01*
X643168Y153246D01*
X643823Y153132D01*
X646570Y152088D01*
X647700Y151341D01*
X647822Y151047D01*
X648047Y150822D01*
X648782Y148782D01*
X649270Y146663D01*
X649341Y146194D01*
X649358Y145990D01*
Y145037D01*
X649533Y144616D01*
X652179Y141970D01*
X653482Y141211D01*
X654079Y140845D01*
X654227Y140614D01*
X655189Y138960D01*
X657836Y136313D01*
X659139Y135555D01*
X659735Y135188D01*
X659883Y134957D01*
X660846Y133303D01*
X663493Y130656D01*
X664796Y129898D01*
X665392Y129531D01*
X665540Y129300D01*
X666503Y127646D01*
X669149Y124999D01*
X670453Y124241D01*
X671049Y123874D01*
X671197Y123643D01*
X672160Y121989D01*
X674806Y119343D01*
X676110Y118584D01*
X676706Y118218D01*
X676854Y117986D01*
X677817Y116332D01*
X680463Y113686D01*
X681767Y112927D01*
X682363Y112561D01*
X682511Y112329D01*
X683473Y110676D01*
X686120Y108029D01*
X687424Y107270D01*
X688020Y106904D01*
X688168Y106673D01*
X689130Y105019D01*
X689848Y104301D01*
X691833Y102204D01*
X692783Y99370D01*
X693129Y98101D01*
X693248Y97578D01*
Y94291D01*
X696904D01*
X698023Y92463D01*
X698786Y89291D01*
X698467Y88739D01*
Y88739D01*
X698248Y87923D01*
X698248Y87923D01*
Y87674D01*
D01*
X698248Y87077D01*
X698248Y87077D01*
X698313Y86837D01*
X698313D01*
X698403Y86501D01*
X698403Y86501D01*
X698467Y86261D01*
X698467Y86261D01*
X698765Y85745D01*
Y85745D01*
X698890Y85529D01*
X698890Y85529D01*
X699311Y85108D01*
X699311D01*
X699487Y84932D01*
X700003Y84634D01*
X700003Y84634D01*
X700003D01*
X700219Y84509D01*
X700219Y84509D01*
X701035Y84290D01*
X701035Y84290D01*
X701284Y84290D01*
X701284Y84290D01*
X701880D01*
X701880Y84290D01*
X702121Y84355D01*
X702121Y84355D01*
X702456Y84445D01*
X702456D01*
X702697Y84509D01*
X702697D01*
X703213Y84807D01*
X703213Y84807D01*
X703428Y84932D01*
X703429Y84932D01*
X703601Y85104D01*
X705038Y85446D01*
X706458Y85477D01*
X707877Y85446D01*
X709315Y85104D01*
X709487Y84932D01*
X709487D01*
X710004Y84634D01*
X710219Y84509D01*
X711035Y84290D01*
X711284Y84290D01*
X711880Y84290D01*
X712121Y84355D01*
X712456Y84445D01*
X712697Y84509D01*
X713213Y84807D01*
X713428Y84932D01*
X713428D01*
X713601Y85104D01*
X715038Y85446D01*
X716458Y85477D01*
X717877Y85446D01*
X719315Y85104D01*
X719487Y84932D01*
X719487D01*
X720004Y84634D01*
X720219Y84509D01*
X721035Y84290D01*
X721284Y84290D01*
X721880Y84290D01*
X722121Y84355D01*
X722456Y84445D01*
X722697Y84509D01*
X723213Y84807D01*
X723428Y84932D01*
X723428D01*
X723601Y85104D01*
X725038Y85446D01*
X726458Y85477D01*
X727877Y85446D01*
X729315Y85104D01*
X729487Y84932D01*
X729487D01*
X730003Y84634D01*
X730219Y84509D01*
X731035Y84290D01*
X731284Y84290D01*
X731880Y84290D01*
X732121Y84355D01*
X732456Y84445D01*
X732697Y84509D01*
X733213Y84807D01*
X733428Y84932D01*
X733428D01*
X733601Y85104D01*
X735038Y85446D01*
X736458Y85477D01*
X737877Y85446D01*
X739315Y85104D01*
X739487Y84932D01*
X739487Y84932D01*
X740003Y84634D01*
X740003D01*
X740219Y84509D01*
X740219D01*
X741035Y84290D01*
X741035Y84290D01*
X741284D01*
X741284Y84290D01*
X741880Y84290D01*
X741880Y84290D01*
X742121Y84355D01*
X742456Y84445D01*
D01*
X742697Y84509D01*
X742697Y84509D01*
X743213Y84807D01*
X743429Y84932D01*
X743850Y85353D01*
X743850D01*
X744026Y85529D01*
X744026Y85529D01*
X744324Y86046D01*
X744324Y86046D01*
X744449Y86261D01*
X744449Y86261D01*
X744667Y87077D01*
X744667Y87077D01*
X744667Y87326D01*
Y87326D01*
Y87923D01*
X744667Y87923D01*
X744449Y88739D01*
Y88739D01*
X744026Y89471D01*
Y89471D01*
X744026Y89471D01*
X743314Y90791D01*
X742549Y92210D01*
X742473Y93095D01*
X742473Y93095D01*
Y94810D01*
Y99377D01*
X742298Y99798D01*
X739877Y102219D01*
X739393Y108585D01*
X739579Y108992D01*
X742371Y111783D01*
Y111784D01*
X742545Y112204D01*
Y113447D01*
X742371Y113868D01*
Y113868D01*
X739724Y116514D01*
X738070Y117477D01*
X737839Y117625D01*
X737472Y118221D01*
X736714Y119525D01*
X734067Y122171D01*
X732413Y123134D01*
X732182Y123282D01*
X731815Y123878D01*
X731057Y125182D01*
X728410Y127828D01*
X726756Y128791D01*
X726525Y128939D01*
X726159Y129535D01*
X725400Y130839D01*
X722753Y133485D01*
X721100Y134448D01*
X720868Y134596D01*
X720502Y135192D01*
X719743Y136495D01*
X717097Y139142D01*
X715443Y140104D01*
X715211Y140252D01*
X714845Y140849D01*
X714086Y142152D01*
X711440Y144799D01*
X709786Y145761D01*
X709554Y145909D01*
X709188Y146505D01*
X708429Y147809D01*
X705783Y150455D01*
X704738Y151064D01*
X703467Y156169D01*
X704856Y158453D01*
X705285Y158568D01*
X705285Y158568D01*
X705459Y158614D01*
X705459Y158614D01*
X706043Y158952D01*
X706043Y158952D01*
X706200Y159042D01*
X706200Y159042D01*
X706677Y159519D01*
X706805Y159647D01*
X706805Y159647D01*
X707142Y160231D01*
X707232Y160388D01*
X707232Y160388D01*
X707454Y161214D01*
X707454Y161214D01*
Y161395D01*
X707454Y161395D01*
X707454Y162069D01*
X707429Y162161D01*
Y162161D01*
X707279Y162722D01*
X707279Y162722D01*
X707232Y162896D01*
X706895Y163480D01*
X706895Y163480D01*
X706805Y163637D01*
X706327Y164114D01*
X706200Y164242D01*
X705615Y164579D01*
D01*
X705459Y164669D01*
X704633Y164891D01*
X704452Y164891D01*
X704452D01*
X703777Y164891D01*
X703603Y164844D01*
X703603Y164844D01*
X703125Y164716D01*
X703125D01*
X702951Y164669D01*
X702951Y164669D01*
X702366Y164332D01*
X702366D01*
X702210Y164242D01*
X702210D01*
X701733Y163764D01*
X701733D01*
X701605Y163637D01*
X701605Y163637D01*
X701268Y163052D01*
X701268D01*
X701177Y162896D01*
X701177Y162896D01*
X700956Y162070D01*
X700956Y162069D01*
X700956Y161923D01*
X698560Y160654D01*
X696149Y160090D01*
X694469Y161769D01*
X692815Y162732D01*
X692584Y162880D01*
X692218Y163476D01*
X691459Y164779D01*
X688812Y167426D01*
X687159Y168389D01*
X686927Y168537D01*
X686561Y169133D01*
X685802Y170436D01*
X683156Y173083D01*
X681502Y174046D01*
X681270Y174193D01*
X680904Y174790D01*
X680145Y176093D01*
X677499Y178740D01*
X675845Y179702D01*
X675613Y179850D01*
X675247Y180447D01*
X674488Y181750D01*
X671842Y184397D01*
X670188Y185359D01*
X669957Y185507D01*
X669590Y186103D01*
X668832Y187407D01*
X666185Y190053D01*
X665764Y190228D01*
X664522D01*
X664101Y190053D01*
X661494Y187447D01*
X659603Y185836D01*
X657890Y185587D01*
X655882Y186214D01*
X655461Y186389D01*
X655240D01*
X653265Y188010D01*
X651078Y190551D01*
Y194915D01*
X650903Y195336D01*
X650025Y196214D01*
X649604Y196389D01*
X645861D01*
X644011Y195900D01*
X643732Y195839D01*
X643454Y195900D01*
X641604Y196389D01*
X639483D01*
X638245Y197034D01*
X637237Y198161D01*
X636083Y199663D01*
X635631Y200495D01*
X635650Y201010D01*
X635678Y201047D01*
X635800Y201341D01*
X635800Y201659D01*
X635678Y201953D01*
X635453Y202178D01*
X635159Y202300D01*
X634841D01*
X634547Y202178D01*
X634322Y201953D01*
X634200Y201659D01*
X634200Y201341D01*
X634213Y201034D01*
X634159Y200905D01*
X633500Y200333D01*
X633158Y200183D01*
X631059Y199464D01*
X628313Y199342D01*
X628178Y199453D01*
X627953Y199678D01*
X627659Y199800D01*
X627341D01*
X627047Y199678D01*
X626822Y199453D01*
X624608Y197634D01*
X622447Y196389D01*
X621861D01*
X620011Y195900D01*
X619732Y195839D01*
X619454Y195900D01*
X617604Y196389D01*
X613861D01*
X612011Y195900D01*
X611732Y195839D01*
X611454Y195900D01*
X609604Y196389D01*
X605861D01*
X604011Y195900D01*
X603732Y195839D01*
X603454Y195900D01*
X601604Y196389D01*
X597861D01*
X596011Y195900D01*
X595732Y195839D01*
X595454Y195900D01*
X593604Y196389D01*
X589861D01*
X588011Y195900D01*
X587732Y195839D01*
X587454Y195900D01*
X585604Y196389D01*
X581861D01*
X580011Y195900D01*
X579732Y195839D01*
X579454Y195900D01*
X577604Y196389D01*
X573861D01*
X572011Y195900D01*
X571732Y195839D01*
X571454Y195900D01*
X569604Y196389D01*
X565861D01*
X564011Y195900D01*
X563732Y195839D01*
X563454Y195900D01*
X561604Y196389D01*
X557861D01*
X555401Y197853D01*
X553454Y200521D01*
X553507Y201318D01*
X553753Y201605D01*
X553939Y201807D01*
X554585Y202454D01*
X554707Y202748D01*
X555674Y206012D01*
X560352Y206791D01*
X560803Y206710D01*
X560841Y206700D01*
X560841Y206700D01*
X561159Y206700D01*
X561453Y206822D01*
X561678Y207047D01*
X561800Y207341D01*
Y207659D01*
X561678Y207953D01*
X561453Y208178D01*
X561159Y208300D01*
X559935Y210067D01*
X558530Y212173D01*
X558559Y212905D01*
X561091Y215438D01*
X563931Y218277D01*
X566608Y220955D01*
X583832Y238178D01*
X587077Y241423D01*
X587254Y241688D01*
X587316Y242000D01*
X587316Y246583D01*
Y311417D01*
X587316Y316000D01*
X587316Y316000D01*
X587254Y316312D01*
X587077Y316577D01*
X586397Y317256D01*
X583515Y320139D01*
X566940Y336713D01*
X563243Y340411D01*
Y340411D01*
X563556Y344861D01*
X563556Y344861D01*
X567699Y346930D01*
X569602Y346660D01*
X570160Y346102D01*
X570843Y345707D01*
X571605Y345503D01*
X572395D01*
X573157Y345707D01*
X573840Y346102D01*
X574398Y346660D01*
X576781Y346998D01*
X577219D01*
X579602Y346660D01*
X580160Y346102D01*
X580843Y345707D01*
X581605Y345503D01*
X582395D01*
X583157Y345707D01*
X583840Y346102D01*
X584398Y346660D01*
X586781Y346998D01*
X587219D01*
X589602Y346660D01*
X590160Y346102D01*
X590160D01*
X590843Y345707D01*
X591606Y345503D01*
X592394D01*
X593157Y345707D01*
X593840Y346102D01*
X594398Y346660D01*
X596780Y346998D01*
X597220D01*
X599602Y346660D01*
X600160Y346102D01*
X600160Y346102D01*
X600843Y345707D01*
X601606Y345503D01*
X602394D01*
X603157Y345707D01*
X603840Y346102D01*
X603840Y346102D01*
X604398Y346660D01*
X606780Y346998D01*
X607220D01*
X609602Y346660D01*
X610160Y346102D01*
X610843Y345707D01*
X611606Y345503D01*
X612395Y345503D01*
X616514Y345984D01*
X619003Y345503D01*
X619210Y345503D01*
X624997D01*
Y351497D01*
X619210D01*
X619003Y351497D01*
X616514Y351016D01*
X616514D01*
X616514Y351015D01*
Y351016D01*
X614003Y350735D01*
X613840Y350898D01*
X613157Y351293D01*
X612395Y351497D01*
X611606D01*
X610843Y351293D01*
X610160Y350898D01*
X609602Y350340D01*
X607220Y350002D01*
X606780D01*
X604398Y350340D01*
X603840Y350898D01*
X603840Y350898D01*
X603157Y351293D01*
X602394Y351497D01*
X601606D01*
X600843Y351293D01*
X600160Y350898D01*
X600160Y350898D01*
X599602Y350340D01*
X597220Y350002D01*
X596780D01*
X594398Y350340D01*
X593840Y350898D01*
X593840Y350898D01*
X593157Y351293D01*
X592394Y351497D01*
X591606D01*
X590190Y351464D01*
X588880Y352774D01*
X588615Y352950D01*
X588303Y353012D01*
D02*
G37*
G36*
X385841Y337800D02*
X385547Y337678D01*
X385322Y337453D01*
X385200Y337159D01*
Y336841D01*
X385322Y336547D01*
X385547Y336322D01*
X385841Y336200D01*
X386159Y336200D01*
X386453Y336322D01*
X386678Y336547D01*
X386800Y336841D01*
X386800Y337159D01*
X386678Y337453D01*
X386453Y337678D01*
X386159Y337800D01*
X385841Y337800D01*
D02*
G37*
G36*
X634881Y297050D02*
X634169Y296859D01*
X633531Y296491D01*
X633009Y295969D01*
X632641Y295331D01*
X632450Y294619D01*
Y293881D01*
X632641Y293169D01*
X633009Y292531D01*
X633531Y292009D01*
X634169Y291641D01*
X634881Y291450D01*
X635619D01*
X636331Y291641D01*
X636969Y292009D01*
X637491Y292531D01*
X637859Y293169D01*
X638050Y293881D01*
Y294619D01*
X637859Y295331D01*
X637491Y295969D01*
X636969Y296491D01*
X636331Y296859D01*
X635619Y297050D01*
X634881D01*
D02*
G37*
G36*
X331105Y289497D02*
X330343Y289293D01*
X329660Y288898D01*
X329102Y288340D01*
X329102Y288340D01*
X328707Y287657D01*
X328707Y287657D01*
X328503Y286895D01*
X328503Y286894D01*
X328503Y286105D01*
X328503Y286105D01*
X328707Y285343D01*
X328707Y285343D01*
X329102Y284660D01*
X329660Y284102D01*
X329998Y281719D01*
Y281280D01*
X329660Y278898D01*
X329102Y278340D01*
X329102Y278340D01*
X328707Y277657D01*
X328503Y276894D01*
Y276105D01*
X328707Y275343D01*
X329102Y274660D01*
X329102Y274660D01*
X329660Y274102D01*
X329998Y271720D01*
Y271281D01*
X329660Y268898D01*
X329102Y268340D01*
X328707Y267657D01*
X328503Y266895D01*
X328503Y266106D01*
X328984Y261986D01*
X328503Y259497D01*
X328503Y259290D01*
Y253503D01*
X334497D01*
Y259290D01*
X334497Y259497D01*
X334016Y261986D01*
Y261986D01*
X334015Y261986D01*
X334016D01*
X333735Y264497D01*
X333898Y264660D01*
X334293Y265343D01*
X334497Y266106D01*
Y266895D01*
X334293Y267657D01*
X333898Y268340D01*
X333340Y268898D01*
X333002Y271281D01*
Y271720D01*
X333340Y274102D01*
X333898Y274660D01*
X333898Y274660D01*
X334293Y275343D01*
X334497Y276105D01*
Y276894D01*
X334293Y277657D01*
X333898Y278340D01*
X333898Y278340D01*
X333340Y278898D01*
X333002Y281280D01*
Y281719D01*
X333340Y284102D01*
X333898Y284660D01*
X334293Y285343D01*
X334293Y285343D01*
X334497Y286105D01*
X334497Y286105D01*
Y286894D01*
X334497Y286895D01*
X334293Y287657D01*
X334293Y287657D01*
X333898Y288340D01*
X333898D01*
X333340Y288898D01*
X332657Y289293D01*
X331894Y289497D01*
X331105D01*
D02*
G37*
G36*
X612215Y251400D02*
X611921Y251278D01*
X611696Y251053D01*
X611574Y250759D01*
Y250441D01*
X611696Y250147D01*
X611921Y249922D01*
X612215Y249800D01*
X612533D01*
X612827Y249922D01*
X613052Y250147D01*
X613174Y250441D01*
X613174Y250759D01*
X613052Y251053D01*
X612827Y251278D01*
X612533Y251400D01*
X612215Y251400D01*
D02*
G37*
G36*
X615341Y244800D02*
X615047Y244678D01*
X614822Y244453D01*
X614700Y244159D01*
Y243841D01*
X614822Y243547D01*
X615047Y243322D01*
X615341Y243200D01*
X615659D01*
X615953Y243322D01*
X616178Y243547D01*
X616300Y243841D01*
X616300Y244159D01*
X616178Y244453D01*
X615953Y244678D01*
X615659Y244800D01*
X615341Y244800D01*
D02*
G37*
G36*
X649341Y241300D02*
X649047Y241178D01*
X648822Y240953D01*
X648700Y240659D01*
Y240341D01*
X648822Y240047D01*
X649047Y239822D01*
X649341Y239700D01*
X649659D01*
X649953Y239822D01*
X650178Y240047D01*
X650300Y240341D01*
X650300Y240659D01*
X650178Y240953D01*
X649953Y241178D01*
X649659Y241300D01*
X649341Y241300D01*
D02*
G37*
G36*
X418341Y230300D02*
X418047Y230178D01*
X417822Y229953D01*
X417700Y229659D01*
Y229341D01*
X417822Y229047D01*
X418047Y228822D01*
X418341Y228700D01*
X418659D01*
X418953Y228822D01*
X419178Y229047D01*
X419300Y229341D01*
X419300Y229659D01*
X419178Y229953D01*
X418953Y230178D01*
X418659Y230300D01*
X418341Y230300D01*
D02*
G37*
G36*
X549841Y229300D02*
X549547Y229178D01*
X549322Y228953D01*
X549200Y228659D01*
Y225841D01*
X549389Y223652D01*
X549511Y223358D01*
X549736Y223132D01*
X550030Y223011D01*
X550349Y223011D01*
X550642Y223132D01*
X550868Y223358D01*
X550989Y223652D01*
Y223970D01*
X550946Y225053D01*
X550800Y228657D01*
X550800Y228659D01*
X550678Y228953D01*
X550453Y229178D01*
X550159Y229300D01*
X549841Y229300D01*
D02*
G37*
G36*
X616341Y222300D02*
X616047Y222178D01*
X615822Y221953D01*
X615700Y221659D01*
Y221341D01*
X615822Y221047D01*
X616047Y220822D01*
X616341Y220700D01*
X616659D01*
X616953Y220822D01*
X617178Y221047D01*
X617300Y221341D01*
Y221659D01*
X617178Y221953D01*
X616953Y222178D01*
X616659Y222300D01*
X616341Y222300D01*
D02*
G37*
G36*
X635341Y217800D02*
X635047Y217678D01*
X634822Y217453D01*
X634700Y217159D01*
Y216841D01*
X634822Y216547D01*
X635047Y216322D01*
X635341Y216200D01*
X635659D01*
X635953Y216322D01*
X636178Y216547D01*
X636300Y216841D01*
Y217159D01*
X636178Y217453D01*
X635953Y217678D01*
X635659Y217800D01*
X635341Y217800D01*
D02*
G37*
G36*
X424841Y209300D02*
X424547Y209178D01*
X424322Y208953D01*
X424200Y208659D01*
Y208341D01*
X424322Y208047D01*
X424547Y207822D01*
X424841Y207700D01*
X425159D01*
X425453Y207822D01*
X425678Y208047D01*
X425800Y208341D01*
X425800Y208659D01*
X425678Y208953D01*
X425453Y209178D01*
X425159Y209300D01*
X424841Y209300D01*
D02*
G37*
G36*
X696341Y203300D02*
X696047Y203178D01*
X695822Y202953D01*
X695700Y202659D01*
Y202341D01*
X695822Y202047D01*
X696047Y201822D01*
X696341Y201700D01*
X696659Y201700D01*
X696953Y201822D01*
X697178Y202047D01*
X697300Y202341D01*
X697300Y202659D01*
X697178Y202953D01*
X696953Y203178D01*
X696659Y203300D01*
X696341Y203300D01*
D02*
G37*
G36*
X665341Y201200D02*
X665047Y201078D01*
X664822Y200853D01*
X664700Y200559D01*
Y200241D01*
X664822Y199947D01*
X665047Y199722D01*
X665341Y199600D01*
X665659D01*
X665953Y199722D01*
X666178Y199947D01*
X666300Y200241D01*
Y200559D01*
X666178Y200853D01*
X665953Y201078D01*
X665659Y201200D01*
X665341Y201200D01*
D02*
G37*
G36*
X514500Y184816D02*
X514421Y184800D01*
X514341D01*
X514267Y184769D01*
X514188Y184754D01*
X514121Y184709D01*
X514047Y184678D01*
X513990Y184621D01*
X513923Y184577D01*
X513878Y184510D01*
X513822Y184453D01*
X513791Y184379D01*
X513746Y184312D01*
X513731Y184233D01*
X513700Y184159D01*
Y184079D01*
X513684Y184000D01*
X513700Y183921D01*
Y183841D01*
X513731Y183767D01*
X513746Y183688D01*
X513791Y183621D01*
X513822Y183547D01*
X513878Y183490D01*
X513923Y183423D01*
X516238Y181108D01*
X523401Y173945D01*
X525788Y171558D01*
X528445Y168901D01*
X568175Y129171D01*
X571223Y126123D01*
X571223Y126123D01*
X571488Y125946D01*
X571800Y125884D01*
X572815Y125884D01*
X576236Y125884D01*
X621256D01*
X624800Y125884D01*
X624879Y125900D01*
X624959D01*
X625033Y125931D01*
X625112Y125946D01*
X625179Y125991D01*
X625253Y126022D01*
X625310Y126079D01*
X625377Y126123D01*
X625421Y126190D01*
X625478Y126247D01*
X625509Y126321D01*
X625554Y126388D01*
X625569Y126467D01*
X625600Y126541D01*
X625600Y126621D01*
X625616Y126700D01*
X625600Y126779D01*
X625600Y126859D01*
X625569Y126933D01*
X625554Y127012D01*
X625509Y127079D01*
X625478Y127153D01*
X625421Y127210D01*
X625377Y127277D01*
X625310Y127321D01*
X625253Y127378D01*
X625179Y127409D01*
X625112Y127454D01*
X625033Y127469D01*
X624959Y127500D01*
X624879D01*
X624800Y127516D01*
X621377Y127516D01*
X575306D01*
X574673D01*
X574420Y127521D01*
X572773Y127582D01*
X572229Y127739D01*
X571713Y128024D01*
X570534Y129129D01*
X570370Y129284D01*
X569874Y129780D01*
X531256Y168398D01*
X528921Y170732D01*
X528875Y171998D01*
X528988Y172811D01*
X529291Y173834D01*
X530883Y175547D01*
X531453Y175822D01*
X531678Y176047D01*
X531800Y176341D01*
X531800Y176659D01*
X531678Y176953D01*
X531453Y177178D01*
X531159Y177300D01*
X530841Y177300D01*
X530547Y177178D01*
X530322Y176953D01*
X530047Y176383D01*
X528334Y174791D01*
X527311Y174487D01*
X526498Y174375D01*
X526884Y174361D01*
X526332Y174197D01*
X525526Y174128D01*
X525427Y174226D01*
X526498Y174375D01*
X525232Y174421D01*
X523208Y176446D01*
X517365Y182289D01*
X515077Y184577D01*
X515010Y184622D01*
X514953Y184678D01*
X514879Y184709D01*
X514812Y184754D01*
X514733Y184769D01*
X514659Y184800D01*
X514579D01*
X514500Y184816D01*
D02*
G37*
G36*
X729367Y182607D02*
X729193Y182560D01*
X729193D01*
X728744Y182440D01*
X728541Y182386D01*
X727957Y182048D01*
X727800Y181958D01*
X727323Y181481D01*
Y181481D01*
X727196Y181353D01*
X726858Y180769D01*
Y180769D01*
X726768Y180612D01*
X726546Y179786D01*
X726546Y179605D01*
X726546D01*
X726546Y178930D01*
X726721Y178279D01*
X726768Y178104D01*
X727105Y177520D01*
Y177520D01*
X727196Y177363D01*
X727673Y176886D01*
X727673Y176886D01*
X727800Y176759D01*
X728385Y176421D01*
X728385Y176421D01*
X728541Y176331D01*
X729195Y176156D01*
X729367Y176109D01*
X729548Y176109D01*
X729548Y176109D01*
X730223Y176109D01*
X730397Y176156D01*
X730784Y176260D01*
X731049Y176331D01*
X731595Y176646D01*
X731790Y176759D01*
X732267Y177236D01*
X732395Y177363D01*
X732732Y177948D01*
X732823Y178104D01*
X733044Y178930D01*
X733044Y178980D01*
X733044Y179786D01*
X733023Y179866D01*
X733023Y179866D01*
X732869Y180438D01*
X732869Y180438D01*
X732823Y180612D01*
X732485Y181197D01*
X732395Y181353D01*
X731918Y181830D01*
X731790Y181958D01*
X731206Y182295D01*
X731049Y182386D01*
X730223Y182607D01*
X730043Y182607D01*
X730043D01*
X729367Y182607D01*
D02*
G37*
G36*
X703777D02*
X703603Y182560D01*
X703603D01*
X703153Y182440D01*
X702951Y182386D01*
X702366Y182048D01*
X702210Y181958D01*
X701733Y181481D01*
Y181481D01*
X701605Y181353D01*
X701268Y180769D01*
Y180769D01*
X701177Y180612D01*
X700956Y179786D01*
X700956Y179605D01*
X700956D01*
X700956Y178930D01*
X701131Y178279D01*
X701177Y178104D01*
X701515Y177520D01*
Y177520D01*
X701605Y177363D01*
X702082Y176886D01*
X702082Y176886D01*
X702210Y176759D01*
X702795Y176421D01*
X702795Y176421D01*
X702951Y176331D01*
X703604Y176156D01*
X703777Y176109D01*
X703958Y176109D01*
X703958Y176109D01*
X704633Y176109D01*
X704807Y176156D01*
X705193Y176260D01*
X705459Y176331D01*
X706005Y176646D01*
X706200Y176759D01*
X706677Y177236D01*
X706805Y177363D01*
X707142Y177948D01*
X707232Y178104D01*
X707454Y178930D01*
X707454Y178980D01*
X707454Y179786D01*
X707432Y179866D01*
X707432Y179866D01*
X707279Y180438D01*
X707279Y180438D01*
X707232Y180612D01*
X706895Y181197D01*
X706805Y181353D01*
X706327Y181830D01*
X706200Y181958D01*
X705615Y182295D01*
X705459Y182386D01*
X704633Y182607D01*
X704452Y182607D01*
X704452D01*
X703777Y182607D01*
D02*
G37*
G36*
X530589Y191548D02*
X530295Y191426D01*
X530070Y191201D01*
X529948Y190907D01*
Y190589D01*
X530185Y186115D01*
X529200Y183159D01*
Y182841D01*
X529322Y182547D01*
X529547Y182322D01*
X529841Y182200D01*
X530159Y182200D01*
X530453Y182322D01*
X530678Y182547D01*
X530800Y182841D01*
X531800Y185841D01*
Y186159D01*
X531721Y187655D01*
X531548Y190906D01*
X531548Y190907D01*
X531426Y191201D01*
X531201Y191426D01*
X530907Y191548D01*
X530589Y191548D01*
D02*
G37*
G36*
X729367Y164891D02*
X729193Y164844D01*
X729193D01*
X728744Y164724D01*
X728541Y164669D01*
X727957Y164332D01*
X727800Y164242D01*
X727323Y163764D01*
Y163764D01*
X727196Y163637D01*
X726858Y163052D01*
Y163052D01*
X726768Y162896D01*
X726546Y162069D01*
X726546Y161889D01*
X726546D01*
X726546Y161214D01*
X726721Y160562D01*
X726768Y160388D01*
X727105Y159803D01*
Y159803D01*
X727196Y159647D01*
X727673Y159170D01*
X727673Y159170D01*
X727800Y159042D01*
X728385Y158705D01*
X728385Y158705D01*
X728541Y158614D01*
X729195Y158439D01*
X729367Y158393D01*
X729548Y158393D01*
X729548Y158393D01*
X730223Y158393D01*
X730397Y158440D01*
X730784Y158543D01*
X731049Y158614D01*
X731595Y158930D01*
X731790Y159042D01*
X732267Y159519D01*
X732395Y159647D01*
X732732Y160231D01*
X732823Y160388D01*
X733044Y161214D01*
X733044Y161263D01*
X733044Y162069D01*
X733023Y162150D01*
X733023Y162150D01*
X732869Y162722D01*
X732869Y162722D01*
X732823Y162896D01*
X732485Y163480D01*
X732395Y163637D01*
X731918Y164114D01*
X731790Y164242D01*
X731206Y164579D01*
X731049Y164669D01*
X730223Y164891D01*
X730043Y164891D01*
X730043D01*
X729367Y164891D01*
D02*
G37*
G36*
X618841Y160800D02*
X618547Y160678D01*
X618322Y160453D01*
X618200Y160159D01*
Y159841D01*
X618322Y159547D01*
X618547Y159322D01*
X618841Y159200D01*
X619159D01*
X619453Y159322D01*
X619678Y159547D01*
X619800Y159841D01*
Y160159D01*
X619678Y160453D01*
X619453Y160678D01*
X619159Y160800D01*
X618841Y160800D01*
D02*
G37*
G36*
X610341Y155800D02*
X610047Y155678D01*
X609822Y155453D01*
X609700Y155159D01*
Y154841D01*
X609822Y154547D01*
X610047Y154322D01*
X610341Y154200D01*
X610659D01*
X610953Y154322D01*
X611178Y154547D01*
X611300Y154841D01*
Y155159D01*
X611178Y155453D01*
X610953Y155678D01*
X610659Y155800D01*
X610341Y155800D01*
D02*
G37*
G36*
X618841Y149800D02*
X618547Y149678D01*
X618322Y149453D01*
X618200Y149159D01*
Y148841D01*
X618322Y148547D01*
X618547Y148322D01*
X618841Y148200D01*
X619159D01*
X619453Y148322D01*
X619678Y148547D01*
X619800Y148841D01*
Y149159D01*
X619678Y149453D01*
X619453Y149678D01*
X619159Y149800D01*
X618841Y149800D01*
D02*
G37*
G36*
X622841Y141300D02*
X622547Y141178D01*
X622322Y140953D01*
X622200Y140659D01*
Y140341D01*
X622322Y140047D01*
X622547Y139822D01*
X622841Y139700D01*
X623159D01*
X623453Y139822D01*
X623678Y140047D01*
X623800Y140341D01*
Y140659D01*
X623678Y140953D01*
X623453Y141178D01*
X623159Y141300D01*
X622841Y141300D01*
D02*
G37*
G36*
X608641Y140500D02*
X608347Y140378D01*
X608122Y140153D01*
X608000Y139859D01*
Y139541D01*
X608122Y139247D01*
X608347Y139022D01*
X608641Y138900D01*
X608959D01*
X609253Y139022D01*
X609478Y139247D01*
X609600Y139541D01*
Y139859D01*
X609478Y140153D01*
X609253Y140378D01*
X608959Y140500D01*
X608641Y140500D01*
D02*
G37*
G36*
X332064Y151812D02*
X332028Y151802D01*
X331290Y151604D01*
X331222Y151586D01*
X330528Y151186D01*
X330467Y151150D01*
X329900Y150584D01*
Y150584D01*
X329850Y150533D01*
X329449Y149840D01*
X329449D01*
X329414Y149778D01*
X329414Y149778D01*
X329188Y148936D01*
X329188Y148936D01*
X329188Y148905D01*
Y148064D01*
X329188Y148064D01*
X329196Y148034D01*
X329396Y147290D01*
Y147290D01*
X329414Y147222D01*
Y147222D01*
X329814Y146528D01*
Y146528D01*
X329850Y146467D01*
Y146467D01*
X329850Y146467D01*
X329936Y146318D01*
X330343Y143500D01*
Y143500D01*
X329936Y140682D01*
X329850Y140533D01*
X329850Y140533D01*
X329689Y140255D01*
X329430Y139806D01*
X329414Y139778D01*
X329414Y139778D01*
X329188Y138936D01*
X329188Y138936D01*
X329188Y138064D01*
X329188Y138064D01*
X329207Y137995D01*
X329207Y137995D01*
X329414Y137222D01*
X329814Y136528D01*
X329850Y136467D01*
X330416Y135900D01*
X330467Y135850D01*
X331160Y135449D01*
X331160Y135449D01*
X331222Y135414D01*
X332064Y135188D01*
X332103Y135188D01*
X332936Y135188D01*
X332972Y135198D01*
X333710Y135396D01*
X333778Y135414D01*
X334472Y135814D01*
X334472D01*
X334534Y135850D01*
X335100Y136416D01*
X335100Y136416D01*
X335150Y136467D01*
X335551Y137160D01*
X335551Y137160D01*
X335586Y137222D01*
X335586Y137222D01*
X335812Y138064D01*
X335812Y138064D01*
X335812Y138095D01*
Y138936D01*
X335812Y138936D01*
X335804Y138966D01*
X335605Y139710D01*
Y139710D01*
X335586Y139778D01*
Y139778D01*
X335186Y140472D01*
Y140472D01*
X335150Y140533D01*
Y140533D01*
X335150Y140533D01*
X335064Y140682D01*
X334657Y143500D01*
Y143500D01*
X335064Y146318D01*
X335114Y146405D01*
X335150Y146467D01*
X335551Y147160D01*
X335586Y147222D01*
X335586Y147222D01*
X335812Y148064D01*
X335812Y148064D01*
Y148135D01*
X335812Y148135D01*
X335812Y148936D01*
X335812Y148936D01*
X335793Y149005D01*
X335793Y149005D01*
X335586Y149778D01*
X335186Y150472D01*
X335150Y150533D01*
X334584Y151100D01*
X334534Y151150D01*
X333840Y151551D01*
X333778Y151586D01*
X332936Y151812D01*
X332908Y151812D01*
X332064Y151812D01*
D02*
G37*
G36*
X651839Y133302D02*
X651545Y133180D01*
X651320Y132955D01*
X651198Y132661D01*
Y132343D01*
X651320Y132049D01*
X651545Y131824D01*
X651839Y131702D01*
X652157D01*
X652451Y131824D01*
X652676Y132049D01*
X652798Y132343D01*
Y132661D01*
X652676Y132955D01*
X652451Y133180D01*
X652157Y133302D01*
X651839Y133302D01*
D02*
G37*
G36*
X643841Y126800D02*
X643547Y126678D01*
X643322Y126453D01*
X643200Y126159D01*
Y125841D01*
X643322Y125547D01*
X643547Y125322D01*
X643841Y125200D01*
X644159D01*
X644453Y125322D01*
X644678Y125547D01*
X644800Y125841D01*
Y126159D01*
X644678Y126453D01*
X644453Y126678D01*
X644159Y126800D01*
X643841Y126800D01*
D02*
G37*
G36*
X659841Y110300D02*
X659547Y110178D01*
X659322Y109953D01*
X659200Y109659D01*
Y109341D01*
X659322Y109047D01*
X659547Y108822D01*
X659841Y108700D01*
X660159D01*
X660453Y108822D01*
X660678Y109047D01*
X660800Y109341D01*
Y109659D01*
X660678Y109953D01*
X660453Y110178D01*
X660159Y110300D01*
X659841Y110300D01*
D02*
G37*
G36*
X402841Y102300D02*
X402547Y102178D01*
X402322Y101953D01*
X402200Y101659D01*
Y101341D01*
X402274Y101163D01*
X402322Y100838D01*
Y100566D01*
X402200Y100159D01*
Y99841D01*
X402322Y99547D01*
X402547Y99322D01*
X402841Y99200D01*
X403159Y99200D01*
X403453Y99322D01*
X403678Y99547D01*
X403800Y99841D01*
Y100159D01*
X403706Y100472D01*
X403678Y100662D01*
Y100934D01*
X403800Y101341D01*
Y101659D01*
X403678Y101953D01*
X403453Y102178D01*
X403159Y102300D01*
X402841Y102300D01*
D02*
G37*
G36*
X689147Y79680D02*
X687785D01*
X686469Y79327D01*
X685290Y78646D01*
X684327Y77684D01*
X683646Y76504D01*
X683294Y75189D01*
Y73827D01*
X683646Y72512D01*
X684327Y71332D01*
X685290Y70369D01*
X686469Y69688D01*
X687082Y69524D01*
X688506Y67931D01*
X689955Y65105D01*
X690060Y64556D01*
X690018Y64454D01*
X689760Y63160D01*
Y61840D01*
X690018Y60546D01*
X690522Y59328D01*
X691255Y58231D01*
X692188Y57298D01*
X693285Y56565D01*
X694504Y56060D01*
X695798Y55802D01*
X697118D01*
X698411Y56060D01*
X699630Y56565D01*
X700727Y57298D01*
X701660Y58231D01*
X702393Y59328D01*
X702898Y60546D01*
X703155Y61840D01*
Y63160D01*
X702898Y64454D01*
X702393Y65672D01*
X701660Y66769D01*
X700727Y67702D01*
X699630Y68435D01*
X698411Y68940D01*
X697118Y69198D01*
X695491Y70604D01*
X694593Y71779D01*
X693638Y73827D01*
Y75189D01*
X693285Y76504D01*
X692604Y77684D01*
X691641Y78646D01*
X690462Y79327D01*
X689147Y79680D01*
D02*
G37*
%LPD*%
G36*
X656692Y179567D02*
X656648Y178929D01*
X656412Y176952D01*
X655329Y176058D01*
X652302Y173798D01*
X648591Y174768D01*
X647078Y178687D01*
Y179972D01*
X647163Y180097D01*
X648932Y182227D01*
X654325Y182310D01*
X656692Y179567D01*
D02*
G37*
G36*
X712450Y111811D02*
X713487Y111207D01*
X714083Y110840D01*
X714231Y110609D01*
X715194Y108955D01*
X717076Y107073D01*
X717238Y105561D01*
X717201Y105262D01*
X717160Y105103D01*
X714042Y101452D01*
X712773Y100989D01*
X712030Y101140D01*
X710436Y101836D01*
X709880Y102216D01*
X708157Y103940D01*
X707844Y109378D01*
X712146Y111849D01*
X712450Y111811D01*
D02*
G37*
%LPC*%
G36*
X374341Y186800D02*
X374047Y186678D01*
X373822Y186453D01*
X373700Y186159D01*
Y185841D01*
X373822Y185547D01*
X374047Y185322D01*
X374341Y185200D01*
X374659D01*
X374953Y185322D01*
X375178Y185547D01*
X375300Y185841D01*
X375300Y186159D01*
X375178Y186453D01*
X374953Y186678D01*
X374659Y186800D01*
X374341Y186800D01*
D02*
G37*
%LPD*%
D10*
X629953Y348500D02*
G03*
X629953Y348500I-394J0D01*
G01*
X728433Y335610D02*
G03*
X728433Y335610I-394J0D01*
G01*
X332894Y234059D02*
G03*
X332894Y234059I-394J0D01*
G01*
X275335Y22500D02*
G03*
X275335Y22500I-394J0D01*
G01*
X298394Y306559D02*
G03*
X298394Y306559I-394J0D01*
G01*
X366453Y374000D02*
G03*
X366453Y374000I-394J0D01*
G01*
X331894Y248941D02*
G03*
X331894Y248941I-394J0D01*
G01*
X597335Y49000D02*
G03*
X597335Y49000I-394J0D01*
G01*
X275335Y47000D02*
G03*
X275335Y47000I-394J0D01*
G01*
X374835Y348500D02*
G03*
X374835Y348500I-394J0D01*
G01*
X374335Y373500D02*
G03*
X374335Y373500I-394J0D01*
G01*
X679312Y97303D02*
G03*
X679312Y97303I-394J0D01*
G01*
X552453Y374500D02*
G03*
X552453Y374500I-394J0D01*
G01*
X617425Y147153D02*
G03*
X617425Y147153I-394J0D01*
G01*
X562835Y372500D02*
G03*
X562835Y372500I-394J0D01*
G01*
X714663Y192967D02*
G03*
X714663Y192967I-557J0D01*
G01*
X286453Y349000D02*
G03*
X286453Y349000I-394J0D01*
G01*
X258268Y34000D02*
G03*
X258268Y34000I-394J0D01*
G01*
X590453Y50000D02*
G03*
X590453Y50000I-394J0D01*
G01*
X249394Y264441D02*
G03*
X249394Y264441I-394J0D01*
G01*
X475453Y49500D02*
G03*
X475453Y49500I-394J0D01*
G01*
X597835Y24000D02*
G03*
X597835Y24000I-394J0D01*
G01*
X612232Y179650D02*
G03*
X612232Y179650I-394J0D01*
G01*
X478835Y50000D02*
G03*
X478835Y50000I-394J0D01*
G01*
X666894Y153232D02*
G03*
X666894Y153232I-394J0D01*
G01*
X665894Y211732D02*
G03*
X665894Y211732I-394J0D01*
G01*
X591953Y24000D02*
G03*
X591953Y24000I-394J0D01*
G01*
X475453Y23500D02*
G03*
X475453Y23500I-394J0D01*
G01*
X250394Y74941D02*
G03*
X250394Y74941I-394J0D01*
G01*
X299835Y348500D02*
G03*
X299835Y348500I-394J0D01*
G01*
X250394Y131441D02*
G03*
X250394Y131441I-394J0D01*
G01*
X325020Y138500D02*
G03*
X325020Y138500I-394J0D01*
G01*
D11*
X551061Y185939D02*
X551096Y185904D01*
X406500Y130500D02*
X407900D01*
X410632Y133232D01*
X409132Y133853D02*
Y140479D01*
X408840Y133561D02*
X409132Y133853D01*
Y140479D02*
X411654Y143000D01*
X406939Y133561D02*
X408840D01*
X410632Y133232D02*
Y139857D01*
X412275Y141500D01*
X414482D01*
X411654Y143000D02*
X415104D01*
X407250Y366086D02*
Y367500D01*
Y366086D02*
X407543Y365793D01*
X412882D01*
X413761Y364914D01*
Y361172D02*
Y364914D01*
X412882Y360293D02*
X413761Y361172D01*
X400390Y360293D02*
X412882D01*
X400390Y357793D02*
Y360293D01*
Y357793D02*
X406078D01*
X407250Y356621D01*
Y355311D02*
Y356621D01*
X405750Y365465D02*
Y367500D01*
Y365465D02*
X406922Y364293D01*
X412261D01*
Y361793D02*
Y364293D01*
X399769Y361793D02*
X412261D01*
X398890Y360914D02*
X399769Y361793D01*
X398890Y357172D02*
Y360914D01*
Y357172D02*
X399769Y356293D01*
X405457D01*
X405750Y356000D01*
Y355311D02*
Y356000D01*
X407250Y367500D02*
Y373207D01*
Y349000D02*
Y355311D01*
X405750Y367500D02*
Y373207D01*
Y349000D02*
Y355311D01*
X407750Y348207D02*
X407896Y348354D01*
X408043Y348500D01*
X412000D01*
X416652Y338077D02*
X417530Y337198D01*
X408043Y338077D02*
X416652D01*
X407750Y348500D02*
X408043D01*
X407750Y338370D02*
X408043Y338077D01*
X416652Y330077D02*
X417530Y329198D01*
Y333456D02*
Y337198D01*
X416652Y324577D02*
X417530Y325456D01*
Y329198D01*
X416652Y332577D02*
X417530Y333456D01*
X397530Y332577D02*
X416652D01*
X394293Y324577D02*
X416652D01*
X397530Y330077D02*
X416652D01*
X407750Y338370D02*
Y348207D01*
X407250Y349000D02*
X407750Y348500D01*
X397530Y330077D02*
Y332577D01*
X394000Y324284D02*
X394293Y324577D01*
X394000Y298361D02*
Y324284D01*
X393121Y286982D02*
X394000Y286104D01*
Y290361D02*
Y294104D01*
X393121Y297482D02*
X394000Y298361D01*
X374000Y297482D02*
X393121D01*
Y289482D02*
X394000Y290361D01*
X393121Y294982D02*
X394000Y294104D01*
Y274361D02*
Y278104D01*
Y282361D02*
Y286104D01*
X393121Y265482D02*
X394000Y266361D01*
Y270104D01*
X393121Y278982D02*
X394000Y278104D01*
X393121Y281482D02*
X394000Y282361D01*
X393121Y270982D02*
X394000Y270104D01*
X393121Y273482D02*
X394000Y274361D01*
Y258361D02*
Y262104D01*
X393121Y257482D02*
X394000Y258361D01*
X393121Y262982D02*
X394000Y262104D01*
X384293Y257482D02*
X393121D01*
X384000Y257189D02*
X384293Y257482D01*
X383061Y245439D02*
X384000Y246379D01*
Y257189D01*
X374000Y262982D02*
X393121D01*
X382573Y244952D02*
X383061Y245439D01*
X382573Y244538D02*
X388816Y238295D01*
X382573Y244538D02*
Y244952D01*
X388816Y237052D02*
Y238295D01*
X384927Y234406D02*
X386169D01*
X388816Y237052D01*
X382479Y232075D02*
Y233318D01*
X379833Y229429D02*
X382479Y232075D01*
X378590Y229429D02*
X379833D01*
X374856Y223092D02*
X377502Y225739D01*
Y226981D01*
X374000Y286982D02*
X393121D01*
X374000Y281482D02*
X393121D01*
X374000Y278982D02*
Y281482D01*
Y278982D02*
X393121D01*
X374000Y270982D02*
Y273482D01*
Y294982D02*
X393121D01*
X374000D02*
Y297482D01*
Y289482D02*
X393121D01*
X374000Y286982D02*
Y289482D01*
Y270982D02*
X393121D01*
X374000Y273482D02*
X393121D01*
X374000Y265482D02*
X393121D01*
X373613Y223092D02*
X374856D01*
X371406Y247927D02*
X384927Y234406D01*
X369638Y246159D02*
X382479Y233318D01*
X365749Y242270D02*
X378590Y229429D01*
X363981Y240502D02*
X377502Y226981D01*
X374000Y262982D02*
Y265482D01*
X369638Y246159D02*
X371406Y247927D01*
X360092Y236613D02*
X373613Y223092D01*
X363981Y240502D02*
X365749Y242270D01*
X358324Y234845D02*
X360092Y236613D01*
X352668Y229188D02*
X354435Y230956D01*
X358324Y234845D02*
X371845Y221324D01*
X354435Y230956D02*
X367956Y217435D01*
X371845Y220082D02*
Y221324D01*
X367956Y217435D02*
X369199D01*
X371845Y220082D01*
X366188Y214425D02*
Y215668D01*
X347011Y223532D02*
X353253Y217289D01*
X347011Y223532D02*
X348779Y225299D01*
X352668Y229188D02*
X366188Y215668D01*
X353253Y215632D02*
Y217289D01*
X363542Y211779D02*
X366188Y214425D01*
X362299Y211779D02*
X363542D01*
X359061Y193396D02*
Y197139D01*
Y201396D02*
Y205139D01*
X348779Y225299D02*
X362299Y211779D01*
X358182Y206018D02*
X359061Y205139D01*
X358182Y198018D02*
X359061Y197139D01*
X358182Y200518D02*
X359061Y201396D01*
Y185396D02*
Y189139D01*
X358182Y190018D02*
X359061Y189139D01*
X358182Y184518D02*
X359061Y185396D01*
X358182Y192518D02*
X359061Y193396D01*
X339061Y190018D02*
X358182D01*
X339061Y184518D02*
X358182D01*
X349061Y211439D02*
X353253Y215632D01*
X349061Y206311D02*
Y211439D01*
X349354Y206018D02*
X358182D01*
X349061Y206311D02*
X349354Y206018D01*
X339061Y200518D02*
X358182D01*
X339061Y198018D02*
Y200518D01*
Y198018D02*
X358182D01*
X339061Y190018D02*
Y192518D01*
X349061Y178525D02*
X354586Y173000D01*
X349061Y178525D02*
Y180846D01*
X354586Y173000D02*
X356000D01*
X339061Y192518D02*
X358182D01*
X339061Y182018D02*
Y184518D01*
X347889Y182018D02*
X349061Y180846D01*
X339061Y182018D02*
X347889D01*
X407543Y373500D02*
X411500D01*
X407250Y373207D02*
X407543Y373500D01*
X405957Y348500D02*
X406250Y348207D01*
X405250Y348500D02*
X405957D01*
X405250D02*
X405750Y349000D01*
X407422Y336577D02*
X416030D01*
X406250Y337748D02*
X407422Y336577D01*
X416030Y326077D02*
Y328577D01*
Y334077D02*
Y336577D01*
X396909Y334077D02*
X416030D01*
X406250Y337748D02*
Y348207D01*
X393672Y326077D02*
X416030D01*
X396909Y328577D02*
X416030D01*
X402000Y348500D02*
X405250D01*
X396030Y333198D02*
X396909Y334077D01*
X396030Y329456D02*
Y333198D01*
Y329456D02*
X396909Y328577D01*
X392500Y324905D02*
X393672Y326077D01*
X373379Y293482D02*
X392500D01*
Y298982D02*
Y324905D01*
Y290982D02*
Y293482D01*
X373379Y290982D02*
X392500D01*
X373379Y298982D02*
X392500D01*
X372500Y298104D02*
X373379Y298982D01*
X372500Y294361D02*
X373379Y293482D01*
X372500Y294361D02*
Y298104D01*
X392500Y274982D02*
Y277482D01*
Y282982D02*
Y285482D01*
Y266982D02*
Y269482D01*
X373379Y266982D02*
X392500D01*
X373379Y277482D02*
X392500D01*
X373379Y282982D02*
X392500D01*
X373379Y269482D02*
X392500D01*
X373379Y274982D02*
X392500D01*
X383672Y258982D02*
X392500D01*
X373379Y261482D02*
X392500D01*
Y258982D02*
Y261482D01*
X373379Y285482D02*
X392500D01*
X372500Y262361D02*
X373379Y261482D01*
X382500Y257811D02*
X383672Y258982D01*
X382500Y247000D02*
Y257811D01*
X372500Y286361D02*
X373379Y285482D01*
X372500Y286361D02*
Y290104D01*
Y282104D02*
X373379Y282982D01*
X372500Y278361D02*
Y282104D01*
X381073Y245573D02*
X382500Y247000D01*
X381073Y243916D02*
Y245573D01*
X385548Y235906D02*
X387316Y237674D01*
X381073Y243916D02*
X387316Y237674D01*
X379211Y230929D02*
X380979Y232697D01*
X374234Y224592D02*
X376002Y226360D01*
X372500Y270361D02*
X373379Y269482D01*
X372500Y270361D02*
Y274104D01*
Y266104D02*
X373379Y266982D01*
X372500Y262361D02*
Y266104D01*
Y278361D02*
X373379Y277482D01*
X372500Y290104D02*
X373379Y290982D01*
X372500Y274104D02*
X373379Y274982D01*
X368138Y246780D02*
X370785Y249427D01*
X372027D02*
X385548Y235906D01*
X370785Y249427D02*
X372027D01*
X368138Y245538D02*
X380979Y232697D01*
X368578Y218935D02*
X370345Y220703D01*
X366370Y243770D02*
X379211Y230929D01*
X362481Y239881D02*
X376002Y226360D01*
X360714Y238113D02*
X374234Y224592D01*
X356824Y234224D02*
X370345Y220703D01*
X368138Y245538D02*
Y246780D01*
X365128Y243770D02*
X366370D01*
X362481Y241123D02*
X365128Y243770D01*
X362481Y239881D02*
Y241123D01*
X359471Y238113D02*
X360714D01*
X356824Y235467D02*
X359471Y238113D01*
X356824Y234224D02*
Y235467D01*
X351168Y229810D02*
X353814Y232456D01*
X355057D01*
X351168Y228567D02*
Y229810D01*
X355057Y232456D02*
X368578Y218935D01*
X351753Y216253D02*
Y216668D01*
X348157Y226799D02*
X349400D01*
X345511Y224153D02*
X348157Y226799D01*
X345511Y222910D02*
X351753Y216668D01*
X345511Y222910D02*
Y224153D01*
X362921Y213279D02*
X364688Y215046D01*
X351168Y228567D02*
X364688Y215046D01*
X357561Y194018D02*
Y196518D01*
Y202018D02*
Y204518D01*
X349400Y226799D02*
X362921Y213279D01*
X348732Y204518D02*
X357561D01*
X338439Y196518D02*
X357561D01*
X338439Y202018D02*
X357561D01*
Y186018D02*
Y188518D01*
X353964Y171500D02*
X356000D01*
X338439Y188518D02*
X357561D01*
X338439Y194018D02*
X357561D01*
X338439Y186018D02*
X357561D01*
X347561Y177904D02*
X353964Y171500D01*
X347561Y212061D02*
X351753Y216253D01*
X347561Y205689D02*
Y212061D01*
Y205689D02*
X348732Y204518D01*
X337561Y189396D02*
Y193139D01*
Y201139D02*
X338439Y202018D01*
X337561Y197396D02*
Y201139D01*
Y193139D02*
X338439Y194018D01*
X337561Y197396D02*
X338439Y196518D01*
Y180518D02*
X347268D01*
X337561Y181396D02*
X338439Y180518D01*
X347561Y177904D02*
Y180225D01*
X347268Y180518D02*
X347561Y180225D01*
X337561Y185139D02*
X338439Y186018D01*
X337561Y189396D02*
X338439Y188518D01*
X337561Y181396D02*
Y185139D01*
X405457Y373500D02*
X405750Y373207D01*
X401500Y373500D02*
X405457D01*
X487750Y337689D02*
Y341500D01*
Y348207D01*
X478043Y190000D02*
X487750D01*
X496578D01*
X477750Y334017D02*
X487750D01*
X496871D01*
X477750Y328517D02*
X487750D01*
X496871D01*
X477750Y326017D02*
X487750D01*
X496871D01*
X477750Y320517D02*
X487750D01*
X496871D01*
X477750Y318017D02*
X487750D01*
X496871D01*
X477750Y312517D02*
X487750D01*
X496871D01*
X477750Y310017D02*
X487750D01*
X496871D01*
X477750Y304517D02*
X487750D01*
X496871D01*
X477750Y302017D02*
X487750D01*
X496871D01*
X477750Y296517D02*
X487750D01*
X496871D01*
X477750Y294017D02*
X487750D01*
X496871D01*
X477750Y288517D02*
X487750D01*
X496871D01*
X477750Y286017D02*
X487750D01*
X496871D01*
X477750Y280517D02*
X487750D01*
X496871D01*
X477750Y278017D02*
X487750D01*
X496871D01*
X477750Y272517D02*
X487750D01*
X496871D01*
X477750Y270017D02*
X487750D01*
X496871D01*
X477750Y264517D02*
X487750D01*
X496871D01*
X477750Y262017D02*
X487750D01*
X496871D01*
X477750Y256517D02*
X487750D01*
X496871D01*
X477750Y254017D02*
X487750D01*
X496871D01*
X477750Y248517D02*
X487750D01*
X496871D01*
X477750Y246017D02*
X487750D01*
X496871D01*
X477750Y240518D02*
X487750D01*
X496871D01*
X477750Y238018D02*
X487750D01*
X496871D01*
X477750Y232518D02*
X487750D01*
X496871D01*
X477750Y230018D02*
X487750D01*
X496871D01*
X477750Y224518D02*
X487750D01*
X496871D01*
X477750Y222018D02*
X487750D01*
X496871D01*
X477750Y216518D02*
X487750D01*
X496871D01*
X477750Y214018D02*
X487750D01*
X496871D01*
X477750Y208518D02*
X487750D01*
X496871D01*
X477750Y206018D02*
X487750D01*
X496871D01*
X477750Y200518D02*
X487750D01*
X496871D01*
X477750Y198018D02*
X487750D01*
X496871D01*
X477750Y192518D02*
X487750D01*
X496871D01*
X477750Y184518D02*
X487750D01*
X496871D01*
X477750Y182018D02*
X487750D01*
X496871D01*
X477750Y176518D02*
X487750D01*
X496871D01*
X477750Y174018D02*
X487750D01*
X496871D01*
X477750Y168518D02*
X487750D01*
X496871D01*
X477750Y166018D02*
X487750D01*
X496871D01*
X477750Y160518D02*
X487750D01*
X496871D01*
X477750Y158018D02*
X487750D01*
X496871D01*
X477750Y152518D02*
X487750D01*
X496871D01*
X477750Y150018D02*
X487750D01*
X496871D01*
X477750Y144518D02*
X487750D01*
X496871D01*
X477750Y142018D02*
X487750D01*
X496871D01*
X477750Y136518D02*
X487750D01*
X496871D01*
X477750Y134018D02*
X487750D01*
X496871D01*
X477750Y128518D02*
X487750D01*
X496871D01*
X477750Y126018D02*
X487750D01*
X496871D01*
X477750Y120518D02*
X487750D01*
X496871D01*
X486250Y338310D02*
Y341500D01*
Y348207D01*
X477422Y188500D02*
X486250D01*
X495957D01*
X477129Y332517D02*
X486250D01*
X496250D01*
X477129Y330017D02*
X486250D01*
X496250D01*
X477129Y324517D02*
X486250D01*
X496250D01*
X477129Y322017D02*
X486250D01*
X496250D01*
X477129Y316517D02*
X486250D01*
X496250D01*
X477129Y314017D02*
X486250D01*
X496250D01*
X477129Y308517D02*
X486250D01*
X496250D01*
X477129Y306017D02*
X486250D01*
X496250D01*
X477129Y300517D02*
X486250D01*
X496250D01*
X477129Y298017D02*
X486250D01*
X496250D01*
X477129Y292517D02*
X486250D01*
X496250D01*
X477129Y290017D02*
X486250D01*
X496250D01*
X477129Y284517D02*
X486250D01*
X496250D01*
X477129Y282017D02*
X486250D01*
X496250D01*
X477129Y276517D02*
X486250D01*
X496250D01*
X477129Y274017D02*
X486250D01*
X496250D01*
X477129Y268517D02*
X486250D01*
X496250D01*
X477129Y266017D02*
X486250D01*
X496250D01*
X477129Y260517D02*
X486250D01*
X496250D01*
X477129Y258017D02*
X486250D01*
X496250D01*
X477129Y252517D02*
X486250D01*
X496250D01*
X477129Y250017D02*
X486250D01*
X496250D01*
X477129Y244517D02*
X486250D01*
X496250D01*
X477129Y242018D02*
X486250D01*
X496250D01*
X477129Y236518D02*
X486250D01*
X496250D01*
X477129Y234018D02*
X486250D01*
X496250D01*
X477129Y228518D02*
X486250D01*
X496250D01*
X477129Y226018D02*
X486250D01*
X496250D01*
X477129Y220518D02*
X486250D01*
X496250D01*
X477129Y218018D02*
X486250D01*
X496250D01*
X477129Y212518D02*
X486250D01*
X496250D01*
X477129Y210018D02*
X486250D01*
X496250D01*
X477129Y204518D02*
X486250D01*
X496250D01*
X477129Y202018D02*
X486250D01*
X496250D01*
X477129Y196518D02*
X486250D01*
X496250D01*
X477129Y194018D02*
X486250D01*
X496250D01*
X477129Y186018D02*
X486250D01*
X496250D01*
X477129Y180518D02*
X486250D01*
X496250D01*
X477129Y178018D02*
X486250D01*
X496250D01*
X477129Y172518D02*
X486250D01*
X496250D01*
X477129Y170018D02*
X486250D01*
X496250D01*
X477129Y164518D02*
X486250D01*
X496250D01*
X477129Y162018D02*
X486250D01*
X496250D01*
X477129Y156518D02*
X486250D01*
X496250D01*
X477129Y154018D02*
X486250D01*
X496250D01*
X477129Y148518D02*
X486250D01*
X496250D01*
X477129Y146018D02*
X486250D01*
X496250D01*
X477129Y140518D02*
X486250D01*
X496250D01*
X477129Y138018D02*
X486250D01*
X496250D01*
X477129Y132518D02*
X486250D01*
X496250D01*
X477129Y130018D02*
X486250D01*
X496250D01*
X477129Y124518D02*
X486250D01*
X496250D01*
X477129Y122018D02*
X486250D01*
X496250D01*
X703579Y105554D02*
X704067Y105067D01*
X703579Y105554D02*
X703579D01*
X702486Y106647D02*
X703579Y105554D01*
X702486Y106647D02*
Y108303D01*
X707819Y113636D01*
X706051Y115404D02*
X707819Y113636D01*
X693440Y102793D02*
X706051Y115404D01*
X692198Y102793D02*
X693440D01*
X689551Y105440D02*
X692198Y102793D01*
X689551Y105440D02*
Y106682D01*
X702162Y119293D01*
X700394Y121061D02*
X702162Y119293D01*
X687784Y108450D02*
X700394Y121061D01*
X686541Y108450D02*
X687784D01*
X683894Y111096D02*
X686541Y108450D01*
X683894Y111096D02*
Y112339D01*
X696505Y124950D01*
X694738Y126718D02*
X696505Y124950D01*
X682127Y114107D02*
X694738Y126718D01*
X680884Y114107D02*
X682127D01*
X678238Y116753D02*
X680884Y114107D01*
X678238Y116753D02*
Y117996D01*
X690849Y130607D01*
X689081Y132375D02*
X690849Y130607D01*
X676470Y119764D02*
X689081Y132375D01*
X675227Y119764D02*
X676470D01*
X672581Y122410D02*
X675227Y119764D01*
X672581Y122410D02*
Y123653D01*
X685192Y136264D01*
X683424Y138031D02*
X685192Y136264D01*
X670813Y125420D02*
X683424Y138031D01*
X669570Y125420D02*
X670813D01*
X666924Y128067D02*
X669570Y125420D01*
X666924Y128067D02*
Y129310D01*
X679535Y141920D01*
X677767Y143688D02*
X679535Y141920D01*
X665156Y131077D02*
X677767Y143688D01*
X663914Y131077D02*
X665156D01*
X661267Y133724D02*
X663914Y131077D01*
X661267Y133724D02*
Y134966D01*
X673878Y147577D01*
X672110Y149345D02*
X673878Y147577D01*
X659499Y136734D02*
X672110Y149345D01*
X658257Y136734D02*
X659499D01*
X655610Y139381D02*
X658257Y136734D01*
X655610Y139381D02*
Y140623D01*
X668221Y153234D01*
X666454Y155002D02*
X668221Y153234D01*
X653842Y142391D02*
X666454Y155002D01*
X652600Y142391D02*
X653842D01*
X649953Y145037D02*
X652600Y142391D01*
X649953Y145037D02*
Y146280D01*
X662564Y158891D01*
X660797Y160659D02*
X662564Y158891D01*
X651574Y151436D02*
X660797Y160659D01*
X650331Y151436D02*
X651574D01*
X647685Y154083D02*
X650331Y151436D01*
X647685Y154083D02*
Y155325D01*
X656908Y164548D01*
X655140Y166316D02*
X656908Y164548D01*
X642529Y153705D02*
X655140Y166316D01*
X641286Y153705D02*
X642529D01*
X638640Y156351D02*
X641286Y153705D01*
X638640Y156351D02*
Y157594D01*
X651251Y170205D01*
X649483Y171973D02*
X651251Y170205D01*
X644150Y166640D02*
X649483Y171973D01*
X642493Y166640D02*
X644150D01*
X642054Y167079D02*
X642493Y166640D01*
X642054Y167079D02*
Y167079D01*
X641567Y167567D02*
X642054Y167079D01*
X704640Y106615D02*
X705127Y106127D01*
X703986Y107268D02*
X704640Y106615D01*
X703986Y107268D02*
Y107682D01*
X709319Y113015D01*
Y114258D01*
X706673Y116904D02*
X709319Y114258D01*
X705430Y116904D02*
X706673D01*
X692819Y104293D02*
X705430Y116904D01*
X691051Y106061D02*
X692819Y104293D01*
X691051Y106061D02*
X703662Y118672D01*
Y119914D01*
X701016Y122561D02*
X703662Y119914D01*
X699773Y122561D02*
X701016D01*
X687162Y109950D02*
X699773Y122561D01*
X685394Y111718D02*
X687162Y109950D01*
X685394Y111718D02*
X698005Y124329D01*
Y125571D01*
X695359Y128218D02*
X698005Y125571D01*
X694116Y128218D02*
X695359D01*
X681505Y115607D02*
X694116Y128218D01*
X679738Y117375D02*
X681505Y115607D01*
X679738Y117375D02*
X692349Y129985D01*
Y131228D01*
X689702Y133875D02*
X692349Y131228D01*
X688459Y133875D02*
X689702D01*
X675849Y121264D02*
X688459Y133875D01*
X674081Y123031D02*
X675849Y121264D01*
X674081Y123031D02*
X686692Y135642D01*
Y136885D01*
X684045Y139531D02*
X686692Y136885D01*
X682803Y139531D02*
X684045D01*
X670192Y126920D02*
X682803Y139531D01*
X668424Y128688D02*
X670192Y126920D01*
X668424Y128688D02*
X681035Y141299D01*
Y142542D01*
X678389Y145188D02*
X681035Y142542D01*
X677146Y145188D02*
X678389D01*
X664535Y132577D02*
X677146Y145188D01*
X662767Y134345D02*
X664535Y132577D01*
X662767Y134345D02*
X675378Y146956D01*
Y148199D01*
X672732Y150845D02*
X675378Y148199D01*
X671489Y150845D02*
X672732D01*
X658878Y138234D02*
X671489Y150845D01*
X657110Y140002D02*
X658878Y138234D01*
X657110Y140002D02*
X669721Y152613D01*
Y153856D01*
X667075Y156502D02*
X669721Y153856D01*
X665832Y156502D02*
X667075D01*
X653221Y143891D02*
X665832Y156502D01*
X651453Y145659D02*
X653221Y143891D01*
X651453Y145659D02*
X664064Y158270D01*
Y159512D01*
X661418Y162159D02*
X664064Y159512D01*
X660175Y162159D02*
X661418D01*
X650953Y152936D02*
X660175Y162159D01*
X649185Y154704D02*
X650953Y152936D01*
X649185Y154704D02*
X658407Y163927D01*
Y165169D01*
X655761Y167816D02*
X658407Y165169D01*
X654519Y167816D02*
X655761D01*
X641908Y155205D02*
X654519Y167816D01*
X640140Y156973D02*
X641908Y155205D01*
X640140Y156973D02*
X652751Y169583D01*
Y170826D01*
X650104Y173472D02*
X652751Y170826D01*
X648862Y173472D02*
X650104D01*
X643529Y168140D02*
X648862Y173472D01*
X643115Y168140D02*
X643529D01*
X643115Y168140D02*
X643115Y168140D01*
X642627Y168627D02*
X643115Y168140D01*
X704067Y105067D02*
X710117Y99016D01*
X632000Y177133D02*
X641567Y167567D01*
X705127Y106127D02*
X711617Y99637D01*
X632000Y179254D02*
X642627Y168627D01*
X710117Y95756D02*
Y99016D01*
X711617Y95134D02*
Y99637D01*
X630883Y178250D02*
X632000Y177133D01*
X624775Y178250D02*
X630883D01*
X624482Y177957D02*
X624775Y178250D01*
X624482Y169129D02*
Y177957D01*
X623604Y168250D02*
X624482Y169129D01*
X619861Y168250D02*
X623604D01*
X618982Y169129D02*
X619861Y168250D01*
X618982Y169129D02*
Y178250D01*
X616482D02*
X618982D01*
X616482Y169129D02*
Y178250D01*
X615604Y168250D02*
X616482Y169129D01*
X611861Y168250D02*
X615604D01*
X610982Y169129D02*
X611861Y168250D01*
X610982Y169129D02*
Y178250D01*
X608482D02*
X610982D01*
X608482Y169129D02*
Y178250D01*
X607604Y168250D02*
X608482Y169129D01*
X603861Y168250D02*
X607604D01*
X602982Y169129D02*
X603861Y168250D01*
X602982Y169129D02*
Y178250D01*
X600482D02*
X602982D01*
X600482Y169129D02*
Y178250D01*
X599604Y168250D02*
X600482Y169129D01*
X595861Y168250D02*
X599604D01*
X594982Y169129D02*
X595861Y168250D01*
X594982Y169129D02*
Y178250D01*
X592482D02*
X594982D01*
X592482Y169129D02*
Y178250D01*
X591604Y168250D02*
X592482Y169129D01*
X587861Y168250D02*
X591604D01*
X586982Y169129D02*
X587861Y168250D01*
X586982Y169129D02*
Y178250D01*
X584482D02*
X586982D01*
X584482Y169129D02*
Y178250D01*
X583604Y168250D02*
X584482Y169129D01*
X579861Y168250D02*
X583604D01*
X578982Y169129D02*
X579861Y168250D01*
X578982Y169129D02*
Y178250D01*
X576482D02*
X578982D01*
X576482Y169129D02*
Y178250D01*
X575604Y168250D02*
X576482Y169129D01*
X571861Y168250D02*
X575604D01*
X570982Y169129D02*
X571861Y168250D01*
X570982Y169129D02*
Y178250D01*
X568482D02*
X570982D01*
X568482Y169129D02*
Y178250D01*
X567604Y168250D02*
X568482Y169129D01*
X563861Y168250D02*
X567604D01*
X562982Y169129D02*
X563861Y168250D01*
X562982Y169129D02*
Y177957D01*
X562689Y178250D02*
X562982Y177957D01*
X558000Y178250D02*
X562689D01*
X631504Y179750D02*
X632000Y179254D01*
X624154Y179750D02*
X631504D01*
X622982Y178578D02*
X624154Y179750D01*
X622982Y169750D02*
Y178578D01*
X620482Y169750D02*
X622982D01*
X620482D02*
Y178871D01*
X619604Y179750D02*
X620482Y178871D01*
X615861Y179750D02*
X619604D01*
X614982Y178871D02*
X615861Y179750D01*
X614982Y169750D02*
Y178871D01*
X612482Y169750D02*
X614982D01*
X612482D02*
Y178871D01*
X611604Y179750D02*
X612482Y178871D01*
X607861Y179750D02*
X611604D01*
X606982Y178871D02*
X607861Y179750D01*
X606982Y169750D02*
Y178871D01*
X604482Y169750D02*
X606982D01*
X604482D02*
Y178871D01*
X603604Y179750D02*
X604482Y178871D01*
X599861Y179750D02*
X603604D01*
X598982Y178871D02*
X599861Y179750D01*
X598982Y169750D02*
Y178871D01*
X596482Y169750D02*
X598982D01*
X596482D02*
Y178871D01*
X595604Y179750D02*
X596482Y178871D01*
X591861Y179750D02*
X595604D01*
X590982Y178871D02*
X591861Y179750D01*
X590982Y169750D02*
Y178871D01*
X588482Y169750D02*
X590982D01*
X588482D02*
Y178871D01*
X587604Y179750D02*
X588482Y178871D01*
X583861Y179750D02*
X587604D01*
X582982Y178871D02*
X583861Y179750D01*
X582982Y169750D02*
Y178871D01*
X580482Y169750D02*
X582982D01*
X580482D02*
Y178871D01*
X579604Y179750D02*
X580482Y178871D01*
X575861Y179750D02*
X579604D01*
X574982Y178871D02*
X575861Y179750D01*
X574982Y169750D02*
Y178871D01*
X572482Y169750D02*
X574982D01*
X572482D02*
Y178871D01*
X571604Y179750D02*
X572482Y178871D01*
X567861Y179750D02*
X571604D01*
X566982Y178871D02*
X567861Y179750D01*
X566982Y169750D02*
Y178871D01*
X564482Y169750D02*
X566982D01*
X564482D02*
Y178578D01*
X563311Y179750D02*
X564482Y178578D01*
X558000Y179750D02*
X563311D01*
X551385Y178250D02*
X558000D01*
X551385Y179750D02*
X558000D01*
X735579Y103554D02*
X736066Y103067D01*
X735579Y103554D02*
X735579D01*
X734207Y104926D02*
X735579Y103554D01*
X734207Y104926D02*
Y106583D01*
X740449Y112826D01*
X738682Y114593D02*
X740449Y112826D01*
X725161Y101073D02*
X738682Y114593D01*
X723918Y101073D02*
X725161D01*
X721272Y103719D02*
X723918Y101073D01*
X721272Y103719D02*
Y104962D01*
X734793Y118482D01*
X733025Y120250D02*
X734793Y118482D01*
X719504Y106729D02*
X733025Y120250D01*
X718261Y106729D02*
X719504D01*
X715615Y109376D02*
X718261Y106729D01*
X715615Y109376D02*
Y110618D01*
X729136Y124139D01*
X727368Y125907D02*
X729136Y124139D01*
X713847Y112386D02*
X727368Y125907D01*
X712605Y112386D02*
X713847D01*
X709958Y115033D02*
X712605Y112386D01*
X709958Y115033D02*
Y116275D01*
X723479Y129796D01*
X721711Y131564D02*
X723479Y129796D01*
X708190Y118043D02*
X721711Y131564D01*
X706948Y118043D02*
X708190D01*
X704301Y120690D02*
X706948Y118043D01*
X704301Y120690D02*
Y121932D01*
X717822Y135453D01*
X716054Y137221D02*
X717822Y135453D01*
X702534Y123700D02*
X716054Y137221D01*
X701291Y123700D02*
X702534D01*
X698644Y126346D02*
X701291Y123700D01*
X698644Y126346D02*
Y127589D01*
X712165Y141110D01*
X710397Y142878D02*
X712165Y141110D01*
X696877Y129357D02*
X710397Y142878D01*
X695634Y129357D02*
X696877D01*
X692988Y132003D02*
X695634Y129357D01*
X692988Y132003D02*
Y133246D01*
X706508Y146767D01*
X704741Y148535D02*
X706508Y146767D01*
X691220Y135014D02*
X704741Y148535D01*
X689977Y135014D02*
X691220D01*
X687331Y137660D02*
X689977Y135014D01*
X687331Y137660D02*
Y138903D01*
X700852Y152424D01*
X699084Y154191D02*
X700852Y152424D01*
X685563Y140671D02*
X699084Y154191D01*
X684320Y140671D02*
X685563D01*
X681674Y143317D02*
X684320Y140671D01*
X681674Y143317D02*
Y144560D01*
X695195Y158080D01*
X693427Y159848D02*
X695195Y158080D01*
X679906Y146327D02*
X693427Y159848D01*
X678664Y146327D02*
X679906D01*
X676017Y148974D02*
X678664Y146327D01*
X676017Y148974D02*
Y150216D01*
X689538Y163737D01*
X687770Y165505D02*
X689538Y163737D01*
X674249Y151984D02*
X687770Y165505D01*
X673007Y151984D02*
X674249D01*
X670360Y154631D02*
X673007Y151984D01*
X670360Y154631D02*
Y155873D01*
X683881Y169394D01*
X682113Y171162D02*
X683881Y169394D01*
X668593Y157641D02*
X682113Y171162D01*
X667350Y157641D02*
X668593D01*
X664703Y160287D02*
X667350Y157641D01*
X664703Y160287D02*
Y161530D01*
X678224Y175051D01*
X676456Y176819D02*
X678224Y175051D01*
X662936Y163298D02*
X676456Y176819D01*
X661693Y163298D02*
X662936D01*
X659047Y165944D02*
X661693Y163298D01*
X659047Y165944D02*
Y167187D01*
X672567Y180708D01*
X670800Y182475D02*
X672567Y180708D01*
X657279Y168955D02*
X670800Y182475D01*
X656036Y168955D02*
X657279D01*
X653390Y171601D02*
X656036Y168955D01*
X653390Y171601D02*
Y172844D01*
X666911Y186365D01*
X665143Y188132D02*
X666911Y186365D01*
X658900Y181890D02*
X665143Y188132D01*
X657243Y181890D02*
X658900D01*
X656804Y182329D02*
X657243Y181890D01*
X656804Y182329D02*
Y182329D01*
X656317Y182817D02*
X656804Y182329D01*
X736640Y104615D02*
X737127Y104127D01*
X735707Y105547D02*
X736640Y104615D01*
X735707Y105547D02*
Y105962D01*
X741950Y112204D01*
Y113447D01*
X739303Y116094D02*
X741950Y113447D01*
X738060Y116094D02*
X739303D01*
X724540Y102573D02*
X738060Y116094D01*
X722772Y104340D02*
X724540Y102573D01*
X722772Y104340D02*
X736293Y117861D01*
Y119104D01*
X733646Y121750D02*
X736293Y119104D01*
X732404Y121750D02*
X733646D01*
X718883Y108229D02*
X732404Y121750D01*
X717115Y109997D02*
X718883Y108229D01*
X717115Y109997D02*
X730636Y123518D01*
Y124761D01*
X727989Y127407D02*
X730636Y124761D01*
X726747Y127407D02*
X727989D01*
X713226Y113886D02*
X726747Y127407D01*
X711458Y115654D02*
X713226Y113886D01*
X711458Y115654D02*
X724979Y129175D01*
Y130418D01*
X722332Y133064D02*
X724979Y130418D01*
X721090Y133064D02*
X722332D01*
X707569Y119543D02*
X721090Y133064D01*
X705801Y121311D02*
X707569Y119543D01*
X705801Y121311D02*
X719322Y134832D01*
Y136074D01*
X716676Y138721D02*
X719322Y136074D01*
X715433Y138721D02*
X716676D01*
X701912Y125200D02*
X715433Y138721D01*
X700144Y126968D02*
X701912Y125200D01*
X700144Y126968D02*
X713665Y140489D01*
Y141731D01*
X711019Y144378D02*
X713665Y141731D01*
X709776Y144378D02*
X711019D01*
X696255Y130857D02*
X709776Y144378D01*
X694488Y132625D02*
X696255Y130857D01*
X694488Y132625D02*
X708008Y146145D01*
Y147388D01*
X705362Y150034D02*
X708008Y147388D01*
X704119Y150034D02*
X705362D01*
X690599Y136514D02*
X704119Y150034D01*
X688831Y138281D02*
X690599Y136514D01*
X688831Y138281D02*
X702352Y151802D01*
Y153045D01*
X699705Y155691D02*
X702352Y153045D01*
X698463Y155691D02*
X699705D01*
X684942Y142171D02*
X698463Y155691D01*
X683174Y143938D02*
X684942Y142171D01*
X683174Y143938D02*
X696695Y157459D01*
Y158702D01*
X694048Y161348D02*
X696695Y158702D01*
X692806Y161348D02*
X694048D01*
X679285Y147827D02*
X692806Y161348D01*
X677517Y149595D02*
X679285Y147827D01*
X677517Y149595D02*
X691038Y163116D01*
Y164358D01*
X688391Y167005D02*
X691038Y164358D01*
X687149Y167005D02*
X688391D01*
X673628Y153484D02*
X687149Y167005D01*
X671860Y155252D02*
X673628Y153484D01*
X671860Y155252D02*
X685381Y168773D01*
Y170015D01*
X682735Y172662D02*
X685381Y170015D01*
X681492Y172662D02*
X682735D01*
X667971Y159141D02*
X681492Y172662D01*
X666203Y160909D02*
X667971Y159141D01*
X666203Y160909D02*
X679724Y174430D01*
Y175672D01*
X677078Y178319D02*
X679724Y175672D01*
X675835Y178319D02*
X677078D01*
X662314Y164798D02*
X675835Y178319D01*
X660547Y166566D02*
X662314Y164798D01*
X660547Y166566D02*
X674067Y180086D01*
Y181329D01*
X671421Y183976D02*
X674067Y181329D01*
X670178Y183976D02*
X671421D01*
X656658Y170455D02*
X670178Y183976D01*
X654890Y172222D02*
X656658Y170455D01*
X654890Y172222D02*
X668411Y185743D01*
Y186986D01*
X665764Y189632D02*
X668411Y186986D01*
X664522Y189632D02*
X665764D01*
X658279Y183390D02*
X664522Y189632D01*
X657865Y183390D02*
X658279D01*
X657865Y183390D02*
X657865Y183390D01*
X657377Y183877D02*
X657865Y183390D01*
X736066Y103067D02*
X740377Y98756D01*
X654840Y184293D02*
X656317Y182817D01*
X737127Y104127D02*
X741877Y99377D01*
X655461Y185793D02*
X657377Y183877D01*
X650154Y184293D02*
X653000D01*
X648982Y185465D02*
X650154Y184293D01*
X648982Y185465D02*
Y194293D01*
X646482D02*
X648982D01*
X646482Y175172D02*
Y194293D01*
X645604Y174293D02*
X646482Y175172D01*
X641861Y174293D02*
X645604D01*
X640982Y175172D02*
X641861Y174293D01*
X640982Y175172D02*
Y194293D01*
X638482D02*
X640982D01*
X638482Y180126D02*
Y194293D01*
X637604Y179247D02*
X638482Y180126D01*
X633861Y179247D02*
X637604D01*
X632982Y180126D02*
X633861Y179247D01*
X632982Y180126D02*
Y194293D01*
X630482D02*
X632982D01*
X630482Y181629D02*
Y194293D01*
X629604Y180750D02*
X630482Y181629D01*
X625861Y180750D02*
X629604D01*
X624982Y181629D02*
X625861Y180750D01*
X624982Y181629D02*
Y194293D01*
X622482D02*
X624982D01*
X622482Y181629D02*
Y194293D01*
X621604Y180750D02*
X622482Y181629D01*
X617861Y180750D02*
X621604D01*
X616982Y181629D02*
X617861Y180750D01*
X616982Y181629D02*
Y194293D01*
X614482D02*
X616982D01*
X614482Y181629D02*
Y194293D01*
X613604Y180750D02*
X614482Y181629D01*
X609861Y180750D02*
X613604D01*
X608982Y181629D02*
X609861Y180750D01*
X608982Y181629D02*
Y194293D01*
X606482D02*
X608982D01*
X606482Y181629D02*
Y194293D01*
X605604Y180750D02*
X606482Y181629D01*
X601861Y180750D02*
X605604D01*
X600982Y181629D02*
X601861Y180750D01*
X600982Y181629D02*
Y194293D01*
X598482D02*
X600982D01*
X598482Y181629D02*
Y194293D01*
X597604Y180750D02*
X598482Y181629D01*
X593861Y180750D02*
X597604D01*
X592982Y181629D02*
X593861Y180750D01*
X592982Y181629D02*
Y194293D01*
X590482D02*
X592982D01*
X590482Y181629D02*
Y194293D01*
X589604Y180750D02*
X590482Y181629D01*
X585861Y180750D02*
X589604D01*
X584982Y181629D02*
X585861Y180750D01*
X584982Y181629D02*
Y194293D01*
X582482D02*
X584982D01*
X582482Y181629D02*
Y194293D01*
X581604Y180750D02*
X582482Y181629D01*
X577861Y180750D02*
X581604D01*
X576982Y181629D02*
X577861Y180750D01*
X576982Y181629D02*
Y194293D01*
X574482D02*
X576982D01*
X574482Y181629D02*
Y194293D01*
X573604Y180750D02*
X574482Y181629D01*
X569861Y180750D02*
X573604D01*
X568982Y181629D02*
X569861Y180750D01*
X568982Y181629D02*
Y194293D01*
X566482D02*
X568982D01*
X566482Y181629D02*
Y194293D01*
X565604Y180750D02*
X566482Y181629D01*
X561861Y180750D02*
X565604D01*
X560982Y181629D02*
X561861Y180750D01*
X560982Y181629D02*
Y194293D01*
X558482D02*
X560982D01*
X558482Y185465D02*
Y194293D01*
X557311Y184293D02*
X558482Y185465D01*
X556000Y184293D02*
X557311D01*
X650775Y185793D02*
X653000D01*
X650482Y186086D02*
X650775Y185793D01*
X650482Y186086D02*
Y194915D01*
X649604Y195793D02*
X650482Y194915D01*
X645861Y195793D02*
X649604D01*
X644982Y194915D02*
X645861Y195793D01*
X644982Y175793D02*
Y194915D01*
X642482Y175793D02*
X644982D01*
X642482D02*
Y194915D01*
X641604Y195793D02*
X642482Y194915D01*
X637861Y195793D02*
X641604D01*
X636982Y194915D02*
X637861Y195793D01*
X636982Y180747D02*
Y194915D01*
X634482Y180747D02*
X636982D01*
X634482D02*
Y194915D01*
X633604Y195793D02*
X634482Y194915D01*
X629861Y195793D02*
X633604D01*
X628982Y194915D02*
X629861Y195793D01*
X628982Y182250D02*
Y194915D01*
X626482Y182250D02*
X628982D01*
X626482D02*
Y194915D01*
X625604Y195793D02*
X626482Y194915D01*
X621861Y195793D02*
X625604D01*
X620982Y194915D02*
X621861Y195793D01*
X620982Y182250D02*
Y194915D01*
X618482Y182250D02*
X620982D01*
X618482D02*
Y194915D01*
X617604Y195793D02*
X618482Y194915D01*
X613861Y195793D02*
X617604D01*
X612982Y194915D02*
X613861Y195793D01*
X612982Y182250D02*
Y194915D01*
X610482Y182250D02*
X612982D01*
X610482D02*
Y194915D01*
X609604Y195793D02*
X610482Y194915D01*
X605861Y195793D02*
X609604D01*
X604982Y194915D02*
X605861Y195793D01*
X604982Y182250D02*
Y194915D01*
X602482Y182250D02*
X604982D01*
X602482D02*
Y194915D01*
X601604Y195793D02*
X602482Y194915D01*
X597861Y195793D02*
X601604D01*
X596982Y194915D02*
X597861Y195793D01*
X596982Y182250D02*
Y194915D01*
X594482Y182250D02*
X596982D01*
X594482D02*
Y194915D01*
X593604Y195793D02*
X594482Y194915D01*
X589861Y195793D02*
X593604D01*
X588982Y194915D02*
X589861Y195793D01*
X588982Y182250D02*
Y194915D01*
X586482Y182250D02*
X588982D01*
X586482D02*
Y194915D01*
X585604Y195793D02*
X586482Y194915D01*
X581861Y195793D02*
X585604D01*
X580982Y194915D02*
X581861Y195793D01*
X580982Y182250D02*
Y194915D01*
X578482Y182250D02*
X580982D01*
X578482D02*
Y194915D01*
X577604Y195793D02*
X578482Y194915D01*
X573861Y195793D02*
X577604D01*
X572982Y194915D02*
X573861Y195793D01*
X572982Y182250D02*
Y194915D01*
X570482Y182250D02*
X572982D01*
X570482D02*
Y194915D01*
X569604Y195793D02*
X570482Y194915D01*
X565861Y195793D02*
X569604D01*
X564982Y194915D02*
X565861Y195793D01*
X564982Y182250D02*
Y194915D01*
X562482Y182250D02*
X564982D01*
X562482D02*
Y194915D01*
X561604Y195793D02*
X562482Y194915D01*
X557861Y195793D02*
X561604D01*
X556982Y194915D02*
X557861Y195793D01*
X556982Y186086D02*
Y194915D01*
X556689Y185793D02*
X556982Y186086D01*
X556000Y185793D02*
X556689D01*
X653000Y184293D02*
X654840D01*
X551543D02*
X556000D01*
X653000Y185793D02*
X655461D01*
X551543D02*
X556000D01*
X551432Y185904D02*
X551543Y185793D01*
X741877Y93095D02*
Y99377D01*
X740706Y91924D02*
X741877Y93095D01*
X739670Y91924D02*
X740706D01*
X739377Y90595D02*
X741458Y88514D01*
Y87500D02*
Y88514D01*
X551096Y184182D02*
X551432D01*
X551000Y184087D02*
X551096Y184182D01*
X740377Y93717D02*
Y98756D01*
X740084Y93424D02*
X740377Y93717D01*
X551432Y184182D02*
X551543Y184293D01*
X739670Y93424D02*
X740084D01*
X736458Y96636D02*
Y97500D01*
X739377Y90595D02*
Y91631D01*
X739670Y91924D01*
X736458Y96636D02*
X739670Y93424D01*
X551096Y185904D02*
X551432D01*
X551000Y180000D02*
X551135D01*
X551385Y179750D01*
X707928Y91444D02*
X711617Y95134D01*
X707264Y92902D02*
X710117Y95756D01*
X706458Y93294D02*
X706849Y92902D01*
X551135Y178000D02*
X551385Y178250D01*
X551000Y178000D02*
X551135D01*
X706458Y93294D02*
Y97500D01*
X706849Y92902D02*
X707264D01*
X707928Y91030D02*
X711458Y87500D01*
X707928Y91030D02*
Y91444D01*
X394061Y75439D02*
X400811D01*
X401982Y76611D01*
Y85439D01*
X404482D01*
Y66318D02*
Y85439D01*
Y66318D02*
X405361Y65439D01*
X409104D01*
X409982Y66318D01*
Y85439D01*
X412482D01*
Y66318D02*
Y85439D01*
Y66318D02*
X413361Y65439D01*
X417104D01*
X417982Y66318D01*
Y85439D01*
X420482D01*
Y66318D02*
Y85439D01*
Y66318D02*
X421361Y65439D01*
X425104D01*
X425982Y66318D01*
Y85439D01*
X428482D01*
Y66318D02*
Y85439D01*
Y66318D02*
X429361Y65439D01*
X433104D01*
X433982Y66318D01*
Y85439D01*
X436482D01*
Y76611D02*
Y85439D01*
Y76611D02*
X437654Y75439D01*
X447061D01*
X452003Y80382D01*
Y82039D01*
X445761Y88282D02*
X452003Y82039D01*
X445761Y88282D02*
X447529Y90049D01*
X461049Y76529D01*
X462292D01*
X464938Y79175D01*
Y80418D01*
X451418Y93938D02*
X464938Y80418D01*
X451418Y93938D02*
X453185Y95706D01*
X466706Y82185D01*
X467949D01*
X470595Y84832D01*
Y86074D01*
X457074Y99595D02*
X470595Y86074D01*
X457074Y99595D02*
X458842Y101363D01*
X472363Y87842D01*
X473606D01*
X476252Y90489D01*
Y91731D01*
X462731Y105252D02*
X476252Y91731D01*
X462731Y105252D02*
X464499Y107020D01*
X478020Y93499D01*
X479263D01*
X481909Y96146D01*
Y97388D01*
X468388Y110909D02*
X481909Y97388D01*
X468388Y110909D02*
X470156Y112677D01*
X483677Y99156D01*
X484919D01*
X486919Y101156D01*
X487359Y101595D01*
Y103252D01*
X477750Y112861D02*
X487359Y103252D01*
X477750Y112861D02*
Y120518D01*
X496871D02*
X497750Y121396D01*
Y125139D01*
X496871Y126018D02*
X497750Y125139D01*
X477750Y126018D02*
Y128518D01*
X496871D02*
X497750Y129396D01*
Y133139D01*
X496871Y134018D02*
X497750Y133139D01*
X477750Y134018D02*
Y136518D01*
X496871D02*
X497750Y137396D01*
Y141139D01*
X496871Y142018D02*
X497750Y141139D01*
X477750Y142018D02*
Y144518D01*
X496871D02*
X497750Y145396D01*
Y149139D01*
X496871Y150018D02*
X497750Y149139D01*
X477750Y150018D02*
Y152518D01*
X496871D02*
X497750Y153396D01*
Y157139D01*
X496871Y158018D02*
X497750Y157139D01*
X477750Y158018D02*
Y160518D01*
X496871D02*
X497750Y161396D01*
Y165139D01*
X496871Y166018D02*
X497750Y165139D01*
X477750Y166018D02*
Y168518D01*
X496871D02*
X497750Y169396D01*
Y173139D01*
X496871Y174018D02*
X497750Y173139D01*
X477750Y174018D02*
Y176518D01*
X496871D02*
X497750Y177396D01*
Y181139D01*
X496871Y182018D02*
X497750Y181139D01*
X477750Y182018D02*
Y184518D01*
X496871D02*
X497750Y185396D01*
Y188828D01*
X496578Y190000D02*
X497750Y188828D01*
X477750Y190293D02*
X478043Y190000D01*
X477750Y190293D02*
Y192518D01*
X496871D02*
X497750Y193396D01*
Y197139D01*
X496871Y198018D02*
X497750Y197139D01*
X477750Y198018D02*
Y200518D01*
X496871D02*
X497750Y201396D01*
Y205139D01*
X496871Y206018D02*
X497750Y205139D01*
X477750Y206018D02*
Y208518D01*
X496871D02*
X497750Y209396D01*
Y213139D01*
X496871Y214018D02*
X497750Y213139D01*
X477750Y214018D02*
Y216518D01*
X496871D02*
X497750Y217396D01*
Y221139D01*
X496871Y222018D02*
X497750Y221139D01*
X477750Y222018D02*
Y224518D01*
X496871D02*
X497750Y225396D01*
Y229139D01*
X496871Y230018D02*
X497750Y229139D01*
X477750Y230018D02*
Y232518D01*
X496871D02*
X497750Y233396D01*
Y237139D01*
X496871Y238018D02*
X497750Y237139D01*
X477750Y238018D02*
Y240518D01*
X496871D02*
X497750Y241396D01*
Y245139D01*
X496871Y246017D02*
X497750Y245139D01*
X477750Y246017D02*
Y248517D01*
X496871D02*
X497750Y249396D01*
Y253139D01*
X496871Y254017D02*
X497750Y253139D01*
X477750Y254017D02*
Y256517D01*
X496871D02*
X497750Y257396D01*
Y261139D01*
X496871Y262017D02*
X497750Y261139D01*
X477750Y262017D02*
Y264517D01*
X496871D02*
X497750Y265396D01*
Y269139D01*
X496871Y270017D02*
X497750Y269139D01*
X477750Y270017D02*
Y272517D01*
X496871D02*
X497750Y273396D01*
Y277139D01*
X496871Y278017D02*
X497750Y277139D01*
X477750Y278017D02*
Y280517D01*
X496871D02*
X497750Y281396D01*
Y285139D01*
X496871Y286017D02*
X497750Y285139D01*
X477750Y286017D02*
Y288517D01*
X496871D02*
X497750Y289396D01*
Y293139D01*
X496871Y294017D02*
X497750Y293139D01*
X477750Y294017D02*
Y296517D01*
X496871D02*
X497750Y297396D01*
Y301139D01*
X496871Y302017D02*
X497750Y301139D01*
X477750Y302017D02*
Y304517D01*
X496871D02*
X497750Y305396D01*
Y309139D01*
X496871Y310017D02*
X497750Y309139D01*
X477750Y310017D02*
Y312517D01*
X496871D02*
X497750Y313396D01*
Y317139D01*
X496871Y318017D02*
X497750Y317139D01*
X477750Y318017D02*
Y320517D01*
X496871D02*
X497750Y321396D01*
Y325139D01*
X496871Y326017D02*
X497750Y325139D01*
X477750Y326017D02*
Y328517D01*
X496871D02*
X497750Y329396D01*
Y333139D01*
X496871Y334017D02*
X497750Y333139D01*
X477750Y334017D02*
Y336517D01*
X486578D01*
X487750Y337689D01*
Y348207D02*
X488043Y348500D01*
X487543D02*
X488043D01*
X487250Y348793D02*
Y354311D01*
X480732Y355482D02*
X486078D01*
X480732D02*
Y357982D01*
X493172Y358861D02*
Y362604D01*
X487543Y363482D02*
X492293D01*
X487250Y373207D02*
X487543Y373500D01*
X491500D01*
X488043Y348500D02*
X492000D01*
X487250Y348793D02*
X487543Y348500D01*
X486078Y355482D02*
X487250Y354311D01*
X480732Y357982D02*
X492293D01*
X493172Y358861D01*
X492293Y363482D02*
X493172Y362604D01*
X487250Y363775D02*
X487543Y363482D01*
X487250Y363775D02*
Y373207D01*
X394061Y76939D02*
X400189D01*
X400482Y77232D01*
Y86061D01*
X401361Y86939D01*
X405104D01*
X405982Y86061D01*
Y66939D02*
Y86061D01*
Y66939D02*
X408482D01*
Y86061D01*
X409361Y86939D01*
X413104D01*
X413982Y86061D01*
Y66939D02*
Y86061D01*
Y66939D02*
X416482D01*
Y86061D01*
X417361Y86939D01*
X421104D01*
X421982Y86061D01*
Y66939D02*
Y86061D01*
Y66939D02*
X424482D01*
Y86061D01*
X425361Y86939D01*
X429104D01*
X429982Y86061D01*
Y66939D02*
Y86061D01*
Y66939D02*
X432482D01*
Y86061D01*
X433361Y86939D01*
X437104D01*
X437982Y86061D01*
Y77232D02*
Y86061D01*
Y77232D02*
X438275Y76939D01*
X446439D01*
X450503Y81003D01*
Y81418D01*
X444261Y87660D02*
X450503Y81418D01*
X444261Y87660D02*
Y88903D01*
X446907Y91549D01*
X448150D01*
X461671Y78029D01*
X463438Y79796D01*
X449918Y93317D02*
X463438Y79796D01*
X449918Y93317D02*
Y94560D01*
X452564Y97206D01*
X453807D01*
X467328Y83685D01*
X469095Y85453D01*
X455574Y98974D02*
X469095Y85453D01*
X455574Y98974D02*
Y100217D01*
X458221Y102863D01*
X459464D01*
X472984Y89342D01*
X474752Y91110D01*
X461231Y104631D02*
X474752Y91110D01*
X461231Y104631D02*
Y105873D01*
X463878Y108520D01*
X465120D01*
X478641Y94999D01*
X480409Y96767D01*
X466888Y110288D02*
X480409Y96767D01*
X466888Y110288D02*
Y111530D01*
X469535Y114177D01*
X470777D01*
X484298Y100656D01*
X485859Y102217D01*
Y102631D01*
X476250Y112240D02*
X485859Y102631D01*
X476250Y112240D02*
Y121139D01*
X477129Y122018D01*
X496250D02*
Y124518D01*
X476250Y125396D02*
X477129Y124518D01*
X476250Y125396D02*
Y129139D01*
X477129Y130018D01*
X496250D02*
Y132518D01*
X476250Y133396D02*
X477129Y132518D01*
X476250Y133396D02*
Y137139D01*
X477129Y138018D01*
X496250D02*
Y140518D01*
X476250Y141396D02*
X477129Y140518D01*
X476250Y141396D02*
Y145139D01*
X477129Y146018D01*
X496250D02*
Y148518D01*
X476250Y149396D02*
X477129Y148518D01*
X476250Y149396D02*
Y153139D01*
X477129Y154018D01*
X496250D02*
Y156518D01*
X476250Y157396D02*
X477129Y156518D01*
X476250Y157396D02*
Y161139D01*
X477129Y162018D01*
X496250D02*
Y164518D01*
X476250Y165396D02*
X477129Y164518D01*
X476250Y165396D02*
Y169139D01*
X477129Y170018D01*
X496250D02*
Y172518D01*
X476250Y173396D02*
X477129Y172518D01*
X476250Y173396D02*
Y177139D01*
X477129Y178018D01*
X496250D02*
Y180518D01*
X476250Y181396D02*
X477129Y180518D01*
X476250Y181396D02*
Y185139D01*
X477129Y186018D01*
X496250D02*
Y188207D01*
X495957Y188500D02*
X496250Y188207D01*
X476250Y189672D02*
X477422Y188500D01*
X476250Y189672D02*
Y193139D01*
X477129Y194018D01*
X496250D02*
Y196518D01*
X476250Y197396D02*
X477129Y196518D01*
X476250Y197396D02*
Y201139D01*
X477129Y202018D01*
X496250D02*
Y204518D01*
X476250Y205396D02*
X477129Y204518D01*
X476250Y205396D02*
Y209139D01*
X477129Y210018D01*
X496250D02*
Y212518D01*
X476250Y213396D02*
X477129Y212518D01*
X476250Y213396D02*
Y217139D01*
X477129Y218018D01*
X496250D02*
Y220518D01*
X476250Y221396D02*
X477129Y220518D01*
X476250Y221396D02*
Y225139D01*
X477129Y226018D01*
X496250D02*
Y228518D01*
X476250Y229396D02*
X477129Y228518D01*
X476250Y229396D02*
Y233139D01*
X477129Y234018D01*
X496250D02*
Y236518D01*
X476250Y237396D02*
X477129Y236518D01*
X476250Y237396D02*
Y241139D01*
X477129Y242018D01*
X496250D02*
Y244517D01*
X476250Y245396D02*
X477129Y244517D01*
X476250Y245396D02*
Y249139D01*
X477129Y250017D01*
X496250D02*
Y252517D01*
X476250Y253396D02*
X477129Y252517D01*
X476250Y253396D02*
Y257139D01*
X477129Y258017D01*
X496250D02*
Y260517D01*
X476250Y261396D02*
X477129Y260517D01*
X476250Y261396D02*
Y265139D01*
X477129Y266017D01*
X496250D02*
Y268517D01*
X476250Y269396D02*
X477129Y268517D01*
X476250Y269396D02*
Y273139D01*
X477129Y274017D01*
X496250D02*
Y276517D01*
X476250Y277396D02*
X477129Y276517D01*
X476250Y277396D02*
Y281139D01*
X477129Y282017D01*
X496250D02*
Y284517D01*
X476250Y285396D02*
X477129Y284517D01*
X476250Y285396D02*
Y289139D01*
X477129Y290017D01*
X496250D02*
Y292517D01*
X476250Y293396D02*
X477129Y292517D01*
X476250Y293396D02*
Y297139D01*
X477129Y298017D01*
X496250D02*
Y300517D01*
X476250Y301396D02*
X477129Y300517D01*
X476250Y301396D02*
Y305139D01*
X477129Y306017D01*
X496250D02*
Y308517D01*
X476250Y309396D02*
X477129Y308517D01*
X476250Y309396D02*
Y313139D01*
X477129Y314017D01*
X496250D02*
Y316517D01*
X476250Y317396D02*
X477129Y316517D01*
X476250Y317396D02*
Y321139D01*
X477129Y322017D01*
X496250D02*
Y324517D01*
X476250Y325396D02*
X477129Y324517D01*
X476250Y325396D02*
Y329139D01*
X477129Y330017D01*
X496250D02*
Y332517D01*
X476250Y333396D02*
X477129Y332517D01*
X476250Y333396D02*
Y337139D01*
X477129Y338017D01*
X485957D01*
X486250Y338310D01*
X485957Y348500D02*
X486250Y348207D01*
X485457Y348500D02*
X485957D01*
X480111Y353982D02*
X485457D01*
X479232Y358604D02*
X480111Y359482D01*
X491672D01*
X486922Y361982D02*
X491672D01*
X485457Y373500D02*
X485750Y373207D01*
X481500Y373500D02*
X485457D01*
X482000Y348500D02*
X485457D01*
X485750Y348793D01*
Y353689D01*
X485457Y353982D02*
X485750Y353689D01*
X479232Y354861D02*
X480111Y353982D01*
X479232Y354861D02*
Y358604D01*
X491672Y359482D02*
Y361982D01*
X485750Y363154D02*
X486922Y361982D01*
X485750Y363154D02*
Y373207D01*
X414482Y122379D02*
Y141500D01*
Y122379D02*
X415361Y121500D01*
X419104D01*
X419982Y122379D01*
Y141500D01*
X422482D01*
Y122379D02*
Y141500D01*
Y122379D02*
X423361Y121500D01*
X427104D01*
X427982Y122379D01*
Y141500D01*
X431539D01*
X444691Y128348D01*
X446348D01*
X454922Y136922D01*
Y138578D01*
X442018Y151482D02*
X454922Y138578D01*
X438043Y151482D02*
X442018D01*
X437750Y151775D02*
X438043Y151482D01*
X437750Y151775D02*
Y153982D01*
X456871D01*
X457750Y154861D01*
Y158604D01*
X456871Y159482D02*
X457750Y158604D01*
X437750Y159482D02*
X456871D01*
X437750D02*
Y161982D01*
X456871D01*
X457750Y162861D01*
Y166604D01*
X456871Y167482D02*
X457750Y166604D01*
X437750Y167482D02*
X456871D01*
X437750D02*
Y169982D01*
X456871D01*
X457750Y170861D01*
Y174604D01*
X456871Y175482D02*
X457750Y174604D01*
X437750Y175482D02*
X456871D01*
X437750D02*
Y177982D01*
X456871D01*
X457750Y178861D01*
Y182604D01*
X456871Y183482D02*
X457750Y182604D01*
X437750Y183482D02*
X456871D01*
X437750D02*
Y185982D01*
X456871D01*
X457750Y186861D01*
Y190604D01*
X456871Y191482D02*
X457750Y190604D01*
X437750Y191482D02*
X456871D01*
X437750D02*
Y193982D01*
X456871D01*
X457750Y194861D01*
Y198604D01*
X456871Y199482D02*
X457750Y198604D01*
X437750Y199482D02*
X456871D01*
X437750D02*
Y201982D01*
X456871D01*
X457750Y202861D01*
Y206604D01*
X456871Y207482D02*
X457750Y206604D01*
X437750Y207482D02*
X456871D01*
X437750D02*
Y209982D01*
X456871D01*
X457750Y210861D01*
Y214604D01*
X456871Y215482D02*
X457750Y214604D01*
X437750Y215482D02*
X456871D01*
X437750D02*
Y217982D01*
X456871D01*
X457750Y218861D01*
Y222604D01*
X456871Y223482D02*
X457750Y222604D01*
X437750Y223482D02*
X456871D01*
X437750D02*
Y225982D01*
X456871D01*
X457750Y226861D01*
Y230604D01*
X456871Y231482D02*
X457750Y230604D01*
X437750Y231482D02*
X456871D01*
X437750D02*
Y233982D01*
X456871D01*
X457750Y234861D01*
Y238604D01*
X456871Y239482D02*
X457750Y238604D01*
X437750Y239482D02*
X456871D01*
X437750D02*
Y241982D01*
X456871D01*
X457750Y242861D01*
Y246604D01*
X456871Y247482D02*
X457750Y246604D01*
X437750Y247482D02*
X456871D01*
X437750D02*
Y249982D01*
X456871D01*
X457750Y250861D01*
Y254604D01*
X456871Y255482D02*
X457750Y254604D01*
X437750Y255482D02*
X456871D01*
X437750D02*
Y257982D01*
X456871D01*
X457750Y258861D01*
Y262604D01*
X456871Y263482D02*
X457750Y262604D01*
X437750Y263482D02*
X456871D01*
X437750D02*
Y265982D01*
X456871D01*
X457750Y266861D01*
Y270604D01*
X456871Y271482D02*
X457750Y270604D01*
X437750Y271482D02*
X456871D01*
X437750D02*
Y273982D01*
X456871D01*
X457750Y274861D01*
Y278604D01*
X456871Y279482D02*
X457750Y278604D01*
X437750Y279482D02*
X456871D01*
X437750D02*
Y281982D01*
X456871D01*
X457750Y282861D01*
Y286604D01*
X456871Y287482D02*
X457750Y286604D01*
X437750Y287482D02*
X456871D01*
X437750D02*
Y289982D01*
X456871D01*
X457750Y290861D01*
Y294604D01*
X456871Y295482D02*
X457750Y294604D01*
X437750Y295482D02*
X456871D01*
X437750D02*
Y297982D01*
X456871D01*
X457750Y298861D01*
Y302604D01*
X456871Y303482D02*
X457750Y302604D01*
X437750Y303482D02*
X456871D01*
X437750D02*
Y305982D01*
X456871D01*
X457750Y306861D01*
Y310604D01*
X456871Y311482D02*
X457750Y310604D01*
X437750Y311482D02*
X456871D01*
X437750D02*
Y313982D01*
X456871D01*
X457750Y314861D01*
Y318604D01*
X456871Y319482D02*
X457750Y318604D01*
X437750Y319482D02*
X456871D01*
X437750D02*
Y321982D01*
X456871D01*
X457750Y322861D01*
Y326604D01*
X456871Y327482D02*
X457750Y326604D01*
X437750Y327482D02*
X456871D01*
X437750D02*
Y329982D01*
X456871D01*
X457750Y330861D01*
Y334604D01*
X456871Y335482D02*
X457750Y334604D01*
X437750Y335482D02*
X456871D01*
X437750D02*
Y337982D01*
X456871D01*
X457750Y338861D01*
Y342604D01*
X456871Y343482D02*
X457750Y342604D01*
X448043Y343482D02*
X456871D01*
X447750Y343775D02*
X448043Y343482D01*
X447750Y343775D02*
Y348207D01*
X448043Y348500D01*
X447543D02*
X448043D01*
X446078Y358482D02*
X447250Y357311D01*
X453554Y361861D02*
Y365604D01*
X452675Y366482D02*
X453554Y365604D01*
X447543Y366482D02*
X452675D01*
X447250Y366775D02*
X447543Y366482D01*
X447250Y366775D02*
Y373207D01*
X447543Y373500D01*
X451500D01*
X448043Y348500D02*
X452000D01*
X447250Y348793D02*
X447543Y348500D01*
X447250Y348793D02*
Y357311D01*
X441065Y358482D02*
X446078D01*
X441065D02*
Y360982D01*
X452675D01*
X453554Y361861D01*
X415104Y143000D02*
X415982Y142121D01*
Y123000D02*
Y142121D01*
Y123000D02*
X418482D01*
Y142121D01*
X419361Y143000D01*
X423104D01*
X423982Y142121D01*
Y123000D02*
Y142121D01*
Y123000D02*
X426482D01*
Y142121D01*
X427361Y143000D01*
X432161D01*
X445313Y129848D01*
X445727D01*
X453422Y137543D01*
Y137957D01*
X441396Y149982D02*
X453422Y137957D01*
X437422Y149982D02*
X441396D01*
X436250Y151154D02*
X437422Y149982D01*
X436250Y151154D02*
Y154604D01*
X437129Y155482D01*
X456250D01*
Y157982D01*
X437129D02*
X456250D01*
X436250Y158861D02*
X437129Y157982D01*
X436250Y158861D02*
Y162604D01*
X437129Y163482D01*
X456250D01*
Y165982D01*
X437129D02*
X456250D01*
X436250Y166861D02*
X437129Y165982D01*
X436250Y166861D02*
Y170604D01*
X437129Y171482D01*
X456250D01*
Y173982D01*
X437129D02*
X456250D01*
X436250Y174861D02*
X437129Y173982D01*
X436250Y174861D02*
Y178604D01*
X437129Y179482D01*
X456250D01*
Y181982D01*
X437129D02*
X456250D01*
X436250Y182861D02*
X437129Y181982D01*
X436250Y182861D02*
Y186604D01*
X437129Y187482D01*
X456250D01*
Y189982D01*
X437129D02*
X456250D01*
X436250Y190861D02*
X437129Y189982D01*
X436250Y190861D02*
Y194604D01*
X437129Y195482D01*
X456250D01*
Y197982D01*
X437129D02*
X456250D01*
X436250Y198861D02*
X437129Y197982D01*
X436250Y198861D02*
Y202604D01*
X437129Y203482D01*
X456250D01*
Y205982D01*
X437129D02*
X456250D01*
X436250Y206861D02*
X437129Y205982D01*
X436250Y206861D02*
Y210604D01*
X437129Y211482D01*
X456250D01*
Y213982D01*
X437129D02*
X456250D01*
X436250Y214861D02*
X437129Y213982D01*
X436250Y214861D02*
Y218604D01*
X437129Y219482D01*
X456250D01*
Y221982D01*
X437129D02*
X456250D01*
X436250Y222861D02*
X437129Y221982D01*
X436250Y222861D02*
Y226604D01*
X437129Y227482D01*
X456250D01*
Y229982D01*
X437129D02*
X456250D01*
X436250Y230861D02*
X437129Y229982D01*
X436250Y230861D02*
Y234604D01*
X437129Y235482D01*
X456250D01*
Y237982D01*
X437129D02*
X456250D01*
X436250Y238861D02*
X437129Y237982D01*
X436250Y238861D02*
Y242604D01*
X437129Y243482D01*
X456250D01*
Y245982D01*
X437129D02*
X456250D01*
X436250Y246861D02*
X437129Y245982D01*
X436250Y246861D02*
Y250604D01*
X437129Y251482D01*
X456250D01*
Y253982D01*
X437129D02*
X456250D01*
X436250Y254861D02*
X437129Y253982D01*
X436250Y254861D02*
Y258604D01*
X437129Y259482D01*
X456250D01*
Y261982D01*
X437129D02*
X456250D01*
X436250Y262861D02*
X437129Y261982D01*
X436250Y262861D02*
Y266604D01*
X437129Y267482D01*
X456250D01*
Y269982D01*
X437129D02*
X456250D01*
X436250Y270861D02*
X437129Y269982D01*
X436250Y270861D02*
Y274604D01*
X437129Y275482D01*
X456250D01*
Y277982D01*
X437129D02*
X456250D01*
X436250Y278861D02*
X437129Y277982D01*
X436250Y278861D02*
Y282604D01*
X437129Y283482D01*
X456250D01*
Y285982D01*
X437129D02*
X456250D01*
X436250Y286861D02*
X437129Y285982D01*
X436250Y286861D02*
Y290604D01*
X437129Y291482D01*
X456250D01*
Y293982D01*
X437129D02*
X456250D01*
X436250Y294861D02*
X437129Y293982D01*
X436250Y294861D02*
Y298604D01*
X437129Y299482D01*
X456250D01*
Y301982D01*
X437129D02*
X456250D01*
X436250Y302861D02*
X437129Y301982D01*
X436250Y302861D02*
Y306604D01*
X437129Y307482D01*
X456250D01*
Y309982D01*
X437129D02*
X456250D01*
X436250Y310861D02*
X437129Y309982D01*
X436250Y310861D02*
Y314604D01*
X437129Y315482D01*
X456250D01*
Y317982D01*
X437129D02*
X456250D01*
X436250Y318861D02*
X437129Y317982D01*
X436250Y318861D02*
Y322604D01*
X437129Y323482D01*
X456250D01*
Y325982D01*
X437129D02*
X456250D01*
X436250Y326861D02*
X437129Y325982D01*
X436250Y326861D02*
Y330604D01*
X437129Y331482D01*
X456250D01*
Y333982D01*
X437129D02*
X456250D01*
X436250Y334861D02*
X437129Y333982D01*
X436250Y334861D02*
Y338604D01*
X437129Y339482D01*
X456250D01*
Y341982D01*
X447422D02*
X456250D01*
X446250Y343154D02*
X447422Y341982D01*
X446250Y343154D02*
Y348207D01*
X445957Y348500D02*
X446250Y348207D01*
X445457Y348500D02*
X445957D01*
X445457D02*
X445750Y348793D01*
Y356689D01*
X445457Y356982D02*
X445750Y356689D01*
X440443Y356982D02*
X445457D01*
X439565Y357861D02*
X440443Y356982D01*
X439565Y357861D02*
Y361604D01*
X440443Y362482D01*
X452054D01*
Y364982D01*
X446922D02*
X452054D01*
X445457Y373500D02*
X445750Y373207D01*
X442000Y348500D02*
X445457D01*
X445750Y366154D02*
X446922Y364982D01*
X445750Y366154D02*
Y373207D01*
X441500Y373500D02*
X445457D01*
X723910Y170500D02*
G03*
X723910Y170500I-6909J0D01*
G01*
X615937Y215039D02*
X623811D01*
X615937Y219961D02*
X623811D01*
Y215039D02*
Y219961D01*
X615937Y215039D02*
Y219961D01*
X639732Y215150D02*
Y218850D01*
X646268Y215150D02*
Y218850D01*
X639732D02*
X646268D01*
X639732Y215150D02*
X646268D01*
X614732Y238150D02*
Y241850D01*
X621268Y238150D02*
Y241850D01*
X614732D02*
X621268D01*
X614732Y238150D02*
X621268D01*
X637232Y238650D02*
Y242350D01*
X643768Y238650D02*
Y242350D01*
X637232D02*
X643768D01*
X637232Y238650D02*
X643768D01*
X738965Y340532D02*
Y385610D01*
X691917D02*
X738965D01*
X691917Y340532D02*
Y385610D01*
Y340532D02*
X738965D01*
X639220Y109650D02*
X645756D01*
X639220Y113350D02*
X645756D01*
Y109650D02*
Y113350D01*
X639220Y109650D02*
Y113350D01*
X687206Y104980D02*
X750710D01*
Y19980D02*
Y104980D01*
X687206Y19980D02*
X750710D01*
X687206D02*
Y104980D01*
X636350Y259425D02*
Y262575D01*
X642650Y259425D02*
Y262575D01*
X636350D02*
X642650D01*
X636350Y259425D02*
X642650D01*
X616047Y150106D02*
Y154043D01*
X625890D01*
Y150106D02*
Y154043D01*
X616047Y150106D02*
X625890D01*
X635244Y276150D02*
X641780D01*
X635244Y279850D02*
X641780D01*
Y276150D02*
Y279850D01*
X635244Y276150D02*
Y279850D01*
X638744Y181150D02*
X645280D01*
X638744Y184850D02*
X645280D01*
Y181150D02*
Y184850D01*
X638744Y181150D02*
Y184850D01*
X638732Y162650D02*
X645268D01*
X638732Y166350D02*
X645268D01*
Y162650D02*
Y166350D01*
X638732Y162650D02*
Y166350D01*
X638850Y144425D02*
Y147575D01*
X645150Y144425D02*
Y147575D01*
X638850D02*
X645150D01*
X638850Y144425D02*
X645150D01*
X637898Y129425D02*
Y132575D01*
X644197Y129425D02*
Y132575D01*
X637898D02*
X644197D01*
X637898Y129425D02*
X644197D01*
X684500Y204424D02*
Y287416D01*
X744500D01*
Y204424D02*
Y287416D01*
X684500Y204424D02*
X744500D01*
X618189Y109539D02*
Y114461D01*
X626063Y109539D02*
Y114461D01*
X618189D02*
X626063D01*
X618189Y109539D02*
X626063D01*
X705209Y158709D02*
Y182291D01*
Y158709D02*
X728791D01*
Y182291D01*
X705209D02*
X728791D01*
X618189Y128539D02*
Y133461D01*
X626063Y128539D02*
Y133461D01*
X618189D02*
X626063D01*
X618189Y128539D02*
X626063D01*
X617744Y170594D02*
Y182405D01*
Y170594D02*
X623256D01*
Y182405D01*
X617744D02*
X623256D01*
X616303Y196925D02*
Y200075D01*
X622602Y196925D02*
Y200075D01*
X616303D02*
X622602D01*
X616303Y196925D02*
X622602D01*
X613063Y258039D02*
Y262961D01*
X620937Y258039D02*
Y262961D01*
X613063D02*
X620937D01*
X613063Y258039D02*
X620937D01*
X659453Y164098D02*
Y188902D01*
X673547D01*
Y164098D02*
Y188902D01*
X659453Y164098D02*
X673547D01*
X658453Y222598D02*
Y247402D01*
X672547D01*
Y222598D02*
Y247402D01*
X658453Y222598D02*
X672547D01*
X615063Y275539D02*
Y280461D01*
X622937Y275539D02*
Y280461D01*
X615063D02*
X622937D01*
X615063Y275539D02*
X622937D01*
X639350Y197925D02*
Y201075D01*
X645650Y197925D02*
Y201075D01*
X639350D02*
X645650D01*
X639350Y197925D02*
X645650D01*
X247232Y55650D02*
X253768D01*
X247232Y59350D02*
X253768D01*
Y55650D02*
Y59350D01*
X247232Y55650D02*
Y59350D01*
X633988Y263559D02*
X645012D01*
Y258441D02*
Y263559D01*
X633988Y258441D02*
Y263559D01*
Y258441D02*
X645012D01*
X636488Y148559D02*
X647512D01*
Y143441D02*
Y148559D01*
X636488Y143441D02*
Y148559D01*
Y143441D02*
X647512D01*
X635535Y133559D02*
X646559D01*
Y128441D02*
Y133559D01*
X635535Y128441D02*
Y133559D01*
Y128441D02*
X646559D01*
X613941Y201059D02*
X624965D01*
Y195941D02*
Y201059D01*
X613941Y195941D02*
Y201059D01*
Y195941D02*
X624965D01*
X636988Y202059D02*
X648012D01*
Y196941D02*
Y202059D01*
X636988Y196941D02*
Y202059D01*
Y196941D02*
X648012D01*
D12*
X627000Y343500D02*
Y353500D01*
X507000Y343500D02*
X627000D01*
X507000D02*
Y353500D01*
X627000D01*
X407960Y173884D02*
Y238850D01*
X394646Y173884D02*
Y238848D01*
X337400Y171500D02*
Y231500D01*
X327600D02*
X337400D01*
X327600Y171500D02*
Y231500D01*
Y171500D02*
X337400D01*
X277500Y27400D02*
X337500D01*
X277500Y17600D02*
Y27400D01*
Y17600D02*
X337500D01*
Y27400D01*
X293000Y124000D02*
Y304000D01*
Y124000D02*
X313000D01*
Y304000D01*
X293000D02*
X313000D01*
X243500Y379000D02*
X363500D01*
X243500Y369000D02*
Y379000D01*
Y369000D02*
X363500D01*
Y379000D01*
X326500Y251500D02*
X336500D01*
X326500D02*
Y291500D01*
X336500D01*
Y251500D02*
Y291500D01*
X659500Y44100D02*
Y53900D01*
X599500Y44100D02*
X659500D01*
X599500D02*
Y53900D01*
X659500D01*
X337500Y42100D02*
Y51900D01*
X277500Y42100D02*
X337500D01*
X277500D02*
Y51900D01*
X337500D01*
X377000Y343500D02*
Y353500D01*
X497000D01*
Y343500D02*
Y353500D01*
X377000Y343500D02*
X497000D01*
X376500Y368500D02*
Y378500D01*
X496500D01*
Y368500D02*
Y378500D01*
X376500Y368500D02*
X496500D01*
X549500Y369500D02*
Y379500D01*
X509500Y369500D02*
X549500D01*
X509500D02*
Y379500D01*
X549500D01*
X547460Y173227D02*
Y238192D01*
X534146Y173227D02*
Y238191D01*
X625000Y367600D02*
Y377400D01*
X565000Y367600D02*
X625000D01*
X565000D02*
Y377400D01*
X625000D01*
X283500Y344000D02*
Y354000D01*
X243500Y344000D02*
X283500D01*
X243500D02*
Y354000D01*
X283500D01*
X245000Y39000D02*
X255000D01*
Y19000D02*
Y39000D01*
X245000Y19000D02*
X255000D01*
X245000D02*
Y39000D01*
X587500Y45000D02*
Y55000D01*
X547500Y45000D02*
X587500D01*
X547500D02*
Y55000D01*
X587500D01*
X244100Y327000D02*
X253900D01*
Y267000D02*
Y327000D01*
X244100Y267000D02*
X253900D01*
X244100D02*
Y327000D01*
X472500Y44500D02*
Y54500D01*
X352500Y44500D02*
X472500D01*
X352500D02*
Y54500D01*
X472500D01*
X660000Y19100D02*
Y28900D01*
X600000Y19100D02*
X660000D01*
X600000D02*
Y28900D01*
X660000D01*
X541000Y45100D02*
Y54900D01*
X481000Y45100D02*
X541000D01*
X481000D02*
Y54900D01*
X541000D01*
X479000Y19000D02*
Y29000D01*
X589000D01*
Y19000D02*
Y29000D01*
X479000Y19000D02*
X589000D01*
X479000D02*
Y29000D01*
X589000D01*
Y19000D02*
Y29000D01*
X472500Y18500D02*
Y28500D01*
X352500Y18500D02*
X472500D01*
X352500D02*
Y28500D01*
X472500D01*
X245000Y77500D02*
X255000D01*
X245000D02*
Y117500D01*
X255000D01*
Y77500D02*
Y117500D01*
X362000Y343600D02*
Y353400D01*
X302000Y343600D02*
X362000D01*
X302000D02*
Y353400D01*
X362000D01*
X245000Y134000D02*
X255000D01*
X245000D02*
Y254000D01*
X255000D01*
Y134000D02*
Y254000D01*
X327500Y133500D02*
X337500D01*
X327500D02*
Y153500D01*
X337500D01*
Y133500D02*
Y153500D01*
D13*
X514500Y184000D02*
X571800Y126700D01*
X505500Y224500D02*
Y302000D01*
Y224500D02*
X520500Y209500D01*
X528000D01*
X505500Y302000D02*
X545697Y342197D01*
Y347425D01*
X550469Y352197D01*
X588303D01*
X552000Y348500D02*
X552841Y347659D01*
X554841D02*
X586500Y316000D01*
X552841Y347659D02*
X554841D01*
X554000Y209500D02*
X586500Y242000D01*
Y316000D01*
X588303Y352197D02*
X592000Y348500D01*
X571800Y126700D02*
X624800D01*
X416000Y162000D02*
Y196055D01*
X415656Y196399D02*
X416000Y196055D01*
X630000Y49272D02*
Y101500D01*
X616827Y36098D02*
X630000Y49272D01*
X577697Y22925D02*
X590870Y36098D01*
X577697Y22469D02*
Y22925D01*
X590870Y36098D02*
X616827D01*
X305379Y8000D02*
X563228D01*
X577697Y22469D01*
X280000Y9000D02*
X304379D01*
X305379Y8000D01*
X298803Y16697D02*
X306000Y9500D01*
X559500D01*
X298803Y16697D02*
Y54682D01*
X559500Y9500D02*
X574000Y24000D01*
X241000Y20500D02*
X258000Y3500D01*
X645500D02*
X668000Y26000D01*
X258000Y3500D02*
X645500D01*
X277500Y11500D02*
X280000Y9000D01*
X277500Y11500D02*
Y64500D01*
X320000Y107000D01*
X308000Y289000D02*
X320000Y277000D01*
Y107000D02*
Y277000D01*
X296809Y54809D02*
X361500Y119500D01*
X393500Y149379D02*
Y207456D01*
X361500Y119500D02*
Y189500D01*
X298803Y54682D02*
X393500Y149379D01*
X296809Y26809D02*
Y54809D01*
X303718Y49718D02*
X416000Y162000D01*
X302500Y48189D02*
X303718Y49407D01*
X302500Y47000D02*
Y48189D01*
X303718Y49407D02*
Y49718D01*
X292500Y22500D02*
X296809Y26809D01*
X739914Y195500D02*
X756500Y178914D01*
Y35500D02*
Y178914D01*
X366500Y194500D02*
X388000D01*
X644000Y220000D02*
X655500D01*
X625000Y239000D02*
X644000Y220000D01*
X680000Y195500D02*
X739914D01*
X655500Y220000D02*
X680000Y195500D01*
X747000Y26000D02*
X756500Y35500D01*
X668000Y26000D02*
X747000D01*
X241000Y20500D02*
Y146500D01*
X249000Y154500D01*
X277879Y179000D02*
X298000D01*
X253379Y154500D02*
X277879Y179000D01*
X249000Y154500D02*
X253379D01*
X250000Y149000D02*
X275000Y174000D01*
X309700D01*
X308000Y199000D02*
X312500Y194500D01*
X309700Y174000D02*
X312500Y176800D01*
Y194500D01*
X250000Y159000D02*
X273700Y182700D01*
X301700D01*
X308000Y189000D01*
X250000Y229000D02*
X254100Y224900D01*
X303900D01*
X308000Y229000D01*
X390728Y210228D02*
X393500Y207456D01*
X361500Y189500D02*
X366500Y194500D01*
D14*
X627984Y342516D02*
Y354484D01*
X506016Y342516D02*
X627984D01*
X506016D02*
Y354484D01*
X627984D01*
X612000Y220945D02*
X627748D01*
Y214055D02*
Y220945D01*
X612000Y214055D02*
X627748D01*
X612000D02*
Y220945D01*
X648685Y214087D02*
Y219913D01*
X637315Y214087D02*
Y219913D01*
X648685D01*
X637315Y214087D02*
X648685D01*
X623685Y237087D02*
Y242913D01*
X612315Y237087D02*
Y242913D01*
X623685D01*
X612315Y237087D02*
X623685D01*
X646185Y237587D02*
Y243413D01*
X634815Y237587D02*
Y243413D01*
X646185D01*
X634815Y237587D02*
X646185D01*
X689457Y388563D02*
X741622D01*
Y337579D02*
Y388563D01*
X689457Y337579D02*
X741622D01*
X689457D02*
Y388563D01*
X338384Y170516D02*
Y232484D01*
X326616D02*
X338384D01*
X326616Y170516D02*
Y232484D01*
Y170516D02*
X338384D01*
X276516Y28384D02*
X338484D01*
X276516Y16616D02*
Y28384D01*
Y16616D02*
X338484D01*
Y28384D01*
X292016Y123016D02*
Y304984D01*
Y123016D02*
X313984D01*
Y304984D01*
X292016D02*
X313984D01*
X242516Y379984D02*
X364484D01*
X242516Y368016D02*
Y379984D01*
Y368016D02*
X364484D01*
Y379984D01*
X325516Y250516D02*
X337484D01*
X325516D02*
Y292484D01*
X337484D01*
Y250516D02*
Y292484D01*
X660484Y43116D02*
Y54884D01*
X598516Y43116D02*
X660484D01*
X598516D02*
Y54884D01*
X660484D01*
X338484Y41116D02*
Y52884D01*
X276516Y41116D02*
X338484D01*
X276516D02*
Y52884D01*
X338484D01*
X636803Y108587D02*
X648173D01*
X636803Y114413D02*
X648173D01*
X636803Y108587D02*
Y114413D01*
X648173Y108587D02*
Y114413D01*
X376016Y342516D02*
Y354484D01*
X497984D01*
Y342516D02*
Y354484D01*
X376016Y342516D02*
X497984D01*
X375516Y367516D02*
Y379484D01*
X497484D01*
Y367516D02*
Y379484D01*
X375516Y367516D02*
X497484D01*
X682540Y105965D02*
X755375D01*
Y18996D02*
Y105965D01*
X682540Y18996D02*
X755375D01*
X682540D02*
Y105965D01*
X550484Y368516D02*
Y380484D01*
X508516Y368516D02*
X550484D01*
X508516D02*
Y380484D01*
X550484D01*
X615063Y148531D02*
Y155618D01*
X626874D01*
Y148531D02*
Y155618D01*
X615063Y148531D02*
X626874D01*
X632827Y275087D02*
X644197D01*
X632827Y280913D02*
X644197D01*
X632827Y275087D02*
Y280913D01*
X644197Y275087D02*
Y280913D01*
X636327Y180087D02*
X647697D01*
X636327Y185913D02*
X647697D01*
X636327Y180087D02*
Y185913D01*
X647697Y180087D02*
Y185913D01*
X636315Y161587D02*
X647685D01*
X636315Y167413D02*
X647685D01*
X636315Y161587D02*
Y167413D01*
X647685Y161587D02*
Y167413D01*
X625984Y366616D02*
Y378384D01*
X564016Y366616D02*
X625984D01*
X564016D02*
Y378384D01*
X625984D01*
X678516Y201629D02*
Y290212D01*
X703476D01*
Y295625D01*
X725524D01*
Y290212D02*
Y295625D01*
Y290212D02*
X750484D01*
Y201629D02*
Y290212D01*
X725524Y201629D02*
X750484D01*
X725524Y196215D02*
Y201629D01*
X703476Y196215D02*
X725524D01*
X703476D02*
Y201629D01*
X678516D02*
X703476D01*
X284484Y343016D02*
Y354984D01*
X242516Y343016D02*
X284484D01*
X242516D02*
Y354984D01*
X284484D01*
X255984Y18016D02*
Y39984D01*
X244016Y18016D02*
X255984D01*
X244016D02*
Y39984D01*
X255984D01*
X588484Y44016D02*
Y55984D01*
X546516Y44016D02*
X588484D01*
X546516D02*
Y55984D01*
X588484D01*
X243116Y327984D02*
X254884D01*
Y266016D02*
Y327984D01*
X243116Y266016D02*
X254884D01*
X243116D02*
Y327984D01*
X614252Y108555D02*
Y115445D01*
Y108555D02*
X630000D01*
Y115445D01*
X614252D02*
X630000D01*
X473484Y43516D02*
Y55484D01*
X351516Y43516D02*
X473484D01*
X351516D02*
Y55484D01*
X473484D01*
X700268Y157705D02*
Y183295D01*
Y157705D02*
X733732D01*
Y183295D01*
X700268D02*
X733732D01*
X660984Y18116D02*
Y29884D01*
X599016Y18116D02*
X660984D01*
X599016D02*
Y29884D01*
X660984D01*
X614252Y127555D02*
Y134445D01*
Y127555D02*
X630000D01*
Y134445D01*
X614252D02*
X630000D01*
X613177Y183390D02*
X627823D01*
Y169610D02*
Y183390D01*
X613177Y169610D02*
X627823D01*
X613177D02*
Y183390D01*
X541984Y44116D02*
Y55884D01*
X480016Y44116D02*
X541984D01*
X480016D02*
Y55884D01*
X541984D01*
X609126Y257055D02*
Y263945D01*
Y257055D02*
X624874D01*
Y263945D01*
X609126D02*
X624874D01*
X658469Y155043D02*
Y197957D01*
X674532D01*
Y155043D02*
Y197957D01*
X658469Y155043D02*
X674532D01*
X657469Y213543D02*
Y256457D01*
X673532D01*
Y213543D02*
Y256457D01*
X657469Y213543D02*
X673532D01*
X478016Y18016D02*
Y29984D01*
X589984D01*
Y18016D02*
Y29984D01*
X478016Y18016D02*
X589984D01*
X611126Y274555D02*
Y281445D01*
Y274555D02*
X626874D01*
Y281445D01*
X611126D02*
X626874D01*
X473484Y17516D02*
Y29484D01*
X351516Y17516D02*
X473484D01*
X351516D02*
Y29484D01*
X473484D01*
X244016Y76516D02*
X255984D01*
X244016D02*
Y118484D01*
X255984D01*
Y76516D02*
Y118484D01*
X244815Y54587D02*
X256185D01*
X244815Y60413D02*
X256185D01*
X244815Y54587D02*
Y60413D01*
X256185Y54587D02*
Y60413D01*
X362984Y342616D02*
Y354384D01*
X301016Y342616D02*
X362984D01*
X301016D02*
Y354384D01*
X362984D01*
X244016Y133016D02*
X255984D01*
X244016D02*
Y254984D01*
X255984D01*
Y133016D02*
Y254984D01*
X326516Y132516D02*
Y154484D01*
X338484D01*
Y132516D02*
Y154484D01*
X326516Y132516D02*
X338484D01*
D65*
X622000Y348500D02*
D03*
X358500Y374000D02*
D03*
X382000Y348500D02*
D03*
X381500Y373500D02*
D03*
X544500Y374500D02*
D03*
X278500Y349000D02*
D03*
X582500Y50000D02*
D03*
X467500Y49500D02*
D03*
Y23500D02*
D03*
D66*
X612000Y348500D02*
D03*
X602000D02*
D03*
X592000D02*
D03*
X582000D02*
D03*
X572000D02*
D03*
X562000D02*
D03*
X552000D02*
D03*
X542000D02*
D03*
X532000D02*
D03*
X522000D02*
D03*
X512000D02*
D03*
X332500Y176500D02*
D03*
Y186500D02*
D03*
Y196500D02*
D03*
Y206500D02*
D03*
Y216500D02*
D03*
Y226500D02*
D03*
Y22500D02*
D03*
X322500D02*
D03*
X312500D02*
D03*
X302500D02*
D03*
X292500D02*
D03*
X282500D02*
D03*
X308000Y129000D02*
D03*
X298000D02*
D03*
X308000Y139000D02*
D03*
X298000D02*
D03*
X308000Y149000D02*
D03*
X298000D02*
D03*
X308000Y159000D02*
D03*
X298000D02*
D03*
X308000Y169000D02*
D03*
X298000D02*
D03*
X308000Y179000D02*
D03*
X298000D02*
D03*
X308000Y189000D02*
D03*
X298000D02*
D03*
X308000Y199000D02*
D03*
X298000D02*
D03*
X308000Y209000D02*
D03*
X298000D02*
D03*
X308000Y219000D02*
D03*
X298000D02*
D03*
X308000Y229000D02*
D03*
X298000D02*
D03*
X308000Y239000D02*
D03*
X298000D02*
D03*
X308000Y249000D02*
D03*
X298000D02*
D03*
X308000Y259000D02*
D03*
X298000D02*
D03*
X308000Y269000D02*
D03*
X298000D02*
D03*
X308000Y279000D02*
D03*
X298000D02*
D03*
X308000Y289000D02*
D03*
X298000D02*
D03*
X308000Y299000D02*
D03*
X248500Y374000D02*
D03*
X258500D02*
D03*
X268500D02*
D03*
X278500D02*
D03*
X288500D02*
D03*
X298500D02*
D03*
X308500D02*
D03*
X318500D02*
D03*
X328500D02*
D03*
X338500D02*
D03*
X348500D02*
D03*
X331500Y266500D02*
D03*
Y276500D02*
D03*
Y286500D02*
D03*
X604500Y49000D02*
D03*
X614500D02*
D03*
X624500D02*
D03*
X634500D02*
D03*
X644500D02*
D03*
X654500D02*
D03*
X282500Y47000D02*
D03*
X292500D02*
D03*
X302500D02*
D03*
X312500D02*
D03*
X322500D02*
D03*
X332500D02*
D03*
X392000Y348500D02*
D03*
X402000D02*
D03*
X412000D02*
D03*
X422000D02*
D03*
X432000D02*
D03*
X442000D02*
D03*
X452000D02*
D03*
X462000D02*
D03*
X472000D02*
D03*
X482000D02*
D03*
X492000D02*
D03*
X391500Y373500D02*
D03*
X401500D02*
D03*
X411500D02*
D03*
X421500D02*
D03*
X431500D02*
D03*
X441500D02*
D03*
X451500D02*
D03*
X461500D02*
D03*
X471500D02*
D03*
X481500D02*
D03*
X491500D02*
D03*
X534500Y374500D02*
D03*
X524500D02*
D03*
X514500D02*
D03*
X570000Y372500D02*
D03*
X580000D02*
D03*
X590000D02*
D03*
X600000D02*
D03*
X610000D02*
D03*
X620000D02*
D03*
X268500Y349000D02*
D03*
X258500D02*
D03*
X248500D02*
D03*
X572500Y50000D02*
D03*
X562500D02*
D03*
X552500D02*
D03*
X249000Y272000D02*
D03*
Y282000D02*
D03*
Y292000D02*
D03*
Y302000D02*
D03*
Y312000D02*
D03*
Y322000D02*
D03*
X457500Y49500D02*
D03*
X447500D02*
D03*
X437500D02*
D03*
X427500D02*
D03*
X417500D02*
D03*
X407500D02*
D03*
X397500D02*
D03*
X387500D02*
D03*
X377500D02*
D03*
X367500D02*
D03*
X357500D02*
D03*
X605000Y24000D02*
D03*
X615000D02*
D03*
X625000D02*
D03*
X635000D02*
D03*
X645000D02*
D03*
X655000D02*
D03*
X486000Y50000D02*
D03*
X496000D02*
D03*
X506000D02*
D03*
X516000D02*
D03*
X526000D02*
D03*
X536000D02*
D03*
X584000Y24000D02*
D03*
X574000D02*
D03*
X564000D02*
D03*
X554000D02*
D03*
X544000D02*
D03*
X534000D02*
D03*
X524000D02*
D03*
X514000D02*
D03*
X504000D02*
D03*
X494000D02*
D03*
X484000D02*
D03*
X457500Y23500D02*
D03*
X447500D02*
D03*
X437500D02*
D03*
X427500D02*
D03*
X417500D02*
D03*
X407500D02*
D03*
X397500D02*
D03*
X387500D02*
D03*
X377500D02*
D03*
X367500D02*
D03*
X357500D02*
D03*
X250000Y92500D02*
D03*
Y102500D02*
D03*
Y112500D02*
D03*
X307000Y348500D02*
D03*
X317000D02*
D03*
X327000D02*
D03*
X337000D02*
D03*
X347000D02*
D03*
X357000D02*
D03*
X250000Y149000D02*
D03*
Y159000D02*
D03*
Y169000D02*
D03*
Y179000D02*
D03*
Y189000D02*
D03*
Y199000D02*
D03*
Y209000D02*
D03*
Y219000D02*
D03*
Y229000D02*
D03*
Y239000D02*
D03*
Y249000D02*
D03*
D67*
X298000Y299000D02*
D03*
X331500Y256500D02*
D03*
X250000Y82500D02*
D03*
Y139000D02*
D03*
D68*
X741458Y62500D02*
D03*
X696458D02*
D03*
D69*
X688466Y74508D02*
D03*
X749450D02*
D03*
D70*
X696458Y97500D02*
D03*
D71*
X706458D02*
D03*
X716458D02*
D03*
X726458D02*
D03*
X701458Y87500D02*
D03*
X711458D02*
D03*
X721458D02*
D03*
X731458D02*
D03*
X736458Y97500D02*
D03*
X741458Y87500D02*
D03*
D73*
X250000Y34000D02*
D03*
Y24000D02*
D03*
X332500Y138500D02*
D03*
Y148500D02*
D03*
D74*
X704205Y161642D02*
D03*
Y179358D02*
D03*
X729795Y161642D02*
D03*
Y179358D02*
D03*
D76*
X235000Y391500D02*
D03*
Y9500D02*
D03*
X757000Y10500D02*
D03*
X757500Y391000D02*
D03*
D77*
X418500Y229500D02*
D03*
X386000Y337000D02*
D03*
X530000Y183000D02*
D03*
X651998Y132502D02*
D03*
X644000Y126000D02*
D03*
X514500Y184000D02*
D03*
X619000Y160000D02*
D03*
X551061Y185939D02*
D03*
X526500Y196500D02*
D03*
X529761Y222559D02*
D03*
X529061Y219561D02*
D03*
X527105Y217274D02*
D03*
X530500Y214500D02*
D03*
X528500Y212500D02*
D03*
X532000Y216000D02*
D03*
X531183Y220744D02*
D03*
X531244Y223744D02*
D03*
X531500Y229000D02*
D03*
X531342Y211146D02*
D03*
X526447Y200947D02*
D03*
X526500Y199000D02*
D03*
X526474Y203042D02*
D03*
X526500Y205000D02*
D03*
X627500Y199000D02*
D03*
X630500Y170500D02*
D03*
X627000Y168000D02*
D03*
X621939Y165939D02*
D03*
X529500Y234500D02*
D03*
Y228000D02*
D03*
Y224500D02*
D03*
Y230000D02*
D03*
X528000Y206500D02*
D03*
Y209500D02*
D03*
X550189Y223811D02*
D03*
X550000Y226000D02*
D03*
X559689Y217311D02*
D03*
X554000Y209500D02*
D03*
X555500Y208000D02*
D03*
X551500Y211071D02*
D03*
Y196000D02*
D03*
X551346Y203346D02*
D03*
X551000Y190500D02*
D03*
X616500Y221500D02*
D03*
X551500Y206500D02*
D03*
X530748Y190748D02*
D03*
X531000Y208000D02*
D03*
X345000Y387000D02*
D03*
X696500Y202500D02*
D03*
X410382Y180382D02*
D03*
X413811Y198811D02*
D03*
X406500Y130500D02*
D03*
X406939Y133561D02*
D03*
X388500Y234000D02*
D03*
X391500Y237000D02*
D03*
X615500Y244000D02*
D03*
X415656Y196399D02*
D03*
X418000Y194500D02*
D03*
X390630Y197630D02*
D03*
X389000Y211500D02*
D03*
X635000Y201500D02*
D03*
X648500Y151500D02*
D03*
X610500Y155000D02*
D03*
X608800Y139700D02*
D03*
X387500Y213500D02*
D03*
X375000Y201000D02*
D03*
X388028Y216528D02*
D03*
X630000Y101500D02*
D03*
X386000Y215000D02*
D03*
X660000Y109500D02*
D03*
X384500Y193000D02*
D03*
X374500Y186000D02*
D03*
X388000Y194500D02*
D03*
X386500Y232500D02*
D03*
X390000Y235500D02*
D03*
X391500Y220000D02*
D03*
X625000Y239000D02*
D03*
X635500Y217000D02*
D03*
X653000Y217500D02*
D03*
X665500Y200400D02*
D03*
X632500Y240500D02*
D03*
X649500D02*
D03*
X624800Y126700D02*
D03*
X413000Y205504D02*
D03*
X356000Y173000D02*
D03*
Y171500D02*
D03*
X411000Y221500D02*
D03*
X550000Y228500D02*
D03*
X420000Y193000D02*
D03*
X619000Y149000D02*
D03*
X425000Y208500D02*
D03*
X418500Y220000D02*
D03*
X412500Y216528D02*
D03*
X418500Y200500D02*
D03*
X417000Y202500D02*
D03*
X415500Y204000D02*
D03*
X411000Y207228D02*
D03*
Y210228D02*
D03*
X414500Y213500D02*
D03*
X412500Y211953D02*
D03*
X416500Y215000D02*
D03*
X554000Y205000D02*
D03*
X561000Y207500D02*
D03*
X554686Y173936D02*
D03*
X554000Y175500D02*
D03*
Y182500D02*
D03*
Y181000D02*
D03*
X551000Y184087D02*
D03*
Y178000D02*
D03*
Y180000D02*
D03*
X531000Y176500D02*
D03*
Y186000D02*
D03*
X553907Y202907D02*
D03*
X551272Y200272D02*
D03*
X733000Y389000D02*
D03*
X378000Y360694D02*
D03*
X394061Y75439D02*
D03*
Y76939D02*
D03*
X403000Y100000D02*
D03*
Y101500D02*
D03*
X397000Y159500D02*
D03*
Y161000D02*
D03*
X261000Y57500D02*
D03*
X384500Y209000D02*
D03*
Y229500D02*
D03*
X390728Y210228D02*
D03*
X389500Y218500D02*
D03*
X612374Y250600D02*
D03*
X410925Y218177D02*
D03*
X388500Y204000D02*
D03*
X384500Y202500D02*
D03*
X390000Y205500D02*
D03*
X391500Y207000D02*
D03*
X392000Y199500D02*
D03*
X389055Y196055D02*
D03*
X411295Y199205D02*
D03*
X623000Y140500D02*
D03*
D78*
X635250Y294250D02*
D03*
X709775Y350775D02*
D03*
X726500Y351000D02*
D03*
X719500D02*
D03*
M02*
