G04*
G04 #@! TF.GenerationSoftware,Altium Limited,Altium Designer,22.1.2 (22)*
G04*
G04 Layer_Physical_Order=2*
G04 Layer_Color=6736896*
%FSLAX25Y25*%
%MOIN*%
G70*
G04*
G04 #@! TF.SameCoordinates,2E2365BE-A05A-434A-80F0-4BE633B458EC*
G04*
G04*
G04 #@! TF.FilePolarity,Positive*
G04*
G01*
G75*
%ADD10C,0.00787*%
%ADD11C,0.00500*%
%ADD12C,0.00394*%
%ADD13C,0.01000*%
%ADD14C,0.00197*%
%ADD65R,0.05394X0.05394*%
%ADD66C,0.05394*%
%ADD67R,0.05394X0.05394*%
%ADD68C,0.12795*%
%ADD69C,0.09744*%
%ADD70R,0.05819X0.05819*%
%ADD71C,0.05819*%
%ADD73C,0.06024*%
%ADD74C,0.05898*%
%ADD76C,0.15000*%
%ADD77C,0.01000*%
%ADD78C,0.05000*%
G36*
X663684Y165412D02*
Y28338D01*
X658354Y23008D01*
X657906Y23267D01*
X657997Y23606D01*
Y24395D01*
X657793Y25157D01*
X657398Y25840D01*
X656840Y26398D01*
X656157Y26793D01*
X655395Y26997D01*
X654605D01*
X653843Y26793D01*
X653160Y26398D01*
X652602Y25840D01*
X652207Y25157D01*
X652003Y24395D01*
Y23606D01*
X652207Y22843D01*
X652602Y22160D01*
X653160Y21602D01*
X653843Y21207D01*
X654605Y21003D01*
X655395D01*
X655733Y21094D01*
X655992Y20646D01*
X647662Y12316D01*
X586838D01*
X576616Y22537D01*
X576793Y22843D01*
X576997Y23606D01*
Y24395D01*
X576793Y25157D01*
X576398Y25840D01*
X575840Y26398D01*
X575157Y26793D01*
X574395Y26997D01*
X573605D01*
X572843Y26793D01*
X572160Y26398D01*
X571602Y25840D01*
X571207Y25157D01*
X571003Y24395D01*
Y24204D01*
X570503Y23997D01*
X560250Y34250D01*
Y47377D01*
X560750Y47550D01*
X561343Y47207D01*
X562106Y47003D01*
X562894D01*
X563657Y47207D01*
X564340Y47602D01*
X564898Y48160D01*
X565293Y48843D01*
X565497Y49606D01*
Y50394D01*
X565293Y51157D01*
X564898Y51840D01*
X564340Y52398D01*
X563657Y52793D01*
X562894Y52997D01*
X562106D01*
X561343Y52793D01*
X560750Y52450D01*
X560250Y52623D01*
Y132750D01*
X561250D01*
X589445Y160945D01*
X594684Y155705D01*
Y50500D01*
X594684Y50500D01*
X594746Y50188D01*
X594923Y49923D01*
X614184Y30662D01*
Y26884D01*
X613843Y26793D01*
X613160Y26398D01*
X612602Y25840D01*
X612207Y25157D01*
X612003Y24395D01*
Y23606D01*
X612207Y22843D01*
X612602Y22160D01*
X613160Y21602D01*
X613843Y21207D01*
X614606Y21003D01*
X615394D01*
X616157Y21207D01*
X616840Y21602D01*
X617398Y22160D01*
X617793Y22843D01*
X617997Y23606D01*
Y24395D01*
X617793Y25157D01*
X617398Y25840D01*
X616840Y26398D01*
X616157Y26793D01*
X615816Y26884D01*
Y31000D01*
X615754Y31312D01*
X615577Y31577D01*
X615577Y31577D01*
X596316Y50838D01*
Y156043D01*
X596254Y156355D01*
X596077Y156620D01*
X596077Y156620D01*
X590598Y162098D01*
X591020Y162520D01*
X598684Y154855D01*
Y80500D01*
X598684Y80500D01*
X598746Y80188D01*
X598923Y79923D01*
X629184Y49662D01*
Y30000D01*
X629184Y30000D01*
X629246Y29688D01*
X629423Y29423D01*
X632804Y26042D01*
X632602Y25840D01*
X632207Y25157D01*
X632003Y24395D01*
Y23606D01*
X632207Y22843D01*
X632602Y22160D01*
X633160Y21602D01*
X633843Y21207D01*
X634606Y21003D01*
X635394D01*
X636157Y21207D01*
X636840Y21602D01*
X637398Y22160D01*
X637793Y22843D01*
X637997Y23606D01*
Y24395D01*
X637793Y25157D01*
X637398Y25840D01*
X636840Y26398D01*
X636157Y26793D01*
X635394Y26997D01*
X634606D01*
X634251Y26902D01*
X630816Y30338D01*
Y50000D01*
X630754Y50312D01*
X630577Y50577D01*
X630577Y50577D01*
X600316Y80838D01*
Y155193D01*
X600254Y155505D01*
X600077Y155770D01*
X600077Y155770D01*
X592173Y163673D01*
X595750Y167250D01*
X626720D01*
X626841Y167200D01*
X627159D01*
X627280Y167250D01*
X661846D01*
X663684Y165412D01*
D02*
G37*
G36*
X673184Y18838D02*
X664662Y10316D01*
X648515D01*
X648416Y10816D01*
X648577Y10923D01*
X665077Y27423D01*
X665077Y27423D01*
X665254Y27688D01*
X665316Y28000D01*
Y165750D01*
X665254Y166062D01*
X665077Y166327D01*
X665077Y166327D01*
X664615Y166788D01*
X664807Y167250D01*
X673184D01*
Y18838D01*
D02*
G37*
G36*
X585923Y10923D02*
X586084Y10816D01*
X585986Y10316D01*
X584184D01*
X573997Y20503D01*
X574204Y21003D01*
X574395D01*
X575157Y21207D01*
X575462Y21384D01*
X585923Y10923D01*
D02*
G37*
G36*
X733250Y164750D02*
X761250Y136750D01*
X757750Y133250D01*
Y23750D01*
X738750Y4750D01*
X589750Y4750D01*
X586278Y8222D01*
X586469Y8684D01*
X665000D01*
X665000Y8684D01*
X665312Y8746D01*
X665577Y8923D01*
X674577Y17923D01*
X674577Y17923D01*
X674754Y18188D01*
X674816Y18500D01*
Y167250D01*
X733250D01*
Y164750D01*
D02*
G37*
%LPC*%
G36*
X619159Y160800D02*
X618841D01*
X618547Y160678D01*
X618322Y160453D01*
X618200Y160159D01*
Y159841D01*
X618322Y159547D01*
X618547Y159322D01*
X618841Y159200D01*
X619159D01*
X619453Y159322D01*
X619678Y159547D01*
X619800Y159841D01*
Y160159D01*
X619678Y160453D01*
X619453Y160678D01*
X619159Y160800D01*
D02*
G37*
G36*
X610659Y155800D02*
X610341D01*
X610047Y155678D01*
X609822Y155453D01*
X609700Y155159D01*
Y154841D01*
X609822Y154547D01*
X610047Y154322D01*
X610341Y154200D01*
X610659D01*
X610953Y154322D01*
X611178Y154547D01*
X611300Y154841D01*
Y155159D01*
X611178Y155453D01*
X610953Y155678D01*
X610659Y155800D01*
D02*
G37*
G36*
X619159Y149800D02*
X618841D01*
X618547Y149678D01*
X618322Y149453D01*
X618200Y149159D01*
Y148841D01*
X618322Y148547D01*
X618547Y148322D01*
X618841Y148200D01*
X619159D01*
X619453Y148322D01*
X619678Y148547D01*
X619800Y148841D01*
Y149159D01*
X619678Y149453D01*
X619453Y149678D01*
X619159Y149800D01*
D02*
G37*
G36*
X621939Y166755D02*
X621861Y166739D01*
X621780D01*
X621706Y166709D01*
X621627Y166693D01*
X621560Y166648D01*
X621486Y166618D01*
X621429Y166561D01*
X621363Y166516D01*
X621318Y166449D01*
X621261Y166393D01*
X621230Y166318D01*
X621186Y166252D01*
X621170Y166173D01*
X621139Y166098D01*
Y166018D01*
X621124Y165939D01*
Y141561D01*
X621124Y141561D01*
X621186Y141249D01*
X621363Y140984D01*
X622423Y139923D01*
X622490Y139879D01*
X622547Y139822D01*
X622621Y139791D01*
X622688Y139746D01*
X622767Y139731D01*
X622841Y139700D01*
X622921D01*
X623000Y139684D01*
X623079Y139700D01*
X623159D01*
X623233Y139731D01*
X623312Y139746D01*
X623379Y139791D01*
X623453Y139822D01*
X623510Y139879D01*
X623577Y139923D01*
X623621Y139990D01*
X623678Y140047D01*
X623709Y140121D01*
X623754Y140188D01*
X623769Y140267D01*
X623800Y140341D01*
Y140421D01*
X623816Y140500D01*
X623800Y140579D01*
Y140659D01*
X623769Y140733D01*
X623754Y140812D01*
X623709Y140879D01*
X623678Y140953D01*
X623621Y141010D01*
X623577Y141077D01*
X622755Y141899D01*
Y165939D01*
X622739Y166018D01*
Y166098D01*
X622709Y166173D01*
X622693Y166252D01*
X622648Y166318D01*
X622617Y166393D01*
X622561Y166449D01*
X622516Y166516D01*
X622449Y166561D01*
X622393Y166618D01*
X622318Y166648D01*
X622252Y166693D01*
X622173Y166709D01*
X622098Y166739D01*
X622018D01*
X621939Y166755D01*
D02*
G37*
G36*
X608959Y140500D02*
X608641D01*
X608347Y140378D01*
X608122Y140153D01*
X608000Y139859D01*
Y139541D01*
X608122Y139247D01*
X608347Y139022D01*
X608641Y138900D01*
X608959D01*
X609253Y139022D01*
X609478Y139247D01*
X609600Y139541D01*
Y139859D01*
X609478Y140153D01*
X609253Y140378D01*
X608959Y140500D01*
D02*
G37*
G36*
X652157Y133302D02*
X651839D01*
X651545Y133180D01*
X651320Y132955D01*
X651198Y132661D01*
Y132343D01*
X651320Y132049D01*
X651545Y131824D01*
X651839Y131702D01*
X652157D01*
X652451Y131824D01*
X652676Y132049D01*
X652798Y132343D01*
Y132661D01*
X652676Y132955D01*
X652451Y133180D01*
X652157Y133302D01*
D02*
G37*
G36*
X648500Y152316D02*
X648421Y152300D01*
X648341D01*
X648267Y152269D01*
X648188Y152254D01*
X648121Y152209D01*
X648047Y152178D01*
X647990Y152121D01*
X647923Y152077D01*
X647879Y152010D01*
X647822Y151953D01*
X647791Y151879D01*
X647746Y151812D01*
X647731Y151733D01*
X647700Y151659D01*
Y151579D01*
X647684Y151500D01*
Y141338D01*
X633862Y127516D01*
X624800D01*
X624721Y127500D01*
X624641D01*
X624567Y127469D01*
X624488Y127454D01*
X624421Y127409D01*
X624347Y127378D01*
X624290Y127321D01*
X624223Y127277D01*
X624179Y127210D01*
X624122Y127153D01*
X624091Y127079D01*
X624046Y127012D01*
X624031Y126933D01*
X624000Y126859D01*
Y126779D01*
X623984Y126700D01*
X624000Y126621D01*
Y126541D01*
X624031Y126467D01*
X624046Y126388D01*
X624091Y126321D01*
X624122Y126247D01*
X624179Y126190D01*
X624223Y126123D01*
X624290Y126079D01*
X624347Y126022D01*
X624421Y125991D01*
X624488Y125946D01*
X624567Y125931D01*
X624641Y125900D01*
X624721D01*
X624800Y125884D01*
X634200D01*
X634200Y125884D01*
X634512Y125946D01*
X634777Y126123D01*
X649077Y140423D01*
X649077Y140423D01*
X649254Y140688D01*
X649316Y141000D01*
Y151500D01*
X649300Y151579D01*
Y151659D01*
X649269Y151733D01*
X649254Y151812D01*
X649209Y151879D01*
X649178Y151953D01*
X649121Y152010D01*
X649077Y152077D01*
X649010Y152121D01*
X648953Y152178D01*
X648879Y152209D01*
X648812Y152254D01*
X648733Y152269D01*
X648659Y152300D01*
X648579D01*
X648500Y152316D01*
D02*
G37*
G36*
X644159Y126800D02*
X643841D01*
X643547Y126678D01*
X643322Y126453D01*
X643200Y126159D01*
Y125841D01*
X643322Y125547D01*
X643547Y125322D01*
X643841Y125200D01*
X644159D01*
X644453Y125322D01*
X644678Y125547D01*
X644800Y125841D01*
Y126159D01*
X644678Y126453D01*
X644453Y126678D01*
X644159Y126800D01*
D02*
G37*
G36*
X660159Y110300D02*
X659841D01*
X659547Y110178D01*
X659322Y109953D01*
X659200Y109659D01*
Y109341D01*
X659322Y109047D01*
X659547Y108822D01*
X659841Y108700D01*
X660159D01*
X660453Y108822D01*
X660678Y109047D01*
X660800Y109341D01*
Y109659D01*
X660678Y109953D01*
X660453Y110178D01*
X660159Y110300D01*
D02*
G37*
G36*
X630159Y102300D02*
X629841D01*
X629547Y102178D01*
X629322Y101953D01*
X629200Y101659D01*
Y101341D01*
X629322Y101047D01*
X629547Y100822D01*
X629841Y100700D01*
X630159D01*
X630453Y100822D01*
X630678Y101047D01*
X630800Y101341D01*
Y101659D01*
X630678Y101953D01*
X630453Y102178D01*
X630159Y102300D01*
D02*
G37*
G36*
X615000Y52693D02*
Y49500D01*
X618193D01*
X617945Y50427D01*
X617458Y51270D01*
X616770Y51958D01*
X615927Y52445D01*
X615000Y52693D01*
D02*
G37*
G36*
X614000D02*
X613073Y52445D01*
X612230Y51958D01*
X611542Y51270D01*
X611055Y50427D01*
X610807Y49500D01*
X614000D01*
Y52693D01*
D02*
G37*
G36*
X585497Y52997D02*
X579503D01*
Y47003D01*
X585497D01*
Y52997D01*
D02*
G37*
G36*
X572894D02*
X572106D01*
X571343Y52793D01*
X570660Y52398D01*
X570102Y51840D01*
X569707Y51157D01*
X569503Y50394D01*
Y49606D01*
X569707Y48843D01*
X570102Y48160D01*
X570660Y47602D01*
X571343Y47207D01*
X572106Y47003D01*
X572894D01*
X573657Y47207D01*
X574340Y47602D01*
X574898Y48160D01*
X575293Y48843D01*
X575497Y49606D01*
Y50394D01*
X575293Y51157D01*
X574898Y51840D01*
X574340Y52398D01*
X573657Y52793D01*
X572894Y52997D01*
D02*
G37*
G36*
X654894Y51997D02*
X654106D01*
X653343Y51793D01*
X652660Y51398D01*
X652102Y50840D01*
X651707Y50157D01*
X651503Y49395D01*
Y48605D01*
X651707Y47843D01*
X652102Y47160D01*
X652660Y46602D01*
X653343Y46207D01*
X654106Y46003D01*
X654894D01*
X655657Y46207D01*
X656340Y46602D01*
X656898Y47160D01*
X657293Y47843D01*
X657497Y48605D01*
Y49395D01*
X657293Y50157D01*
X656898Y50840D01*
X656340Y51398D01*
X655657Y51793D01*
X654894Y51997D01*
D02*
G37*
G36*
X644895D02*
X644105D01*
X643343Y51793D01*
X642660Y51398D01*
X642102Y50840D01*
X641707Y50157D01*
X641503Y49395D01*
Y48605D01*
X641707Y47843D01*
X642102Y47160D01*
X642660Y46602D01*
X643343Y46207D01*
X644105Y46003D01*
X644895D01*
X645657Y46207D01*
X646340Y46602D01*
X646898Y47160D01*
X647293Y47843D01*
X647497Y48605D01*
Y49395D01*
X647293Y50157D01*
X646898Y50840D01*
X646340Y51398D01*
X645657Y51793D01*
X644895Y51997D01*
D02*
G37*
G36*
X634895D02*
X634105D01*
X633343Y51793D01*
X632660Y51398D01*
X632102Y50840D01*
X631707Y50157D01*
X631503Y49395D01*
Y48605D01*
X631707Y47843D01*
X632102Y47160D01*
X632660Y46602D01*
X633343Y46207D01*
X634105Y46003D01*
X634895D01*
X635657Y46207D01*
X636340Y46602D01*
X636898Y47160D01*
X637293Y47843D01*
X637497Y48605D01*
Y49395D01*
X637293Y50157D01*
X636898Y50840D01*
X636340Y51398D01*
X635657Y51793D01*
X634895Y51997D01*
D02*
G37*
G36*
X624895D02*
X624106D01*
X623343Y51793D01*
X622660Y51398D01*
X622102Y50840D01*
X621707Y50157D01*
X621503Y49395D01*
Y48605D01*
X621707Y47843D01*
X622102Y47160D01*
X622660Y46602D01*
X623343Y46207D01*
X624106Y46003D01*
X624895D01*
X625657Y46207D01*
X626340Y46602D01*
X626898Y47160D01*
X627293Y47843D01*
X627497Y48605D01*
Y49395D01*
X627293Y50157D01*
X626898Y50840D01*
X626340Y51398D01*
X625657Y51793D01*
X624895Y51997D01*
D02*
G37*
G36*
X604894D02*
X604106D01*
X603343Y51793D01*
X602660Y51398D01*
X602102Y50840D01*
X601707Y50157D01*
X601503Y49395D01*
Y48605D01*
X601707Y47843D01*
X602102Y47160D01*
X602660Y46602D01*
X603343Y46207D01*
X604106Y46003D01*
X604894D01*
X605657Y46207D01*
X606340Y46602D01*
X606898Y47160D01*
X607293Y47843D01*
X607497Y48605D01*
Y49395D01*
X607293Y50157D01*
X606898Y50840D01*
X606340Y51398D01*
X605657Y51793D01*
X604894Y51997D01*
D02*
G37*
G36*
X618193Y48500D02*
X615000D01*
Y45307D01*
X615927Y45555D01*
X616770Y46042D01*
X617458Y46730D01*
X617945Y47573D01*
X618193Y48500D01*
D02*
G37*
G36*
X614000D02*
X610807D01*
X611055Y47573D01*
X611542Y46730D01*
X612230Y46042D01*
X613073Y45555D01*
X614000Y45307D01*
Y48500D01*
D02*
G37*
G36*
X645395Y26997D02*
X644605D01*
X643843Y26793D01*
X643160Y26398D01*
X642602Y25840D01*
X642207Y25157D01*
X642003Y24395D01*
Y23606D01*
X642207Y22843D01*
X642602Y22160D01*
X643160Y21602D01*
X643843Y21207D01*
X644605Y21003D01*
X645395D01*
X646157Y21207D01*
X646840Y21602D01*
X647398Y22160D01*
X647793Y22843D01*
X647997Y23606D01*
Y24395D01*
X647793Y25157D01*
X647398Y25840D01*
X646840Y26398D01*
X646157Y26793D01*
X645395Y26997D01*
D02*
G37*
G36*
X625394D02*
X624606D01*
X623843Y26793D01*
X623160Y26398D01*
X622602Y25840D01*
X622207Y25157D01*
X622003Y24395D01*
Y23606D01*
X622207Y22843D01*
X622602Y22160D01*
X623160Y21602D01*
X623843Y21207D01*
X624606Y21003D01*
X625394D01*
X626157Y21207D01*
X626840Y21602D01*
X627398Y22160D01*
X627793Y22843D01*
X627997Y23606D01*
Y24395D01*
X627793Y25157D01*
X627398Y25840D01*
X626840Y26398D01*
X626157Y26793D01*
X625394Y26997D01*
D02*
G37*
G36*
X605395D02*
X604605D01*
X603843Y26793D01*
X603160Y26398D01*
X602602Y25840D01*
X602207Y25157D01*
X602003Y24395D01*
Y23606D01*
X602207Y22843D01*
X602602Y22160D01*
X603160Y21602D01*
X603843Y21207D01*
X604605Y21003D01*
X605395D01*
X606157Y21207D01*
X606840Y21602D01*
X607398Y22160D01*
X607793Y22843D01*
X607997Y23606D01*
Y24395D01*
X607793Y25157D01*
X607398Y25840D01*
X606840Y26398D01*
X606157Y26793D01*
X605395Y26997D01*
D02*
G37*
G36*
X584395D02*
X583605D01*
X582843Y26793D01*
X582160Y26398D01*
X581602Y25840D01*
X581207Y25157D01*
X581003Y24395D01*
Y23606D01*
X581207Y22843D01*
X581602Y22160D01*
X582160Y21602D01*
X582843Y21207D01*
X583605Y21003D01*
X584395D01*
X585157Y21207D01*
X585840Y21602D01*
X586398Y22160D01*
X586793Y22843D01*
X586997Y23606D01*
Y24395D01*
X586793Y25157D01*
X586398Y25840D01*
X585840Y26398D01*
X585157Y26793D01*
X584395Y26997D01*
D02*
G37*
G36*
X730223Y164891D02*
X729367D01*
X728541Y164669D01*
X727800Y164242D01*
X727196Y163637D01*
X726768Y162896D01*
X726666Y162516D01*
X709600D01*
X709600Y162516D01*
X709307Y162458D01*
X707350D01*
X707232Y162896D01*
X706805Y163637D01*
X706200Y164242D01*
X705459Y164669D01*
X704633Y164891D01*
X703777D01*
X702951Y164669D01*
X702210Y164242D01*
X701605Y163637D01*
X701177Y162896D01*
X700956Y162069D01*
Y161214D01*
X701177Y160388D01*
X701605Y159647D01*
X702210Y159042D01*
X702951Y158614D01*
X703777Y158393D01*
X704633D01*
X705459Y158614D01*
X706200Y159042D01*
X706805Y159647D01*
X707232Y160388D01*
X707350Y160826D01*
X709542D01*
X709542Y160826D01*
X709834Y160884D01*
X726635D01*
X726768Y160388D01*
X727196Y159647D01*
X727800Y159042D01*
X728541Y158614D01*
X729367Y158393D01*
X730223D01*
X731049Y158614D01*
X731790Y159042D01*
X732395Y159647D01*
X732823Y160388D01*
X733044Y161214D01*
Y162069D01*
X732823Y162896D01*
X732395Y163637D01*
X731790Y164242D01*
X731049Y164669D01*
X730223Y164891D01*
D02*
G37*
G36*
X736880Y100709D02*
X736035D01*
X735219Y100491D01*
X734487Y100068D01*
X733890Y99471D01*
X733467Y98739D01*
X733248Y97922D01*
Y97078D01*
X733467Y96261D01*
X733890Y95529D01*
X734487Y94932D01*
X735219Y94509D01*
X736035Y94291D01*
X736880D01*
X737697Y94509D01*
X738428Y94932D01*
X739026Y95529D01*
X739448Y96261D01*
X739667Y97078D01*
Y97922D01*
X739448Y98739D01*
X739026Y99471D01*
X738428Y100068D01*
X737697Y100491D01*
X736880Y100709D01*
D02*
G37*
G36*
X726880D02*
X726035D01*
X725219Y100491D01*
X724487Y100068D01*
X723890Y99471D01*
X723467Y98739D01*
X723248Y97922D01*
Y97078D01*
X723467Y96261D01*
X723890Y95529D01*
X724487Y94932D01*
X725219Y94509D01*
X726035Y94291D01*
X726880D01*
X727697Y94509D01*
X728428Y94932D01*
X729026Y95529D01*
X729449Y96261D01*
X729667Y97078D01*
Y97922D01*
X729449Y98739D01*
X729026Y99471D01*
X728428Y100068D01*
X727697Y100491D01*
X726880Y100709D01*
D02*
G37*
G36*
X716880D02*
X716035D01*
X715219Y100491D01*
X714487Y100068D01*
X713890Y99471D01*
X713467Y98739D01*
X713248Y97922D01*
Y97078D01*
X713467Y96261D01*
X713890Y95529D01*
X714487Y94932D01*
X715219Y94509D01*
X716035Y94291D01*
X716880D01*
X717697Y94509D01*
X718428Y94932D01*
X719026Y95529D01*
X719449Y96261D01*
X719667Y97078D01*
Y97922D01*
X719449Y98739D01*
X719026Y99471D01*
X718428Y100068D01*
X717697Y100491D01*
X716880Y100709D01*
D02*
G37*
G36*
X706880D02*
X706035D01*
X705219Y100491D01*
X704487Y100068D01*
X703890Y99471D01*
X703467Y98739D01*
X703248Y97922D01*
Y97078D01*
X703467Y96261D01*
X703890Y95529D01*
X704487Y94932D01*
X705219Y94509D01*
X706035Y94291D01*
X706880D01*
X707697Y94509D01*
X708428Y94932D01*
X709026Y95529D01*
X709448Y96261D01*
X709667Y97078D01*
Y97922D01*
X709448Y98739D01*
X709026Y99471D01*
X708428Y100068D01*
X707697Y100491D01*
X706880Y100709D01*
D02*
G37*
G36*
X699667D02*
X693248D01*
Y94291D01*
X699667D01*
Y100709D01*
D02*
G37*
G36*
X741880Y90710D02*
X741035D01*
X740219Y90491D01*
X739487Y90068D01*
X738890Y89471D01*
X738467Y88739D01*
X738248Y87923D01*
Y87077D01*
X738467Y86261D01*
X738890Y85529D01*
X739487Y84932D01*
X740219Y84509D01*
X741035Y84290D01*
X741880D01*
X742697Y84509D01*
X743428Y84932D01*
X744026Y85529D01*
X744449Y86261D01*
X744667Y87077D01*
Y87923D01*
X744449Y88739D01*
X744026Y89471D01*
X743428Y90068D01*
X742697Y90491D01*
X741880Y90710D01*
D02*
G37*
G36*
X731880D02*
X731035D01*
X730219Y90491D01*
X729487Y90068D01*
X728890Y89471D01*
X728467Y88739D01*
X728248Y87923D01*
Y87077D01*
X728467Y86261D01*
X728890Y85529D01*
X729487Y84932D01*
X730219Y84509D01*
X731035Y84290D01*
X731880D01*
X732697Y84509D01*
X733428Y84932D01*
X734026Y85529D01*
X734448Y86261D01*
X734667Y87077D01*
Y87923D01*
X734448Y88739D01*
X734026Y89471D01*
X733428Y90068D01*
X732697Y90491D01*
X731880Y90710D01*
D02*
G37*
G36*
X721880D02*
X721035D01*
X720219Y90491D01*
X719487Y90068D01*
X718890Y89471D01*
X718467Y88739D01*
X718248Y87923D01*
Y87077D01*
X718467Y86261D01*
X718890Y85529D01*
X719487Y84932D01*
X720219Y84509D01*
X721035Y84290D01*
X721880D01*
X722697Y84509D01*
X723428Y84932D01*
X724026Y85529D01*
X724448Y86261D01*
X724667Y87077D01*
Y87923D01*
X724448Y88739D01*
X724026Y89471D01*
X723428Y90068D01*
X722697Y90491D01*
X721880Y90710D01*
D02*
G37*
G36*
X711880D02*
X711035D01*
X710219Y90491D01*
X709487Y90068D01*
X708890Y89471D01*
X708467Y88739D01*
X708248Y87923D01*
Y87077D01*
X708467Y86261D01*
X708890Y85529D01*
X709487Y84932D01*
X710219Y84509D01*
X711035Y84290D01*
X711880D01*
X712697Y84509D01*
X713428Y84932D01*
X714026Y85529D01*
X714448Y86261D01*
X714667Y87077D01*
Y87923D01*
X714448Y88739D01*
X714026Y89471D01*
X713428Y90068D01*
X712697Y90491D01*
X711880Y90710D01*
D02*
G37*
G36*
X701880D02*
X701035D01*
X700219Y90491D01*
X699487Y90068D01*
X698890Y89471D01*
X698467Y88739D01*
X698248Y87923D01*
Y87077D01*
X698467Y86261D01*
X698890Y85529D01*
X699487Y84932D01*
X700219Y84509D01*
X701035Y84290D01*
X701880D01*
X702697Y84509D01*
X703428Y84932D01*
X704026Y85529D01*
X704449Y86261D01*
X704667Y87077D01*
Y87923D01*
X704449Y88739D01*
X704026Y89471D01*
X703428Y90068D01*
X702697Y90491D01*
X701880Y90710D01*
D02*
G37*
G36*
X750131Y79680D02*
X748769D01*
X747454Y79327D01*
X746274Y78646D01*
X745311Y77684D01*
X744630Y76504D01*
X744278Y75189D01*
Y73827D01*
X744630Y72512D01*
X745311Y71332D01*
X746274Y70369D01*
X747454Y69688D01*
X748769Y69336D01*
X750131D01*
X751446Y69688D01*
X752626Y70369D01*
X753589Y71332D01*
X754270Y72512D01*
X754622Y73827D01*
Y75189D01*
X754270Y76504D01*
X753589Y77684D01*
X752626Y78646D01*
X751446Y79327D01*
X750131Y79680D01*
D02*
G37*
G36*
X689147D02*
X687785D01*
X686469Y79327D01*
X685290Y78646D01*
X684327Y77684D01*
X683646Y76504D01*
X683294Y75189D01*
Y73827D01*
X683646Y72512D01*
X684327Y71332D01*
X685290Y70369D01*
X686469Y69688D01*
X687785Y69336D01*
X689147D01*
X690462Y69688D01*
X691641Y70369D01*
X692604Y71332D01*
X693285Y72512D01*
X693638Y73827D01*
Y75189D01*
X693285Y76504D01*
X692604Y77684D01*
X691641Y78646D01*
X690462Y79327D01*
X689147Y79680D01*
D02*
G37*
G36*
X742118Y69198D02*
X740798D01*
X739504Y68940D01*
X738285Y68435D01*
X737188Y67702D01*
X736255Y66769D01*
X735522Y65672D01*
X735017Y64454D01*
X734760Y63160D01*
Y61840D01*
X735017Y60546D01*
X735522Y59328D01*
X736255Y58231D01*
X737188Y57298D01*
X738285Y56565D01*
X739504Y56060D01*
X740798Y55802D01*
X742118D01*
X743411Y56060D01*
X744630Y56565D01*
X745727Y57298D01*
X746660Y58231D01*
X747393Y59328D01*
X747898Y60546D01*
X748155Y61840D01*
Y63160D01*
X747898Y64454D01*
X747393Y65672D01*
X746660Y66769D01*
X745727Y67702D01*
X744630Y68435D01*
X743411Y68940D01*
X742118Y69198D01*
D02*
G37*
G36*
X697118D02*
X695798D01*
X694504Y68940D01*
X693285Y68435D01*
X692188Y67702D01*
X691255Y66769D01*
X690522Y65672D01*
X690018Y64454D01*
X689760Y63160D01*
Y61840D01*
X690018Y60546D01*
X690522Y59328D01*
X691255Y58231D01*
X692188Y57298D01*
X693285Y56565D01*
X694504Y56060D01*
X695798Y55802D01*
X697118D01*
X698411Y56060D01*
X699630Y56565D01*
X700727Y57298D01*
X701660Y58231D01*
X702393Y59328D01*
X702898Y60546D01*
X703155Y61840D01*
Y63160D01*
X702898Y64454D01*
X702393Y65672D01*
X701660Y66769D01*
X700727Y67702D01*
X699630Y68435D01*
X698411Y68940D01*
X697118Y69198D01*
D02*
G37*
%LPD*%
D10*
X629953Y348500D02*
G03*
X629953Y348500I-394J0D01*
G01*
X728433Y335610D02*
G03*
X728433Y335610I-394J0D01*
G01*
X332894Y234059D02*
G03*
X332894Y234059I-394J0D01*
G01*
X275335Y22500D02*
G03*
X275335Y22500I-394J0D01*
G01*
X298394Y306559D02*
G03*
X298394Y306559I-394J0D01*
G01*
X366453Y374000D02*
G03*
X366453Y374000I-394J0D01*
G01*
X331894Y248941D02*
G03*
X331894Y248941I-394J0D01*
G01*
X597335Y49000D02*
G03*
X597335Y49000I-394J0D01*
G01*
X275335Y47000D02*
G03*
X275335Y47000I-394J0D01*
G01*
X374835Y348500D02*
G03*
X374835Y348500I-394J0D01*
G01*
X374335Y373500D02*
G03*
X374335Y373500I-394J0D01*
G01*
X679312Y97303D02*
G03*
X679312Y97303I-394J0D01*
G01*
X552453Y374500D02*
G03*
X552453Y374500I-394J0D01*
G01*
X617425Y147153D02*
G03*
X617425Y147153I-394J0D01*
G01*
X562835Y372500D02*
G03*
X562835Y372500I-394J0D01*
G01*
X714663Y192967D02*
G03*
X714663Y192967I-557J0D01*
G01*
X286453Y349000D02*
G03*
X286453Y349000I-394J0D01*
G01*
X258268Y34000D02*
G03*
X258268Y34000I-394J0D01*
G01*
X590453Y50000D02*
G03*
X590453Y50000I-394J0D01*
G01*
X249394Y264441D02*
G03*
X249394Y264441I-394J0D01*
G01*
X475453Y49500D02*
G03*
X475453Y49500I-394J0D01*
G01*
X597835Y24000D02*
G03*
X597835Y24000I-394J0D01*
G01*
X612232Y179650D02*
G03*
X612232Y179650I-394J0D01*
G01*
X478835Y50000D02*
G03*
X478835Y50000I-394J0D01*
G01*
X666894Y153232D02*
G03*
X666894Y153232I-394J0D01*
G01*
X665894Y211732D02*
G03*
X665894Y211732I-394J0D01*
G01*
X591953Y24000D02*
G03*
X591953Y24000I-394J0D01*
G01*
X475453Y23500D02*
G03*
X475453Y23500I-394J0D01*
G01*
X250394Y74941D02*
G03*
X250394Y74941I-394J0D01*
G01*
X299835Y348500D02*
G03*
X299835Y348500I-394J0D01*
G01*
X250394Y131441D02*
G03*
X250394Y131441I-394J0D01*
G01*
X325020Y138500D02*
G03*
X325020Y138500I-394J0D01*
G01*
D11*
X723910Y170500D02*
G03*
X723910Y170500I-6909J0D01*
G01*
X615937Y215039D02*
X623811D01*
X615937Y219961D02*
X623811D01*
Y215039D02*
Y219961D01*
X615937Y215039D02*
Y219961D01*
X639732Y215150D02*
Y218850D01*
X646268Y215150D02*
Y218850D01*
X639732D02*
X646268D01*
X639732Y215150D02*
X646268D01*
X614732Y238150D02*
Y241850D01*
X621268Y238150D02*
Y241850D01*
X614732D02*
X621268D01*
X614732Y238150D02*
X621268D01*
X637232Y238650D02*
Y242350D01*
X643768Y238650D02*
Y242350D01*
X637232D02*
X643768D01*
X637232Y238650D02*
X643768D01*
X738965Y340532D02*
Y385610D01*
X691917D02*
X738965D01*
X691917Y340532D02*
Y385610D01*
Y340532D02*
X738965D01*
X639220Y109650D02*
X645756D01*
X639220Y113350D02*
X645756D01*
Y109650D02*
Y113350D01*
X639220Y109650D02*
Y113350D01*
X687206Y104980D02*
X750710D01*
Y19980D02*
Y104980D01*
X687206Y19980D02*
X750710D01*
X687206D02*
Y104980D01*
X636350Y259425D02*
Y262575D01*
X642650Y259425D02*
Y262575D01*
X636350D02*
X642650D01*
X636350Y259425D02*
X642650D01*
X616047Y150106D02*
Y154043D01*
X625890D01*
Y150106D02*
Y154043D01*
X616047Y150106D02*
X625890D01*
X635244Y276150D02*
X641780D01*
X635244Y279850D02*
X641780D01*
Y276150D02*
Y279850D01*
X635244Y276150D02*
Y279850D01*
X638744Y181150D02*
X645280D01*
X638744Y184850D02*
X645280D01*
Y181150D02*
Y184850D01*
X638744Y181150D02*
Y184850D01*
X638732Y162650D02*
X645268D01*
X638732Y166350D02*
X645268D01*
Y162650D02*
Y166350D01*
X638732Y162650D02*
Y166350D01*
X638850Y144425D02*
Y147575D01*
X645150Y144425D02*
Y147575D01*
X638850D02*
X645150D01*
X638850Y144425D02*
X645150D01*
X637898Y129425D02*
Y132575D01*
X644197Y129425D02*
Y132575D01*
X637898D02*
X644197D01*
X637898Y129425D02*
X644197D01*
X684500Y204424D02*
Y287416D01*
X744500D01*
Y204424D02*
Y287416D01*
X684500Y204424D02*
X744500D01*
X618189Y109539D02*
Y114461D01*
X626063Y109539D02*
Y114461D01*
X618189D02*
X626063D01*
X618189Y109539D02*
X626063D01*
X705209Y158709D02*
Y182291D01*
Y158709D02*
X728791D01*
Y182291D01*
X705209D02*
X728791D01*
X618189Y128539D02*
Y133461D01*
X626063Y128539D02*
Y133461D01*
X618189D02*
X626063D01*
X618189Y128539D02*
X626063D01*
X617744Y170594D02*
Y182405D01*
Y170594D02*
X623256D01*
Y182405D01*
X617744D02*
X623256D01*
X616303Y196925D02*
Y200075D01*
X622602Y196925D02*
Y200075D01*
X616303D02*
X622602D01*
X616303Y196925D02*
X622602D01*
X613063Y258039D02*
Y262961D01*
X620937Y258039D02*
Y262961D01*
X613063D02*
X620937D01*
X613063Y258039D02*
X620937D01*
X659453Y164098D02*
Y188902D01*
X673547D01*
Y164098D02*
Y188902D01*
X659453Y164098D02*
X673547D01*
X658453Y222598D02*
Y247402D01*
X672547D01*
Y222598D02*
Y247402D01*
X658453Y222598D02*
X672547D01*
X615063Y275539D02*
Y280461D01*
X622937Y275539D02*
Y280461D01*
X615063D02*
X622937D01*
X615063Y275539D02*
X622937D01*
X639350Y197925D02*
Y201075D01*
X645650Y197925D02*
Y201075D01*
X639350D02*
X645650D01*
X639350Y197925D02*
X645650D01*
X247232Y55650D02*
X253768D01*
X247232Y59350D02*
X253768D01*
Y55650D02*
Y59350D01*
X247232Y55650D02*
Y59350D01*
X633988Y263559D02*
X645012D01*
Y258441D02*
Y263559D01*
X633988Y258441D02*
Y263559D01*
Y258441D02*
X645012D01*
X636488Y148559D02*
X647512D01*
Y143441D02*
Y148559D01*
X636488Y143441D02*
Y148559D01*
Y143441D02*
X647512D01*
X635535Y133559D02*
X646559D01*
Y128441D02*
Y133559D01*
X635535Y128441D02*
Y133559D01*
Y128441D02*
X646559D01*
X613941Y201059D02*
X624965D01*
Y195941D02*
Y201059D01*
X613941Y195941D02*
Y201059D01*
Y195941D02*
X624965D01*
X636988Y202059D02*
X648012D01*
Y196941D02*
Y202059D01*
X636988Y196941D02*
Y202059D01*
Y196941D02*
X648012D01*
D12*
X627000Y343500D02*
Y353500D01*
X507000Y343500D02*
X627000D01*
X507000D02*
Y353500D01*
X627000D01*
X407960Y173884D02*
Y238850D01*
X394646Y173884D02*
Y238848D01*
X337400Y171500D02*
Y231500D01*
X327600D02*
X337400D01*
X327600Y171500D02*
Y231500D01*
Y171500D02*
X337400D01*
X277500Y27400D02*
X337500D01*
X277500Y17600D02*
Y27400D01*
Y17600D02*
X337500D01*
Y27400D01*
X293000Y124000D02*
Y304000D01*
Y124000D02*
X313000D01*
Y304000D01*
X293000D02*
X313000D01*
X243500Y379000D02*
X363500D01*
X243500Y369000D02*
Y379000D01*
Y369000D02*
X363500D01*
Y379000D01*
X326500Y251500D02*
X336500D01*
X326500D02*
Y291500D01*
X336500D01*
Y251500D02*
Y291500D01*
X659500Y44100D02*
Y53900D01*
X599500Y44100D02*
X659500D01*
X599500D02*
Y53900D01*
X659500D01*
X337500Y42100D02*
Y51900D01*
X277500Y42100D02*
X337500D01*
X277500D02*
Y51900D01*
X337500D01*
X377000Y343500D02*
Y353500D01*
X497000D01*
Y343500D02*
Y353500D01*
X377000Y343500D02*
X497000D01*
X376500Y368500D02*
Y378500D01*
X496500D01*
Y368500D02*
Y378500D01*
X376500Y368500D02*
X496500D01*
X549500Y369500D02*
Y379500D01*
X509500Y369500D02*
X549500D01*
X509500D02*
Y379500D01*
X549500D01*
X547460Y173227D02*
Y238192D01*
X534146Y173227D02*
Y238191D01*
X625000Y367600D02*
Y377400D01*
X565000Y367600D02*
X625000D01*
X565000D02*
Y377400D01*
X625000D01*
X283500Y344000D02*
Y354000D01*
X243500Y344000D02*
X283500D01*
X243500D02*
Y354000D01*
X283500D01*
X245000Y39000D02*
X255000D01*
Y19000D02*
Y39000D01*
X245000Y19000D02*
X255000D01*
X245000D02*
Y39000D01*
X587500Y45000D02*
Y55000D01*
X547500Y45000D02*
X587500D01*
X547500D02*
Y55000D01*
X587500D01*
X244100Y327000D02*
X253900D01*
Y267000D02*
Y327000D01*
X244100Y267000D02*
X253900D01*
X244100D02*
Y327000D01*
X472500Y44500D02*
Y54500D01*
X352500Y44500D02*
X472500D01*
X352500D02*
Y54500D01*
X472500D01*
X660000Y19100D02*
Y28900D01*
X600000Y19100D02*
X660000D01*
X600000D02*
Y28900D01*
X660000D01*
X541000Y45100D02*
Y54900D01*
X481000Y45100D02*
X541000D01*
X481000D02*
Y54900D01*
X541000D01*
X479000Y19000D02*
Y29000D01*
X589000D01*
Y19000D02*
Y29000D01*
X479000Y19000D02*
X589000D01*
X479000D02*
Y29000D01*
X589000D01*
Y19000D02*
Y29000D01*
X472500Y18500D02*
Y28500D01*
X352500Y18500D02*
X472500D01*
X352500D02*
Y28500D01*
X472500D01*
X245000Y77500D02*
X255000D01*
X245000D02*
Y117500D01*
X255000D01*
Y77500D02*
Y117500D01*
X362000Y343600D02*
Y353400D01*
X302000Y343600D02*
X362000D01*
X302000D02*
Y353400D01*
X362000D01*
X245000Y134000D02*
X255000D01*
X245000D02*
Y254000D01*
X255000D01*
Y134000D02*
Y254000D01*
X327500Y133500D02*
X337500D01*
X327500D02*
Y153500D01*
X337500D01*
Y133500D02*
Y153500D01*
D13*
X520000Y219000D02*
X528500D01*
X529061Y219561D01*
X510500Y209500D02*
X520000Y219000D01*
X612374Y191626D02*
X630500Y173500D01*
Y170500D02*
Y173500D01*
X621939Y141561D02*
Y165939D01*
Y141561D02*
X623000Y140500D01*
X531000Y208000D02*
X534500Y211500D01*
Y248000D01*
X602000Y315500D01*
Y348500D01*
X510500Y58000D02*
Y209500D01*
X506111Y53611D02*
X510500Y58000D01*
X551346Y203346D02*
X599500Y155193D01*
Y80500D02*
Y155193D01*
X338500Y384000D02*
X341500Y387000D01*
X345000D01*
X338500Y374000D02*
Y384000D01*
X674000Y18500D02*
Y180000D01*
X696500Y202500D01*
X665000Y9500D02*
X674000Y18500D01*
X568500Y9500D02*
X665000D01*
X664500Y28000D02*
Y165750D01*
X586500Y11500D02*
X648000D01*
X664500Y28000D01*
X560303Y17697D02*
X568500Y9500D01*
X555000Y32000D02*
X560303Y26697D01*
Y17697D02*
Y26697D01*
X486500Y32000D02*
X555000D01*
X481500Y37000D02*
X486500Y32000D01*
X542500Y12500D02*
X554000Y24000D01*
X352500Y12500D02*
X542500D01*
X346500Y18500D02*
X352500Y12500D01*
X481500Y37000D02*
Y38000D01*
X574000Y24000D02*
X586500Y11500D01*
X630000Y30000D02*
Y50000D01*
X635000Y24000D02*
Y25000D01*
X630000Y30000D02*
X635000Y25000D01*
X475500Y44000D02*
X481500Y38000D01*
X475500Y44000D02*
Y115264D01*
X410382Y180382D02*
X475500Y115264D01*
X634200Y126700D02*
X648500Y141000D01*
Y151500D01*
X387500Y213500D02*
X390500D01*
X393500Y210500D01*
X632500Y197750D02*
X664500Y165750D01*
X599500Y80500D02*
X630000Y50000D01*
X551272Y200272D02*
X595500Y156043D01*
Y50500D02*
Y156043D01*
Y50500D02*
X615000Y31000D01*
Y24000D02*
Y31000D01*
X346500Y18500D02*
Y71500D01*
X388879Y199500D02*
X392000D01*
X376000Y186621D02*
X388879Y199500D01*
X298500Y327000D02*
X390000Y235500D01*
X250000Y189000D02*
X263700Y175300D01*
X250000Y169000D02*
X268000D01*
X298000Y139000D01*
X263700Y175300D02*
X301700D01*
X308000Y169000D01*
X632500Y197750D02*
Y240500D01*
X624800Y126700D02*
X634200D01*
X250500Y292000D02*
X288500Y254000D01*
X319500D02*
X369500Y204000D01*
X288500Y254000D02*
X319500D01*
X288500Y264000D02*
X316000D01*
X374500Y205500D01*
X250500Y302000D02*
X288500Y264000D01*
X289697Y272803D02*
X332697D01*
X250500Y312000D02*
X289697Y272803D01*
X332697D02*
X338000Y267500D01*
X551000Y228500D02*
X682500Y360000D01*
X550000Y228500D02*
X551000D01*
X417000Y202500D02*
X422500D01*
X411421Y207079D02*
X415807D01*
X555697Y346969D01*
X411000Y207228D02*
X411272D01*
X411421Y207079D01*
X417000Y215000D02*
X425000Y223000D01*
X416500Y215000D02*
X417000D01*
X555697Y346969D02*
Y370697D01*
X425000Y223000D02*
Y256500D01*
X337197Y344303D02*
X425000Y256500D01*
X506000Y50000D02*
X506111Y50111D01*
Y53611D01*
X691775Y350775D02*
X709775D01*
X635250Y294250D02*
X691775Y350775D01*
X682500Y360000D02*
Y378000D01*
X693500Y389000D02*
X733000D01*
X682500Y378000D02*
X693500Y389000D01*
X612374Y191626D02*
Y250600D01*
X348500Y374000D02*
X361806Y360694D01*
X378000D01*
X298500Y327000D02*
Y374000D01*
X250000Y249000D02*
X265000D01*
X290000Y224000D01*
X303000D01*
X308000Y219000D01*
X346500Y71500D02*
X393500Y118500D01*
Y210500D01*
X704205Y161642D02*
X709542D01*
X709600Y161700D01*
X729737D01*
X729795Y161642D01*
X337197Y344303D02*
Y348303D01*
X337000Y348500D02*
X337197Y348303D01*
X422500Y202500D02*
X567000Y347000D01*
Y354000D01*
X580000Y367000D01*
Y372500D01*
X555697Y370697D02*
X567000Y382000D01*
X600500D01*
X610000Y372500D01*
X369500Y204000D02*
X388500D01*
X250500Y282000D02*
X287197Y245303D01*
X321197D01*
X364000Y202500D01*
X384500D01*
X374500Y205500D02*
X390000D01*
X338000Y250000D02*
Y267500D01*
Y250000D02*
X381000Y207000D01*
X391500D01*
X322500Y22500D02*
Y23000D01*
X328000Y28500D01*
Y60000D01*
X376000Y108000D01*
Y186621D01*
D14*
X627984Y342516D02*
Y354484D01*
X506016Y342516D02*
X627984D01*
X506016D02*
Y354484D01*
X627984D01*
X612000Y220945D02*
X627748D01*
Y214055D02*
Y220945D01*
X612000Y214055D02*
X627748D01*
X612000D02*
Y220945D01*
X648685Y214087D02*
Y219913D01*
X637315Y214087D02*
Y219913D01*
X648685D01*
X637315Y214087D02*
X648685D01*
X623685Y237087D02*
Y242913D01*
X612315Y237087D02*
Y242913D01*
X623685D01*
X612315Y237087D02*
X623685D01*
X646185Y237587D02*
Y243413D01*
X634815Y237587D02*
Y243413D01*
X646185D01*
X634815Y237587D02*
X646185D01*
X689457Y388563D02*
X741622D01*
Y337579D02*
Y388563D01*
X689457Y337579D02*
X741622D01*
X689457D02*
Y388563D01*
X338384Y170516D02*
Y232484D01*
X326616D02*
X338384D01*
X326616Y170516D02*
Y232484D01*
Y170516D02*
X338384D01*
X276516Y28384D02*
X338484D01*
X276516Y16616D02*
Y28384D01*
Y16616D02*
X338484D01*
Y28384D01*
X292016Y123016D02*
Y304984D01*
Y123016D02*
X313984D01*
Y304984D01*
X292016D02*
X313984D01*
X242516Y379984D02*
X364484D01*
X242516Y368016D02*
Y379984D01*
Y368016D02*
X364484D01*
Y379984D01*
X325516Y250516D02*
X337484D01*
X325516D02*
Y292484D01*
X337484D01*
Y250516D02*
Y292484D01*
X660484Y43116D02*
Y54884D01*
X598516Y43116D02*
X660484D01*
X598516D02*
Y54884D01*
X660484D01*
X338484Y41116D02*
Y52884D01*
X276516Y41116D02*
X338484D01*
X276516D02*
Y52884D01*
X338484D01*
X636803Y108587D02*
X648173D01*
X636803Y114413D02*
X648173D01*
X636803Y108587D02*
Y114413D01*
X648173Y108587D02*
Y114413D01*
X376016Y342516D02*
Y354484D01*
X497984D01*
Y342516D02*
Y354484D01*
X376016Y342516D02*
X497984D01*
X375516Y367516D02*
Y379484D01*
X497484D01*
Y367516D02*
Y379484D01*
X375516Y367516D02*
X497484D01*
X682540Y105965D02*
X755375D01*
Y18996D02*
Y105965D01*
X682540Y18996D02*
X755375D01*
X682540D02*
Y105965D01*
X550484Y368516D02*
Y380484D01*
X508516Y368516D02*
X550484D01*
X508516D02*
Y380484D01*
X550484D01*
X615063Y148531D02*
Y155618D01*
X626874D01*
Y148531D02*
Y155618D01*
X615063Y148531D02*
X626874D01*
X632827Y275087D02*
X644197D01*
X632827Y280913D02*
X644197D01*
X632827Y275087D02*
Y280913D01*
X644197Y275087D02*
Y280913D01*
X636327Y180087D02*
X647697D01*
X636327Y185913D02*
X647697D01*
X636327Y180087D02*
Y185913D01*
X647697Y180087D02*
Y185913D01*
X636315Y161587D02*
X647685D01*
X636315Y167413D02*
X647685D01*
X636315Y161587D02*
Y167413D01*
X647685Y161587D02*
Y167413D01*
X625984Y366616D02*
Y378384D01*
X564016Y366616D02*
X625984D01*
X564016D02*
Y378384D01*
X625984D01*
X678516Y201629D02*
Y290212D01*
X703476D01*
Y295625D01*
X725524D01*
Y290212D02*
Y295625D01*
Y290212D02*
X750484D01*
Y201629D02*
Y290212D01*
X725524Y201629D02*
X750484D01*
X725524Y196215D02*
Y201629D01*
X703476Y196215D02*
X725524D01*
X703476D02*
Y201629D01*
X678516D02*
X703476D01*
X284484Y343016D02*
Y354984D01*
X242516Y343016D02*
X284484D01*
X242516D02*
Y354984D01*
X284484D01*
X255984Y18016D02*
Y39984D01*
X244016Y18016D02*
X255984D01*
X244016D02*
Y39984D01*
X255984D01*
X588484Y44016D02*
Y55984D01*
X546516Y44016D02*
X588484D01*
X546516D02*
Y55984D01*
X588484D01*
X243116Y327984D02*
X254884D01*
Y266016D02*
Y327984D01*
X243116Y266016D02*
X254884D01*
X243116D02*
Y327984D01*
X614252Y108555D02*
Y115445D01*
Y108555D02*
X630000D01*
Y115445D01*
X614252D02*
X630000D01*
X473484Y43516D02*
Y55484D01*
X351516Y43516D02*
X473484D01*
X351516D02*
Y55484D01*
X473484D01*
X700268Y157705D02*
Y183295D01*
Y157705D02*
X733732D01*
Y183295D01*
X700268D02*
X733732D01*
X660984Y18116D02*
Y29884D01*
X599016Y18116D02*
X660984D01*
X599016D02*
Y29884D01*
X660984D01*
X614252Y127555D02*
Y134445D01*
Y127555D02*
X630000D01*
Y134445D01*
X614252D02*
X630000D01*
X613177Y183390D02*
X627823D01*
Y169610D02*
Y183390D01*
X613177Y169610D02*
X627823D01*
X613177D02*
Y183390D01*
X541984Y44116D02*
Y55884D01*
X480016Y44116D02*
X541984D01*
X480016D02*
Y55884D01*
X541984D01*
X609126Y257055D02*
Y263945D01*
Y257055D02*
X624874D01*
Y263945D01*
X609126D02*
X624874D01*
X658469Y155043D02*
Y197957D01*
X674532D01*
Y155043D02*
Y197957D01*
X658469Y155043D02*
X674532D01*
X657469Y213543D02*
Y256457D01*
X673532D01*
Y213543D02*
Y256457D01*
X657469Y213543D02*
X673532D01*
X478016Y18016D02*
Y29984D01*
X589984D01*
Y18016D02*
Y29984D01*
X478016Y18016D02*
X589984D01*
X611126Y274555D02*
Y281445D01*
Y274555D02*
X626874D01*
Y281445D01*
X611126D02*
X626874D01*
X473484Y17516D02*
Y29484D01*
X351516Y17516D02*
X473484D01*
X351516D02*
Y29484D01*
X473484D01*
X244016Y76516D02*
X255984D01*
X244016D02*
Y118484D01*
X255984D01*
Y76516D02*
Y118484D01*
X244815Y54587D02*
X256185D01*
X244815Y60413D02*
X256185D01*
X244815Y54587D02*
Y60413D01*
X256185Y54587D02*
Y60413D01*
X362984Y342616D02*
Y354384D01*
X301016Y342616D02*
X362984D01*
X301016D02*
Y354384D01*
X362984D01*
X244016Y133016D02*
X255984D01*
X244016D02*
Y254984D01*
X255984D01*
Y133016D02*
Y254984D01*
X326516Y132516D02*
Y154484D01*
X338484D01*
Y132516D02*
Y154484D01*
X326516Y132516D02*
X338484D01*
D65*
X622000Y348500D02*
D03*
X358500Y374000D02*
D03*
X382000Y348500D02*
D03*
X381500Y373500D02*
D03*
X544500Y374500D02*
D03*
X278500Y349000D02*
D03*
X582500Y50000D02*
D03*
X467500Y49500D02*
D03*
Y23500D02*
D03*
D66*
X612000Y348500D02*
D03*
X602000D02*
D03*
X592000D02*
D03*
X582000D02*
D03*
X572000D02*
D03*
X562000D02*
D03*
X552000D02*
D03*
X542000D02*
D03*
X532000D02*
D03*
X522000D02*
D03*
X512000D02*
D03*
X332500Y176500D02*
D03*
Y186500D02*
D03*
Y196500D02*
D03*
Y206500D02*
D03*
Y216500D02*
D03*
Y226500D02*
D03*
Y22500D02*
D03*
X322500D02*
D03*
X312500D02*
D03*
X302500D02*
D03*
X292500D02*
D03*
X282500D02*
D03*
X308000Y129000D02*
D03*
X298000D02*
D03*
X308000Y139000D02*
D03*
X298000D02*
D03*
X308000Y149000D02*
D03*
X298000D02*
D03*
X308000Y159000D02*
D03*
X298000D02*
D03*
X308000Y169000D02*
D03*
X298000D02*
D03*
X308000Y179000D02*
D03*
X298000D02*
D03*
X308000Y189000D02*
D03*
X298000D02*
D03*
X308000Y199000D02*
D03*
X298000D02*
D03*
X308000Y209000D02*
D03*
X298000D02*
D03*
X308000Y219000D02*
D03*
X298000D02*
D03*
X308000Y229000D02*
D03*
X298000D02*
D03*
X308000Y239000D02*
D03*
X298000D02*
D03*
X308000Y249000D02*
D03*
X298000D02*
D03*
X308000Y259000D02*
D03*
X298000D02*
D03*
X308000Y269000D02*
D03*
X298000D02*
D03*
X308000Y279000D02*
D03*
X298000D02*
D03*
X308000Y289000D02*
D03*
X298000D02*
D03*
X308000Y299000D02*
D03*
X248500Y374000D02*
D03*
X258500D02*
D03*
X268500D02*
D03*
X278500D02*
D03*
X288500D02*
D03*
X298500D02*
D03*
X308500D02*
D03*
X318500D02*
D03*
X328500D02*
D03*
X338500D02*
D03*
X348500D02*
D03*
X331500Y266500D02*
D03*
Y276500D02*
D03*
Y286500D02*
D03*
X604500Y49000D02*
D03*
X614500D02*
D03*
X624500D02*
D03*
X634500D02*
D03*
X644500D02*
D03*
X654500D02*
D03*
X282500Y47000D02*
D03*
X292500D02*
D03*
X302500D02*
D03*
X312500D02*
D03*
X322500D02*
D03*
X332500D02*
D03*
X392000Y348500D02*
D03*
X402000D02*
D03*
X412000D02*
D03*
X422000D02*
D03*
X432000D02*
D03*
X442000D02*
D03*
X452000D02*
D03*
X462000D02*
D03*
X472000D02*
D03*
X482000D02*
D03*
X492000D02*
D03*
X391500Y373500D02*
D03*
X401500D02*
D03*
X411500D02*
D03*
X421500D02*
D03*
X431500D02*
D03*
X441500D02*
D03*
X451500D02*
D03*
X461500D02*
D03*
X471500D02*
D03*
X481500D02*
D03*
X491500D02*
D03*
X534500Y374500D02*
D03*
X524500D02*
D03*
X514500D02*
D03*
X570000Y372500D02*
D03*
X580000D02*
D03*
X590000D02*
D03*
X600000D02*
D03*
X610000D02*
D03*
X620000D02*
D03*
X268500Y349000D02*
D03*
X258500D02*
D03*
X248500D02*
D03*
X572500Y50000D02*
D03*
X562500D02*
D03*
X552500D02*
D03*
X249000Y272000D02*
D03*
Y282000D02*
D03*
Y292000D02*
D03*
Y302000D02*
D03*
Y312000D02*
D03*
Y322000D02*
D03*
X457500Y49500D02*
D03*
X447500D02*
D03*
X437500D02*
D03*
X427500D02*
D03*
X417500D02*
D03*
X407500D02*
D03*
X397500D02*
D03*
X387500D02*
D03*
X377500D02*
D03*
X367500D02*
D03*
X357500D02*
D03*
X605000Y24000D02*
D03*
X615000D02*
D03*
X625000D02*
D03*
X635000D02*
D03*
X645000D02*
D03*
X655000D02*
D03*
X486000Y50000D02*
D03*
X496000D02*
D03*
X506000D02*
D03*
X516000D02*
D03*
X526000D02*
D03*
X536000D02*
D03*
X584000Y24000D02*
D03*
X574000D02*
D03*
X564000D02*
D03*
X554000D02*
D03*
X544000D02*
D03*
X534000D02*
D03*
X524000D02*
D03*
X514000D02*
D03*
X504000D02*
D03*
X494000D02*
D03*
X484000D02*
D03*
X457500Y23500D02*
D03*
X447500D02*
D03*
X437500D02*
D03*
X427500D02*
D03*
X417500D02*
D03*
X407500D02*
D03*
X397500D02*
D03*
X387500D02*
D03*
X377500D02*
D03*
X367500D02*
D03*
X357500D02*
D03*
X250000Y92500D02*
D03*
Y102500D02*
D03*
Y112500D02*
D03*
X307000Y348500D02*
D03*
X317000D02*
D03*
X327000D02*
D03*
X337000D02*
D03*
X347000D02*
D03*
X357000D02*
D03*
X250000Y149000D02*
D03*
Y159000D02*
D03*
Y169000D02*
D03*
Y179000D02*
D03*
Y189000D02*
D03*
Y199000D02*
D03*
Y209000D02*
D03*
Y219000D02*
D03*
Y229000D02*
D03*
Y239000D02*
D03*
Y249000D02*
D03*
D67*
X298000Y299000D02*
D03*
X331500Y256500D02*
D03*
X250000Y82500D02*
D03*
Y139000D02*
D03*
D68*
X741458Y62500D02*
D03*
X696458D02*
D03*
D69*
X688466Y74508D02*
D03*
X749450D02*
D03*
D70*
X696458Y97500D02*
D03*
D71*
X706458D02*
D03*
X716458D02*
D03*
X726458D02*
D03*
X701458Y87500D02*
D03*
X711458D02*
D03*
X721458D02*
D03*
X731458D02*
D03*
X736458Y97500D02*
D03*
X741458Y87500D02*
D03*
D73*
X250000Y34000D02*
D03*
Y24000D02*
D03*
X332500Y138500D02*
D03*
Y148500D02*
D03*
D74*
X704205Y161642D02*
D03*
Y179358D02*
D03*
X729795Y161642D02*
D03*
Y179358D02*
D03*
D76*
X235000Y391500D02*
D03*
Y9500D02*
D03*
X757000Y10500D02*
D03*
X757500Y391000D02*
D03*
D77*
X418500Y229500D02*
D03*
X386000Y337000D02*
D03*
X530000Y183000D02*
D03*
X651998Y132502D02*
D03*
X644000Y126000D02*
D03*
X514500Y184000D02*
D03*
X619000Y160000D02*
D03*
X551061Y185939D02*
D03*
X526500Y196500D02*
D03*
X529761Y222559D02*
D03*
X529061Y219561D02*
D03*
X527105Y217274D02*
D03*
X530500Y214500D02*
D03*
X528500Y212500D02*
D03*
X532000Y216000D02*
D03*
X531183Y220744D02*
D03*
X531244Y223744D02*
D03*
X531500Y229000D02*
D03*
X531342Y211146D02*
D03*
X526447Y200947D02*
D03*
X526500Y199000D02*
D03*
X526474Y203042D02*
D03*
X526500Y205000D02*
D03*
X627500Y199000D02*
D03*
X630500Y170500D02*
D03*
X627000Y168000D02*
D03*
X621939Y165939D02*
D03*
X529500Y234500D02*
D03*
Y228000D02*
D03*
Y224500D02*
D03*
Y230000D02*
D03*
X528000Y206500D02*
D03*
Y209500D02*
D03*
X550189Y223811D02*
D03*
X550000Y226000D02*
D03*
X559689Y217311D02*
D03*
X554000Y209500D02*
D03*
X555500Y208000D02*
D03*
X551500Y211071D02*
D03*
Y196000D02*
D03*
X551346Y203346D02*
D03*
X551000Y190500D02*
D03*
X616500Y221500D02*
D03*
X551500Y206500D02*
D03*
X530748Y190748D02*
D03*
X531000Y208000D02*
D03*
X345000Y387000D02*
D03*
X696500Y202500D02*
D03*
X410382Y180382D02*
D03*
X413811Y198811D02*
D03*
X406500Y130500D02*
D03*
X406939Y133561D02*
D03*
X388500Y234000D02*
D03*
X391500Y237000D02*
D03*
X615500Y244000D02*
D03*
X415656Y196399D02*
D03*
X418000Y194500D02*
D03*
X390630Y197630D02*
D03*
X389000Y211500D02*
D03*
X635000Y201500D02*
D03*
X648500Y151500D02*
D03*
X610500Y155000D02*
D03*
X608800Y139700D02*
D03*
X387500Y213500D02*
D03*
X375000Y201000D02*
D03*
X388028Y216528D02*
D03*
X630000Y101500D02*
D03*
X386000Y215000D02*
D03*
X660000Y109500D02*
D03*
X384500Y193000D02*
D03*
X374500Y186000D02*
D03*
X388000Y194500D02*
D03*
X386500Y232500D02*
D03*
X390000Y235500D02*
D03*
X391500Y220000D02*
D03*
X625000Y239000D02*
D03*
X635500Y217000D02*
D03*
X653000Y217500D02*
D03*
X665500Y200400D02*
D03*
X632500Y240500D02*
D03*
X649500D02*
D03*
X624800Y126700D02*
D03*
X413000Y205504D02*
D03*
X356000Y173000D02*
D03*
Y171500D02*
D03*
X411000Y221500D02*
D03*
X550000Y228500D02*
D03*
X420000Y193000D02*
D03*
X619000Y149000D02*
D03*
X425000Y208500D02*
D03*
X418500Y220000D02*
D03*
X412500Y216528D02*
D03*
X418500Y200500D02*
D03*
X417000Y202500D02*
D03*
X415500Y204000D02*
D03*
X411000Y207228D02*
D03*
Y210228D02*
D03*
X414500Y213500D02*
D03*
X412500Y211953D02*
D03*
X416500Y215000D02*
D03*
X554000Y205000D02*
D03*
X561000Y207500D02*
D03*
X554686Y173936D02*
D03*
X554000Y175500D02*
D03*
Y182500D02*
D03*
Y181000D02*
D03*
X551000Y184087D02*
D03*
Y178000D02*
D03*
Y180000D02*
D03*
X531000Y176500D02*
D03*
Y186000D02*
D03*
X553907Y202907D02*
D03*
X551272Y200272D02*
D03*
X733000Y389000D02*
D03*
X378000Y360694D02*
D03*
X394061Y75439D02*
D03*
Y76939D02*
D03*
X403000Y100000D02*
D03*
Y101500D02*
D03*
X397000Y159500D02*
D03*
Y161000D02*
D03*
X261000Y57500D02*
D03*
X384500Y209000D02*
D03*
Y229500D02*
D03*
X390728Y210228D02*
D03*
X389500Y218500D02*
D03*
X612374Y250600D02*
D03*
X410925Y218177D02*
D03*
X388500Y204000D02*
D03*
X384500Y202500D02*
D03*
X390000Y205500D02*
D03*
X391500Y207000D02*
D03*
X392000Y199500D02*
D03*
X389055Y196055D02*
D03*
X411295Y199205D02*
D03*
X623000Y140500D02*
D03*
D78*
X635250Y294250D02*
D03*
X709775Y350775D02*
D03*
X726500Y351000D02*
D03*
X719500D02*
D03*
M02*
