G04*
G04 #@! TF.GenerationSoftware,Altium Limited,Altium Designer,22.1.2 (22)*
G04*
G04 Layer_Physical_Order=1*
G04 Layer_Color=255*
%FSLAX25Y25*%
%MOIN*%
G70*
G04*
G04 #@! TF.SameCoordinates,2E2365BE-A05A-434A-80F0-4BE633B458EC*
G04*
G04*
G04 #@! TF.FilePolarity,Positive*
G04*
G01*
G75*
%ADD10C,0.00787*%
%ADD11C,0.00500*%
%ADD12C,0.00394*%
%ADD13C,0.01000*%
%ADD14C,0.00197*%
%ADD15R,0.04528X0.04528*%
%ADD16R,0.03386X0.03858*%
%ADD17R,0.04488X0.00787*%
%ADD18R,0.03150X0.05906*%
%ADD19R,0.03150X0.05512*%
%ADD20R,0.05118X0.05906*%
%ADD21R,0.05906X0.05906*%
%ADD22R,0.05709X0.03937*%
%ADD23R,0.03937X0.06102*%
%ADD24R,0.02756X0.06890*%
%ADD25R,0.03150X0.03150*%
%ADD26R,0.00984X0.01968*%
%ADD27R,0.01772X0.01968*%
%ADD28R,0.20000X0.10984*%
%ADD29C,0.70000*%
G04:AMPARAMS|DCode=30|XSize=49.61mil|YSize=38.98mil|CornerRadius=9.74mil|HoleSize=0mil|Usage=FLASHONLY|Rotation=0.000|XOffset=0mil|YOffset=0mil|HoleType=Round|Shape=RoundedRectangle|*
%AMROUNDEDRECTD30*
21,1,0.04961,0.01949,0,0,0.0*
21,1,0.03012,0.03898,0,0,0.0*
1,1,0.01949,0.01506,-0.00974*
1,1,0.01949,-0.01506,-0.00974*
1,1,0.01949,-0.01506,0.00974*
1,1,0.01949,0.01506,0.00974*
%
%ADD30ROUNDEDRECTD30*%
G04:AMPARAMS|DCode=31|XSize=49.61mil|YSize=23.23mil|CornerRadius=5.81mil|HoleSize=0mil|Usage=FLASHONLY|Rotation=0.000|XOffset=0mil|YOffset=0mil|HoleType=Round|Shape=RoundedRectangle|*
%AMROUNDEDRECTD31*
21,1,0.04961,0.01161,0,0,0.0*
21,1,0.03799,0.02323,0,0,0.0*
1,1,0.01161,0.01900,-0.00581*
1,1,0.01161,-0.01900,-0.00581*
1,1,0.01161,-0.01900,0.00581*
1,1,0.01161,0.01900,0.00581*
%
%ADD31ROUNDEDRECTD31*%
%ADD32R,0.04331X0.05906*%
%ADD65R,0.05394X0.05394*%
%ADD66C,0.05394*%
%ADD67R,0.05394X0.05394*%
%ADD68C,0.12795*%
%ADD69C,0.09744*%
%ADD70R,0.05819X0.05819*%
%ADD71C,0.05819*%
%ADD72R,0.06024X0.06024*%
%ADD73C,0.06024*%
%ADD74C,0.05898*%
%ADD75R,0.05898X0.05898*%
%ADD76C,0.15000*%
%ADD77C,0.01000*%
%ADD78C,0.05000*%
G36*
X681000Y289000D02*
Y270366D01*
X644047D01*
X643435Y270112D01*
X636197Y262875D01*
X634672D01*
Y261366D01*
X624190D01*
Y263064D01*
X622492D01*
Y270748D01*
X622238Y271360D01*
X621162Y272436D01*
X622405Y275436D01*
X626190D01*
Y280564D01*
X623555D01*
X622287Y280564D01*
X618738Y284112D01*
X618126Y284366D01*
X613932D01*
X613320Y284112D01*
X609382Y280174D01*
X608488Y279280D01*
X608234Y278668D01*
Y182253D01*
X608488Y181641D01*
X611288Y178840D01*
X611900Y178587D01*
X612795D01*
X614143Y177064D01*
X614076Y174345D01*
X613936Y174040D01*
X612760Y173626D01*
X612148Y173372D01*
X612138Y173362D01*
X609888Y171112D01*
X609634Y170500D01*
Y168696D01*
Y156709D01*
X609634Y155000D01*
X609700Y154841D01*
Y154669D01*
X609822Y154547D01*
X609888Y154388D01*
X610047Y154322D01*
X610169Y154200D01*
X610341Y154200D01*
X610500Y154134D01*
X610659Y154200D01*
X610831D01*
X610953Y154322D01*
X611112Y154388D01*
X611178Y154547D01*
X611300Y154669D01*
X611300Y154841D01*
X611366Y155000D01*
Y156692D01*
Y168792D01*
X611366Y169703D01*
X611378Y170143D01*
X611439Y170214D01*
X612608Y170788D01*
X615270Y171202D01*
Y171202D01*
X615427Y171226D01*
X617116Y170636D01*
X617971Y167530D01*
X614888Y164447D01*
X614634Y163835D01*
Y152000D01*
X614888Y151388D01*
X615888Y150388D01*
X616165Y150273D01*
Y148000D01*
X616419Y147388D01*
X618419Y145388D01*
X619031Y145134D01*
X637172D01*
Y144125D01*
X637681D01*
Y135529D01*
X636220Y132875D01*
X636158Y132606D01*
X634264Y131866D01*
X629316D01*
X629316Y133564D01*
X625134Y133564D01*
X624450Y134054D01*
X624105Y134301D01*
X623866Y136430D01*
X623866Y140500D01*
X623800Y140659D01*
Y140831D01*
X623678Y140953D01*
X623612Y141112D01*
X623453Y141178D01*
X623331Y141300D01*
X623159Y141300D01*
X623000Y141366D01*
X622841Y141300D01*
X622669D01*
X622547Y141178D01*
X622388Y141112D01*
X622322Y140953D01*
X622200Y140831D01*
X622200Y140659D01*
X622134Y140500D01*
Y139858D01*
Y135706D01*
X621054Y134589D01*
X620064Y133564D01*
X619134Y133564D01*
X616161Y133564D01*
X609412Y140312D01*
X609253Y140378D01*
X609131Y140500D01*
X608959Y140500D01*
X608800Y140566D01*
X608641Y140500D01*
X608469D01*
X608347Y140378D01*
X608188Y140312D01*
X608122Y140153D01*
X608000Y140031D01*
X608000Y139859D01*
X607934Y139700D01*
X608000Y139541D01*
Y139369D01*
X608122Y139247D01*
X608188Y139088D01*
X614936Y132339D01*
X614936Y131071D01*
Y128436D01*
X619134D01*
X620064Y128436D01*
X622134Y126294D01*
Y117859D01*
X619510Y115234D01*
X619510D01*
X619169Y114894D01*
X619169Y114894D01*
X619049Y114773D01*
X619049D01*
X618839Y114564D01*
X618653Y114564D01*
X617571Y114564D01*
X614936D01*
Y109436D01*
X620064D01*
Y111682D01*
X620659Y112318D01*
Y112318D01*
X620891Y112565D01*
X621188Y112742D01*
X624188Y111040D01*
Y109436D01*
X629316D01*
Y114564D01*
X627618D01*
Y123917D01*
Y124748D01*
X627364Y125360D01*
X627288Y125436D01*
X628531Y128436D01*
X629316D01*
X629316Y130134D01*
X634264D01*
X636158Y129394D01*
X636220Y129125D01*
X637681Y126471D01*
Y123489D01*
X637935Y122877D01*
X644489Y116322D01*
X643415Y113729D01*
X641469D01*
X640507Y113729D01*
X637484D01*
X637484Y110495D01*
X630158Y103170D01*
X629388Y102400D01*
X629134Y101787D01*
X629134Y101500D01*
X629200Y101341D01*
X629200Y101169D01*
X629322Y101047D01*
X629388Y100888D01*
X629547Y100822D01*
X629669Y100700D01*
X629841D01*
X630000Y100634D01*
X630159Y100700D01*
X630331D01*
X630453Y100822D01*
X630612Y100888D01*
X630678Y101047D01*
X630800Y101169D01*
X630819Y101381D01*
X631390Y101953D01*
X638708Y109271D01*
X639976Y109271D01*
X641469Y109271D01*
X643507D01*
X644469Y109271D01*
X647493D01*
Y109399D01*
X650265Y110547D01*
X653634Y107178D01*
Y97000D01*
X621500D01*
X596000Y125500D01*
Y134500D01*
Y289000D01*
X598500Y290500D01*
X614500Y306500D01*
X663500D01*
X681000Y289000D01*
D02*
G37*
G36*
X664634Y265800D02*
Y265147D01*
Y255773D01*
X663035D01*
Y249267D01*
X667006Y249267D01*
X667165Y249201D01*
X672074D01*
X676134Y245141D01*
Y244707D01*
Y212693D01*
Y212259D01*
X675817Y211942D01*
X665753Y201877D01*
X664888Y201012D01*
X664822Y200853D01*
X664700Y200731D01*
Y200559D01*
X664634Y200400D01*
X664700Y200241D01*
Y200069D01*
X664684Y200003D01*
X664035Y197273D01*
X664035D01*
Y190767D01*
X665634D01*
Y182159D01*
X663641Y180166D01*
X649766D01*
X647016Y180771D01*
Y184888D01*
X647016Y184888D01*
Y185229D01*
X646760Y185260D01*
X645636Y186889D01*
X645333Y187191D01*
X644612Y187912D01*
X644000Y188166D01*
X644000Y188166D01*
X643672Y188166D01*
X637500D01*
X636888Y187912D01*
X636866Y187891D01*
X633866Y189133D01*
Y197567D01*
X634304Y197925D01*
X637070Y198323D01*
X637672Y197786D01*
Y197625D01*
X640578D01*
X641422Y197625D01*
X643578D01*
X644422Y197625D01*
X647328D01*
Y201375D01*
X644422D01*
X643578Y201375D01*
X641422D01*
X640578Y201375D01*
X638897Y201375D01*
X638160Y202112D01*
X637547Y202366D01*
X637329D01*
Y202366D01*
X635000Y202366D01*
X634144Y202357D01*
X633598Y202416D01*
Y202416D01*
X632749Y202508D01*
X631732Y202753D01*
X631484Y202863D01*
X630037Y204310D01*
X625366Y208981D01*
X625366Y214936D01*
X627064Y214936D01*
Y220064D01*
X621936D01*
Y214936D01*
X623634Y214936D01*
Y209766D01*
X623634Y208623D01*
X623888Y208010D01*
X628594Y203304D01*
X627155Y200500D01*
X625628Y200879D01*
X624980Y201075D01*
X624837D01*
X624837Y201075D01*
X622906D01*
Y198500D01*
X621906D01*
Y201075D01*
X619831D01*
X617366Y202367D01*
Y214936D01*
X617812D01*
Y220064D01*
X617812D01*
X618785Y222661D01*
X627612Y231488D01*
X627866Y232100D01*
Y255126D01*
X627612Y255738D01*
X626717Y256634D01*
X627959Y259634D01*
X634672D01*
Y259125D01*
X637578D01*
X638422Y259125D01*
X640578D01*
X641422Y259125D01*
X644328D01*
Y262875D01*
X642889D01*
X641647Y265875D01*
X644406Y268634D01*
X663190D01*
X664634Y265800D01*
D02*
G37*
G36*
X620760Y270389D02*
Y263064D01*
X619062D01*
Y257936D01*
X622965D01*
X626134Y254767D01*
Y243010D01*
X625822Y242696D01*
X625772Y242682D01*
X623005Y242229D01*
X620153Y242229D01*
X619019Y242229D01*
X617634Y242666D01*
X617146Y242821D01*
X617118Y242837D01*
X616366Y243366D01*
X616366Y244000D01*
X616300Y244159D01*
Y244331D01*
X616178Y244453D01*
X616112Y244612D01*
X615953Y244678D01*
X615831Y244800D01*
X615659D01*
X615500Y244866D01*
X615341Y244800D01*
X615169D01*
X615047Y244678D01*
X614888Y244612D01*
X614797Y244428D01*
X614700Y244331D01*
X614452Y243803D01*
X612995Y242229D01*
X612995D01*
X612995Y239526D01*
Y237771D01*
X616019D01*
X616981Y237771D01*
X619019D01*
X619981Y237771D01*
X621483D01*
X623005Y237771D01*
X623005Y237771D01*
X624379Y238021D01*
X625999Y235692D01*
X626134Y235362D01*
Y232459D01*
X615114Y221439D01*
X613212Y220363D01*
X611398Y220386D01*
X609966Y220744D01*
Y247660D01*
X611255Y248988D01*
X612374Y249734D01*
X612533Y249800D01*
X612705Y249800D01*
X612827Y249922D01*
X612986Y249988D01*
X613052Y250147D01*
X613174Y250269D01*
X613174Y250441D01*
X613240Y250600D01*
X613240Y250600D01*
X613240Y252579D01*
Y257936D01*
X614938D01*
Y263064D01*
X609966D01*
Y273200D01*
X611810Y275436D01*
X615713D01*
X620760Y270389D01*
D02*
G37*
G36*
X681000Y262342D02*
X679200Y260542D01*
Y248767D01*
X676200Y247525D01*
X673045Y250679D01*
X672433Y250933D01*
X667965D01*
X667965Y252039D01*
Y255773D01*
X666366D01*
Y265147D01*
Y265800D01*
X667810Y268634D01*
X681000D01*
Y262342D01*
D02*
G37*
G36*
X615634Y214815D02*
Y200375D01*
X614625D01*
Y196625D01*
X615634D01*
Y194500D01*
X615888Y193888D01*
X619334Y190441D01*
Y184562D01*
X618148Y181807D01*
X615136D01*
X614160Y181403D01*
X610990Y181588D01*
X609966Y182612D01*
Y214256D01*
X612684Y214936D01*
X615634Y214815D01*
D02*
G37*
G36*
X628000Y197500D02*
X628121D01*
X629000Y198379D01*
X631535Y197257D01*
X632134Y196891D01*
Y173936D01*
X631916Y173428D01*
X631586Y172947D01*
X627939Y172651D01*
X627211Y173340D01*
X626932Y174015D01*
X626258Y174294D01*
X624761Y174294D01*
X623706Y176121D01*
X624761Y177949D01*
X626258D01*
X627468Y178450D01*
X627969Y179659D01*
Y179740D01*
X624358D01*
Y180240D01*
X623858D01*
Y182532D01*
X623272D01*
Y193633D01*
X624980Y195925D01*
X627000Y197280D01*
Y199000D01*
X628000D01*
Y197500D01*
D02*
G37*
G36*
X632134Y164667D02*
Y152859D01*
X628697Y149422D01*
X625699Y149502D01*
X625698Y152365D01*
Y154934D01*
X623884Y157054D01*
X623803Y157805D01*
Y160578D01*
X629134Y165910D01*
X632134Y164667D01*
D02*
G37*
G36*
X638901Y150875D02*
X637658Y147875D01*
X637172D01*
Y146866D01*
X632833D01*
X631591Y149866D01*
X633612Y151888D01*
X633622Y151911D01*
X635678Y152747D01*
X636866Y152910D01*
X638901Y150875D01*
D02*
G37*
G36*
X645939Y143789D02*
X648634Y141094D01*
Y133456D01*
X645875Y132875D01*
X645634Y132875D01*
X642969D01*
X642125Y132875D01*
X639413Y133570D01*
Y141750D01*
X640922Y144125D01*
X643078D01*
X645939Y143789D01*
D02*
G37*
G36*
X681000Y226441D02*
Y122500D01*
X668012Y109512D01*
X650675Y126850D01*
X650366Y127159D01*
Y129065D01*
X650582Y129570D01*
X651998Y131636D01*
X652157Y131702D01*
X652330D01*
X652451Y131824D01*
X652610Y131889D01*
X652612Y131891D01*
X652678Y132050D01*
X652798Y132170D01*
X652798Y132340D01*
X652866Y132503D01*
X652866Y132504D01*
X652866Y133083D01*
X652866Y133083D01*
X652866Y134480D01*
Y149275D01*
Y150121D01*
X652612Y150734D01*
X650222Y153124D01*
X645878Y157468D01*
Y160079D01*
X646845Y162252D01*
X647005Y162271D01*
X647005Y162612D01*
X647005Y162612D01*
Y166729D01*
X643019D01*
Y166729D01*
X642629D01*
X639866Y169267D01*
Y175748D01*
X642829Y178434D01*
X664000D01*
X664612Y178688D01*
X667112Y181188D01*
X667366Y181800D01*
Y182627D01*
Y190767D01*
X668965D01*
Y197273D01*
X668965D01*
X667292Y199579D01*
X667112Y200012D01*
X667014Y200613D01*
X667566Y201241D01*
X677045Y210721D01*
X677612Y211288D01*
X677866Y211900D01*
Y212767D01*
Y224927D01*
X680866Y226531D01*
X681000Y226441D01*
D02*
G37*
G36*
X646594Y126958D02*
X648888Y126188D01*
X649490Y125585D01*
X666788Y108288D01*
X658366Y99866D01*
X655366Y101109D01*
Y107536D01*
X655112Y108149D01*
X639413Y123848D01*
Y125424D01*
X642413Y126945D01*
X643134Y126417D01*
X643134Y125500D01*
X643388Y124888D01*
X644563Y123712D01*
X658193Y110082D01*
X659388Y108888D01*
X659547Y108822D01*
X659669Y108700D01*
X659841Y108700D01*
X660000Y108634D01*
X660159Y108700D01*
X660331D01*
X660453Y108822D01*
X660612Y108888D01*
X660678Y109047D01*
X660800Y109169D01*
X660800Y109341D01*
X660866Y109500D01*
X660800Y109659D01*
Y109831D01*
X660678Y109953D01*
X660612Y110112D01*
X659395Y111329D01*
X646667Y124058D01*
X646579Y126960D01*
X646594Y126958D01*
D02*
G37*
%LPC*%
G36*
X636410Y297050D02*
X634090D01*
X632450Y295410D01*
Y293090D01*
X633578Y291962D01*
X634090Y291450D01*
X634200Y291366D01*
X634634Y291032D01*
Y283144D01*
Y282421D01*
X633667Y280248D01*
X633507Y280229D01*
X633507Y279888D01*
X633507Y279888D01*
Y275771D01*
X636531D01*
X637493Y275771D01*
X639531D01*
X640493Y275771D01*
X643516D01*
Y280229D01*
X640493D01*
X639310Y280229D01*
X637405Y281868D01*
X636366Y282762D01*
Y291394D01*
X636410Y291450D01*
X637153Y292193D01*
X638050Y293090D01*
Y295410D01*
X636410Y297050D01*
D02*
G37*
G36*
X641519Y242729D02*
X639481D01*
X638519Y242729D01*
X635495D01*
X635495Y241366D01*
X632000Y241366D01*
X631388Y241112D01*
X631134Y240500D01*
X631388Y239888D01*
X632000Y239634D01*
X635495Y239634D01*
X635495Y238271D01*
X638519D01*
X639481Y238271D01*
X641519D01*
X642481Y238271D01*
X645505D01*
X645505Y239634D01*
X649500Y239634D01*
X649659Y239700D01*
X649831D01*
X649953Y239822D01*
X650112Y239888D01*
X650178Y240047D01*
X650300Y240169D01*
X650300Y240169D01*
X650300Y240341D01*
X650366Y240500D01*
X650300Y240659D01*
X650300Y240831D01*
X650300Y240831D01*
X650178Y240953D01*
X650112Y241112D01*
X649953Y241178D01*
X649831Y241300D01*
X649659Y241300D01*
X649500Y241366D01*
X645505D01*
X645505Y242729D01*
X642481D01*
X641519Y242729D01*
D02*
G37*
G36*
X648005Y219229D02*
X647128D01*
D01*
X644027Y219229D01*
X641981D01*
X641019Y219229D01*
X637995D01*
X637995Y217866D01*
X635500Y217866D01*
X635341Y217800D01*
X635169D01*
X635047Y217678D01*
X634888Y217612D01*
X634822Y217453D01*
X634700Y217331D01*
X634700Y217331D01*
X634700Y217159D01*
X634634Y217000D01*
X634700Y216841D01*
X634700Y216669D01*
X634700Y216669D01*
X634822Y216547D01*
X634888Y216388D01*
X635047Y216322D01*
X635169Y216200D01*
X635341Y216200D01*
X635500Y216134D01*
X637995D01*
X637995Y214771D01*
X641019D01*
X641981Y214771D01*
X644019D01*
X644981Y214771D01*
X648005Y214771D01*
X648005Y215501D01*
X648005D01*
Y215501D01*
X648009Y215537D01*
X650550Y216634D01*
X653000Y216634D01*
X653159Y216700D01*
X653331D01*
X653453Y216822D01*
X653612Y216888D01*
X653678Y217047D01*
X653800Y217169D01*
X653800Y217169D01*
X653800Y217341D01*
X653866Y217500D01*
X653800Y217659D01*
X653800Y217831D01*
X653800Y217831D01*
X653678Y217953D01*
X653612Y218112D01*
X653453Y218178D01*
X653331Y218300D01*
X653159Y218300D01*
X653000Y218366D01*
X649670D01*
X648142Y218865D01*
X648005Y219229D01*
D02*
G37*
G36*
X667965Y220733D02*
X663035D01*
Y214228D01*
X667965D01*
Y220733D01*
D02*
G37*
G36*
X626258Y182532D02*
X624858D01*
Y180740D01*
X627969D01*
Y180821D01*
X627468Y182031D01*
X626258Y182532D01*
D02*
G37*
G36*
X668965Y162233D02*
X664035D01*
Y155728D01*
X668965D01*
Y162233D01*
D02*
G37*
%LPD*%
D10*
X629953Y348500D02*
G03*
X629953Y348500I-394J0D01*
G01*
X728433Y335610D02*
G03*
X728433Y335610I-394J0D01*
G01*
X332894Y234059D02*
G03*
X332894Y234059I-394J0D01*
G01*
X275335Y22500D02*
G03*
X275335Y22500I-394J0D01*
G01*
X298394Y306559D02*
G03*
X298394Y306559I-394J0D01*
G01*
X366453Y374000D02*
G03*
X366453Y374000I-394J0D01*
G01*
X331894Y248941D02*
G03*
X331894Y248941I-394J0D01*
G01*
X597335Y49000D02*
G03*
X597335Y49000I-394J0D01*
G01*
X275335Y47000D02*
G03*
X275335Y47000I-394J0D01*
G01*
X374835Y348500D02*
G03*
X374835Y348500I-394J0D01*
G01*
X374335Y373500D02*
G03*
X374335Y373500I-394J0D01*
G01*
X679312Y97303D02*
G03*
X679312Y97303I-394J0D01*
G01*
X552453Y374500D02*
G03*
X552453Y374500I-394J0D01*
G01*
X617425Y147153D02*
G03*
X617425Y147153I-394J0D01*
G01*
X562835Y372500D02*
G03*
X562835Y372500I-394J0D01*
G01*
X714663Y192967D02*
G03*
X714663Y192967I-557J0D01*
G01*
X286453Y349000D02*
G03*
X286453Y349000I-394J0D01*
G01*
X258268Y34000D02*
G03*
X258268Y34000I-394J0D01*
G01*
X590453Y50000D02*
G03*
X590453Y50000I-394J0D01*
G01*
X249394Y264441D02*
G03*
X249394Y264441I-394J0D01*
G01*
X475453Y49500D02*
G03*
X475453Y49500I-394J0D01*
G01*
X597835Y24000D02*
G03*
X597835Y24000I-394J0D01*
G01*
X612232Y179650D02*
G03*
X612232Y179650I-394J0D01*
G01*
X478835Y50000D02*
G03*
X478835Y50000I-394J0D01*
G01*
X666894Y153232D02*
G03*
X666894Y153232I-394J0D01*
G01*
X665894Y211732D02*
G03*
X665894Y211732I-394J0D01*
G01*
X591953Y24000D02*
G03*
X591953Y24000I-394J0D01*
G01*
X475453Y23500D02*
G03*
X475453Y23500I-394J0D01*
G01*
X250394Y74941D02*
G03*
X250394Y74941I-394J0D01*
G01*
X299835Y348500D02*
G03*
X299835Y348500I-394J0D01*
G01*
X250394Y131441D02*
G03*
X250394Y131441I-394J0D01*
G01*
X325020Y138500D02*
G03*
X325020Y138500I-394J0D01*
G01*
D11*
X530000Y183000D02*
X530063Y182937D01*
X535543D01*
X535606Y182874D01*
X549662Y185939D02*
X551061D01*
X546037Y184486D02*
X548994D01*
X549041Y184439D01*
X549615Y185986D02*
X549662Y185939D01*
X549041Y184439D02*
X550993D01*
X546037Y185986D02*
X549615D01*
X392424Y127934D02*
X396921Y132432D01*
X397361Y132871D02*
X406115D01*
X396921Y132432D02*
X396921D01*
X390656Y129702D02*
X392424Y127934D01*
X392424D01*
X390656Y129702D02*
Y129702D01*
X397982Y131371D02*
X405848D01*
X389156Y129081D02*
X391802Y126434D01*
X393484Y126874D02*
X393484D01*
X397982Y131371D01*
X396921Y132432D02*
X397361Y132871D01*
X393045Y126434D02*
X393484Y126874D01*
X391802Y126434D02*
X393045D01*
X406500Y130500D02*
Y130635D01*
X405848Y131371D02*
X406141Y131078D01*
Y130994D02*
Y131078D01*
X406804Y133561D02*
X406939D01*
X406115Y132871D02*
X406804Y133561D01*
X406141Y130994D02*
X406500Y130635D01*
X389775Y189793D02*
X406463D01*
X390397Y188293D02*
X406463D01*
Y189793D02*
X406500Y189831D01*
X372982Y173000D02*
X389775Y189793D01*
X356000Y173000D02*
X372982D01*
X406463Y188293D02*
X406500Y188256D01*
X373603Y171500D02*
X390397Y188293D01*
X356000Y171500D02*
X373603D01*
X546000Y186024D02*
X546037Y185986D01*
X546000Y184449D02*
X546037Y184486D01*
X551768Y181000D02*
X554000D01*
X546037Y181337D02*
X551431D01*
X546000Y181299D02*
X546037Y181337D01*
X551431D02*
X551768Y181000D01*
X552389Y182500D02*
X554000D01*
X546037Y182837D02*
X552052D01*
X546000Y182874D02*
X546037Y182837D01*
X552052D02*
X552389Y182500D01*
X546037Y179687D02*
X551000D01*
X546037Y178187D02*
X551000D01*
X546000Y179724D02*
X546037Y179687D01*
X546000Y178150D02*
X546037Y178187D01*
X550995Y173936D02*
X554686D01*
X551616Y175436D02*
X553936D01*
X554000Y175500D01*
X546037Y176537D02*
X550514D01*
X546000Y176575D02*
X546037Y176537D01*
X550514D02*
X551616Y175436D01*
X546037Y175037D02*
X549893D01*
X546000Y175000D02*
X546037Y175037D01*
X549893D02*
X550995Y173936D01*
X531000Y176500D02*
X531037Y176537D01*
X531000Y186000D02*
X531012Y186012D01*
X531037Y176537D02*
X535569D01*
X531012Y186012D02*
X535594D01*
X535606Y186024D01*
X396069Y186644D02*
X396106Y186681D01*
X390879Y186644D02*
X396069D01*
X355000Y150765D02*
X390879Y186644D01*
X355000Y110550D02*
Y150765D01*
Y110550D02*
X367275Y98275D01*
X367763Y97788D01*
X368202Y97348D01*
X369859D01*
X376101Y103591D01*
X377869Y101823D01*
X364348Y88302D02*
X377869Y101823D01*
X364348Y87060D02*
Y88302D01*
Y87060D02*
X366995Y84413D01*
X368237D01*
X381758Y97934D01*
X383526Y96166D01*
X370005Y82646D02*
X383526Y96166D01*
X370005Y81403D02*
Y82646D01*
Y81403D02*
X372652Y78756D01*
X373894D01*
X387415Y92277D01*
X389183Y90510D01*
X382940Y84267D02*
X389183Y90510D01*
X382940Y82610D02*
Y84267D01*
Y82610D02*
X386038Y79513D01*
X386525Y79025D01*
X391007Y74543D01*
X392664D01*
X393561Y75439D01*
X394061D01*
X396069Y185144D02*
X396106Y185106D01*
X391500Y185144D02*
X396069D01*
X356500Y150144D02*
X391500Y185144D01*
X356500Y111172D02*
Y150144D01*
Y111172D02*
X368823Y98848D01*
X369237D01*
X375480Y105091D01*
X376723D01*
X379369Y102445D01*
Y101202D02*
Y102445D01*
X365848Y87681D02*
X379369Y101202D01*
X365848Y87681D02*
X367616Y85913D01*
X381137Y99434D01*
X382380D01*
X385026Y96788D01*
Y95545D02*
Y96788D01*
X371505Y82024D02*
X385026Y95545D01*
X371505Y82024D02*
X373273Y80256D01*
X386794Y93777D01*
X388036D01*
X390683Y91131D01*
Y89888D02*
Y91131D01*
X384440Y83646D02*
X390683Y89888D01*
X384440Y83231D02*
Y83646D01*
Y83231D02*
X391629Y76043D01*
X392043D01*
X392939Y76939D01*
X394061D01*
X396069Y183494D02*
X396106Y183531D01*
X391265Y183494D02*
X396069D01*
X376500Y168729D02*
X391265Y183494D01*
X376500Y124672D02*
Y168729D01*
Y124672D02*
X377672Y123501D01*
X386500D01*
Y121001D02*
Y123501D01*
X367379Y121001D02*
X386500D01*
X366500Y120122D02*
X367379Y121001D01*
X366500Y116380D02*
Y120122D01*
Y116380D02*
X367379Y115501D01*
X386500D01*
Y113001D02*
Y115501D01*
X367379Y113001D02*
X386500D01*
X366500Y112122D02*
X367379Y113001D01*
X366500Y108380D02*
Y112122D01*
Y108380D02*
X367379Y107501D01*
X385499D01*
X393000Y100000D01*
X403000D01*
X396069Y181994D02*
X396106Y181957D01*
X391886Y181994D02*
X396069D01*
X378000Y168108D02*
X391886Y181994D01*
X378000Y125294D02*
Y168108D01*
Y125294D02*
X378293Y125001D01*
X387121D01*
X388000Y124122D01*
Y120380D02*
Y124122D01*
X387121Y119501D02*
X388000Y120380D01*
X368000Y119501D02*
X387121D01*
X368000Y117001D02*
Y119501D01*
Y117001D02*
X387121D01*
X388000Y116122D01*
Y112380D02*
Y116122D01*
X387121Y111501D02*
X388000Y112380D01*
X368000Y111501D02*
X387121D01*
X368000Y109001D02*
Y111501D01*
Y109001D02*
X386120D01*
X388250Y106871D01*
X393621Y101500D01*
X403000D01*
X396069Y180344D02*
X396106Y180382D01*
X391651Y180344D02*
X396069D01*
X389000Y177694D02*
X391651Y180344D01*
X389000Y143379D02*
Y177694D01*
Y143379D02*
X389189Y143189D01*
X389742Y142637D01*
Y142223D02*
Y142637D01*
X383499Y135980D02*
X389742Y142223D01*
X383499Y134737D02*
Y135980D01*
Y134737D02*
X386146Y132091D01*
X387388D01*
X400909Y145612D01*
X402677Y143844D01*
X389156Y130323D02*
X402677Y143844D01*
X389156Y129081D02*
Y130323D01*
X396069Y178844D02*
X396106Y178807D01*
X392272Y178844D02*
X396069D01*
X390500Y177073D02*
X392272Y178844D01*
X390500Y144000D02*
Y177073D01*
Y144000D02*
X391242Y143258D01*
Y141601D02*
Y143258D01*
X384999Y135359D02*
X391242Y141601D01*
X384999Y135359D02*
X386767Y133591D01*
X400288Y147112D01*
X401530D01*
X404177Y144465D01*
Y143223D02*
Y144465D01*
X390656Y129702D02*
X404177Y143223D01*
X396069Y177195D02*
X396106Y177232D01*
X392672Y177195D02*
X396069D01*
X391500Y176023D02*
X392672Y177195D01*
X391500Y163129D02*
Y176023D01*
Y163129D02*
X395129Y159500D01*
X397000D01*
X396069Y175695D02*
X396106Y175657D01*
X393293Y175695D02*
X396069D01*
X393000Y175402D02*
X393293Y175695D01*
X393000Y163750D02*
Y175402D01*
Y163750D02*
X395750Y161000D01*
X397000D01*
X535569Y176537D02*
X535606Y176575D01*
X723910Y170500D02*
G03*
X723910Y170500I-6909J0D01*
G01*
X615937Y215039D02*
X623811D01*
X615937Y219961D02*
X623811D01*
Y215039D02*
Y219961D01*
X615937Y215039D02*
Y219961D01*
X639732Y215150D02*
Y218850D01*
X646268Y215150D02*
Y218850D01*
X639732D02*
X646268D01*
X639732Y215150D02*
X646268D01*
X614732Y238150D02*
Y241850D01*
X621268Y238150D02*
Y241850D01*
X614732D02*
X621268D01*
X614732Y238150D02*
X621268D01*
X637232Y238650D02*
Y242350D01*
X643768Y238650D02*
Y242350D01*
X637232D02*
X643768D01*
X637232Y238650D02*
X643768D01*
X738965Y340532D02*
Y385610D01*
X691917D02*
X738965D01*
X691917Y340532D02*
Y385610D01*
Y340532D02*
X738965D01*
X639220Y109650D02*
X645756D01*
X639220Y113350D02*
X645756D01*
Y109650D02*
Y113350D01*
X639220Y109650D02*
Y113350D01*
X687206Y104980D02*
X750710D01*
Y19980D02*
Y104980D01*
X687206Y19980D02*
X750710D01*
X687206D02*
Y104980D01*
X636350Y259425D02*
Y262575D01*
X642650Y259425D02*
Y262575D01*
X636350D02*
X642650D01*
X636350Y259425D02*
X642650D01*
X616047Y150106D02*
Y154043D01*
X625890D01*
Y150106D02*
Y154043D01*
X616047Y150106D02*
X625890D01*
X635244Y276150D02*
X641780D01*
X635244Y279850D02*
X641780D01*
Y276150D02*
Y279850D01*
X635244Y276150D02*
Y279850D01*
X638744Y181150D02*
X645280D01*
X638744Y184850D02*
X645280D01*
Y181150D02*
Y184850D01*
X638744Y181150D02*
Y184850D01*
X638732Y162650D02*
X645268D01*
X638732Y166350D02*
X645268D01*
Y162650D02*
Y166350D01*
X638732Y162650D02*
Y166350D01*
X638850Y144425D02*
Y147575D01*
X645150Y144425D02*
Y147575D01*
X638850D02*
X645150D01*
X638850Y144425D02*
X645150D01*
X637898Y129425D02*
Y132575D01*
X644197Y129425D02*
Y132575D01*
X637898D02*
X644197D01*
X637898Y129425D02*
X644197D01*
X684500Y204424D02*
Y287416D01*
X744500D01*
Y204424D02*
Y287416D01*
X684500Y204424D02*
X744500D01*
X618189Y109539D02*
Y114461D01*
X626063Y109539D02*
Y114461D01*
X618189D02*
X626063D01*
X618189Y109539D02*
X626063D01*
X705209Y158709D02*
Y182291D01*
Y158709D02*
X728791D01*
Y182291D01*
X705209D02*
X728791D01*
X618189Y128539D02*
Y133461D01*
X626063Y128539D02*
Y133461D01*
X618189D02*
X626063D01*
X618189Y128539D02*
X626063D01*
X617744Y170594D02*
Y182405D01*
Y170594D02*
X623256D01*
Y182405D01*
X617744D02*
X623256D01*
X616303Y196925D02*
Y200075D01*
X622602Y196925D02*
Y200075D01*
X616303D02*
X622602D01*
X616303Y196925D02*
X622602D01*
X613063Y258039D02*
Y262961D01*
X620937Y258039D02*
Y262961D01*
X613063D02*
X620937D01*
X613063Y258039D02*
X620937D01*
X659453Y164098D02*
Y188902D01*
X673547D01*
Y164098D02*
Y188902D01*
X659453Y164098D02*
X673547D01*
X658453Y222598D02*
Y247402D01*
X672547D01*
Y222598D02*
Y247402D01*
X658453Y222598D02*
X672547D01*
X615063Y275539D02*
Y280461D01*
X622937Y275539D02*
Y280461D01*
X615063D02*
X622937D01*
X615063Y275539D02*
X622937D01*
X639350Y197925D02*
Y201075D01*
X645650Y197925D02*
Y201075D01*
X639350D02*
X645650D01*
X639350Y197925D02*
X645650D01*
X247232Y55650D02*
X253768D01*
X247232Y59350D02*
X253768D01*
Y55650D02*
Y59350D01*
X247232Y55650D02*
Y59350D01*
X633988Y263559D02*
X645012D01*
Y258441D02*
Y263559D01*
X633988Y258441D02*
Y263559D01*
Y258441D02*
X645012D01*
X636488Y148559D02*
X647512D01*
Y143441D02*
Y148559D01*
X636488Y143441D02*
Y148559D01*
Y143441D02*
X647512D01*
X635535Y133559D02*
X646559D01*
Y128441D02*
Y133559D01*
X635535Y128441D02*
Y133559D01*
Y128441D02*
X646559D01*
X613941Y201059D02*
X624965D01*
Y195941D02*
Y201059D01*
X613941Y195941D02*
Y201059D01*
Y195941D02*
X624965D01*
X636988Y202059D02*
X648012D01*
Y196941D02*
Y202059D01*
X636988Y196941D02*
Y202059D01*
Y196941D02*
X648012D01*
D12*
X627000Y343500D02*
Y353500D01*
X507000Y343500D02*
X627000D01*
X507000D02*
Y353500D01*
X627000D01*
X407960Y173884D02*
Y238850D01*
X394646Y173884D02*
Y238848D01*
X337400Y171500D02*
Y231500D01*
X327600D02*
X337400D01*
X327600Y171500D02*
Y231500D01*
Y171500D02*
X337400D01*
X277500Y27400D02*
X337500D01*
X277500Y17600D02*
Y27400D01*
Y17600D02*
X337500D01*
Y27400D01*
X293000Y124000D02*
Y304000D01*
Y124000D02*
X313000D01*
Y304000D01*
X293000D02*
X313000D01*
X243500Y379000D02*
X363500D01*
X243500Y369000D02*
Y379000D01*
Y369000D02*
X363500D01*
Y379000D01*
X326500Y251500D02*
X336500D01*
X326500D02*
Y291500D01*
X336500D01*
Y251500D02*
Y291500D01*
X659500Y44100D02*
Y53900D01*
X599500Y44100D02*
X659500D01*
X599500D02*
Y53900D01*
X659500D01*
X337500Y42100D02*
Y51900D01*
X277500Y42100D02*
X337500D01*
X277500D02*
Y51900D01*
X337500D01*
X377000Y343500D02*
Y353500D01*
X497000D01*
Y343500D02*
Y353500D01*
X377000Y343500D02*
X497000D01*
X376500Y368500D02*
Y378500D01*
X496500D01*
Y368500D02*
Y378500D01*
X376500Y368500D02*
X496500D01*
X549500Y369500D02*
Y379500D01*
X509500Y369500D02*
X549500D01*
X509500D02*
Y379500D01*
X549500D01*
X547460Y173227D02*
Y238192D01*
X534146Y173227D02*
Y238191D01*
X625000Y367600D02*
Y377400D01*
X565000Y367600D02*
X625000D01*
X565000D02*
Y377400D01*
X625000D01*
X283500Y344000D02*
Y354000D01*
X243500Y344000D02*
X283500D01*
X243500D02*
Y354000D01*
X283500D01*
X245000Y39000D02*
X255000D01*
Y19000D02*
Y39000D01*
X245000Y19000D02*
X255000D01*
X245000D02*
Y39000D01*
X587500Y45000D02*
Y55000D01*
X547500Y45000D02*
X587500D01*
X547500D02*
Y55000D01*
X587500D01*
X244100Y327000D02*
X253900D01*
Y267000D02*
Y327000D01*
X244100Y267000D02*
X253900D01*
X244100D02*
Y327000D01*
X472500Y44500D02*
Y54500D01*
X352500Y44500D02*
X472500D01*
X352500D02*
Y54500D01*
X472500D01*
X660000Y19100D02*
Y28900D01*
X600000Y19100D02*
X660000D01*
X600000D02*
Y28900D01*
X660000D01*
X541000Y45100D02*
Y54900D01*
X481000Y45100D02*
X541000D01*
X481000D02*
Y54900D01*
X541000D01*
X479000Y19000D02*
Y29000D01*
X589000D01*
Y19000D02*
Y29000D01*
X479000Y19000D02*
X589000D01*
X479000D02*
Y29000D01*
X589000D01*
Y19000D02*
Y29000D01*
X472500Y18500D02*
Y28500D01*
X352500Y18500D02*
X472500D01*
X352500D02*
Y28500D01*
X472500D01*
X245000Y77500D02*
X255000D01*
X245000D02*
Y117500D01*
X255000D01*
Y77500D02*
Y117500D01*
X362000Y343600D02*
Y353400D01*
X302000Y343600D02*
X362000D01*
X302000D02*
Y353400D01*
X362000D01*
X245000Y134000D02*
X255000D01*
X245000D02*
Y254000D01*
X255000D01*
Y134000D02*
Y254000D01*
X327500Y133500D02*
X337500D01*
X327500D02*
Y153500D01*
X337500D01*
Y133500D02*
Y153500D01*
D13*
X418201Y229201D02*
X418500Y229500D01*
X406500Y229201D02*
X418201D01*
X705717Y342677D02*
Y346283D01*
X696500Y348000D02*
X704000D01*
X705717Y342677D02*
X706386Y342008D01*
X704000Y348000D02*
X705717Y346283D01*
X693000Y342894D02*
X694817Y344710D01*
Y346317D02*
X696500Y348000D01*
X694817Y344710D02*
Y346317D01*
X693000Y335500D02*
Y342894D01*
X386000Y337000D02*
X415000Y308000D01*
X738965Y343780D02*
Y373799D01*
X692016Y372421D02*
X737587D01*
X738965Y373799D01*
Y374980D01*
X737685Y342500D02*
X738965Y343780D01*
X737685Y337685D02*
Y342500D01*
X726500Y326500D02*
X737685Y337685D01*
X702000Y326500D02*
X726500D01*
X693000Y335500D02*
X702000Y326500D01*
X672433Y250067D02*
X677000Y245500D01*
X665500Y200400D02*
X677000Y211900D01*
Y245500D01*
X667165Y250067D02*
X672433D01*
X665500Y251732D02*
X667165Y250067D01*
X665500Y251732D02*
Y265800D01*
X644000Y126000D02*
Y131000D01*
Y125500D02*
Y126000D01*
X651998Y132502D02*
X652000Y132504D01*
Y150121D01*
X645012Y157109D02*
Y164500D01*
Y157109D02*
X652000Y150121D01*
X649500Y126800D02*
Y141453D01*
X641622Y149331D02*
X649500Y141453D01*
Y126800D02*
X692800Y83500D01*
X619000Y153650D02*
Y160000D01*
X526500Y196500D02*
X528673D01*
X530764Y198591D01*
X535575D01*
X528590Y200091D02*
X533862D01*
X535575Y198591D02*
X535606Y198622D01*
X533968Y200197D02*
X535606D01*
X533862Y200091D02*
X533968Y200197D01*
X530075Y222244D02*
X535606D01*
X503500Y238757D02*
Y353500D01*
X527350Y217520D02*
X535606D01*
X503500Y238757D02*
X527757Y214500D01*
X529061Y219561D02*
X529527Y219095D01*
X535606D01*
X529761Y222559D02*
X530075Y222244D01*
X527757Y214500D02*
X530500D01*
X527105Y217274D02*
X527350Y217520D01*
X615248Y220348D02*
X627000Y232100D01*
X638547Y129161D02*
Y145500D01*
X636709Y131000D02*
X638547Y129161D01*
X616500Y151000D02*
X617031D01*
X530500Y214500D02*
X530630Y214370D01*
X535606D01*
X528500Y212500D02*
X528795Y212795D01*
X535606D01*
X532055Y215945D02*
X535606D01*
X532000Y216000D02*
X532055Y215945D01*
X531183Y220744D02*
X531258Y220669D01*
X535606D01*
X531244Y223744D02*
X531319Y223819D01*
X531500Y229000D02*
X531862Y228638D01*
X531071Y208071D02*
X535606D01*
X531000Y208000D02*
X531071Y208071D01*
X528146Y209646D02*
X535606D01*
X528000Y209500D02*
X528146Y209646D01*
X531342Y211146D02*
X531417Y211221D01*
X535606D01*
X526500Y205000D02*
X526579Y204921D01*
X527272Y201772D02*
X535606D01*
X526500Y199000D02*
X527500D01*
X526778Y203346D02*
X535606D01*
X527500Y199000D02*
X528590Y200091D01*
X526474Y203042D02*
X526778Y203346D01*
X526447Y200947D02*
X527272Y201772D01*
X526579Y204921D02*
X535606D01*
X622906Y199000D02*
X627500D01*
X622937Y160937D02*
X630500Y168500D01*
Y170500D01*
X624358Y170642D02*
Y172760D01*
Y170642D02*
X627000Y168000D01*
X622937Y153650D02*
Y160937D01*
X617031Y161031D02*
X621939Y165939D01*
X617031Y153650D02*
Y161031D01*
X503500Y353500D02*
X524500Y374500D01*
X530732Y233268D02*
X535606D01*
X529500Y224500D02*
X530394Y225394D01*
X530531Y226969D02*
X535606D01*
X530394Y225394D02*
X535606D01*
X531193Y231693D02*
X535606D01*
X529500Y228000D02*
X530531Y226969D01*
X529500Y230000D02*
X531193Y231693D01*
X529500Y234500D02*
X530732Y233268D01*
X531319Y223819D02*
X535606D01*
X528004Y206496D02*
X535606D01*
X528000Y206500D02*
X528004Y206496D01*
X546000Y223819D02*
X550181D01*
X550189Y223811D01*
X550000Y225980D02*
Y226000D01*
X549414Y225394D02*
X550000Y225980D01*
X558324Y215945D02*
X559689Y217311D01*
X546000Y217520D02*
X557777D01*
X546000Y215945D02*
X558324D01*
X584500Y244243D02*
Y286500D01*
X557777Y217520D02*
X584500Y244243D01*
X547744Y209540D02*
X548187D01*
X548227Y209500D01*
X547638Y209646D02*
X547744Y209540D01*
X548227Y209500D02*
X554000D01*
X546000Y209646D02*
X547638D01*
X546000Y208071D02*
X546071Y208000D01*
X555500D01*
X546000Y211221D02*
X551350D01*
X551500Y211071D01*
X548984Y198516D02*
X551500Y196000D01*
X546000Y198622D02*
X546106Y198516D01*
X548984D01*
X546000Y203346D02*
X551346D01*
X546000Y190748D02*
X550752D01*
X551000Y190500D01*
X551496Y206496D02*
X551500Y206500D01*
X546000Y206496D02*
X551496D01*
X546000Y204921D02*
X553921D01*
X554000Y205000D01*
X530748Y190748D02*
X535606D01*
X345000Y387000D02*
X367000D01*
X374000Y380000D01*
X335000Y382500D02*
X365914D01*
X329341Y376841D02*
X335000Y382500D01*
X365914D02*
X370000Y378414D01*
X329341Y374841D02*
Y376841D01*
X328500Y374000D02*
X329341Y374841D01*
X696500Y202500D02*
X696672Y202672D01*
X748000D01*
X406500Y180382D02*
X410382D01*
X412705Y197705D02*
X413811Y198811D01*
X406500Y197705D02*
X412705D01*
X388575Y233925D02*
X396106D01*
X388500Y234000D02*
X388575Y233925D01*
X391500Y237000D02*
X391575Y237075D01*
X396106D01*
X614988Y240000D02*
X615500Y240512D01*
Y244000D01*
X406500Y196130D02*
X415387D01*
X415656Y196399D01*
X417879Y194500D02*
X417945D01*
X419980Y192980D02*
X420000Y193000D01*
X406500Y194555D02*
X417890D01*
X406500Y192980D02*
X419980D01*
X417890Y194555D02*
X417945Y194500D01*
X390630Y197630D02*
X390705Y197705D01*
X396106D01*
X389378Y211878D02*
X396106D01*
X389000Y211500D02*
X389378Y211878D01*
X637547Y201500D02*
X639547Y199500D01*
X635000Y201500D02*
X637547D01*
X645500Y152900D02*
X646900Y151500D01*
X648500D01*
X610500Y155000D02*
Y170500D01*
X608800Y139700D02*
X617500Y131000D01*
X644100Y152900D02*
X645500D01*
X388028Y216528D02*
X388102Y216602D01*
X387547Y213453D02*
X396106D01*
X375000Y201000D02*
X392621D01*
X387500Y213500D02*
X387547Y213453D01*
X388102Y216602D02*
X396106D01*
X392621Y201000D02*
X392661Y200961D01*
X394362D01*
X394468Y200854D01*
X535512Y228638D02*
X535606Y228543D01*
X531862Y228638D02*
X535512D01*
X630000Y101787D02*
X639476Y111264D01*
X630000Y101500D02*
Y101787D01*
X639476Y111264D02*
Y111500D01*
X610500Y170500D02*
X612760Y172760D01*
X616642D01*
X644000Y125500D02*
X660000Y109500D01*
X622406Y198500D02*
X622906Y199000D01*
X622406Y180240D02*
Y198500D01*
X384510Y192990D02*
X396096D01*
X396106Y192980D01*
X374500Y186000D02*
X384214D01*
X388055Y194555D02*
X396106D01*
X388000Y194500D02*
X388055Y194555D01*
X386650Y232350D02*
X396106D01*
X386500Y232500D02*
X386650Y232350D01*
X391500Y220000D02*
X391748Y219752D01*
X396106D01*
X621626Y260500D02*
X636047D01*
X636547Y261000D01*
Y262000D02*
X644047Y269500D01*
X619031Y146000D02*
X639047D01*
X621012Y240000D02*
X624000D01*
X625000Y239000D01*
X621626Y260500D02*
X627000Y255126D01*
Y232100D02*
Y255126D01*
X638988Y158012D02*
X644100Y152900D01*
X635500Y217000D02*
X639988D01*
X646012D02*
X646512Y217500D01*
X653000D01*
X665500Y200400D02*
X666500Y199400D01*
X632500Y240500D02*
X637488D01*
X632000D02*
X632500D01*
X643512D02*
X649500D01*
X624800Y126700D02*
X626752Y124748D01*
X412925Y205579D02*
X413000Y205504D01*
X406500Y205579D02*
X412925D01*
X290000Y217000D02*
Y271000D01*
X298000Y279000D01*
X406500Y221327D02*
X410827D01*
X411000Y221500D01*
X575500Y243000D02*
Y283000D01*
X553169Y220669D02*
X575500Y243000D01*
X546000Y220669D02*
X553169D01*
X546000Y226969D02*
X546106Y227075D01*
X548584D01*
X550000Y228491D02*
Y228500D01*
X548584Y227075D02*
X550000Y228491D01*
X546000Y225394D02*
X549414D01*
X619000Y149000D02*
Y150500D01*
X654500Y49000D02*
Y107536D01*
X638547Y123489D02*
X654500Y107536D01*
X638547Y123489D02*
Y129161D01*
X692800Y83500D02*
X717458D01*
X424772Y208728D02*
X425000Y208500D01*
X406500Y208728D02*
X424772D01*
X418252Y219752D02*
X418500Y220000D01*
X408244Y219752D02*
X418252D01*
X412425Y216602D02*
X412500Y216528D01*
X406500Y216602D02*
X412425D01*
X406500Y215028D02*
X416472D01*
X416500Y215000D01*
X406500Y200854D02*
X418146D01*
X418500Y200500D01*
X406500Y202429D02*
X416929D01*
X417000Y202500D01*
X415496Y204004D02*
X415500Y204000D01*
X406500Y204004D02*
X415496D01*
X410925Y207153D02*
X411000Y207228D01*
X406500Y207153D02*
X410925D01*
X406500Y210303D02*
X410925D01*
X411000Y210228D01*
X406500Y213453D02*
X414453D01*
X412425Y211878D02*
X412500Y211953D01*
X414453Y213453D02*
X414500Y213500D01*
X406500Y211878D02*
X412425D01*
X556630Y214370D02*
X562500Y208500D01*
Y50000D02*
Y208500D01*
X555705Y212795D02*
X561000Y207500D01*
X546000Y214370D02*
X556630D01*
X546000Y212795D02*
X555705D01*
X626752Y112000D02*
Y124748D01*
X546000Y201772D02*
X552772D01*
X553907Y202907D01*
X546000Y200197D02*
X551197D01*
X551272Y200272D01*
X635250Y294250D02*
X635500Y294000D01*
X635000Y294500D02*
X635250Y294250D01*
X697724Y334776D02*
Y342008D01*
Y334776D02*
X701500Y331000D01*
X702055Y334445D02*
X704000Y332500D01*
X702055Y334445D02*
Y342008D01*
X704000Y332500D02*
X724768D01*
X701500Y331000D02*
X725390D01*
X635500Y278000D02*
Y294000D01*
X709775Y350775D02*
X710518D01*
X711000Y354500D02*
X719133Y346367D01*
X579829Y284829D02*
X649500Y354500D01*
X719133Y342253D02*
X719378Y342008D01*
X649500Y354500D02*
X711000D01*
X719133Y342253D02*
Y346367D01*
X710518Y350775D02*
X714926Y346367D01*
X733000Y389000D02*
X733500D01*
X734000D01*
X737390Y385610D01*
Y384528D02*
Y385610D01*
X550744Y222244D02*
X571843Y243343D01*
X546000Y222244D02*
X550744D01*
X571843Y243343D02*
Y281465D01*
X714926Y342130D02*
Y346367D01*
Y342130D02*
X715047Y342008D01*
X726500Y351000D02*
X727265Y350235D01*
Y342782D02*
Y350235D01*
X720500Y351000D02*
X723709Y347791D01*
X719500Y351000D02*
X720500D01*
X575500Y283000D02*
X648500Y356000D01*
X727500D02*
X730417Y353083D01*
X648500Y356000D02*
X727500D01*
X728121Y357500D02*
X732000Y353621D01*
X647879Y357500D02*
X728121D01*
X571843Y281465D02*
X647879Y357500D01*
X727265Y342782D02*
X728039Y342008D01*
X723709D02*
Y347791D01*
X701791Y353000D02*
X710717Y344075D01*
X651000Y353000D02*
X701791D01*
X730417Y338149D02*
Y348968D01*
X730500Y349050D01*
X730417Y352032D02*
Y353083D01*
X730500Y349050D02*
Y351950D01*
X732000Y337610D02*
Y353621D01*
X730417Y352032D02*
X730500Y351950D01*
X725390Y331000D02*
X732000Y337610D01*
X687289Y269500D02*
X710869Y245920D01*
X714500D01*
X644047Y269500D02*
X687289D01*
X638988Y158012D02*
Y164500D01*
X641622Y149331D02*
Y149378D01*
X636200Y154800D02*
Y186000D01*
Y154800D02*
X641622Y149378D01*
X623999Y148516D02*
X624984D01*
X622937Y149578D02*
X623999Y148516D01*
X625000Y148500D02*
X629000D01*
X624984Y148516D02*
X625000Y148500D01*
X622937Y149578D02*
Y150500D01*
X633000Y152500D02*
Y200123D01*
X629000Y148500D02*
X633000Y152500D01*
X624500Y208623D02*
X633000Y200123D01*
X624500Y208623D02*
Y217500D01*
X620200Y168535D02*
Y190800D01*
X616500Y194500D02*
Y198500D01*
Y194500D02*
X620200Y190800D01*
X615500Y163835D02*
X620200Y168535D01*
X617031Y150500D02*
Y151000D01*
X615500Y152000D02*
Y163835D01*
X617031Y148000D02*
Y150500D01*
X615500Y152000D02*
X616500Y151000D01*
X690000Y219630D02*
X714500Y244130D01*
X690000Y193563D02*
X704205Y179358D01*
X714500Y244130D02*
Y245920D01*
X690000Y193563D02*
Y219630D01*
X579829Y242829D02*
Y284829D01*
X584500Y286500D02*
X651000Y353000D01*
X724768Y332500D02*
X730417Y338149D01*
X620000Y372500D02*
X691937D01*
X556095Y219095D02*
X579829Y242829D01*
X546000Y219095D02*
X556095D01*
X710717Y342008D02*
Y344075D01*
X613932Y283500D02*
X618126D01*
X609100Y182253D02*
Y278668D01*
X613932Y283500D01*
X611900Y179453D02*
X616642D01*
X609100Y182253D02*
X611900Y179453D01*
X618126Y283500D02*
X623626Y278000D01*
X619000Y150500D02*
X620968D01*
X406500Y232350D02*
X412350D01*
X415000Y235000D01*
Y308000D01*
X378000Y338000D02*
Y360694D01*
Y338000D02*
X412500Y303500D01*
Y235500D02*
Y303500D01*
X410925Y233925D02*
X412500Y235500D01*
X406500Y233925D02*
X410925D01*
X374000Y336500D02*
Y380000D01*
Y336500D02*
X409744Y300756D01*
Y236267D02*
Y300756D01*
X408977Y235500D02*
X409744Y236267D01*
X406500Y235500D02*
X408977D01*
X370000Y336000D02*
Y378414D01*
Y336000D02*
X406500Y299500D01*
Y237075D02*
Y299500D01*
X390000Y235500D02*
X396106D01*
X253512Y57500D02*
X261000D01*
X691937Y372500D02*
X692016Y372421D01*
X693091Y373496D01*
Y378122D01*
X693295Y378327D01*
X290000Y217000D02*
X298000Y209000D01*
X384772Y208728D02*
X396106D01*
X384500Y209000D02*
X384772Y208728D01*
X384799Y229201D02*
X396106D01*
X384500Y229500D02*
X384799Y229201D01*
X638547Y145500D02*
X639047Y146000D01*
X626752Y131000D02*
X636709D01*
X617031Y148000D02*
X619031Y146000D01*
X616500Y198500D02*
Y216248D01*
X615248Y217500D02*
X616500Y216248D01*
X615248Y217500D02*
Y220348D01*
X621626Y260500D02*
Y270748D01*
X614374Y278000D02*
X621626Y270748D01*
X390728Y210228D02*
X390803Y210303D01*
X396106D01*
X386028Y215028D02*
X396106D01*
X389500Y218500D02*
X389823Y218177D01*
X396106D01*
X389620Y191405D02*
X396106D01*
X384214Y186000D02*
X389620Y191405D01*
X748000Y202672D02*
X750500Y205172D01*
Y281900D01*
X743232Y289168D02*
X750500Y281900D01*
X714500Y289168D02*
X743232D01*
X636200Y186000D02*
X637500Y187300D01*
X644000D01*
X645024Y186276D01*
Y183000D02*
Y186276D01*
X717458Y83500D02*
X721458Y87500D01*
X612374Y250600D02*
Y260500D01*
X247488Y57500D02*
Y57736D01*
X250000Y60248D01*
Y82500D01*
X406500Y218177D02*
X410925D01*
X388500Y204000D02*
X396102D01*
X396106Y204004D01*
X384500Y202500D02*
X396035D01*
X396106Y202429D01*
X390000Y205500D02*
X394362D01*
X394441Y205579D01*
X396106D01*
X391500Y207000D02*
X391653Y207153D01*
X396106D01*
X392000Y199500D02*
X392221Y199279D01*
X396106D01*
X389055Y196055D02*
X389130Y196130D01*
X396106D01*
X411221Y199279D02*
X411295Y199205D01*
X406500Y199279D02*
X411221D01*
X623000Y117500D02*
Y140500D01*
X617500Y112000D02*
X623000Y117500D01*
X622406Y180240D02*
X624358D01*
X638988Y164500D02*
Y167288D01*
X639000Y167300D01*
Y180300D01*
X640000Y179300D01*
X666500Y181800D02*
Y194020D01*
X639000Y180300D02*
Y183000D01*
X640000Y179300D02*
X664000D01*
X666500Y181800D01*
Y194020D02*
Y199400D01*
X308000Y159000D02*
X311700Y162700D01*
Y205300D01*
X308000Y209000D02*
X311700Y205300D01*
X308000Y209000D02*
X311700Y212700D01*
Y255300D01*
X308000Y259000D02*
X311700Y255300D01*
X394468Y200854D02*
X396106D01*
D14*
X627984Y342516D02*
Y354484D01*
X506016Y342516D02*
X627984D01*
X506016D02*
Y354484D01*
X627984D01*
X612000Y220945D02*
X627748D01*
Y214055D02*
Y220945D01*
X612000Y214055D02*
X627748D01*
X612000D02*
Y220945D01*
X648685Y214087D02*
Y219913D01*
X637315Y214087D02*
Y219913D01*
X648685D01*
X637315Y214087D02*
X648685D01*
X623685Y237087D02*
Y242913D01*
X612315Y237087D02*
Y242913D01*
X623685D01*
X612315Y237087D02*
X623685D01*
X646185Y237587D02*
Y243413D01*
X634815Y237587D02*
Y243413D01*
X646185D01*
X634815Y237587D02*
X646185D01*
X689457Y388563D02*
X741622D01*
Y337579D02*
Y388563D01*
X689457Y337579D02*
X741622D01*
X689457D02*
Y388563D01*
X338384Y170516D02*
Y232484D01*
X326616D02*
X338384D01*
X326616Y170516D02*
Y232484D01*
Y170516D02*
X338384D01*
X276516Y28384D02*
X338484D01*
X276516Y16616D02*
Y28384D01*
Y16616D02*
X338484D01*
Y28384D01*
X292016Y123016D02*
Y304984D01*
Y123016D02*
X313984D01*
Y304984D01*
X292016D02*
X313984D01*
X242516Y379984D02*
X364484D01*
X242516Y368016D02*
Y379984D01*
Y368016D02*
X364484D01*
Y379984D01*
X325516Y250516D02*
X337484D01*
X325516D02*
Y292484D01*
X337484D01*
Y250516D02*
Y292484D01*
X660484Y43116D02*
Y54884D01*
X598516Y43116D02*
X660484D01*
X598516D02*
Y54884D01*
X660484D01*
X338484Y41116D02*
Y52884D01*
X276516Y41116D02*
X338484D01*
X276516D02*
Y52884D01*
X338484D01*
X636803Y108587D02*
X648173D01*
X636803Y114413D02*
X648173D01*
X636803Y108587D02*
Y114413D01*
X648173Y108587D02*
Y114413D01*
X376016Y342516D02*
Y354484D01*
X497984D01*
Y342516D02*
Y354484D01*
X376016Y342516D02*
X497984D01*
X375516Y367516D02*
Y379484D01*
X497484D01*
Y367516D02*
Y379484D01*
X375516Y367516D02*
X497484D01*
X682540Y105965D02*
X755375D01*
Y18996D02*
Y105965D01*
X682540Y18996D02*
X755375D01*
X682540D02*
Y105965D01*
X550484Y368516D02*
Y380484D01*
X508516Y368516D02*
X550484D01*
X508516D02*
Y380484D01*
X550484D01*
X615063Y148531D02*
Y155618D01*
X626874D01*
Y148531D02*
Y155618D01*
X615063Y148531D02*
X626874D01*
X632827Y275087D02*
X644197D01*
X632827Y280913D02*
X644197D01*
X632827Y275087D02*
Y280913D01*
X644197Y275087D02*
Y280913D01*
X636327Y180087D02*
X647697D01*
X636327Y185913D02*
X647697D01*
X636327Y180087D02*
Y185913D01*
X647697Y180087D02*
Y185913D01*
X636315Y161587D02*
X647685D01*
X636315Y167413D02*
X647685D01*
X636315Y161587D02*
Y167413D01*
X647685Y161587D02*
Y167413D01*
X625984Y366616D02*
Y378384D01*
X564016Y366616D02*
X625984D01*
X564016D02*
Y378384D01*
X625984D01*
X678516Y201629D02*
Y290212D01*
X703476D01*
Y295625D01*
X725524D01*
Y290212D02*
Y295625D01*
Y290212D02*
X750484D01*
Y201629D02*
Y290212D01*
X725524Y201629D02*
X750484D01*
X725524Y196215D02*
Y201629D01*
X703476Y196215D02*
X725524D01*
X703476D02*
Y201629D01*
X678516D02*
X703476D01*
X284484Y343016D02*
Y354984D01*
X242516Y343016D02*
X284484D01*
X242516D02*
Y354984D01*
X284484D01*
X255984Y18016D02*
Y39984D01*
X244016Y18016D02*
X255984D01*
X244016D02*
Y39984D01*
X255984D01*
X588484Y44016D02*
Y55984D01*
X546516Y44016D02*
X588484D01*
X546516D02*
Y55984D01*
X588484D01*
X243116Y327984D02*
X254884D01*
Y266016D02*
Y327984D01*
X243116Y266016D02*
X254884D01*
X243116D02*
Y327984D01*
X614252Y108555D02*
Y115445D01*
Y108555D02*
X630000D01*
Y115445D01*
X614252D02*
X630000D01*
X473484Y43516D02*
Y55484D01*
X351516Y43516D02*
X473484D01*
X351516D02*
Y55484D01*
X473484D01*
X700268Y157705D02*
Y183295D01*
Y157705D02*
X733732D01*
Y183295D01*
X700268D02*
X733732D01*
X660984Y18116D02*
Y29884D01*
X599016Y18116D02*
X660984D01*
X599016D02*
Y29884D01*
X660984D01*
X614252Y127555D02*
Y134445D01*
Y127555D02*
X630000D01*
Y134445D01*
X614252D02*
X630000D01*
X613177Y183390D02*
X627823D01*
Y169610D02*
Y183390D01*
X613177Y169610D02*
X627823D01*
X613177D02*
Y183390D01*
X541984Y44116D02*
Y55884D01*
X480016Y44116D02*
X541984D01*
X480016D02*
Y55884D01*
X541984D01*
X609126Y257055D02*
Y263945D01*
Y257055D02*
X624874D01*
Y263945D01*
X609126D02*
X624874D01*
X658469Y155043D02*
Y197957D01*
X674532D01*
Y155043D02*
Y197957D01*
X658469Y155043D02*
X674532D01*
X657469Y213543D02*
Y256457D01*
X673532D01*
Y213543D02*
Y256457D01*
X657469Y213543D02*
X673532D01*
X478016Y18016D02*
Y29984D01*
X589984D01*
Y18016D02*
Y29984D01*
X478016Y18016D02*
X589984D01*
X611126Y274555D02*
Y281445D01*
Y274555D02*
X626874D01*
Y281445D01*
X611126D02*
X626874D01*
X473484Y17516D02*
Y29484D01*
X351516Y17516D02*
X473484D01*
X351516D02*
Y29484D01*
X473484D01*
X244016Y76516D02*
X255984D01*
X244016D02*
Y118484D01*
X255984D01*
Y76516D02*
Y118484D01*
X244815Y54587D02*
X256185D01*
X244815Y60413D02*
X256185D01*
X244815Y54587D02*
Y60413D01*
X256185Y54587D02*
Y60413D01*
X362984Y342616D02*
Y354384D01*
X301016Y342616D02*
X362984D01*
X301016D02*
Y354384D01*
X362984D01*
X244016Y133016D02*
X255984D01*
X244016D02*
Y254984D01*
X255984D01*
Y133016D02*
Y254984D01*
X326516Y132516D02*
Y154484D01*
X338484D01*
Y132516D02*
Y154484D01*
X326516Y132516D02*
X338484D01*
D15*
X624500Y217500D02*
D03*
X615248D02*
D03*
X617500Y112000D02*
D03*
X626752D02*
D03*
X617500Y131000D02*
D03*
X626752D02*
D03*
X612374Y260500D02*
D03*
X621626D02*
D03*
X614374Y278000D02*
D03*
X623626D02*
D03*
D16*
X646012Y217000D02*
D03*
X639988D02*
D03*
X621012Y240000D02*
D03*
X614988D02*
D03*
X643512Y240500D02*
D03*
X637488D02*
D03*
X639476Y111500D02*
D03*
X645500D02*
D03*
X635500Y278000D02*
D03*
X641524D02*
D03*
X639000Y183000D02*
D03*
X645024D02*
D03*
X638988Y164500D02*
D03*
X645012D02*
D03*
X247488Y57500D02*
D03*
X253512D02*
D03*
D17*
X396106Y189831D02*
D03*
X406500Y175657D02*
D03*
X396106D02*
D03*
X406500Y177232D02*
D03*
X396106D02*
D03*
X406500Y178807D02*
D03*
X396106D02*
D03*
X406500Y180382D02*
D03*
X396106D02*
D03*
X406500Y181957D02*
D03*
X396106D02*
D03*
X406500Y183531D02*
D03*
X396106D02*
D03*
X406500Y185106D02*
D03*
X396106D02*
D03*
X406500Y186681D02*
D03*
X396106D02*
D03*
X406500Y188256D02*
D03*
X396106D02*
D03*
X406500Y189831D02*
D03*
Y191405D02*
D03*
X396106D02*
D03*
X406500Y192980D02*
D03*
X396106D02*
D03*
X406500Y194555D02*
D03*
X396106D02*
D03*
X406500Y196130D02*
D03*
X396106D02*
D03*
X406500Y197705D02*
D03*
X396106D02*
D03*
X406500Y199279D02*
D03*
X396106D02*
D03*
X406500Y200854D02*
D03*
X396106D02*
D03*
X406500Y202429D02*
D03*
X396106D02*
D03*
X406500Y204004D02*
D03*
X396106D02*
D03*
X406500Y205579D02*
D03*
X396106D02*
D03*
X406500Y207153D02*
D03*
X396106D02*
D03*
X406500Y208728D02*
D03*
X396106D02*
D03*
X406500Y210303D02*
D03*
X396106D02*
D03*
X406500Y211878D02*
D03*
X396106D02*
D03*
X406500Y213453D02*
D03*
X396106D02*
D03*
X406500Y215028D02*
D03*
X396106D02*
D03*
X406500Y216602D02*
D03*
X396106D02*
D03*
X406500Y218177D02*
D03*
X396106D02*
D03*
X406500Y219752D02*
D03*
X396106D02*
D03*
X406500Y221327D02*
D03*
X396106D02*
D03*
X406500Y222902D02*
D03*
X396106D02*
D03*
X406500Y224476D02*
D03*
X396106D02*
D03*
X406500Y226051D02*
D03*
X396106D02*
D03*
X406500Y227626D02*
D03*
X396106D02*
D03*
X406500Y229201D02*
D03*
X396106D02*
D03*
X406500Y230776D02*
D03*
X396106D02*
D03*
X406500Y232350D02*
D03*
X396106D02*
D03*
X406500Y233925D02*
D03*
X396106D02*
D03*
X406500Y235500D02*
D03*
X396106D02*
D03*
X406500Y237075D02*
D03*
X396106D02*
D03*
X546000Y175000D02*
D03*
X535606D02*
D03*
X546000Y176575D02*
D03*
X535606D02*
D03*
X546000Y178150D02*
D03*
X535606D02*
D03*
X546000Y179724D02*
D03*
X535606D02*
D03*
X546000Y181299D02*
D03*
X535606D02*
D03*
X546000Y182874D02*
D03*
X535606D02*
D03*
X546000Y184449D02*
D03*
X535606D02*
D03*
X546000Y186024D02*
D03*
X535606D02*
D03*
X546000Y187598D02*
D03*
X535606D02*
D03*
X546000Y189173D02*
D03*
X535606D02*
D03*
X546000Y190748D02*
D03*
X535606D02*
D03*
X546000Y192323D02*
D03*
X535606D02*
D03*
X546000Y193898D02*
D03*
X535606D02*
D03*
X546000Y195472D02*
D03*
X535606D02*
D03*
X546000Y197047D02*
D03*
X535606D02*
D03*
X546000Y198622D02*
D03*
X535606D02*
D03*
X546000Y200197D02*
D03*
X535606D02*
D03*
X546000Y201772D02*
D03*
X535606D02*
D03*
X546000Y203346D02*
D03*
X535606D02*
D03*
X546000Y204921D02*
D03*
X535606D02*
D03*
X546000Y206496D02*
D03*
X535606D02*
D03*
X546000Y208071D02*
D03*
X535606D02*
D03*
X546000Y209646D02*
D03*
X535606D02*
D03*
X546000Y211221D02*
D03*
X535606D02*
D03*
X546000Y212795D02*
D03*
X535606D02*
D03*
X546000Y214370D02*
D03*
X535606D02*
D03*
X546000Y215945D02*
D03*
X535606D02*
D03*
X546000Y217520D02*
D03*
X535606D02*
D03*
X546000Y219095D02*
D03*
X535606D02*
D03*
X546000Y220669D02*
D03*
X535606D02*
D03*
X546000Y222244D02*
D03*
X535606D02*
D03*
X546000Y223819D02*
D03*
X535606D02*
D03*
X546000Y225394D02*
D03*
X535606D02*
D03*
X546000Y226969D02*
D03*
X535606D02*
D03*
X546000Y228543D02*
D03*
X535606D02*
D03*
X546000Y230118D02*
D03*
X535606D02*
D03*
X546000Y231693D02*
D03*
X535606D02*
D03*
X546000Y233268D02*
D03*
X535606D02*
D03*
X546000Y234843D02*
D03*
X535606D02*
D03*
X546000Y236417D02*
D03*
X535606D02*
D03*
D18*
X692016Y372421D02*
D03*
D19*
X738965Y374980D02*
D03*
D20*
X693000Y342500D02*
D03*
D21*
X737685D02*
D03*
D22*
X693295Y378327D02*
D03*
D23*
X737390Y384528D02*
D03*
D24*
X697724Y342008D02*
D03*
X702055D02*
D03*
X706386D02*
D03*
X710717D02*
D03*
X715047D02*
D03*
X719378D02*
D03*
X723709D02*
D03*
X728039D02*
D03*
D25*
X636547Y261000D02*
D03*
X642453D02*
D03*
X639047Y146000D02*
D03*
X644953D02*
D03*
X638094Y131000D02*
D03*
X644000D02*
D03*
X616500Y198500D02*
D03*
X622406D02*
D03*
X639547Y199500D02*
D03*
X645453D02*
D03*
D26*
X617031Y150500D02*
D03*
X619000D02*
D03*
X622937D02*
D03*
X624905D02*
D03*
Y153650D02*
D03*
X622937D02*
D03*
X619000D02*
D03*
X617031D02*
D03*
D27*
X620968Y150500D02*
D03*
Y153650D02*
D03*
D28*
X714500Y202672D02*
D03*
Y289168D02*
D03*
D29*
Y245920D02*
D03*
D30*
X616642Y179453D02*
D03*
D31*
Y172760D02*
D03*
X624358D02*
D03*
Y180240D02*
D03*
D32*
X666500Y158980D02*
D03*
Y194020D02*
D03*
X665500Y217480D02*
D03*
Y252520D02*
D03*
D65*
X622000Y348500D02*
D03*
X282500Y22500D02*
D03*
X358500Y374000D02*
D03*
X604500Y49000D02*
D03*
X282500Y47000D02*
D03*
X382000Y348500D02*
D03*
X381500Y373500D02*
D03*
X544500Y374500D02*
D03*
X570000Y372500D02*
D03*
X278500Y349000D02*
D03*
X582500Y50000D02*
D03*
X467500Y49500D02*
D03*
X605000Y24000D02*
D03*
X486000Y50000D02*
D03*
X584000Y24000D02*
D03*
X467500Y23500D02*
D03*
X307000Y348500D02*
D03*
D66*
X612000D02*
D03*
X602000D02*
D03*
X592000D02*
D03*
X582000D02*
D03*
X572000D02*
D03*
X562000D02*
D03*
X552000D02*
D03*
X542000D02*
D03*
X532000D02*
D03*
X522000D02*
D03*
X512000D02*
D03*
X332500Y176500D02*
D03*
Y186500D02*
D03*
Y196500D02*
D03*
Y206500D02*
D03*
Y216500D02*
D03*
Y22500D02*
D03*
X322500D02*
D03*
X312500D02*
D03*
X302500D02*
D03*
X292500D02*
D03*
X308000Y129000D02*
D03*
X298000D02*
D03*
X308000Y139000D02*
D03*
X298000D02*
D03*
X308000Y149000D02*
D03*
X298000D02*
D03*
X308000Y159000D02*
D03*
X298000D02*
D03*
X308000Y169000D02*
D03*
X298000D02*
D03*
X308000Y179000D02*
D03*
X298000D02*
D03*
X308000Y189000D02*
D03*
X298000D02*
D03*
X308000Y199000D02*
D03*
X298000D02*
D03*
X308000Y209000D02*
D03*
X298000D02*
D03*
X308000Y219000D02*
D03*
X298000D02*
D03*
X308000Y229000D02*
D03*
X298000D02*
D03*
X308000Y239000D02*
D03*
X298000D02*
D03*
X308000Y249000D02*
D03*
X298000D02*
D03*
X308000Y259000D02*
D03*
X298000D02*
D03*
X308000Y269000D02*
D03*
X298000D02*
D03*
X308000Y279000D02*
D03*
X298000D02*
D03*
X308000Y289000D02*
D03*
X298000D02*
D03*
X308000Y299000D02*
D03*
X248500Y374000D02*
D03*
X258500D02*
D03*
X268500D02*
D03*
X278500D02*
D03*
X288500D02*
D03*
X298500D02*
D03*
X308500D02*
D03*
X318500D02*
D03*
X328500D02*
D03*
X338500D02*
D03*
X348500D02*
D03*
X331500Y266500D02*
D03*
Y276500D02*
D03*
Y286500D02*
D03*
X614500Y49000D02*
D03*
X624500D02*
D03*
X634500D02*
D03*
X644500D02*
D03*
X654500D02*
D03*
X292500Y47000D02*
D03*
X302500D02*
D03*
X312500D02*
D03*
X322500D02*
D03*
X332500D02*
D03*
X392000Y348500D02*
D03*
X402000D02*
D03*
X412000D02*
D03*
X422000D02*
D03*
X432000D02*
D03*
X442000D02*
D03*
X452000D02*
D03*
X462000D02*
D03*
X472000D02*
D03*
X482000D02*
D03*
X492000D02*
D03*
X391500Y373500D02*
D03*
X401500D02*
D03*
X411500D02*
D03*
X421500D02*
D03*
X431500D02*
D03*
X441500D02*
D03*
X451500D02*
D03*
X461500D02*
D03*
X471500D02*
D03*
X481500D02*
D03*
X491500D02*
D03*
X534500Y374500D02*
D03*
X524500D02*
D03*
X514500D02*
D03*
X580000Y372500D02*
D03*
X590000D02*
D03*
X600000D02*
D03*
X610000D02*
D03*
X620000D02*
D03*
X268500Y349000D02*
D03*
X258500D02*
D03*
X248500D02*
D03*
X572500Y50000D02*
D03*
X562500D02*
D03*
X552500D02*
D03*
X249000Y282000D02*
D03*
Y292000D02*
D03*
Y302000D02*
D03*
Y312000D02*
D03*
Y322000D02*
D03*
X457500Y49500D02*
D03*
X447500D02*
D03*
X437500D02*
D03*
X427500D02*
D03*
X417500D02*
D03*
X407500D02*
D03*
X397500D02*
D03*
X387500D02*
D03*
X377500D02*
D03*
X367500D02*
D03*
X357500D02*
D03*
X615000Y24000D02*
D03*
X625000D02*
D03*
X635000D02*
D03*
X645000D02*
D03*
X655000D02*
D03*
X496000Y50000D02*
D03*
X506000D02*
D03*
X516000D02*
D03*
X526000D02*
D03*
X536000D02*
D03*
X574000Y24000D02*
D03*
X564000D02*
D03*
X554000D02*
D03*
X544000D02*
D03*
X534000D02*
D03*
X524000D02*
D03*
X514000D02*
D03*
X504000D02*
D03*
X494000D02*
D03*
X484000D02*
D03*
X457500Y23500D02*
D03*
X447500D02*
D03*
X437500D02*
D03*
X427500D02*
D03*
X417500D02*
D03*
X407500D02*
D03*
X397500D02*
D03*
X387500D02*
D03*
X377500D02*
D03*
X367500D02*
D03*
X357500D02*
D03*
X250000Y92500D02*
D03*
Y102500D02*
D03*
Y112500D02*
D03*
X317000Y348500D02*
D03*
X327000D02*
D03*
X337000D02*
D03*
X347000D02*
D03*
X357000D02*
D03*
X250000Y149000D02*
D03*
Y159000D02*
D03*
Y169000D02*
D03*
Y179000D02*
D03*
Y189000D02*
D03*
Y199000D02*
D03*
Y209000D02*
D03*
Y219000D02*
D03*
Y229000D02*
D03*
Y239000D02*
D03*
Y249000D02*
D03*
D67*
X332500Y226500D02*
D03*
X298000Y299000D02*
D03*
X331500Y256500D02*
D03*
X249000Y272000D02*
D03*
X250000Y82500D02*
D03*
Y139000D02*
D03*
D68*
X741458Y62500D02*
D03*
X696458D02*
D03*
D69*
X688466Y74508D02*
D03*
X749450D02*
D03*
D70*
X696458Y97500D02*
D03*
D71*
X706458D02*
D03*
X716458D02*
D03*
X726458D02*
D03*
X701458Y87500D02*
D03*
X711458D02*
D03*
X721458D02*
D03*
X731458D02*
D03*
X736458Y97500D02*
D03*
X741458Y87500D02*
D03*
D72*
X250000Y34000D02*
D03*
X332500Y138500D02*
D03*
D73*
X250000Y24000D02*
D03*
X332500Y148500D02*
D03*
D74*
X704205Y161642D02*
D03*
X729795D02*
D03*
Y179358D02*
D03*
D75*
X704205D02*
D03*
D76*
X235000Y391500D02*
D03*
Y9500D02*
D03*
X757000Y10500D02*
D03*
X757500Y391000D02*
D03*
D77*
X418500Y229500D02*
D03*
X386000Y337000D02*
D03*
X530000Y183000D02*
D03*
X651998Y132502D02*
D03*
X644000Y126000D02*
D03*
X514500Y184000D02*
D03*
X619000Y160000D02*
D03*
X551061Y185939D02*
D03*
X526500Y196500D02*
D03*
X529761Y222559D02*
D03*
X529061Y219561D02*
D03*
X527105Y217274D02*
D03*
X530500Y214500D02*
D03*
X528500Y212500D02*
D03*
X532000Y216000D02*
D03*
X531183Y220744D02*
D03*
X531244Y223744D02*
D03*
X531500Y229000D02*
D03*
X531342Y211146D02*
D03*
X526447Y200947D02*
D03*
X526500Y199000D02*
D03*
X526474Y203042D02*
D03*
X526500Y205000D02*
D03*
X627500Y199000D02*
D03*
X630500Y170500D02*
D03*
X627000Y168000D02*
D03*
X621939Y165939D02*
D03*
X529500Y234500D02*
D03*
Y228000D02*
D03*
Y224500D02*
D03*
Y230000D02*
D03*
X528000Y206500D02*
D03*
Y209500D02*
D03*
X550189Y223811D02*
D03*
X550000Y226000D02*
D03*
X559689Y217311D02*
D03*
X554000Y209500D02*
D03*
X555500Y208000D02*
D03*
X551500Y211071D02*
D03*
Y196000D02*
D03*
X551346Y203346D02*
D03*
X551000Y190500D02*
D03*
X616500Y221500D02*
D03*
X551500Y206500D02*
D03*
X530748Y190748D02*
D03*
X531000Y208000D02*
D03*
X345000Y387000D02*
D03*
X696500Y202500D02*
D03*
X410382Y180382D02*
D03*
X413811Y198811D02*
D03*
X406500Y130500D02*
D03*
X406939Y133561D02*
D03*
X388500Y234000D02*
D03*
X391500Y237000D02*
D03*
X615500Y244000D02*
D03*
X415656Y196399D02*
D03*
X418000Y194500D02*
D03*
X390630Y197630D02*
D03*
X389000Y211500D02*
D03*
X635000Y201500D02*
D03*
X648500Y151500D02*
D03*
X610500Y155000D02*
D03*
X608800Y139700D02*
D03*
X387500Y213500D02*
D03*
X375000Y201000D02*
D03*
X388028Y216528D02*
D03*
X630000Y101500D02*
D03*
X386000Y215000D02*
D03*
X660000Y109500D02*
D03*
X384500Y193000D02*
D03*
X374500Y186000D02*
D03*
X388000Y194500D02*
D03*
X386500Y232500D02*
D03*
X390000Y235500D02*
D03*
X391500Y220000D02*
D03*
X625000Y239000D02*
D03*
X635500Y217000D02*
D03*
X653000Y217500D02*
D03*
X665500Y200400D02*
D03*
X632500Y240500D02*
D03*
X649500D02*
D03*
X624800Y126700D02*
D03*
X413000Y205504D02*
D03*
X356000Y173000D02*
D03*
Y171500D02*
D03*
X411000Y221500D02*
D03*
X550000Y228500D02*
D03*
X420000Y193000D02*
D03*
X619000Y149000D02*
D03*
X425000Y208500D02*
D03*
X418500Y220000D02*
D03*
X412500Y216528D02*
D03*
X418500Y200500D02*
D03*
X417000Y202500D02*
D03*
X415500Y204000D02*
D03*
X411000Y207228D02*
D03*
Y210228D02*
D03*
X414500Y213500D02*
D03*
X412500Y211953D02*
D03*
X416500Y215000D02*
D03*
X554000Y205000D02*
D03*
X561000Y207500D02*
D03*
X554686Y173936D02*
D03*
X554000Y175500D02*
D03*
Y182500D02*
D03*
Y181000D02*
D03*
X551000Y184087D02*
D03*
Y178000D02*
D03*
Y180000D02*
D03*
X531000Y176500D02*
D03*
Y186000D02*
D03*
X553907Y202907D02*
D03*
X551272Y200272D02*
D03*
X733000Y389000D02*
D03*
X378000Y360694D02*
D03*
X394061Y75439D02*
D03*
Y76939D02*
D03*
X403000Y100000D02*
D03*
Y101500D02*
D03*
X397000Y159500D02*
D03*
Y161000D02*
D03*
X261000Y57500D02*
D03*
X384500Y209000D02*
D03*
Y229500D02*
D03*
X390728Y210228D02*
D03*
X389500Y218500D02*
D03*
X612374Y250600D02*
D03*
X410925Y218177D02*
D03*
X388500Y204000D02*
D03*
X384500Y202500D02*
D03*
X390000Y205500D02*
D03*
X391500Y207000D02*
D03*
X392000Y199500D02*
D03*
X389055Y196055D02*
D03*
X411295Y199205D02*
D03*
X623000Y140500D02*
D03*
D78*
X635250Y294250D02*
D03*
X709775Y350775D02*
D03*
X726500Y351000D02*
D03*
X719500D02*
D03*
M02*
